<?xml version="1.0" encoding="utf-8"?>
<!-- Generator: Adobe Illustrator 22.0.0, SVG Export Plug-In . SVG Version: 6.00 Build 0)  -->
<svg version="1.1" id="Capa_1" xmlns="http://www.w3.org/2000/svg" xmlns:xlink="http://www.w3.org/1999/xlink" x="0px" y="0px"
	 viewBox="0 0 589.6 518" style="enable-background:new 0 0 589.6 518;" xml:space="preserve">
<style type="text/css">
	.st0{fill:#B7E0ED;}
	.st1{fill:#B8DAFF;}
	.st2{fill:#FFFFFF;}
	.st3{fill:#A9AAAA;}
	.st4{opacity:0.1;}
	.st5{fill:#4D4D66;}
	.st6{fill:#2F2F41;}
	.st7{fill:#ED9772;}
	.st8{fill:url(#SVGID_1_);}
	.st9{opacity:0.5;}
	.st10{fill:#48A035;}
	.st11{fill:#146826;}
	.st12{fill:#AA1B18;}
	.st13{fill:#FF5652;}
	.st14{fill:#FFB888;}
	.st15{opacity:0.2;}
	.st16{fill:#3D1C21;}
	.st17{fill:#C97D63;}
	.st18{opacity:0.3;}
	.st19{fill:#A21A14;}
	.st20{fill:#F67C7B;}
	.st21{fill:#FCFDFD;}
	.st22{fill:url(#SVGID_2_);}
	.st23{fill:#17750A;}
	.st24{fill:#E2CDBF;}
	.st25{opacity:0.6;}
	.st26{fill:#F9F9F9;}
	.st27{fill:#BC9471;}
	.st28{fill:#F9E4D4;}
	.st29{fill:#D1BDB0;}
	.st30{fill:#D99865;}
	.st31{fill:#AF9975;}
	.st32{fill:#EDB381;}
	.st33{fill:#F33E33;}
	.st34{fill:#4C99FF;}
	.st35{fill:#D7DEF2;}
	.st36{fill:#FEEB3F;}
	.st37{fill:#42BB79;}
	.st38{fill:#F8F9FA;}
	.st39{fill:url(#SVGID_3_);}
	.st40{fill:#BDC3D1;}
</style>
<g>
	<g>
		<path class="st0" d="M423.6,496.8C503.8,452.4,558,366.9,558,268.7C558,124.7,441.4,8,297.4,8S36.8,124.7,36.8,268.6
			c0,98.2,54.2,183.6,134.4,228.1L423.6,496.8L423.6,496.8z"/>
	</g>
</g>
<g>
	<g>
		<path d="M428.6,52.2v426.4c0,16.1-13,29.1-29.1,29.1H195.3c-16.1,0-29.1-13-29.1-29.1V52.2c0-6,1.8-11.7,5-16.3
			c5.2-7.7,14.1-12.8,24.1-12.8h204.2C415.6,23.1,428.6,36.1,428.6,52.2z"/>
	</g>
	<g>
		<path class="st1" d="M415.1,53.9V477c0,8.5-6.9,15.4-15.4,15.4H195c-8.5,0-15.4-6.9-15.4-15.4V53.9c0-3.7,1.2-7.1,3.5-9.7
			c2.8-3.5,7.1-5.7,12-5.7h204.7c6.8,0,12.6,4.5,14.6,10.7C414.9,50.6,415.1,52.2,415.1,53.9z"/>
	</g>
	<g>
		<path class="st2" d="M415.1,53.9V79l-235.4,4V70.5l234.7-21.3C414.9,50.6,415.1,52.2,415.1,53.9z"/>
	</g>
	<g>
		<polygon class="st2" points="415.1,118.3 415.1,144.6 179.7,180 179.7,120.5 		"/>
	</g>
	<g>
		<path class="st3" d="M415.1,265.9V477c0,8.5-6.9,15.4-15.4,15.4H195c-8.5,0-15.4-6.9-15.4-15.4V199.2h14.8v23.7H219v-96.3h69.5
			V193h58.1v-23H400v96H415.1z"/>
	</g>
	<g class="st4">
		<g>
			<path d="M428.6,129.2v97.5h-37.2c-6.4,0-11.6-5.2-11.6-11.6v-74.4c0-6.4,5.2-11.6,11.6-11.6L428.6,129.2L428.6,129.2z"/>
		</g>
	</g>
	<g class="st4">
		<g>
			<path d="M189.8,84.1v74.3c0,6.4-5.2,11.6-11.6,11.6h-12.1V72.4h12.1c4,0,7.5,2.1,9.6,5.1C189.1,79.4,189.8,81.6,189.8,84.1z"/>
		</g>
	</g>
	<g>
		<path d="M256.5,56.6h81.7c7.9,0,15-4.6,18.3-11.7l6.6-14.3H231.6l6.6,14.3c1,2.3,2.5,4.3,4.2,6C246.1,54.5,251.2,56.6,256.5,56.6z
			"/>
	</g>
	<g>
		<g>
			<path class="st2" d="M318.9,44.7h-50.6c-0.8,0-1.4-0.7-1.4-1.4l0,0c0-0.8,0.7-1.4,1.4-1.4h50.6c0.8,0,1.4,0.7,1.4,1.4l0,0
				c0,0.4-0.1,0.7-0.4,1C319.6,44.5,319.3,44.7,318.9,44.7z"/>
		</g>
		<g>
			<ellipse class="st2" cx="330" cy="43.3" rx="2.9" ry="2.9"/>
		</g>
	</g>
</g>
<g>
	<path class="st5" d="M533.1,419.1c-0.4,0.2-0.8,0.5-1.2,0.7c-1.6,0.9-3.3,1.6-5,2.1c-2.9,0.9-6.1,1.1-9.1,0.4
		c-4.3-1.1-7.8-3.8-12.3-4c-1.8-0.1-3.7,0-5.4-0.4c-1.8-0.4-3.5-1.2-4.5-2.8c-4-6.6,11.1-6.5,14.4-6.8c4.6-0.4,9.3-1,13.8-1.9
		c2.8-0.6,5.5-1.3,8.2-2.3c0-0.1-0.1-0.4-0.1-0.5c-0.8-4.4-1.9-8.8-2.8-13.2c0-0.1-0.1-0.4-0.1-0.5c-0.4-2.1-0.8-4.3-1-6.4
		c-0.3-2.8-0.4-5.7-0.1-8.5c0.4-4.3,1.6-8.5,4-12.1c-1.9,0.6-3.8,1-5.7,1.3c-0.3,0.1-0.6,0.1-1,0.1c-3.3,0.5-6.6,0.7-9.9,0.6
		c-0.2,0-0.4,0-0.6,0c-3.4-0.3-6.6-0.6-10-0.9c-1.6,2.1-3.1,4.3-4.6,6.6c-2,3.1-3.8,6.2-5.9,9.3c-4.1,6.1-9.2,11.9-15.9,14.7
		c-1.8,0.7-4.1,1.2-5.7,0.1c-1.8-1.2-2.1-4-1.2-6c1-2,2.7-3.5,4.5-4.8c4.5-3.6,9-7.2,12.7-11.7c1.8-2.2,3.4-4.7,4.5-7.3
		c0.4-1,0.8-1.9,1.1-2.9c-2.1-0.4-4.2-0.8-6.2-1.2c-0.3-0.1-0.7-0.1-1-0.1c-3.2-0.6-6.5-1.2-9.6-1.7c-0.2,0-0.4-0.1-0.6-0.1
		c-0.1,0-0.1,0-0.2,0c-0.8-0.1-1.7-0.2-2.5-0.4c-0.3,0-0.6-0.1-0.9-0.1c-3.9-0.4-7.9-0.7-11.8-0.8c0,1.1-0.1,2.2-0.1,3.4
		c-0.7,12.1-5.1,23.8-12.4,33.4c-0.9,1.2-2.1,2.4-3.4,3.1c-0.3,0.1-0.6,0.3-0.8,0.4c-0.2,0.1-0.4,0.1-0.6,0.2
		c-0.9,0.2-1.7,0.2-2.6-0.2c-1.9-0.9-2.6-3.4-2.1-5.5c0.4-2.1,1.8-3.8,2.9-5.6c0.2-0.4,0.4-0.7,0.7-1c4.4-7.5,6.2-16.5,5.3-25.1
		c-0.1-0.9-0.2-1.8-0.4-2.6c-1.9,0.1-3.9,0.4-5.8,0.6c-0.3,0-0.5,0.1-0.8,0.1l0,0c-0.3,0.1-0.5,0.1-0.8,0.1
		c-5.5,0.7-10.9,1.8-16.2,3.2c-0.4,0.1-0.7,0.1-1,0.3c-1.1,0.3-2.1,0.6-3.2,0.9c-0.2,0.1-0.5,0.1-0.7,0.2c-1.8,0.6-3.7,1.2-5.5,1.8
		c0.3,3.9,1.1,7.7,2.1,11.6c1.2,4.6,2.6,9,3.7,13.4c1,3.5,1.8,7.2,1,10.7c-0.5,2.4-2.1,4.6-4,5.7c-0.1,0.1-0.3,0.1-0.4,0.2
		c-0.1,0-0.1,0.1-0.1,0.1c-0.1,0.1-0.3,0.1-0.4,0.2c-0.8,0.3-1.6,0.4-2.5,0.4c-2.9-0.1-5.3-2.4-6.5-4.9c-1.2-2.6-1.5-5.5-1.7-8.4
		c-0.1-2.6-0.3-5.1-0.4-7.6c-0.2-6-0.4-11.9-0.3-17.9c-1,0.4-1.9,0.8-2.8,1.2c-0.4,0.1-0.8,0.4-1.2,0.6c-7.6,3.6-14.8,7.9-21.5,12.9
		c-1.3,1-2.6,2.1-4,3.1c1.2,2.2,2.8,4.2,4.6,5.9c0.2,0.2,0.4,0.4,0.7,0.7c3.7,3.5,8.1,6.4,11.3,10.4c2.2,2.7,3.9,6.5,2.5,9.8
		c-1.7,4-7.3,4.9-11.2,2.9c-3.8-2-6.2-6-8.1-9.8c-0.4-0.7-0.7-1.5-1-2.3c-1.8-4-3.3-8.1-4.6-12.3c-2,2.1-3.8,4.2-5.4,6.5
		c-0.4,0.5-0.7,1-1,1.5c-0.1,0.2-0.3,0.5-0.4,0.7c-0.1,0.3-0.4,0.6-0.5,0.9c-0.7,1.3-1.4,2.7-2,4.2c-0.3,0.7-0.6,1.5-0.8,2.3
		c-5,16.6-13.6,34.2-7.9,51.9c3,9.3,9.7,17.1,17.4,23.1c5.9,4.5,12.3,8,19,11.3c5.9,2.9,9.1,7.9,14.8,11c3.8,2.1,8,3.3,12.3,4.1
		c0.5,0.1,1,0.2,1.6,0.3c1,0.1,1.9,0.3,2.9,0.4c0.4,0.1,0.7,0.1,1.1,0.1c0.2,0,0.5,0.1,0.7,0.1c5.6,0.7,11.2,0.8,16.8,0.6
		c0.5,0,1-0.1,1.5-0.1c1.1-0.1,2.3-0.1,3.4-0.2c-0.3-1.6-0.8-3.2-1.4-4.7c-1.5-4-3.9-7.8-6.4-11.2c-5.4-7.3-12.1-14.4-14.3-23.3
		c-0.7-2.6-0.8-5.8,1.2-7.6c0.5-0.5,1.2-0.8,1.8-1c0.4-0.1,0.7-0.1,1-0.1c1.2-0.1,2.4,0.1,3.5,0.7c2,1,3.5,2.7,4.8,4.5
		c7.6,10.2,11.3,23.1,18.6,33.3c1.8,2.5,3.7,4.8,6,6.9c0.1,0.1,0.2,0.2,0.3,0.3c1.2-0.3,2.4-0.6,3.5-0.9c0.4-0.1,0.8-0.2,1.2-0.3
		c2.5-0.7,4.9-1.5,7.3-2.3c0.3-0.1,0.6-0.2,0.9-0.4c1.9-0.7,3.8-1.5,5.7-2.3c0.4-0.1,0.9-0.4,1.2-0.6c2.9-1.2,5.7-2.7,8.4-4.3
		c-5-0.1-9.8-0.9-14.6-2.3c-0.1-0.1-0.3-0.1-0.4-0.1c-10.1-3.2-19.5-10.7-22.8-20.7c-0.6-1.8-1-3.9-0.6-5.8c0.4-1.9,1.8-3.7,3.7-4
		c2.4-0.4,4.5,1.2,6.2,2.9c7.1,6.6,13.7,14,21.9,19.1c0.4,0.3,0.9,0.5,1.3,0.8c2.6,1.5,5.2,2.7,8,3.7c1,0.4,2,0.7,2.9,0.9
		c0.8,0.2,1.6,0.4,2.4,0.6c3.3-2.3,6.4-4.8,9.4-7.5c0.8-0.7,1.6-1.5,2.4-2.2c0.2-0.2,0.4-0.4,0.6-0.6c0.4-0.4,0.9-0.9,1.3-1.4
		c0.2-0.2,0.4-0.4,0.6-0.6c2.5-2.6,4.8-5.5,7.1-8.5c-3.6,0.8-7.3,1-10.9,0.5c-6-0.7-11.8-2.9-16.5-6.6c-1.6-1.3-3.2-2.8-4-4.7
		c-0.8-1.9-0.8-4.3,0.6-6c0.1-0.1,0.1-0.1,0.2-0.3c0.2-0.2,0.4-0.4,0.7-0.5c1.2-0.9,3-1.2,4.6-1c2,0.2,3.8,1.1,5.7,1.9
		c0.8,0.4,1.7,0.7,2.5,1c7.8,3.1,16.2,5.1,24.5,4.3c1-1.8,1.9-3.7,2.8-5.7c0.1-0.2,0.2-0.5,0.3-0.7c1.5-3.3,2.7-6.7,3.8-10.1
		c0.1-0.2,0.1-0.5,0.2-0.7c0.4-1.5,0.9-3,1.2-4.6c0.1-0.3,0.1-0.5,0.2-0.8c0.8-3.4,1.4-6.8,1.8-10.3c0-0.3,0.1-0.5,0.1-0.8
		C532.8,424.1,533,421.6,533.1,419.1z M414.6,436.6c-4.5,6-5.6-7.8-5.4-10.4c0.1-1,0.3-2.1,1.1-2.6c0.8-0.6,2.1-0.4,2.9,0.1
		c0.8,0.6,1.3,1.5,1.7,2.5c0.8,2.1,1.1,4.3,1,6.6C415.7,434.1,415.4,435.5,414.6,436.6z M429.2,427.9c-2.5-1.3-3-7.4-2.7-9.8
		c0.1-1.1,0.6-2.5,1.7-2.6c0.5-0.1,1,0.1,1.5,0.4c2.5,1.2,4.5,3.7,4.6,6.5C434.3,424.4,431.9,429.3,429.2,427.9z M457.9,446.1
		c-1,2.3-3,3.7-5.1,2c-4.4-3.6-1.9-16.2,3.7-10.3C458.5,439.9,459.1,443.4,457.9,446.1z M464.3,413.9L464.3,413.9
		c-0.2,0.2-0.4,0.5-0.6,0.7c-1,1-2.1,1.9-3.4,2.6c-0.7,0.4-1.4,0.6-2.1,0.6c-0.1,0-0.3,0-0.4-0.1c-0.1,0-0.1,0-0.2-0.1
		c-0.2-0.1-0.4-0.1-0.6-0.3l0,0c-0.7-0.6-0.6-1.9-0.1-3.2c0.2-0.7,0.4-1.2,0.7-1.9c0.5-1.2,1.1-2.1,1.3-2.6c0.7-1.4,1.6-2.6,2.7-3.7
		c0.2-0.2,0.4-0.4,0.7-0.6c0.1-0.1,0.3-0.2,0.4-0.3c0.7-0.4,1.7-0.8,2.5-0.4c0.7,0.4,1,1.2,1,2C466.7,409.1,465.8,411.8,464.3,413.9
		z M483.6,429.3c-0.1,0.2-0.4,0.4-0.6,0.6c-1.5,1.2-3.8,2.1-5.2,1.9c-0.1,0-0.2,0-0.3-0.1c-2.5-0.5-9.1-6.8-5.7-9
		c0.3-0.2,0.7-0.3,1-0.3s0.7,0.1,1,0.1c0.1,0,0.2,0.1,0.4,0.1c0.1,0,0.1,0,0.1,0l0,0c2.9,0.9,5.9,2.1,8.6,3.6
		C484.6,427.1,484.5,428.3,483.6,429.3z"/>
</g>
<g>
	<g>
		<g>
			<path class="st6" d="M453.4,387.7c0.1,0,0.1,0,0.2-0.1c0.3-0.1,0.4-0.4,0.3-0.7c-9-21.5-0.1-45.1,6-57.3c4.9-9.7,11-19,17-27.9
				c5-7.4,10.1-15.1,14.5-23.1c8.2-14.8,16.6-36.9,10.5-57.9c-0.1-0.3-0.4-0.5-0.7-0.4c-0.3,0.1-0.5,0.4-0.4,0.7
				c6,20.6-2.4,42.4-10.4,57c-4.3,7.9-9.5,15.6-14.5,23c-6,9-12.2,18.2-17.1,28c-6.2,12.3-15.2,36.3-6,58.3
				C453,387.6,453.2,387.8,453.4,387.7z"/>
		</g>
	</g>
	<g>
		<g>
			<path class="st6" d="M511.5,219.3c-0.1,9-4,18.2-8.6,26.1c-0.5-9-4.7-15.9-7.4-24.2c-1.6-4.8-2.1-10.1-1.4-15.2
				c0.4-2.4,1-4.6,1.8-6.8c1-2.6,1.9-4.9,2.7-7.6c0.3,4.3,4.1,7.5,6.9,10.8C509.8,207.6,511.5,213.4,511.5,219.3z"/>
		</g>
	</g>
	<g>
		<g>
			<g>
				<path class="st6" d="M488,241c-5.9-4-12.7-6.4-19.5-8.6c-1.6,11.2,5.1,23.1,15.5,27.6c4,1.7,11.4,2.7,11.8,8.2
					c1.9-3.8,2.6-8.2,1.8-12.4C496.6,250.1,492.6,244.2,488,241z"/>
			</g>
		</g>
		<g>
			<g>
				<path class="st6" d="M516,265.3c7.1,1.2,13.5,4.5,19.9,7.6c-6.8,9.1-19.9,12.8-30.4,8.6c-4-1.6-10-6.1-14.1-2.6
					c1.3-4,4-7.6,7.4-10.1C503.5,265.6,510.4,264.2,516,265.3z"/>
			</g>
		</g>
		<g>
			<g>
				<path class="st6" d="M499.9,293.8c6.9,1.8,13.2,5.4,19.3,9c-7.4,8.6-20.8,11.4-30.9,6.4c-3.9-1.9-9.6-6.8-13.9-3.6
					c1.6-4,4.5-7.3,8.2-9.5C487.4,293.2,494.4,292.4,499.9,293.8z"/>
			</g>
		</g>
		<g>
			<g>
				<path class="st6" d="M486,315.7c6.9,1.8,13.2,5.4,19.3,9c-7.4,8.6-20.8,11.4-30.9,6.4c-3.9-1.9-9.6-6.8-13.9-3.6
					c1.6-4,4.5-7.3,8.2-9.5C473.5,315.2,480.4,314.4,486,315.7z"/>
			</g>
		</g>
		<g>
			<g>
				<path class="st6" d="M474.5,334.6c7.1,0.6,13.9,3.1,20.6,5.7c-5.8,9.7-18.6,14.7-29.5,11.5c-4.1-1.2-10.6-5.1-14.3-1.2
					c0.9-4.2,3.2-8,6.4-10.7C462.1,336.1,468.8,334.1,474.5,334.6z"/>
			</g>
		</g>
		<g>
			<g>
				<path class="st6" d="M526.6,238c7.1,1.2,13.5,4.5,19.9,7.6c-6.8,9.1-19.9,12.8-30.4,8.6c-4-1.6-10-6.1-14.1-2.6
					c1.3-4,4-7.6,7.4-10.1C514.2,238.3,521,237,526.6,238z"/>
			</g>
		</g>
		<g>
			<g>
				<path class="st6" d="M475.2,265.3c-5.9-4-12.7-6.4-19.5-8.6c-1.6,11.2,5.1,23.1,15.5,27.6c4,1.7,11.4,2.7,11.8,8.2
					c1.9-3.8,2.6-8.2,1.8-12.4C483.8,274.3,479.9,268.6,475.2,265.3z"/>
			</g>
		</g>
		<g>
			<g>
				<path class="st6" d="M461.6,286.2c-5.9-4-12.7-6.4-19.5-8.6c-1.6,11.2,5.1,23.1,15.5,27.6c4,1.7,11.4,2.7,11.8,8.2
					c1.9-3.8,2.6-8.2,1.8-12.4C470.3,295.2,466.3,289.5,461.6,286.2z"/>
			</g>
		</g>
		<g>
			<g>
				<path class="st6" d="M448.4,307.6c-5.9-4-12.7-6.4-19.5-8.6c-1.6,11.2,5.1,23.1,15.5,27.6c4,1.7,11.4,2.7,11.8,8.2
					c1.9-3.8,2.6-8.2,1.8-12.4C457.1,316.6,453.1,310.8,448.4,307.6z"/>
			</g>
		</g>
	</g>
</g>
<g>
	<g>
		<path class="st5" d="M587.1,315c0.1,0.1,0.3,0.2,0.4,0.3c-3.9,3.5-8.2,6.5-12.8,8.9c-9.2,4.8-19.5,7.6-29.7,9.5
			c-15.4,2.8-31.2,3.6-46.4,7.3c-15.2,3.7-29.3,11.5-39.8,23c-4.8,5.3-9,11.2-12.7,17.2c-2.9,4.6-5.2,11.5-9.4,15.1
			c-9.2,7.6-14.8-22.3-15.9-27.5c-1.5-6.7-2.1-12.8-1.8-19c0-0.9,0.1-1.7,0.1-2.6c0.2-3.4,0.7-6.8,1.5-10.4
			c1.5-7.4,4.3-14.7,9.6-20.3c4.7-4.9,10.9-8.1,17.2-10.7c-1.2,2.4-2.1,5-2.8,7.6c-0.7,2.4-1.1,5-0.3,7.3s3.3,4.3,5.7,3.7
			c1.9-0.4,3.2-2.4,3.7-4.3c0.5-1.9,0.4-3.9,0.6-5.8c0.4-3.3,1.5-6.5,3.3-9.3c0.9-1.5,2-2.8,3.2-4c5.6-1.8,11.3-3.2,17-4.4
			c0.1-0.1,0.4-0.1,0.5-0.1c4.7-1,9.5-1.7,14.3-2.3c-3.2,3.3-5.9,7.1-7.6,11.4c-1,2.3-1.7,4.8-0.8,7.2c0.8,2.4,3.7,4,5.9,2.8
			c2.4-1.4,2-4.8,2.9-7.4c1.5-4.5,6.5-6.4,11.1-7.7c4.5-1.2,9.6-2.9,11.5-7.2c1.5,0.1,3,0.1,4.5,0.2c7.6,0.4,15.1,1.5,22.6,3.2
			c-3.5,1.8-6.7,4.3-9.3,7.1c-0.6,0.7-1.2,1.5-1.1,2.4c0.1,0.9,0.9,1.6,1.8,1.8c0.9,0.2,1.8,0.1,2.7,0c6.9-1.2,13.5-3.8,19.3-7.8
			C566.6,303.8,577.3,308.8,587.1,315z"/>
	</g>
	<g>
		<path class="st6" d="M563.2,329.1c-11.6,5.5-25.2,7.9-37.5,11.5c-13.5,4-26.9,8.2-39.1,15.7c-12.5,7.7-23.5,18.1-31.2,30.6
			c-1.9,3.1-3.6,6.2-5.1,9.6c-1,2.3-1.3,4.9-2.9,6.9c-3.2,4.3-10.3,7.9-15.6,7.9c-6,0.1-11.4-3.7-16-7.7c-5.1-4.4-10-9.5-12.1-15.9
			c-0.4-1.3-0.7-2.6-0.9-4c-0.1-1.7-0.1-3.4,0.1-5.1c2.5,0.5,5,1.3,7.3,2.6c3.7,1.9,7.1,4.7,11.1,6c6,1.8,13.1-0.5,16.9-5.5
			c1.3-1.7,2.3-3.9,1.6-6c-0.6-1.8-2.2-3.1-3.9-4c-4.3-2.5-9.3-3.8-14.3-3.9c-4.8,0-10.1,1.1-14.4-1.2c1.2-2.1,2.5-4,3.8-5.8
			c7.6-9.8,16.7-18.9,27.9-24.6c1.5-0.7,2.9-1.5,4.5-2.1c2.5,1,4.8,2.5,6.8,4.4c2.5,2.4,4.3,5.6,7.2,7.6c2.9,2,7.4,2.4,9.4-0.5
			c2.1-2.9,0.1-7-2.4-9.6c-2.6-2.5-5.7-4.3-9-5.7c15.1-3.4,31.2-2.5,46.8-1.5c9.8,0.7,19.7,2,29.5,2.3
			C541.9,331.3,553.5,330.6,563.2,329.1z"/>
	</g>
</g>
<g>
	<path class="st5" d="M60.4,413.6c0,0.3,0.1,0.5,0.1,0.8c0.4,3.6,1,7.2,1.8,10.7c0.1,0.3,0.1,0.5,0.2,0.8c0.4,1.6,0.8,3.2,1.2,4.7
		c0.1,0.3,0.1,0.5,0.2,0.8c1.1,3.6,2.4,7.1,4,10.6c0.1,0.3,0.2,0.5,0.4,0.8c0.9,2,1.9,4,2.9,6c8.6,0.8,17.3-1.2,25.5-4.5
		c0.9-0.4,1.8-0.7,2.6-1.1c1.9-0.8,3.8-1.7,5.9-2c1.6-0.2,3.5,0.1,4.8,1c0.2,0.1,0.4,0.4,0.7,0.5c0.1,0.1,0.1,0.2,0.2,0.3
		c1.4,1.7,1.5,4.2,0.6,6.2c-0.9,2-2.5,3.6-4.2,4.9c-4.9,3.9-10.9,6.2-17.1,6.9c-3.8,0.4-7.7,0.2-11.5-0.6c2.3,3.1,4.7,6,7.3,8.8
		c0.2,0.2,0.4,0.4,0.6,0.7c0.4,0.5,1,1,1.4,1.4c0.2,0.2,0.4,0.4,0.7,0.7c0.8,0.8,1.6,1.5,2.5,2.4c3.1,2.8,6.4,5.4,9.8,7.8
		c0.9-0.1,1.7-0.4,2.5-0.6c1-0.3,2.1-0.6,3.1-1c2.9-1,5.7-2.3,8.4-3.8c0.4-0.3,0.9-0.5,1.3-0.8c8.6-5.3,15.4-13,22.9-19.9
		c1.8-1.7,4-3.5,6.5-3c2,0.4,3.5,2.2,4,4.3c0.4,2,0,4.1-0.7,6c-3.5,10.6-13.2,18.2-23.7,21.7c-0.1,0.1-0.3,0.1-0.5,0.1
		c-4.9,1.5-10.1,2.2-15.3,2.4c2.9,1.6,5.7,3.1,8.7,4.4c0.4,0.2,0.9,0.4,1.3,0.6c2,0.9,3.9,1.6,6,2.4c0.3,0.1,0.7,0.2,1,0.4
		c2.5,0.9,5.1,1.7,7.6,2.4c0.4,0.1,0.8,0.2,1.2,0.4c1.2,0.3,2.4,0.6,3.7,0.9c0.1-0.1,0.2-0.2,0.4-0.3c2.4-2.2,4.5-4.6,6.3-7.2
		c7.6-10.7,11.5-24.1,19.4-34.8c1.4-1.8,2.9-3.7,5.1-4.7c1.1-0.5,2.4-0.8,3.6-0.7c0.4,0,0.7,0.1,1.1,0.2c0.7,0.2,1.4,0.5,1.9,1
		c2.1,1.9,2,5.2,1.3,8c-2.4,9.3-9.3,16.6-14.9,24.3c-2.6,3.5-5.1,7.5-6.7,11.7c-0.7,1.6-1.2,3.3-1.5,4.9c1.2,0.1,2.4,0.2,3.5,0.2
		c0.5,0,1,0.1,1.5,0.1c5.9,0.2,11.8,0.1,17.6-0.6c0.3,0,0.5-0.1,0.8-0.1c0.4-0.1,0.8-0.1,1.2-0.1c1-0.1,2.1-0.3,3-0.4
		c0.6-0.1,1.1-0.2,1.7-0.3c4.5-0.9,8.8-2.2,12.9-4.3c8.7-4.6,13.8-13.9,19.8-21.3c6.9-8.5,14-17,19.6-26.4
		c11.5-19.3,14-40.6,2.8-60.5c-0.1-0.3-0.4-0.7-0.5-1c-0.1-0.3-0.3-0.5-0.4-0.8c-0.3-0.5-0.7-1-1-1.5c-1.7-2.4-3.6-4.7-5.7-6.8
		c-1.3,4.3-2.9,8.7-4.8,12.8c-0.4,0.8-0.7,1.5-1.1,2.4c-2,4-4.5,8.2-8.5,10.2c-4,2.1-9.8,1-11.6-3.1c-1.5-3.4,0.3-7.3,2.6-10.2
		c3.4-4.1,7.9-7.1,11.8-10.8c0.2-0.2,0.5-0.4,0.7-0.7c1.8-1.8,3.5-3.9,4.7-6.2c-1.3-1.1-2.7-2.2-4.1-3.2
		c-7.1-5.2-14.5-9.7-22.4-13.4c-0.4-0.2-0.8-0.4-1.2-0.6c-1-0.4-2-0.9-2.9-1.3c0.1,6.2-0.1,12.4-0.3,18.7c-0.1,2.6-0.2,5.3-0.4,7.9
		c-0.2,2.9-0.4,6-1.7,8.7c-1.2,2.7-3.8,5-6.8,5.1c-0.9,0.1-1.8-0.1-2.6-0.4c-0.1-0.1-0.3-0.1-0.4-0.2c-0.1,0-0.1-0.1-0.1-0.1
		c-0.1-0.1-0.3-0.1-0.4-0.2c-2.1-1.2-3.7-3.5-4.2-6c-0.9-3.7,0.1-7.5,1.1-11.2c1.3-4.6,2.7-9.3,4-14c1-4,1.8-8.1,2.2-12.1
		c-1.9-0.7-3.8-1.2-5.7-1.8c-0.3-0.1-0.5-0.1-0.8-0.2c-1.1-0.3-2.2-0.7-3.3-1c-0.4-0.1-0.7-0.2-1-0.3c-5.6-1.5-11.2-2.6-17-3.4
		c-0.3-0.1-0.5-0.1-0.8-0.1l0,0c-0.3,0-0.6-0.1-0.8-0.1c-2-0.2-4-0.4-6-0.6c-0.1,0.9-0.3,1.8-0.4,2.7c-1,9,1,18.4,5.5,26.2
		c0.2,0.4,0.4,0.7,0.7,1.1c1.2,1.8,2.5,3.7,3,5.9c0.4,2.1-0.2,4.8-2.2,5.7c-0.9,0.4-1.8,0.4-2.6,0.2c-0.2-0.1-0.4-0.1-0.7-0.2
		c-0.3-0.1-0.6-0.3-0.9-0.4c-1.3-0.8-2.6-2-3.5-3.2c-7.7-9.9-12.2-22.3-13-34.8c-0.1-1.2-0.1-2.4-0.1-3.5c-4.1,0.1-8.2,0.4-12.3,0.9
		c-0.3,0-0.6,0.1-0.9,0.1c-0.9,0.1-1.8,0.2-2.6,0.4c-0.1,0-0.1,0-0.2,0.1c-0.2,0-0.4,0.1-0.7,0.1c-3.3,0.5-6.7,1.1-10.1,1.8
		c-0.3,0.1-0.7,0.1-1,0.2c-2.2,0.4-4.3,0.9-6.5,1.2c0.3,1,0.7,2,1.1,3c1.2,2.7,2.8,5.3,4.7,7.6c3.7,4.6,8.5,8.5,13.2,12.2
		c1.8,1.5,3.7,2.9,4.6,5.1c1,2.1,0.7,4.9-1.2,6.2c-1.8,1.2-4.1,0.7-6-0.1c-7.1-2.9-12.3-9-16.6-15.4c-2.1-3.2-4-6.5-6.1-9.7
		c-1.5-2.4-3-4.7-4.7-6.9c-3.5,0.3-6.9,0.7-10.4,1c-0.2,0-0.4,0-0.6,0c-3.5,0.1-6.9-0.1-10.4-0.6c-0.3-0.1-0.7-0.1-1-0.1
		c-2-0.3-4-0.8-6-1.4c2.5,3.7,3.7,8.1,4.1,12.6c0.3,2.9,0.2,6-0.1,8.9c-0.2,2.3-0.6,4.5-1,6.7c0,0.1-0.1,0.4-0.1,0.5
		c-1,4.6-2.1,9.2-2.9,13.8c0,0.2-0.1,0.4-0.1,0.6c2.8,1,5.7,1.8,8.5,2.4c4.8,1,9.6,1.6,14.4,2c3.5,0.3,19.2,0.1,15.1,7
		c-1,1.6-2.9,2.6-4.7,2.9c-1.8,0.4-3.7,0.3-5.7,0.4c-4.7,0.2-8.4,3.1-12.9,4.2c-3.1,0.8-6.4,0.5-9.5-0.4c-1.8-0.5-3.6-1.3-5.2-2.2
		c-0.4-0.2-0.8-0.5-1.2-0.7C60,408.3,60.1,411,60.4,413.6z M182.2,420c-0.2-2.4,0.1-4.7,1-6.9c0.4-1,0.9-2,1.8-2.6
		c0.9-0.7,2.1-0.8,3-0.1c0.8,0.6,1,1.8,1.2,2.8c0.2,2.6-0.9,17-5.6,10.8C182.7,422.8,182.3,421.4,182.2,420z M163,409.1
		c0.1-2.9,2.2-5.4,4.8-6.8c0.4-0.2,1-0.4,1.5-0.4c1.2,0.1,1.7,1.6,1.8,2.8c0.2,2.4-0.3,8.7-2.9,10.1
		C165.5,416.3,162.9,411.3,163,409.1z M139.9,425.2c5.8-6.1,8.5,7,3.8,10.7c-2.3,1.8-4.3,0.4-5.4-2.1
		C137.1,431,137.7,427.4,139.9,425.2z M129.6,392.7c0.1-0.8,0.4-1.7,1.1-2.1c0.8-0.4,1.8-0.1,2.6,0.4c0.1,0.1,0.3,0.2,0.5,0.3
		c0.3,0.1,0.5,0.4,0.7,0.6c1.2,1,2.1,2.4,2.9,3.8c0.3,0.5,0.9,1.6,1.4,2.8c0.3,0.7,0.6,1.3,0.7,2c0.4,1.4,0.6,2.7-0.1,3.4l0,0
		c-0.1,0.1-0.4,0.2-0.6,0.3c-0.1,0-0.1,0.1-0.2,0.1c-0.1,0-0.3,0-0.4,0.1c-0.8,0-1.5-0.3-2.2-0.6c-1.3-0.7-2.5-1.5-3.5-2.6
		c-0.2-0.2-0.4-0.5-0.6-0.7l0,0C130,398.1,129.1,395.3,129.6,392.7z M112.2,413.3c2.9-1.5,5.9-2.8,9-3.7l0,0c0.1,0,0.1,0,0.1,0
		c0.1,0,0.2-0.1,0.4-0.1c0.4-0.1,0.7-0.1,1.1-0.1s0.7,0.1,1,0.3c3.5,2.4-3.4,9-6,9.5c-0.1,0-0.2,0-0.3,0.1c-1.5,0.1-4-0.8-5.4-2
		c-0.2-0.2-0.4-0.4-0.6-0.6C110.6,415.3,110.5,414.1,112.2,413.3z"/>
</g>
<g>
	<g>
		<g>
			<path class="st6" d="M132.2,328.8c-0.1,0-0.1,0-0.2-0.1c-0.3-0.1-0.4-0.5-0.3-0.8c9.4-22.4,0.1-47.1-6.2-59.8
				c-5.1-10.1-11.5-19.8-17.8-29.1c-5.1-7.8-10.5-15.8-15.1-24.1c-8.5-15.4-17.3-38.4-10.9-60.4c0.1-0.3,0.4-0.5,0.7-0.4
				c0.3,0.1,0.5,0.4,0.4,0.7c-6.2,21.5,2.5,44.2,10.9,59.5c4.6,8.2,9.9,16.2,15.1,24c6.2,9.3,12.7,19,17.9,29.2
				c6.5,12.9,15.9,37.9,6.3,60.8C132.7,328.6,132.4,328.8,132.2,328.8z"/>
		</g>
	</g>
	<g>
		<g>
			<path class="st6" d="M71.7,153.1c0.1,9.3,4.2,19,9,27.2c0.6-9.3,4.9-16.6,7.8-25.2c1.7-5.1,2.2-10.5,1.4-15.8
				c-0.4-2.5-1-4.8-1.9-7.1c-1-2.6-2-5.1-2.8-7.9c-0.3,4.6-4.3,7.8-7.2,11.2C73.4,140.9,71.7,146.9,71.7,153.1z"/>
		</g>
	</g>
	<g>
		<g>
			<g>
				<path class="st6" d="M96.1,175.8c6.1-4.3,13.3-6.6,20.4-9c1.7,11.7-5.3,24.2-16.2,28.7c-4.1,1.8-11.9,2.9-12.3,8.5
					c-2-4-2.7-8.6-1.9-12.9C87.2,185.2,91.3,179.1,96.1,175.8z"/>
			</g>
		</g>
		<g>
			<g>
				<path class="st6" d="M66.9,201c-7.3,1.3-14.1,4.7-20.7,8c7.1,9.5,20.8,13.4,31.7,9c4.2-1.7,10.4-6.3,14.7-2.7
					c-1.4-4.2-4.1-7.9-7.8-10.5C79.9,201.3,72.8,200,66.9,201z"/>
			</g>
		</g>
		<g>
			<g>
				<path class="st6" d="M83.7,230.7c-7.2,1.8-13.7,5.7-20.1,9.5c7.7,9,21.7,11.8,32.3,6.7c4-2,10-7.1,14.5-3.7
					c-1.7-4.1-4.7-7.6-8.5-9.9C96.7,230.1,89.5,229.3,83.7,230.7z"/>
			</g>
		</g>
		<g>
			<g>
				<path class="st6" d="M98.3,253.7c-7.2,1.8-13.7,5.7-20.1,9.5c7.7,9,21.7,11.8,32.3,6.7c4-2,10-7.1,14.5-3.7
					c-1.7-4.1-4.7-7.6-8.5-9.9C111.2,253.1,104,252.2,98.3,253.7z"/>
			</g>
		</g>
		<g>
			<g>
				<path class="st6" d="M110.2,273.3c-7.4,0.6-14.5,3.2-21.5,5.9c6.1,10.1,19.3,15.4,30.7,12.1c4.3-1.2,11-5.3,14.9-1.2
					c-1-4.3-3.3-8.4-6.7-11.2C123.1,274.9,116.1,272.8,110.2,273.3z"/>
			</g>
		</g>
		<g>
			<g>
				<path class="st6" d="M55.9,172.6c-7.3,1.3-14.1,4.7-20.7,8c7.1,9.5,20.8,13.4,31.7,9c4.2-1.7,10.4-6.3,14.7-2.7
					c-1.4-4.2-4.1-7.9-7.8-10.5C68.9,172.9,61.7,171.6,55.9,172.6z"/>
			</g>
		</g>
		<g>
			<g>
				<path class="st6" d="M109.4,201c6.1-4.3,13.3-6.6,20.4-9c1.7,11.7-5.3,24.2-16.2,28.7c-4.1,1.8-11.9,2.9-12.3,8.5
					c-2-4-2.7-8.6-1.9-12.9C100.5,210.4,104.6,204.4,109.4,201z"/>
			</g>
		</g>
		<g>
			<g>
				<path class="st6" d="M123.6,222.9c6.1-4.3,13.3-6.6,20.4-9c1.7,11.7-5.3,24.2-16.2,28.7c-4.1,1.8-11.9,2.9-12.3,8.5
					c-2-4-2.7-8.6-1.9-12.9C114.6,232.3,118.7,226.3,123.6,222.9z"/>
			</g>
		</g>
		<g>
			<g>
				<path class="st6" d="M137.4,245.1c6.1-4.3,13.3-6.6,20.4-9c1.7,11.7-5.3,24.2-16.2,28.7c-4.1,1.8-11.9,2.9-12.3,8.5
					c-2-4-2.7-8.6-1.9-12.9C128.4,254.5,132.5,248.6,137.4,245.1z"/>
			</g>
		</g>
	</g>
</g>
<g>
	<g>
		<path class="st5" d="M3.5,297.2c-0.1,0.1-0.3,0.2-0.4,0.3c4,3.7,8.5,6.8,13.4,9.3c9.6,5,20.3,8,31,9.9c16.1,2.9,32.5,3.7,48.4,7.6
			c15.9,3.8,30.6,12,41.6,24c5,5.5,9.3,11.6,13.3,17.9c3,4.8,5.4,12.1,9.8,15.7c9.6,7.9,15.5-23.3,16.7-28.7
			c1.5-7,2.1-13.3,1.9-19.8c0-0.9-0.1-1.8-0.1-2.6c-0.3-3.5-0.8-7.1-1.5-10.8c-1.6-7.7-4.5-15.4-10-21.2
			c-4.8-5.1-11.4-8.5-17.9-11.2c1.2,2.6,2.2,5.1,2.9,7.9c0.7,2.5,1.2,5.2,0.3,7.6c-0.8,2.4-3.5,4.5-6,3.8c-2-0.5-3.3-2.4-3.8-4.4
			c-0.5-2-0.4-4-0.7-6.1c-0.4-3.5-1.6-6.8-3.5-9.6c-1-1.5-2.1-2.9-3.3-4.2c-5.9-1.8-11.8-3.4-17.8-4.6c-0.2-0.1-0.4-0.1-0.6-0.1
			c-4.9-1-9.9-1.8-14.9-2.4c3.4,3.5,6.1,7.4,7.9,11.9c1,2.4,1.8,5.1,0.9,7.5c-0.8,2.4-3.9,4.2-6.1,2.9c-2.4-1.5-2.1-5-2.9-7.7
			c-1.5-4.6-6.8-6.7-11.5-8.1c-4.7-1.3-10-3.1-12-7.5c-1.5,0.1-3.1,0.1-4.6,0.2c-7.9,0.5-15.8,1.5-23.5,3.2c3.7,1.9,7,4.4,9.8,7.5
			c0.7,0.7,1.2,1.5,1.2,2.5c-0.1,1-1,1.7-1.8,1.9c-0.9,0.2-1.9,0.1-2.8,0c-7.2-1.2-14.1-4-20.2-8.1C24.9,285.5,13.8,290.6,3.5,297.2
			z"/>
	</g>
	<g>
		<path class="st6" d="M28.5,311.9c12.1,5.8,26.3,8.3,39.1,12.1c14.1,4.1,28.1,8.5,40.8,16.3c13,8,24.5,18.9,32.6,31.9
			c2,3.2,3.7,6.5,5.3,10c1,2.4,1.4,5.1,2.9,7.3c3.4,4.5,10.7,8.2,16.3,8.2c6.3,0.1,11.9-3.9,16.7-8c5.3-4.6,10.4-9.8,12.6-16.5
			c0.4-1.4,0.7-2.8,0.9-4.2c0.1-1.8,0.1-3.5-0.1-5.3c-2.6,0.5-5.2,1.4-7.6,2.6c-3.9,2.1-7.4,4.9-11.6,6.2
			c-6.3,1.9-13.7-0.5-17.6-5.7c-1.3-1.8-2.4-4.1-1.7-6.2c0.6-1.9,2.4-3.2,4-4.3c4.5-2.6,9.7-4,14.9-4c5.1,0,10.6,1.1,15-1.2
			c-1.2-2.2-2.6-4.2-4-6c-7.9-10.3-17.4-19.7-29-25.7c-1.5-0.8-3.1-1.5-4.6-2.1c-2.6,1-5.1,2.6-7.1,4.6c-2.6,2.6-4.6,5.8-7.5,7.9
			c-3,2.1-7.7,2.4-9.8-0.6c-2.1-3-0.1-7.3,2.5-9.9c2.6-2.6,5.9-4.5,9.3-6c-15.7-3.5-32.6-2.6-48.9-1.5c-10.2,0.7-20.6,2.1-30.8,2.4
			C50.7,314.2,38.6,313.4,28.5,311.9z"/>
	</g>
</g>
<g>
	<path class="st7" d="M423.4,332.4c0,0,16.1,47.4,13.4,82.5c-2.7,35.1-49.4,18.3-60.9,5.4c-11.5-12.9,4.8-71.3,4.8-71.3
		S415.1,332.4,423.4,332.4z"/>
</g>
<g>
	<g>
		
			<linearGradient id="SVGID_1_" gradientUnits="userSpaceOnUse" x1="159.2518" y1="337.4801" x2="428.274" y2="337.4801" gradientTransform="matrix(1 0 0 -1 0 700)">
			<stop  offset="0" style="stop-color:#4EAD42"/>
			<stop  offset="1" style="stop-color:#4EAD42"/>
		</linearGradient>
		<path class="st8" d="M380.6,349L380.6,349c0,0.5,0.4,11.3,0.9,25.2c0.3,7.4,0.7,15.7,1,23.9c0.7,14.6,1.6,28.7,2.5,35.9
			c0.6,4.6,1.5,13.7,2.6,24.8c1,10.1,2.2,22,3.6,33.6H203.5c2.4-25.6,4.4-52.5,5.5-61.7c0.7-5.3,0.8-11.2,0.7-17.2
			c-0.1-6.7-0.7-13.2-1.2-18.6c0-0.1,0-0.3-0.1-0.4v-0.1v-0.1c0-0.1,0-0.1,0-0.1s0-0.1,0-0.1c-0.7-6.8-1.5-11.5-1.5-11.5
			c-7.6,0.2-14.9-0.4-21.5-1.2c-1.7-0.2-3.3-0.5-4.8-0.7c-5.4-1-10.1-2.1-13.7-3c-4.8-1.2-7.6-2.3-7.6-2.3s3-13.1,7.6-30.4
			c3.7-14,8.6-30.9,13.7-45.8c6-17,12.3-31.5,18-36.3c16.8-13.9,100.2-30.1,100.2-30.1s12,2.3,27.7,6c5.9,1.3,12.3,2.9,18.7,4.6
			c22.2,5.7,45.7,12.9,53.8,19.5c6.5,5.4,12.2,18.2,16.9,32.1c7.6,22.2,12.3,46.9,12.3,46.9s-4.8,1.7-12.3,3.5
			C407.1,347.3,394.1,349.5,380.6,349z"/>
	</g>
	<g class="st9">
		<path class="st10" d="M351.1,253.3c0,5-26,47.8-31.6,48.7c-5.6,1-15.4-9-21.2-20.8c-3.8-7.7,15-29,28.2-42.6
			c5.9,1.3,12.3,2.9,18.7,4.6C347.1,244.9,351.1,249.4,351.1,253.3z"/>
	</g>
	<g class="st4">
		<path class="st2" d="M386.9,257.1c2.5,1.1,4.9,2.4,7.2,3.9c1.8,1.2,4.1,3.3,2.5,5.6c-1.4,2-5.2,2.1-7.4,2.4
			c-6.1,0.6-12.3-0.4-17.9-3c-6-2.9-11-7.5-14.5-13.2c-0.6-1-2.1-2.8-1-4c1.1-1.3,3.6,0.1,4.9,0.4
			C369.2,251.7,378.5,253.4,386.9,257.1z"/>
	</g>
	<g>
		<path class="st10" d="M379.5,326.1c-1.7,7.6-0.9,15.4,1.1,22.9c0,0.5,0.4,11.3,0.9,25.2c-5.4-9.9-9.2-20.8-10.9-32
			c-2.4-15.5-1-31.5,4-46.4c0.2-0.7,0.5-1.4,1.2-1.6c0.7-0.3,1.5,0.1,1.8,0.8c0.4,0.7,0.4,1.4,0.5,2.1c0.4,6.9,0.1,14-0.8,20.8
			c1.7-3.9,3.4-7.8,5.1-11.8c0.6-1.2,1.5-2.8,2.9-2.6c1,0.1,1.8,1.2,1.8,2.3c0.1,1-0.4,2.1-0.8,3
			C383.7,314.6,380.8,320.1,379.5,326.1z"/>
	</g>
	<g>
		<path class="st10" d="M387.6,458.9c-12.2-6.3-24-13.4-34.9-21.8c-22.9-17.5-42.2-41.4-48.5-69.5c1.4,14.1,2.7,28.2,4.1,42.3
			c0.1,1-11.8,6.2-13.2,6.9c-4.8,2.4-9.7,4.8-14.5,7.1c-9.6,4.6-19.3,8.9-29,12.9c-4.8,2-9.6,3.9-14.4,5.8c-4.5,1.8-9.8,1.9-9.9,7.3
			c-0.1,7.9,4.6,15.9,11.9,19.3c1.7,0.8,3.7,1.5,4.3,3.3c0.6,1.8-0.8,3.9-2.6,4.6c-1.8,0.8-3.8,0.7-5.8,0.6c-2-0.1-4,0-5.7,1
			c-2.9,1.8-3.4,5.7-3.3,9.1c0,1.5,0.1,2.9,0.1,4.4h-22.7c2.4-25.6,4.4-52.5,5.5-61.7c0.7-5.3,0.8-11.2,0.7-17.2
			c1-5.9-0.6-12.9-1.2-18.6c0-0.1,0-0.3-0.1-0.4v-0.1v-0.1c0-0.1,0-0.1,0-0.1s0-0.1,0-0.1c-0.2-2.3-1.2-11.5-1.5-11.5
			c-7.6,0.2-14.9-0.4-21.5-1.2c3.6-18.5,8.3-36.8,14-54.7c3.3-10.4,6.9-20.6,10.9-30.7c2-5,3.9-10.2,6.2-15.1
			c2.1-4.3,7.4-3.9,12-4.2c20.4-1.5,40.9,4.8,58.3,15.2c20.5,12.2,37.3,29.8,52.1,48.6c14.8,18.7,28,38.7,43,57.2
			c0.1,0.2,0.4,0.4,0.5,0.6c0.7,14.6,1.6,28.7,2.5,35.9C385.7,438.8,386.5,447.8,387.6,458.9z"/>
	</g>
	<g>
		<path class="st11" d="M380.6,349.6c-0.2,0-0.4-0.1-0.4-0.4c-0.1-0.3-6.2-28.6-4.1-49.2c0-0.3,0.3-0.4,0.5-0.4
			c0.3,0,0.4,0.3,0.4,0.5c-2.1,20.4,4,48.6,4.1,48.9c0.1,0.3-0.1,0.5-0.4,0.6C380.7,349.6,380.6,349.6,380.6,349.6z"/>
	</g>
	<g>
		<path class="st11" d="M376.5,323.5c-0.1,0-0.2,0-0.3-0.1c-0.2-0.1-0.2-0.4-0.1-0.7c3.4-4.2,6-8.9,7.8-14c0.1-0.2,0.4-0.4,0.6-0.3
			c0.2,0.1,0.4,0.4,0.3,0.6c-1.8,5.1-4.5,10-7.9,14.3C376.8,323.4,376.6,323.5,376.5,323.5z"/>
	</g>
	<g>
		<path class="st12" d="M207,383.1c-0.2,0-0.4-0.1-0.4-0.4c0-0.1-1.7-10.2-0.9-24.5c0.7-13.2,3.7-32.8,13.9-51.2
			c0.1-0.2,0.4-0.3,0.7-0.2c0.2,0.1,0.3,0.4,0.2,0.7c-10.1,18.2-13.1,37.7-13.8,50.8c-0.8,14.2,0.9,24.2,0.9,24.3
			c0.1,0.3-0.1,0.5-0.4,0.6C207,383.1,207,383.1,207,383.1z"/>
	</g>
	<g>
		<path class="st12" d="M207.6,344.1c-0.2,0-0.4-0.1-0.4-0.4c-2.9-10.2-4.2-20.7-3.9-31.4c0-0.3,0.2-0.4,0.5-0.4
			c0.3,0,0.4,0.2,0.4,0.5c-0.3,10.5,1,20.9,3.9,31.1c0.1,0.2-0.1,0.5-0.4,0.6C207.7,344.1,207.7,344.1,207.6,344.1z"/>
	</g>
</g>
<g>
	<g>
		<path d="M327.7,231c0,0,8.6,3.2,11.4,4.6s9.2,11.9,9,16.2c-0.2,4.3-29.6,45.2-29.6,45.2s-6.1,0.3-11.3-6.1
			c-5.2-6.4-6.7-12.6-6.7-12.6L327.7,231z"/>
	</g>
	<g>
		<path class="st13" d="M273.2,231c0,0-8.6,3.2-11.4,4.6s-9.2,11.9-9,16.2c0.2,4.3,29.6,45.2,29.6,45.2s6.1,0.3,11.3-6.1
			c5.2-6.4,6.7-12.6,6.7-12.6L273.2,231z"/>
	</g>
	<g>
		<path class="st14" d="M333.6,251.7c-2.2,6.8-16.9,16.7-25.9,22.3c-4.2,2.6-7.2,4.3-7.2,4.3s-30-16.5-33.1-26.5
			c-0.1-0.5-0.3-1-0.4-1.5c-2.1-8.9,4.8-12.4,6.6-20.5c1.8-8.5,1.5-44.2,1.5-44.2h51c0,0-0.4,35.7,1.5,44.2c1.2,5.8,5.1,9.3,6.5,14
			C334.6,246,334.7,248.5,333.6,251.7z"/>
	</g>
	<g>
		<path class="st7" d="M333.9,243.7c-21.2,7.9-44.6,10.3-67,6.5c-2.1-8.9,4.8-12.4,6.6-20.5c1.8-8.5,1.5-44.2,1.5-44.2h51
			c0,0-0.4,35.7,1.5,44.2C328.7,235.6,332.6,239,333.9,243.7z"/>
	</g>
	<g class="st15">
		<path d="M307.7,274c-4.2,2.6-7.2,4.3-7.2,4.3s-30-16.5-33.1-26.5c-0.1-0.5-0.3-1-0.4-1.5c-2.1-8.9,4.8-12.4,6.6-20.5
			c1.8-8.5,1.5-44.2,1.5-44.2H291l-3.7,33.9c5.4,14.1,10.9,28.3,16.4,42.5C305.3,265.9,306.8,269.9,307.7,274z"/>
	</g>
	<g>
		<g>
			<g>
				<path class="st16" d="M266.8,205.5c-1.1-8.8-2.1-17.6-4.2-26.3c-0.5-2.3-1.2-4.6-2.5-6.5c-1.4-1.8-3.7-3.2-6-2.9
					c-1.8,0.3-3.4,1.7-4.3,3.4c-3.5,6.2,1,12.3,4.5,17.5c1.8,2.6,3.9,5.1,6,7.6C261.5,199.8,266.5,203.8,266.8,205.5z"/>
			</g>
			<g>
				<path class="st16" d="M340.5,205.5c0.2-1.7,0.4-3.5,0.7-5.1c0.4-3.5,1-7.1,1.5-10.7c0.4-2.6-0.2-4.9-0.1-7.6
					c0.2-6.5,1-13.1,2.2-19.5c1.2-6.5,2.9-12.8,5.1-19c1.1-3.1,2.3-6.2,3.5-9.2c0.5-1.2,4.5-7.7,4-8.5c4.9,10,7.2,21.2,6.5,32.4
					c-1,14.7-7.2,29-16.8,40C345.7,199.8,340.7,203.8,340.5,205.5z"/>
			</g>
			<g>
				<g>
					<g>
						<path class="st14" d="M260.5,154.2c-1.8-2.7-4.4-4.9-7.7-5.2c-12-0.9-9.8,20.9-8.2,27.6c1.8,7.3,8,15.1,15.5,8.2
							c2.8-2.6,4.1-6.4,4.6-10.1c0.9-6.4-0.5-13.9-3.7-19.5C260.9,154.8,260.7,154.5,260.5,154.2z"/>
					</g>
					<g>
						<path class="st7" d="M254.6,180.7c-0.4,1-1,1.9-1.9,2.1c-0.7,0.1-1.3-0.2-1.8-0.7c-0.4-0.5-0.7-1.1-1-1.7
							c-2.7-6.8-2.9-14.9,0-21.6c0.2-0.5,0.5-1.1,1-1.5c0.8-0.6,1.6-0.1,2.1,0.7c1.7,2.4,2.2,6,2.6,8.7c0.5,3.3,0.7,6.8,0,10.1
							C255.4,178.2,255.1,179.4,254.6,180.7z"/>
					</g>
					<g>
						<path class="st17" d="M252.6,183.4c-0.1,0-0.2-0.1-0.3-0.2c-0.1-0.1,0-0.4,0.1-0.5c3.2-1.6,3.1-7.5,2.9-11c0-0.3,0-0.5,0-0.7
							c-0.1-3.5-0.6-6.9-1.4-10.3l-0.1-0.4c-0.7-2.6-1.5-6-4.3-6.8c-0.3-0.1-0.7-0.1-1-0.1c-0.2,0-0.4-0.1-0.4-0.4
							c0-0.2,0.1-0.4,0.4-0.4c0.4,0,0.8,0.1,1.2,0.1c3.2,1,4.1,4.4,4.8,7.3l0.1,0.4c0.9,3.4,1.3,6.9,1.5,10.4c0,0.2,0,0.4,0,0.7
							c0.1,3.7,0.3,9.8-3.4,11.7C252.8,183.3,252.7,183.4,252.6,183.4z"/>
					</g>
				</g>
				<g>
					<g>
						<path class="st14" d="M347.7,154.2c1.8-2.7,4.4-4.9,7.7-5.2c12-0.9,9.8,20.9,8.2,27.6c-1.8,7.3-8,15.1-15.5,8.2
							c-2.8-2.6-4.1-6.4-4.6-10.1c-0.9-6.4,0.5-13.9,3.7-19.5C347.3,154.8,347.4,154.5,347.7,154.2z"/>
					</g>
					<g>
						<path class="st7" d="M353.6,180.7c0.4,1,1,1.9,1.9,2.1c0.7,0.1,1.3-0.2,1.8-0.7c0.4-0.5,0.7-1.1,1-1.7
							c2.7-6.8,2.9-14.9,0-21.6c-0.2-0.5-0.5-1.1-1-1.5c-0.8-0.6-1.6-0.1-2.1,0.7c-1.7,2.4-2.2,6-2.6,8.7c-0.5,3.3-0.7,6.8,0,10.1
							C352.7,178.2,353.1,179.4,353.6,180.7z"/>
					</g>
					<g>
						<path class="st17" d="M355.5,183.4c-0.1,0-0.1,0-0.1-0.1c-3.7-1.8-3.5-8-3.4-11.7c0-0.3,0-0.5,0-0.7c0.1-3.5,0.6-7.1,1.5-10.4
							l0.1-0.4c0.7-2.7,1.5-6.2,4.6-7.2c0.2-0.1,0.4,0.1,0.4,0.2c0.1,0.2-0.1,0.4-0.2,0.4c-2.7,0.9-3.5,4.1-4.2,6.7l-0.1,0.4
							c-0.9,3.4-1.3,6.8-1.4,10.3c0,0.2,0,0.4,0,0.7c-0.1,3.5-0.3,9.4,2.9,11c0.1,0.1,0.2,0.3,0.1,0.5
							C355.7,183.3,355.6,183.4,355.5,183.4z"/>
					</g>
				</g>
			</g>
			<g>
				<path class="st14" d="M256,142.2c0,0,0.3,45.4,5,58.6c4.8,13.2,20.4,33.3,27.9,35.9c5.1,1.8,10.4,2.1,13.2,2.1c0.4,0,0.7,0,1,0
					c0.1,0,0.1,0,0.2,0c0.5,0,0.7,0,0.7,0s0.2,0,0.6,0c0.1,0,0.4,0,0.6,0s0.5,0,0.9,0c2.8,0,8-0.4,13.2-2.1
					c7.5-2.6,23.1-22.7,27.9-35.9c4.8-13.2,5-58.6,5-58.6s0.6-28.8-28.9-38.3c-5.8-1.9-12.8-3-21.2-3c-19.5,0-30.9,6.4-37.4,14.2
					C254.8,127,256,142.2,256,142.2z"/>
			</g>
			<g class="st18">
				<path class="st2" d="M317.8,236.8c-4.6,1.8-9.2,2.1-11.7,2.1c2.8,0,8-0.4,13.2-2.1c7.5-2.6,23.1-22.7,27.9-35.9
					c4.8-13.2,5-58.6,5-58.6s0.6-28.8-28.9-38.3c0.7,0.6,1.4,1.1,2,1.5c5.4,3.5,10.1,6.3,14,11.5c4.9,6.6,7.7,14.9,8.2,23.1
					c0.1,0.7,0.1,1.5,0.1,2.2c0,0-0.2,45.4-4.6,58.6C338.8,214,324.7,234.1,317.8,236.8z"/>
			</g>
			<g class="st18">
				<path class="st2" d="M256,142.2c0,0,0.3,45.4,5,58.6c4.8,13.2,20.4,33.3,27.9,35.9c5.1,1.8,10.4,2.1,13.2,2.1
					c-2.6,0-7.1-0.4-11.7-2.1c-6.8-2.6-20.9-22.7-25.3-35.9c-4.3-13.2-4.6-58.6-4.6-58.6c0-6.4,0.7-12.6,3.1-18.6
					c0.8-2.1,2.9-4.5,2.3-6.6c-0.2-0.7-0.7-1.3-1.2-1.9C254.8,127,256,142.2,256,142.2z"/>
			</g>
			<g>
				<path class="st7" d="M339.9,156.2c-6.2-11.5-23.1-10-33.9-8.1c-5.7,1-11.2,2.7-16.8,3.5c-5.7,0.7-11.8,0.4-16.7-2.5
					c1,4.6-1.8,9-4.6,12.9c-5.3,7.5-6,16.6-10.4,24.8c2.1-11.2,1.8-22.9-1-34c-1.2-4.8,0-10,1-14.8c1.1-5.4,2.9-10.7,5.4-15.6
					c3.9-7.6,9.6-14.5,17-18.4c7.3-3.7,15.7-4.6,23.8-4.7c10-0.2,20.5,0.4,28.9,5.8c3.8,2.5,7.1,5.9,9.5,9.7
					c6.2,9.6,8.4,20.9,8,32.1c-0.2,6.4-1,12.7-1.5,19c-0.2,3.2-0.4,6.3-0.4,9.6c0,1.5-0.5,8.1,0.6,9.1c-3.9-3.2-5.7-8.4-6.5-13.4
					c-0.5-2.8-1-5.7-1.2-8.5c-0.1-2.1,0.1-3.7-0.7-5.6C340.2,156.8,340.1,156.5,339.9,156.2z"/>
			</g>
			<g>
				<g>
					<g>
						<path class="st19" d="M278.7,207.7c0.2,2.9,1,5.6,2.4,7.9c0.4,0.7,0.9,1.4,1.4,2.1c3.7,5,9.8,8.2,16.3,8.7
							c9.3,0.8,18.2-1.1,23.7-8c0.4-0.6,0.9-1.2,1.3-1.8c0.5-0.8,1-1.7,1.5-2.6c1.2-2.6,1.5-6.2,0.7-9.1c-1-3.5-3.7-6.1-8.3-5.1
							c-7.1,1.7-14.5,2.2-21.8,1.4c-3.1-0.4-6.1-1-9.1-1.8c-0.6-0.1-1.2-0.4-1.8-0.5c-4-1.2-5.7,2.1-6.2,5.5
							C278.7,205.4,278.7,206.6,278.7,207.7z"/>
					</g>
					<g>
						<path class="st20" d="M282.4,217.6c3.7,5,9.8,8.2,16.3,8.7c9.3,0.8,18.2-1.1,23.7-8c-7.4-3.6-16.5-5.3-25.4-4.5
							C292,214.3,287,215.7,282.4,217.6z"/>
					</g>
					<g>
						<path class="st2" d="M278.8,204.3c1,1.2,2.4,1.9,3.8,2.5c7.9,3.5,16.5,5,25.1,4.5c4.7-0.3,9.5-1.2,13.7-3.4
							c1.6-0.8,3.2-1.9,4.6-3.1c-1-3.5-3.7-6.1-8.3-5.1c-7.1,1.7-14.5,2.2-21.8,1.4c-3.1-0.4-6.1-1-9.1-1.8
							c-0.6-0.1-1.2-0.4-1.8-0.5C281,197.5,279.3,200.9,278.8,204.3z"/>
					</g>
				</g>
				<g>
					<g>
						<ellipse class="st7" cx="328.3" cy="183.9" rx="9" ry="4.1"/>
					</g>
					<g>
						<ellipse class="st7" cx="279.9" cy="183.9" rx="9" ry="4.1"/>
					</g>
					<g>
						<path class="st16" d="M318,153.9c-1.5,0.6-1.5,2.3-0.8,3.2c0.4,0.6,1.2,0.9,2.2,0.6c2.4-0.8,5.7-1.4,10.2-0.6
							c1,0.2,7.9,4,7.6,0.9c-0.1-0.4-0.4-0.7-0.7-1.1c-2.8-2.9-6-4-9.8-4.2C323,152.8,320.1,153.1,318,153.9z"/>
					</g>
					<g>
						<path class="st16" d="M291.4,153.9c1.5,0.6,1.5,2.3,0.8,3.2c-0.4,0.6-1.2,0.9-2.2,0.6c-2.4-0.8-5.7-1.4-10.2-0.6
							c-1,0.2-7.9,4-7.6,0.9c0.1-0.4,0.4-0.7,0.7-1.1c2.8-2.9,6-4,9.8-4.2C286.5,152.8,289.4,153.1,291.4,153.9z"/>
					</g>
					<g>
						<g>
							<ellipse class="st16" cx="325.4" cy="169" rx="3.9" ry="7.5"/>
						</g>
						<g>
							<ellipse class="st21" cx="321" cy="166.4" rx="4.3" ry="2"/>
						</g>
					</g>
					<g>
						<g>
							<ellipse class="st16" cx="281.3" cy="169" rx="3.9" ry="7.5"/>
						</g>
						<g>
							<ellipse class="st21" cx="277" cy="166.4" rx="4.3" ry="2"/>
						</g>
					</g>
					<g>
						<path class="st17" d="M303.6,188.5L303.6,188.5c-2.3,0-5.1-0.3-6.7-1.9c-0.8-0.8-1.2-1.9-1.1-3.3c0.1-3.3,3.6-4.4,5.8-4.6
							v-10.9c0-0.3,0.2-0.5,0.5-0.5s0.5,0.2,0.5,0.5v11.4c0,0.3-0.2,0.5-0.5,0.5c-0.1,0-5.2,0.1-5.4,3.6c-0.1,1.1,0.2,1.9,0.8,2.6
							c1.3,1.4,4,1.5,6,1.6c0.3,0,0.5,0.2,0.5,0.5C304.2,188.3,303.9,188.5,303.6,188.5z"/>
					</g>
				</g>
			</g>
			<g>
				<path class="st16" d="M249.9,135.5c-1.1,4.5-1.8,9-1.8,13.7c2.9,0.5,5.1,0.4,6.5,3.5c0.7,1.5,1,3.2,1.1,4.8
					c1.3,10.6,2.1,21.2,2.1,32c0-1.4,1.2-3.5,1.6-4.8c0.4-1.8,0.8-3.7,1.1-5.5c1.3-8.3,1.8-17.3,5.6-25.1c1-2.1,6.8-9.2,4.7-11.8
					c2.3,2.8,5.8,4.5,9.3,5.1c3.6,0.7,7.3,0.4,10.8-0.2c8.3-1.2,16.4-3.7,24.8-4.1c8.4-0.4,17.4,1.7,22.9,8.1
					c4.7,5.4,5.8,11.5,5.1,18.3c-0.8,7.3,3.5,15.7,5.4,22.6c-0.2-0.7,0.8-2.9,1-3.7c0.3-1.5,0.5-3,0.7-4.5c0.3-2.9,0.4-5.8,0.4-8.7
					c0-4.7,0.1-9.4,0.6-14c0.2-2.7,0.4-5.8,1.6-8.2c0.7-1.2,1.5-2.1,2.6-2.9c0.4-0.3,5.4-2.5,5.4-1.8c-0.1-4-0.3-7.7,0.6-11.7
					c3.5-15.7-20.6-32.2-33.1-37.7c-20.4-9-44.5-9.3-61.2,6.5C259,113.4,252.7,124,249.9,135.5z"/>
			</g>
		</g>
		<g>
			<g>
				<path d="M363.8,153.2c0,0-22.7-30.2-56.1-27.2c-19.4,1.8-36.7,9.9-47.9,16.5c-8.1,4.8-13,8.7-13,8.7s-1.3-37.5,1.7-43.8
					c4.5-9.6,41.6-28.9,54.5-30.3c0.7-0.1,1.4-0.1,2-0.1c21.4,1.6,52.5,20.2,56.6,26.8C367.2,113.1,363.8,153.2,363.8,153.2z"/>
			</g>
			<g>
				<path d="M305.2,112.9c0.7,3.5,1.6,6.8,2.6,10.1c-11.7-0.4-22.8,4.5-33.4,9.2c-3.2,1.4-6.7,2.5-9.6,4.2c-2.4,1.3-2.8,4.9-4.8,6.1
					c-8.1,4.8-13,8.7-13,8.7s-1.3-37.5,1.7-43.8c4.5-9.6,41.6-28.9,54.5-30.3c-0.8,0.1-0.8,9.6-0.8,10.4c0.1,4,0.4,8,0.8,12
					C303.5,104,304.2,108.5,305.2,112.9z"/>
			</g>
			<g class="st18">
				<path class="st2" d="M343.8,91.3c10.4,6.3,18.9,16.9,19.5,29c0.1,1.9-0.2,4.2-1.8,5.1c-2.1,1.2-4.6-0.4-6.5-1.9
					c-14.5-12.1-28.9-24.1-43.4-36.2c-1.8-1.5-5.2-5-2.1-6.8c2.4-1.4,7.9,0.9,10.3,1.5C328.1,84.1,336.3,86.8,343.8,91.3z"/>
			</g>
			<g>
				
					<linearGradient id="SVGID_2_" gradientUnits="userSpaceOnUse" x1="246.7704" y1="565.7686" x2="363.8292" y2="565.7686" gradientTransform="matrix(1 0 0 -1 0 700)">
					<stop  offset="0" style="stop-color:#4EAD42"/>
					<stop  offset="1" style="stop-color:#4EAD42"/>
				</linearGradient>
				<path class="st22" d="M363.8,153.2c0,0-38.8-21.8-63.9-19.7c-25.6,2.1-53.1,17.7-53.1,17.7s0.2-1.6,1.2-4.1
					c2.6-7.1,10.9-21.7,36.3-28.2c38.9-10.1,65.4,2.7,72.5,15.3c2.6,4.6,4.2,8.4,5.2,11.3C363.8,150.6,363.8,153.2,363.8,153.2z"/>
			</g>
			<g>
				<path class="st23" d="M363.8,153.2c0,0-36.3-21-61.4-19c-25.6,2.1-55.6,17-55.6,17s0,0,0-0.1c0.1-0.3,0.3-1.8,1.1-4
					c3.7-7.6,13-19.6,35.9-25.4c39.7-10,66.8,2.8,74,15.4c1.8,3.2,3.2,6,4.2,8.4c0.8,2.4,1.2,4.1,1.5,5.4
					C363.8,152.4,363.8,153.2,363.8,153.2z"/>
			</g>
			<g class="st15">
				<path class="st16" d="M363.8,153.2c0,0-36.3-21-61.4-19c-25.6,2.1-55.6,17-55.6,17s0,0,0-0.1c6.2-6.3,18.5-17.4,35.6-21.3
					c44.2-10,72.3,7.2,80.3,19.8c0.3,0.4,0.5,0.8,0.8,1.2C363.8,152.4,363.8,153.2,363.8,153.2z"/>
			</g>
		</g>
	</g>
</g>
<g>
	<g>
		<path class="st14" d="M432,429.7c-6,12-16.4,13-28.2,8.9c-38.4-13.4-60.4-48.4-83.5-79.4c-11.3-15.2-22.8-30.3-34.5-45.1
			c0,0-13.7-3.1-22.9-14s-6.8-17.6-15.4-29.4c-2.4-3.2-4.9-6.4-7.6-9.4c-1.3-1.5-3.4-3.3-4.1-5.3c-0.6-1.7,0.1-2.4,1.6-3.4
			c3.2-2.3,7.9,1.5,10.6,3.6c2.5,2.1,4.5,4.9,4.8,8.1c4.8,1.1,9,4.5,10.9,8.9c-0.1-0.2,1-3.4,1.1-3.9c0.3-1.1,0.7-2.3,1-3.4
			c0.7-2.6,1.5-5.2,2.1-7.8c0-0.1,0.1-0.2,0.1-0.3c0.9-3.2,1.8-6.5,2.7-9.8c-9.7-13.7-7.9-17-5.3-18.3c3.2-1.5,9.3,8.7,10.3,10.2
			c-0.9-1.5-6.9-12.3-8.7-20.4c-1.8-8.5,6.2-5.5,6.4-5.4l0,0c-0.5-8.2,4.5-9.6,6.7-6.5c2.2,3.1,8.1,29.2,14.4,43.7
			c1.8,4.1,3.2,7.5,4.2,10.1c2.6,6.8,3,9.4,3,9.4c2.1,8.8,5.4,30.8,5.4,30.8s19.3,18.2,52.7,39c19.5,12.2,41.3,20.6,58.9,36
			C435,390.8,442.2,409.4,432,429.7z"/>
	</g>
	<g>
		<path class="st17" d="M264.4,284.7c-0.1,0-0.1,0-0.1,0c-0.2-0.1-0.3-0.3-0.2-0.5c1.5-4,1.2-8.6-0.8-12.3c-0.1-0.2,0-0.4,0.1-0.5
			c0.2-0.1,0.4,0,0.5,0.1c2.1,4,2.4,8.8,0.8,13C264.7,284.7,264.6,284.7,264.4,284.7z"/>
	</g>
	<g>
		<path class="st7" d="M280.4,265.9l-12.2-7.7c0-0.1,0.1-0.2,0.1-0.3c0.9-3.2,1.8-6.5,2.7-9.8L280.4,265.9z"/>
	</g>
</g>
<g>
	<g>
		<path class="st14" d="M215.6,413.6c0,0-5.8,10.7-11.2,19c-2.7,4.2-5.3,7.9-7,9.3c-5.1,4.3-7.6,4.3-12.9,3.7s-10.1-0.4-14.3-0.6
			c-4.3-0.1-5.6-4.4-10-5.6c-5-1.4-5.2-3.4-10-6.3c-5.4-3.3-9.4-12.9-9.4-12.9c-19.7,1.8-27.9-6.5-27.9-6.5L215.6,413.6L215.6,413.6
			z"/>
	</g>
	<g>
		<path class="st7" d="M204.7,431.2c3.3-11.7-3.9-7.7-5.2-8.6c-1.3-0.9-12.9-4.6-24.2-2.2c-11.3,2.3-18.1-1.2-18.1-1.2l-16.2,1
			c-19.7,1.8-27.9-6.5-27.9-6.5h102.7c0,0-5.8,10.7-11.2,19C204.4,432.2,204.5,431.7,204.7,431.2z"/>
	</g>
	<g>
		<path class="st7" d="M167.5,431.2c0.1-0.2,0.9-0.3,1.1-0.4c0.4-0.1,0.9-0.3,1.2-0.4c0.8-0.3,1.6-0.7,2.4-1
			c1.6-0.7,3.2-1.5,4.6-2.4c1.5-0.9,3-1.8,4.5-2.7c1.2-0.9,2.2-2.1,3.3-3.2c3.5-3.2,7.4-6.1,11.5-8.4c0.7-0.4,1.7-1.4,0.8-2.2
			c-0.3-0.3-0.9-0.4-1.3-0.6c-0.5-0.1-1-0.4-1.5-0.5c-1.4-0.3-2.8-0.3-4.2-0.1c-2.1,0.2-4.5,0.9-6.3,1.8c-1.8,1-2.9,2.9-4,4.6
			c-1.8,2.5-4,4.6-5.8,7.1C171.7,425.5,169.8,428.5,167.5,431.2z"/>
	</g>
	<g>
		<path class="st17" d="M167.6,431.9c-0.1,0-0.1,0-0.2,0c-0.1-0.1-0.3-0.2-0.3-0.4c0-0.2,0-0.7,7-9.5c3.4-4.3,6.8-8.5,6.8-8.6
			c0.1-0.1,0.4-0.2,0.5-0.1c0.1,0.1,0.2,0.4,0.1,0.5c-4.6,5.7-11.9,14.8-13.4,17.2c2.4-0.8,12-5.8,16.7-10.1
			c5.2-4.8,10.4-7.6,10.4-7.6c0.2-0.1,0.4,0,0.5,0.1c0.1,0.2,0,0.4-0.1,0.5c-0.1,0-5.1,2.7-10.2,7.5c-3.2,2.9-8.3,6-10.4,7.1
			C173.9,429.2,169,431.9,167.6,431.9z"/>
	</g>
	<g>
		<path class="st17" d="M180.5,440.5c-0.1,0-0.3-0.1-0.4-0.2c-0.1-0.1-0.1-0.4,0.1-0.5c5.1-3.1,9.5-7.7,13.7-12.2
			c1.2-1.3,2.6-2.7,3.9-4c3.4-3.5,6.8-6.9,10.1-10.3c0.1-0.1,0.4-0.1,0.5,0s0.1,0.4,0,0.5c-3.3,3.4-6.7,6.9-10.1,10.3
			c-1.2,1.3-2.6,2.6-3.8,4c-4.3,4.5-8.7,9.1-13.9,12.3C180.6,440.5,180.6,440.5,180.5,440.5z"/>
	</g>
	<g>
		<path class="st17" d="M155.3,420.8c-0.1,0-0.3-0.1-0.4-0.2c-0.1-0.2,0-0.4,0.1-0.5c2.6-1.2,8.5-6.6,8.5-6.7c0.1-0.1,0.4-0.1,0.5,0
			c0.1,0.1,0.1,0.4,0,0.5c-0.2,0.2-6.1,5.5-8.7,6.8C155.4,420.7,155.4,420.8,155.3,420.8z"/>
	</g>
</g>
<g>
	<g>
		<g>
			<rect x="62.4" y="371.2" class="st24" width="181.1" height="44.6"/>
		</g>
		<g class="st25">
			<path class="st26" d="M243.6,371.2v44.6c0,0-1-17.5-0.8-22.3C242.8,388.6,243.6,371.2,243.6,371.2z"/>
		</g>
		<g class="st15">
			<path class="st27" d="M243.6,415.8H62.4v-44.6h97.4c-20.9,5.4-43.6,15.7-55.6,35L243.6,415.8z"/>
		</g>
		<g>
			<polygon class="st28" points="283.4,403.6 243.6,415.8 243.6,371.2 283.4,359 			"/>
		</g>
	</g>
	<g>
		<polygon class="st29" points="62.4,371.2 115.7,359 283.4,359 243.6,371.2 		"/>
	</g>
</g>
<g>
	<rect x="71.1" y="212.8" class="st30" width="171" height="156.2"/>
</g>
<g class="st18">
	<path class="st31" d="M71.1,303.8H144v1.2C102.1,304.7,71.1,303.8,71.1,303.8z"/>
</g>
<g class="st18">
	<path class="st31" d="M242.1,303.8c-16,1.2-40.7,1.5-72.8,1.3v-1.3H242.1z"/>
</g>
<g class="st25">
	<path class="st26" d="M242.1,212.8V369c0,0-1.4-55.3-1.6-77.8C240.3,268.7,242.1,212.8,242.1,212.8z"/>
</g>
<g class="st25">
	<rect x="144" y="212.8" class="st26" width="25.4" height="52.1"/>
</g>
<g>
	<rect x="156.4" y="212.8" class="st27" width="0.6" height="52.1"/>
</g>
<g>
	<polygon class="st32" points="281.8,222.1 280.5,311.9 279.8,357.6 242.1,369 242.1,212.8 267.2,218.7 	"/>
</g>
<g class="st4">
	<path d="M281.8,222.1l-1.3,89.7c-0.1,0.2-0.1,0.3-0.1,0.3s-1.8-32.3-1.6-37.6c0.1-5.3-2.2-10.3-12.5-25.1
		c-10.3-14.8-1.7-18.9-1.7-18.9l5,3.9c-6.1-11.1-2.4-15.8-2.4-15.8L281.8,222.1z"/>
</g>
<g>
	<path class="st7" d="M299,261.6l-25.3-47.4c-0.5-8.2,4.5-9.6,6.7-6.5c2.2,3.1,8.1,29.2,14.4,43.7C296.6,255.5,298,258.9,299,261.6z
		"/>
</g>
<g>
	<g>
		<path class="st14" d="M432,429.7c-6,12-16.4,13-28.2,8.9c-16.9-6-30.6-16-42.7-28.1c0,0,0,0-0.1-0.1
			c-15.3-15.4-27.9-33.9-40.8-51.3c-11.3-15.2-22.8-30.3-34.5-45.1c0,0-2.3-0.5-5.5-1.8l0.8-44.8l0.1-3.3
			c-21.5-30.1-18.2-33-15.5-34.3c3.2-1.5,9.3,8.7,10.3,10.2c-0.9-1.5-6.9-12.3-8.7-20.4c-1.8-8.5,6.2-5.5,6.4-5.4l0,0
			c-0.5-8.2,4.5-9.6,6.7-6.5c2.2,3.1,8.1,29.2,14.4,43.7c1.8,4.1,3.2,7.5,4.2,10.1c2.6,6.8,3,9.4,3,9.4c2.1,8.8,5.4,30.8,5.4,30.8
			s19.3,18.2,52.7,39c19.5,12.2,41.3,20.6,58.9,36C435,390.8,442.2,409.4,432,429.7z"/>
	</g>
	<g class="st18">
		<path class="st2" d="M284.1,234.9c0.3,0.7,0.5,1.5,0.4,2.2c0,0.6-0.4,1.5-1,1.5s-1.3-0.9-1.7-1.3c-1-1.2-2-2.5-2.7-3.8
			c-1.7-2.9-2.8-6-3.8-9.2c-0.2-0.6-1.3-4.4-0.2-4.4c1,0.1,2.5,3.7,2.9,4.5c1.2,2.1,2.5,4.2,3.7,6.3
			C282.3,232,283.4,233.4,284.1,234.9z"/>
	</g>
	<g class="st18">
		<path class="st2" d="M267.7,234.8c-0.3-0.8-0.1-2.5,1.2-2c0.9,0.4,2,2.2,2.6,3c0.4,0.5,4.3,7,3.8,7.1c-0.8,0.2-1.6-0.1-2.3-0.6
			c-0.7-0.5-1.1-1.2-1.6-1.8c-1-1.4-1.9-2.7-2.9-4.1C268.2,235.8,267.9,235.3,267.7,234.8z"/>
	</g>
	<g class="st18">
		<path class="st2" d="M395.2,366.9c4.2,2.5,8.4,5.1,12.3,8.1c3.6,2.8,9,6.5,8.4,11.8c-0.7,5.7-7.5,4.6-11.4,3.5
			c-5-1.4-9.5-4.1-13.7-7.1c-8.9-6.1-17-13.1-25.1-20.1c-13.4-11.6-26.9-23.2-40.4-34.8c-1.6-1.4-4.3-4.1-2.6-6.5
			c1.5-2.1,3.6,0.1,5.1,1.1c5.1,3.7,10.4,7.3,15.7,10.8c10.8,7.3,21.8,14.5,32.8,21.5C382.5,359.1,388.8,363,395.2,366.9z"/>
	</g>
	<g>
		<path class="st7" d="M361,410.4c-15.3-15.4-27.9-33.9-40.8-51.3c-11.3-15.2-22.8-30.3-34.5-45.1c0,0-2.3-0.5-5.5-1.8l0.8-44.8
			l0.1-3.3l5.1,10.5c0,0-0.8,30.3,1.2,32.6c1.3,1.5,5.1,2.6,7,2.1c-0.3,0.1-2,2.7-2.6,3.2C291.8,312.4,347,396.1,361,410.4z"/>
	</g>
	<g>
		<path class="st17" d="M288.8,263.4c-0.2,0-0.4-0.1-0.4-0.4c0-3.1-2.3-4.3-2.3-4.3c-0.1,0-0.1-0.1-0.1-0.1l-10.4-18.4
			c-0.1-0.2-0.1-0.4,0.1-0.5c0.2-0.1,0.4-0.1,0.5,0.1l10.3,18.2c0.5,0.3,2.6,1.8,2.6,5C289.2,263.1,289,263.4,288.8,263.4z"/>
	</g>
	<g>
		<path class="st7" d="M299,261.6l-25.3-47.4c-0.5-8.2,4.5-9.6,6.7-6.5c2.2,3.1,8.1,29.2,14.4,43.7C296.6,255.5,298,258.9,299,261.6
			z"/>
	</g>
	<g>
		<path class="st17" d="M299,262c-0.1,0-0.3-0.1-0.4-0.2c-1.2-3-2.6-6.4-4.2-10.1c-3.6-8.2-7.1-20.1-9.8-29.6
			c-2-6.8-3.7-12.8-4.6-14c-0.1-0.2-0.3-0.4-0.4-0.5c-0.1-0.1-0.1-0.4,0-0.5c0.1-0.1,0.4-0.1,0.5,0c0.2,0.2,0.4,0.4,0.5,0.6
			c1,1.4,2.6,6.8,4.7,14.3c2.7,9.5,6.2,21.3,9.8,29.5c1.7,3.7,3.1,7.2,4.2,10.2C299.4,261.7,299.3,262,299,262
			C299.1,262,299,262,299,262z"/>
	</g>
</g>
<g>
	<g>
		<g>
			<g>
				<path class="st33" d="M499.7,129.2v74.3c0,1.7-0.4,3.3-1,4.8c-1.8,4-5.9,6.8-10.6,6.8h-74.3c-6.4,0-11.6-5.2-11.6-11.6v-74.3
					c0-6.4,5.2-11.6,11.6-11.6h74.3c4,0,7.5,2.1,9.6,5.1C499,124.6,499.7,126.9,499.7,129.2z"/>
			</g>
			<g>
				<rect x="467.3" y="162.4" class="st34" width="32.4" height="39.8"/>
			</g>
			<g>
				<path class="st35" d="M499.7,129.2v30.1h-76.3l41.6-41.6h23.1c4,0,7.5,2.1,9.6,5.1C499,124.6,499.7,126.9,499.7,129.2z"/>
			</g>
			<g>
				<path class="st36" d="M467.3,117.7l-65.1,65.1v-53.6c0-6.4,5.2-11.6,11.6-11.6L467.3,117.7L467.3,117.7z"/>
			</g>
			<g>
				<path class="st37" d="M465.4,159.9v55.3h-51.6c-6.4,0-11.6-5.2-11.6-11.6V179l21.8-19L465.4,159.9L465.4,159.9z"/>
			</g>
			<g>
				<path class="st38" d="M499.7,165.7v-11.9h-62.8l35.9-35.9l-0.1-0.1h-16.7l-53.9,53.9v16.8l22.8-22.8h34.5v49.5h11.9v-6.8h27.2
					c0.7-1.5,1-3.1,1-4.8v-7.1h-28.2v-30.8L499.7,165.7L499.7,165.7z"/>
			</g>
		</g>
		<g>
			<path class="st33" d="M451,135.1c-11.7,0-21.2,9.5-21.2,21.2c0,11.7,21.2,41.6,21.2,41.6s21.2-29.9,21.2-41.6
				C472.1,144.5,462.7,135.1,451,135.1z M451,165.2c-5,0-9-4-9-9c0-5,4-9,9-9s9,4,9,9C459.9,161.2,456,165.2,451,165.2z"/>
		</g>
	</g>
	<g>
		<g>
			
				<linearGradient id="SVGID_3_" gradientUnits="userSpaceOnUse" x1="114.0597" y1="591.2178" x2="211.5719" y2="591.2178" gradientTransform="matrix(1 0 0 -1 0 700)">
				<stop  offset="0" style="stop-color:#4EAD42"/>
				<stop  offset="1" style="stop-color:#4EAD42"/>
			</linearGradient>
			<path class="st39" d="M200,157.5h-74.4c-6.4,0-11.6-5.2-11.6-11.6V71.6c0-6.4,5.2-11.6,11.6-11.6H200c4,0,7.5,2.1,9.6,5.1
				c1.2,1.8,2,4.1,2,6.5v74.3C211.6,152.4,206.4,157.5,200,157.5z"/>
		</g>
		<g class="st4">
			<g>
				<path d="M136.1,74.6v56.7h-9.4v3.5c0,6.4,3.9,11.8,9.4,14.1c1.8,0.7,3.8,1.2,5.9,1.2h41.7c0.9,0,1.8-0.1,2.7-0.2
					c3.8-0.7,7.2-2.8,9.5-5.8c2-2.6,3.2-5.8,3.2-9.3V74.6H136.1z"/>
			</g>
		</g>
		<g>
			<g>
				<g>
					<path class="st2" d="M194.5,71v60.2c0,3.5-1.2,6.8-3.2,9.3c-2.3,3-5.7,5.1-9.5,5.8c-0.9,0.1-1.8,0.2-2.7,0.2h-41.7
						c-2.1,0-4.1-0.4-5.9-1.2V71H194.5z"/>
				</g>
				<g>
					<path class="st35" d="M181.8,146.4c-0.9,0.1-1.8,0.2-2.7,0.2h-41.7c-2.1,0-4.1-0.4-5.9-1.2c-5.5-2.3-9.4-7.8-9.4-14.1v-3.5
						h47.1v3.5C169.2,138.8,174.6,145,181.8,146.4z"/>
				</g>
			</g>
			<g>
				<g>
					<rect x="139.6" y="78.5" class="st40" width="5.8" height="5.1"/>
				</g>
				<g>
					<rect x="149.6" y="78.5" class="st40" width="36.8" height="5.1"/>
				</g>
				<g>
					<rect x="139.6" y="88.5" class="st40" width="5.8" height="5.1"/>
				</g>
				<g>
					<rect x="149.6" y="88.5" class="st40" width="36.8" height="5.1"/>
				</g>
				<g>
					<rect x="139.6" y="98.4" class="st40" width="5.8" height="5.1"/>
				</g>
				<g>
					<rect x="149.6" y="98.4" class="st40" width="36.8" height="5.1"/>
				</g>
				<g>
					<rect x="139.6" y="108.3" class="st40" width="5.8" height="5.1"/>
				</g>
				<g>
					<rect x="149.6" y="108.3" class="st40" width="36.8" height="5.1"/>
				</g>
				<g>
					<rect x="149.6" y="118.3" class="st40" width="36.8" height="5.1"/>
				</g>
				<g>
					<rect x="139.6" y="118.3" class="st40" width="5.8" height="5.1"/>
				</g>
			</g>
		</g>
		<g>
			<path class="st37" d="M142.4,81.6c-0.1,0-0.3-0.1-0.4-0.1l-3.9-3.9c-0.2-0.2-0.2-0.6,0-0.8c0.2-0.2,0.6-0.2,0.8,0l3.5,3.5
				l7.1-7.1c0.2-0.2,0.6-0.2,0.8,0c0.2,0.2,0.2,0.6,0,0.8l-7.5,7.5C142.7,81.6,142.6,81.6,142.4,81.6z"/>
		</g>
		<g>
			<path class="st37" d="M142.4,91.8L142.4,91.8c-0.1,0-0.3-0.1-0.4-0.1l-3.9-3.9c-0.2-0.2-0.2-0.6,0-0.8c0.2-0.2,0.6-0.2,0.8,0
				l3.5,3.5l7.1-7.1c0.2-0.2,0.6-0.2,0.8,0c0.2,0.2,0.2,0.6,0,0.8l-7.5,7.5C142.7,91.7,142.6,91.8,142.4,91.8z"/>
		</g>
		<g>
			<path class="st37" d="M142.4,101.8L142.4,101.8c-0.1,0-0.3-0.1-0.4-0.1l-3.9-3.9c-0.2-0.2-0.2-0.6,0-0.8c0.2-0.2,0.6-0.2,0.8,0
				l3.5,3.5l7.1-7.1c0.2-0.2,0.6-0.2,0.8,0c0.2,0.2,0.2,0.6,0,0.8l-7.5,7.5C142.7,101.8,142.6,101.8,142.4,101.8z"/>
		</g>
	</g>
</g>
<g>
	<path class="st2" d="M128.2,291.9H158l1.8-2.9h-31.7c-0.8,0-1.6,0.1-2.3,0.4c-0.7,0.2-1.2,0.6-1.7,1c-0.4,0.4-0.8,0.9-1,1.5
		c-0.2,0.6-0.3,1.2-0.3,1.9c0,0.7,0.1,1.3,0.4,1.9c0.2,0.6,0.6,1.1,1,1.5c0.4,0.4,1,0.7,1.6,1c0.7,0.2,1.4,0.4,2.2,0.4h7.9
		c0.8,0,1.4,0.2,1.8,0.5c0.4,0.4,0.6,0.9,0.6,1.6c0,0.7-0.2,1.2-0.6,1.6c-0.4,0.4-1,0.6-1.8,0.6h-25.3l-1.8,2.9h18.7
		c1.1-1.3,2.8-2.2,4.7-2.2c1.9,0,3.6,0.8,4.7,2.1c0.5-0.1,0.9-0.2,1.4-0.3c0.7-0.2,1.2-0.6,1.7-1c0.4-0.4,0.8-1,1-1.5
		c0.2-0.6,0.3-1.2,0.3-1.9c0-1.6-0.5-2.8-1.4-3.6c-0.9-0.8-2.2-1.2-4-1.2h-7.8c-0.7,0-1.2-0.2-1.6-0.5c-0.4-0.4-0.6-0.8-0.6-1.5
		c0-0.6,0.2-1.1,0.6-1.5C127,292.1,127.5,291.9,128.2,291.9"/>
	<polygon class="st2" points="141.6,289 141.6,305.7 144.6,305.7 144.6,291.9 158,291.9 159.9,289 	"/>
	<polygon class="st2" points="155.5,296.3 153.9,298.8 146.8,298.8 146.8,296.3 	"/>
	<polygon class="st2" points="169,301.5 160.9,301.5 162.3,299.1 167.5,299.1 	"/>
	<path class="st2" d="M191.5,297.2c-0.9-0.8-2.2-1.2-4-1.2h-7.8c-0.7,0-1.2-0.2-1.6-0.5c-0.4-0.4-0.6-0.8-0.6-1.5
		c0-0.6,0.2-1.1,0.6-1.5c0.4-0.4,0.9-0.5,1.6-0.5H209l1.8-2.9l-31.1,0c-0.8,0-1.6,0.1-2.3,0.4c-0.7,0.2-1.2,0.6-1.7,1
		c-0.4,0.4-0.8,0.9-1,1.5c-0.2,0.6-0.3,1.2-0.3,1.9c0,0.7,0.1,1.3,0.4,1.9c0.2,0.6,0.6,1.1,1,1.5c0.4,0.4,1,0.7,1.6,1
		c0.7,0.2,1.4,0.4,2.2,0.4h7.9c0.8,0,1.4,0.2,1.8,0.5c0.4,0.4,0.6,0.9,0.6,1.6c0,0.7-0.2,1.2-0.6,1.6c-0.4,0.4-1,0.6-1.8,0.6
		l-17.8-0.1l1.8,3l8.4,0c1.1-1.3,2.8-2.2,4.7-2.2c1.8,0,3.5,0.8,4.6,2c0.2-0.1,0.5-0.1,0.7-0.2c0.7-0.2,1.2-0.6,1.7-1
		c0.4-0.4,0.8-1,1-1.5c0.2-0.6,0.3-1.2,0.3-1.9C192.8,299.2,192.4,298,191.5,297.2"/>
	<path class="st2" d="M165.3,289.7c-0.2-0.3-0.4-0.5-0.6-0.7c-0.2-0.2-0.5-0.3-0.8-0.3c-0.3,0-0.6,0.1-0.8,0.3
		c-0.2,0.2-0.4,0.4-0.6,0.7l-9.8,16h3.4l7.8-12.8l3.7,6.1l0.1,0.2l1.4,2.4h0l2.6,4.2h3.6L165.3,289.7z"/>
	<polygon class="st2" points="198.6,305.7 198.6,291.9 192.1,291.9 192.1,289 210.8,289 209,291.9 201.6,291.9 201.6,305.7 	"/>
	<path class="st2" d="M132.3,304.6c-3,0-5.5,2.4-5.5,5.3c0,3,2.5,5.3,5.5,5.3c3,0,5.5-2.4,5.5-5.3
		C137.8,307,135.3,304.6,132.3,304.6 M132.3,313c-1.7,0-3-1.4-3-3.1c0-1.7,1.4-3.1,3-3.1c1.7,0,3,1.4,3,3.1
		C135.3,311.6,134,313,132.3,313"/>
	<path class="st2" d="M184.6,304.6c-3,0-5.5,2.4-5.5,5.3c0,3,2.5,5.3,5.5,5.3s5.5-2.4,5.5-5.3C190.1,307,187.6,304.6,184.6,304.6
		 M184.6,313c-1.7,0-3-1.4-3-3.1c0-1.7,1.4-3.1,3-3.1s3,1.4,3,3.1C187.6,311.6,186.3,313,184.6,313"/>
	<path class="st2" d="M133.3,309.9c0,0.6-0.5,1-1,1c-0.6,0-1-0.5-1-1c0-0.6,0.5-1,1-1C132.9,308.9,133.3,309.3,133.3,309.9"/>
	<path class="st2" d="M185.6,309.9c0,0.6-0.5,1-1,1c-0.6,0-1-0.5-1-1c0-0.6,0.5-1,1-1C185.2,308.9,185.6,309.3,185.6,309.9"/>
	<path class="st2" d="M117.8,300.3h-8.9H117.8z"/>
	<path class="st2" d="M117.8,300h-8.9c-0.2,0-0.4,0.2-0.4,0.4c0,0.2,0.2,0.4,0.4,0.4h8.9c0.2,0,0.4-0.2,0.4-0.4c0-0.5-0.7-0.5-0.7,0
		L117.8,300h-8.9l0.4,0.4l-0.4,0.4h8.9C118.3,300.7,118.3,300,117.8,300"/>
	<path class="st2" d="M121,296.4h-8.9H121z"/>
	<path class="st2" d="M121,296h-8.9c-0.2,0-0.4,0.2-0.4,0.4c0,0.2,0.2,0.4,0.4,0.4h8.9c0.2,0,0.4-0.2,0.4-0.4c0-0.5-0.7-0.5-0.7,0
		L121,296h-8.9l0.4,0.4l-0.4,0.4h8.9C121.5,296.7,121.5,296,121,296"/>
	<path class="st2" d="M120.4,292.2h-8.9H120.4z"/>
	<path class="st2" d="M120.4,291.8h-8.9c-0.2,0-0.4,0.2-0.4,0.4c0,0.2,0.2,0.4,0.4,0.4h8.9c0.2,0,0.4-0.2,0.4-0.4
		c0-0.5-0.7-0.5-0.7,0L120.4,291.8h-8.9l0.4,0.4l-0.4,0.4h8.9C120.8,292.5,120.8,291.8,120.4,291.8"/>
	<polygon class="st2" points="146.8,308 144.6,313.8 143.7,313.8 144.2,311.1 143.2,313.8 142.3,313.8 143.2,308 144,308 
		143.3,311.7 144.6,308 145.4,308 144.7,311.7 146,308 	"/>
	<polygon class="st2" points="150.6,308 148.3,313.8 147.5,313.8 148,311.1 146.9,313.8 146.1,313.8 147,308 147.8,308 147.1,311.7 
		148.4,308 149.2,308 148.5,311.7 149.8,308 	"/>
	<polygon class="st2" points="154.3,308 152.1,313.8 151.3,313.8 151.7,311.1 150.7,313.8 149.9,313.8 150.7,308 151.6,308 
		150.9,311.7 152.2,308 152.9,308 152.2,311.7 153.5,308 	"/>
	<path class="st2" d="M153.7,313.8c-0.2,0-0.4-0.2-0.4-0.5c0-0.3,0.2-0.5,0.4-0.5c0.2,0,0.4,0.2,0.4,0.5
		C154.1,313.6,153.9,313.8,153.7,313.8"/>
	<path class="st2" d="M157.1,312.6c-0.1,0.4-0.2,0.7-0.5,0.9c-0.2,0.2-0.5,0.3-0.8,0.3c-0.3,0-0.5-0.1-0.6-0.3
		c-0.2-0.3-0.2-0.6-0.1-0.9l0.2-0.9h0.9l-0.2,1c0,0.2,0.1,0.2,0.1,0.2c0,0,0.2,0,0.2-0.2l0.1-0.7c0-0.2,0-0.3-0.2-0.5l-0.5-0.7
		c-0.1-0.2-0.2-0.4-0.1-0.8c0,0,0.1-0.7,0.1-0.7c0.1-0.4,0.2-0.7,0.5-0.9c0.2-0.2,0.4-0.3,0.8-0.3c0.3,0,0.5,0.1,0.6,0.3
		c0.2,0.3,0.2,0.6,0.1,0.9l-0.2,0.8h-0.9l0.2-0.9c0-0.2-0.1-0.2-0.1-0.2c-0.1,0-0.1,0-0.2,0.2l-0.1,0.7c-0.1,0.3,0.1,0.3,0.2,0.5
		l0.5,0.7c0.2,0.3,0.1,0.5,0.1,0.9L157.1,312.6z"/>
	<polygon class="st2" points="159,308 160.7,308 160.5,309 159.7,309 159.4,310.5 160,310.5 159.8,311.4 159.2,311.4 158.7,313.8 
		157.8,313.8 	"/>
	<path class="st2" d="M161.5,313.8l0.1-0.9h-0.4l-0.2,0.9H160l1.9-5.7h0.9l-0.4,5.7H161.5L161.5,313.8z M161.7,312.1l0.3-2.3
		l-0.6,2.3H161.7z"/>
	<path class="st2" d="M165.3,312.6c-0.1,0.4-0.2,0.7-0.5,0.9c-0.2,0.2-0.5,0.3-0.8,0.3c-0.3,0-0.5-0.1-0.6-0.3
		c-0.2-0.3-0.2-0.6-0.1-0.9l0.2-0.9h0.9l-0.2,1c0,0.2,0.1,0.2,0.1,0.2c0,0,0.2,0,0.2-0.2l0.1-0.7c0-0.2,0-0.3-0.2-0.5l-0.5-0.7
		c-0.1-0.2-0.2-0.4-0.1-0.8c0,0,0.1-0.7,0.1-0.7c0.1-0.4,0.2-0.7,0.5-0.9c0.2-0.2,0.4-0.3,0.8-0.3c0.3,0,0.5,0.1,0.6,0.3
		c0.2,0.3,0.2,0.6,0.1,0.9l-0.2,0.8h-0.9l0.2-0.9c0-0.2-0.1-0.2-0.1-0.2c-0.1,0-0.1,0-0.2,0.2l-0.1,0.7c-0.1,0.3,0.1,0.3,0.2,0.5
		l0.5,0.7c0.2,0.3,0.1,0.5,0.1,0.9L165.3,312.6z"/>
	<polygon class="st2" points="167.4,309 166.8,309 167,308 169.1,308 168.9,309 168.3,309 167.4,313.8 166.5,313.8 	"/>
	<path class="st2" d="M168.9,313.8c-0.2,0-0.4-0.2-0.4-0.5c0-0.3,0.2-0.5,0.4-0.5c0.2,0,0.4,0.2,0.4,0.5
		C169.3,313.6,169.1,313.8,168.9,313.8"/>
	<path class="st2" d="M171.5,311.5h0.9l-0.3,1.1c-0.1,0.4-0.3,0.7-0.6,0.9c-0.3,0.2-0.5,0.3-0.8,0.3c-0.3,0-0.5-0.1-0.6-0.3
		c-0.1-0.3-0.2-0.6-0.1-0.9l0.9-3.4c0.1-0.4,0.3-0.7,0.6-0.9c0.3-0.2,0.5-0.3,0.8-0.3c0.3,0,0.5,0.1,0.6,0.3
		c0.1,0.3,0.2,0.5,0.1,0.9l-0.3,1.2h-0.9l0.3-1.2c0-0.2-0.1-0.2-0.1-0.2c0,0-0.2,0-0.2,0.2l-1,3.5c0,0.2,0.1,0.2,0.1,0.2
		c0,0,0.2,0,0.2-0.2L171.5,311.5z"/>
	<polygon class="st2" points="173.6,308 174.6,308 173.3,312.7 174.1,312.7 173.8,313.8 172.1,313.8 	"/>
</g>
</svg>
