<?xml version="1.0" encoding="utf-8"?>
<!-- Generator: Adobe Illustrator 22.0.0, SVG Export Plug-In . SVG Version: 6.00 Build 0)  -->
<svg version="1.1" id="Capa_1" xmlns="http://www.w3.org/2000/svg" xmlns:xlink="http://www.w3.org/1999/xlink" x="0px" y="0px"
	 viewBox="0 0 708.1 524.9" style="enable-background:new 0 0 708.1 524.9;" xml:space="preserve">
<style type="text/css">
	.st0{opacity:0.35;}
	.st1{fill:#FFFFFF;}
	.st2{fill:url(#SVGID_1_);}
	.st3{fill:url(#SVGID_2_);}
	.st4{fill:#F2B680;}
	.st5{fill:url(#SVGID_3_);}
	.st6{fill:url(#SVGID_4_);}
	.st7{fill:url(#SVGID_5_);}
	.st8{fill:url(#SVGID_6_);}
	.st9{fill:url(#SVGID_7_);}
	.st10{fill:url(#SVGID_8_);}
	.st11{fill:url(#SVGID_9_);}
	.st12{fill:url(#SVGID_10_);}
	.st13{fill:url(#SVGID_11_);}
	.st14{fill:url(#SVGID_12_);}
	.st15{fill:#B7E0ED;}
	.st16{fill:#006837;}
	.st17{fill:url(#SVGID_13_);}
	.st18{fill:#2F2F41;}
	.st19{fill:#BF8C60;}
	.st20{fill:url(#SVGID_14_);}
	.st21{fill:url(#SVGID_15_);}
	.st22{fill:url(#SVGID_16_);}
	.st23{fill:url(#SVGID_17_);}
	.st24{fill:url(#SVGID_18_);}
	.st25{fill:#17750A;}
	.st26{fill:#E6E6E6;}
	.st27{fill:#F2F2F2;}
	.st28{fill:url(#SVGID_19_);}
	.st29{fill:url(#SVGID_20_);}
	.st30{fill:url(#SVGID_21_);}
	.st31{fill:url(#SVGID_22_);}
	.st32{fill:url(#SVGID_23_);}
	.st33{fill:#7974DB;}
	.st34{fill:#D99865;}
	.st35{fill:#7F47DD;}
	.st36{fill:url(#SVGID_24_);}
	.st37{fill:url(#SVGID_25_);}
	.st38{fill:url(#SVGID_26_);}
	.st39{fill:url(#SVGID_27_);}
	.st40{fill:url(#SVGID_28_);}
	.st41{fill:url(#SVGID_29_);}
	.st42{fill:#4A5375;}
	.st43{fill:#32384F;}
	.st44{fill:#272B3E;}
	.st45{fill:#B3C9D7;}
	.st46{fill:#D0E4F0;}
	.st47{fill:#161827;}
	.st48{fill:#EDB381;}
	.st49{fill:#F1DBC6;}
	.st50{fill:#A26141;}
	.st51{fill:#353C54;}
	.st52{fill:url(#SVGID_30_);}
	.st53{fill:url(#SVGID_31_);}
	.st54{fill:url(#SVGID_32_);}
</style>
<g>
	<g class="st0">
		<path class="st1" d="M48.7,390.9c-20.9-15.4,26.4-15.5,5.4-30.9c-20.9-15.4-32.5-28.3-36-54c-2.9-21.5,0.3-62,15-78
			c18.3-19.8,42.3-28.8,68-37c34.4-10.9,36.3-11.7,68-29c60.6-33,9-118.1,75-138c49-14.8,134.5,7.2,184.8,16.4
			c47.3,8.7,28.2,19.5,76.2,16.6s100,2.3,131,39c26.9,31.7,49.7,85.4,50,127c0.4,62.7-33.2,79.7-42,97c-7.6,15-37.7,20.3-46,35
			c-12.9,22.8,30.2,9.1,38,34c4.9,15.8-7.9,20.2-3,36c4.9,15.8,25.1,6.8,14,19c-6.7,7.4-14.5,50.9-24,54
			c-79.6,25.6-107.3,4.5-190.9,2.9c-96.3-1.8-193.2,5.1-288.6-7.8c-23.5-3.2-47.2-7.7-68.2-18.7S36.2,445,30.4,422
			c-3.5-13.9,0.7-32.5,14.7-35.3"/>
	</g>
	<g>
		<path class="st1" d="M6.6,367.4c11.5-35.5,50.5-34.5,60-68c12.5-110.5,65.5-147.5,111-157s51.4-26.5,72.9-50.2
			s40.7-50.5,68.1-66.9c29.6-17.8,61.1-22,94.5-13.4c70,15,44,82,154.4,111.8c33.6,18.2,44.1,50.2,47.4,81.1
			c3.3,30.9-4.7,64.8,16.4,87.7c11.1,12,67.8,35.4,67.4,106.4c-7.6,96-60.6,128-60.6,128h-577C61.1,526.9-2.9,489.9,6.6,367.4z"/>
	</g>
	<g>
		<g>
			
				<radialGradient id="SVGID_1_" cx="-2135.8213" cy="-4983.6182" r="22.0179" gradientTransform="matrix(-9.041058e-05 0.9646 5.4799 -9.999973e-05 27447.2012 2478.8379)" gradientUnits="userSpaceOnUse">
				<stop  offset="0" style="stop-color:#B3B3B3"/>
				<stop  offset="0.6724" style="stop-color:#EAEAEA"/>
				<stop  offset="1" style="stop-color:#FFFFFF"/>
			</radialGradient>
			<ellipse class="st2" cx="137.8" cy="419.1" rx="120.7" ry="21.2"/>
			<g>
				
					<linearGradient id="SVGID_2_" gradientUnits="userSpaceOnUse" x1="-3402.2175" y1="377.0635" x2="-3229.0266" y2="377.0635" gradientTransform="matrix(-1 -3.457790e-04 -3.457790e-04 1 -3143.4167 -1.4322)">
					<stop  offset="0" style="stop-color:#BF8C60"/>
					<stop  offset="1" style="stop-color:#F2B680"/>
				</linearGradient>
				<polygon class="st3" points="258.7,322.6 258.3,431 85.5,430.9 85.5,322.6 				"/>
				<polygon class="st4" points="85.5,322.6 258.4,322.6 242.4,311.5 99.6,311.4 				"/>
				<g>
					<g>
						<polygon points="237.3,386.8 233.5,388.8 233.5,382.4 237.3,381.1 						"/>
						<polygon points="229.3,381.1 233.2,382.4 233.2,388.8 229.3,386.8 						"/>
						<polygon points="233.4,379.8 237.2,380.9 233.4,382.2 229.5,380.9 						"/>
						<path d="M234.2,389.2l3.4-2c0.1-0.1,0.2,0,0.3,0.1l0.3,0.4c0.1,0.1,0,0.2-0.1,0.3l-1.9,1.1c-0.1,0.1-0.1,0.2-0.1,0.3l0.1,0.2
							c0.1,0.1,0.2,0.1,0.3,0.1l2.9-1.6c0.1-0.1,0.2-0.2,0.2-0.3l0-2.4c0-0.1,0.1-0.2,0.2-0.2l0.5,0c0.1,0,0.2,0.1,0.2,0.2l0,3
							c0,0.1-0.1,0.3-0.2,0.3l-3.6,2c-0.1,0.1-0.2,0.2-0.2,0.3l0,1.8c0,0.1-0.1,0.2-0.2,0.2l-2.2,0c-0.1,0-0.2-0.1-0.2-0.2l0-3.1
							C234,389.4,234.1,389.3,234.2,389.2z"/>
						<path d="M226.6,385.2l0.5,0c0.1,0,0.2,0.1,0.2,0.2l0,2.4c0,0.1,0.1,0.3,0.2,0.3l2.9,1.6c0.1,0.1,0.2,0,0.3-0.1l0.1-0.2
							c0.1-0.1,0-0.2-0.1-0.3l-1.9-1.1c-0.1-0.1-0.1-0.2-0.1-0.3l0.3-0.4c0.1-0.1,0.2-0.1,0.3-0.1l3.4,2c0.1,0.1,0.2,0.2,0.2,0.3
							l0,3.1c0,0.1-0.1,0.2-0.2,0.2l-2.2,0c-0.1,0-0.2-0.1-0.2-0.2l0-1.8c0-0.1-0.1-0.3-0.2-0.3l-3.6-2c-0.1-0.1-0.2-0.2-0.2-0.3
							l0-3C226.4,385.2,226.4,385.2,226.6,385.2z"/>
						<path d="M222.7,376.1L222.7,376.1c0,0.3,0,0.6,0,0.8l0,19.8c0,0.2,0.2,0.4,0.4,0.4h0c0.3,0,0.5,0,0.8,0l19.8,0
							c0.2,0,0.4-0.2,0.4-0.4l0-20.6c0-0.2-0.2-0.4-0.4-0.4l-20.6,0C222.8,375.7,222.7,375.9,222.7,376.1z M223.4,376.5l19.9,0
							l0,19.9l-19.9,0L223.4,376.5z"/>
					</g>
					<g>
						<path d="M200.2,376.1L200.2,376.1c0,0.3,0,0.6,0,0.8l0,19.8c0,0.2,0.2,0.4,0.4,0.4h0c0.3,0,0.5,0,0.8,0l19.8,0
							c0.2,0,0.4-0.2,0.4-0.4v0c0-0.3,0-0.5,0-0.8l0-19.8c0-0.2-0.2-0.4-0.4-0.4l-20.6,0C200.4,375.7,200.2,375.9,200.2,376.1z
							 M200.9,376.5l19.9,0c0,0.2,0,0.3,0,0.5l0,19.4l-19.9,0L200.9,376.5z"/>
						<rect x="204.1" y="392.3" width="13.5" height="1"/>
						<polygon points="214.9,391.9 213,391.9 213,383.4 211.9,383.4 214,380.2 216.1,383.4 214.9,383.4 						"/>
						<polygon points="208.7,391.9 206.8,391.9 206.8,383.4 205.7,383.4 207.8,380.2 209.9,383.4 208.7,383.4 						"/>
					</g>
					<g>
						<path d="M222.7,398.4L222.7,398.4c0,0.3,0,0.6,0,0.8l0,19.8c0,0.2,0.2,0.4,0.4,0.4l0,0c0.3,0,0.5,0,0.8,0l19.8,0
							c0.2,0,0.4-0.2,0.4-0.4l0-20.6c0-0.2-0.2-0.4-0.4-0.4h0c-0.3,0-0.5,0-0.8,0l-19.8,0C222.8,398.1,222.7,398.2,222.7,398.4z
							 M223.4,398.8c0.2,0,0.3,0,0.5,0l19.4,0l0,19.9l-19.9,0L223.4,398.8z"/>
						<path d="M237.7,404l-0.4-0.7l1.4,0c-0.2,0.8-0.5,1.6-1,2.3l-0.6-1.1L237.7,404z"/>
						<path d="M237.2,403.9l-0.6,0.5l0.9,1.6c-0.9,1-2.2,1.7-3.6,1.9l0,5.6l3,0l0,0.9l-3,0l-1.2,0l-3.1,0l0-0.9l3.1,0l0-5.6
							c-2.4-0.3-4.4-2.1-4.9-4.5l9,0L237.2,403.9z"/>
					</g>
					<g>
						<path d="M200.2,398.4L200.2,398.4c0,0.3,0,0.6,0,0.8l0,19.8c0,0.2,0.2,0.4,0.4,0.4l0,0c0.3,0,0.5,0,0.8,0l19.8,0
							c0.2,0,0.4-0.2,0.4-0.4v0c0-0.3,0-0.5,0-0.8l0-19.8c0-0.2-0.2-0.4-0.4-0.4l0,0c-0.3,0-0.5,0-0.8,0l-19.8,0
							C200.4,398.1,200.2,398.2,200.2,398.4z M200.9,398.8c0.2,0,0.3,0,0.5,0l19.4,0c0,0.2,0,0.3,0,0.5l0,19.4l-19.9,0L200.9,398.8z
							"/>
						<path d="M210.4,402.6l0-1l0.9,0l0,0.9c3.3,0.2,5.9,2.7,6.1,5.8c-0.5-0.4-1.2-0.6-1.9-0.6c-1,0-1.8,0.4-2.3,1
							c-0.4-0.5-1-0.9-1.9-1l0,6.2h0c0,0.5,0.4,0.8,0.8,0.8c0.5,0,0.8-0.4,0.8-0.8l0.9,0c0,1-0.8,1.7-1.7,1.7
							c-0.9,0-1.6-0.7-1.7-1.5h0l0-6.4c-0.8,0.1-1.4,0.5-1.8,1h0c-0.4-0.6-1.3-1-2.3-1c-0.7,0-1.4,0.2-1.9,0.6
							C204.6,405.3,207.2,402.8,210.4,402.6z"/>
						<polygon points="213.1,408.7 213.1,408.7 213.1,408.7 						"/>
					</g>
				</g>
			</g>
		</g>
		<g>
			
				<radialGradient id="SVGID_3_" cx="-2112.5007" cy="-4979.4541" r="13.4532" gradientTransform="matrix(-1.000000e-04 0.9646 6.0611 -9.999973e-05 30323.8867 2478.8379)" gradientUnits="userSpaceOnUse">
				<stop  offset="0" style="stop-color:#B3B3B3"/>
				<stop  offset="0.6724" style="stop-color:#EAEAEA"/>
				<stop  offset="1" style="stop-color:#FFFFFF"/>
			</radialGradient>
			<ellipse class="st5" cx="143.1" cy="441.6" rx="81.5" ry="13"/>
			<g>
				
					<linearGradient id="SVGID_4_" gradientUnits="userSpaceOnUse" x1="-3368.3647" y1="416.0299" x2="-3262.543" y2="416.0299" gradientTransform="matrix(-1 -3.457790e-04 -3.457790e-04 1 -3143.4167 -1.4322)">
					<stop  offset="0" style="stop-color:#BF8C60"/>
					<stop  offset="1" style="stop-color:#F2B680"/>
				</linearGradient>
				<polygon class="st6" points="224.8,382.7 224.6,448.9 119,448.8 119,382.6 				"/>
				<polygon class="st4" points="119,382.6 224.6,382.7 214.9,375.8 127.6,375.8 				"/>
				<g>
					<g>
						<polygon points="211.8,421.8 209.4,423.1 209.4,419.2 211.8,418.4 						"/>
						<polygon points="206.9,418.4 209.2,419.2 209.2,423.1 206.9,421.8 						"/>
						<polygon points="209.3,417.6 211.7,418.2 209.3,419 207,418.2 						"/>
						<path d="M209.9,423.4l2.1-1.2c0.1,0,0.1,0,0.2,0l0.2,0.2c0,0.1,0,0.1,0,0.2l-1.2,0.7c-0.1,0-0.1,0.1,0,0.2l0.1,0.1
							c0,0.1,0.1,0.1,0.2,0l1.8-1c0.1,0,0.1-0.1,0.1-0.2l0-1.5c0-0.1,0.1-0.1,0.1-0.1l0.3,0c0.1,0,0.1,0.1,0.1,0.1l0,1.8
							c0,0.1,0,0.2-0.1,0.2l-2.2,1.2c-0.1,0-0.1,0.1-0.1,0.2l0,1.1c0,0.1-0.1,0.1-0.1,0.1l-1.3,0c-0.1,0-0.1-0.1-0.1-0.1l0-1.9
							C209.7,423.5,209.8,423.4,209.9,423.4z"/>
						<path d="M205.2,420.9l0.3,0c0.1,0,0.1,0.1,0.1,0.1l0,1.5c0,0.1,0,0.2,0.1,0.2l1.8,1c0.1,0,0.1,0,0.2,0l0.1-0.1
							c0-0.1,0-0.1,0-0.2l-1.2-0.7c-0.1,0-0.1-0.1,0-0.2l0.2-0.2c0-0.1,0.1-0.1,0.2,0l2.1,1.2c0.1,0,0.1,0.1,0.1,0.2l0,1.9
							c0,0.1-0.1,0.1-0.1,0.1l-1.3,0c-0.1,0-0.1-0.1-0.1-0.1l0-1.1c0-0.1,0-0.2-0.1-0.2l-2.2-1.2c-0.1,0-0.1-0.1-0.1-0.2l0-1.8
							C205.1,420.9,205.1,420.9,205.2,420.9z"/>
						<path d="M202.8,415.3L202.8,415.3c0,0.2,0,0.3,0,0.5l0,12.1c0,0.1,0.1,0.2,0.2,0.2l0,0c0.2,0,0.3,0,0.5,0l12.1,0
							c0.1,0,0.2-0.1,0.2-0.2l0-12.6c0-0.1-0.1-0.2-0.2-0.2l-12.6,0C202.9,415.1,202.8,415.2,202.8,415.3z M203.3,415.6l12.1,0
							l0,12.1l-12.1,0L203.3,415.6z"/>
					</g>
					<g>
						<path d="M189.1,415.3L189.1,415.3c0,0.2,0,0.3,0,0.5l0,12.1c0,0.1,0.1,0.2,0.2,0.2h0c0.2,0,0.3,0,0.5,0l12.1,0
							c0.1,0,0.2-0.1,0.2-0.2v0c0-0.2,0-0.3,0-0.5l0-12.1c0-0.1-0.1-0.2-0.2-0.2l-12.6,0C189.2,415.1,189.1,415.2,189.1,415.3z
							 M189.5,415.6l12.1,0c0,0.1,0,0.2,0,0.3l0,11.9l-12.1,0L189.5,415.6z"/>
						<rect x="191.4" y="425.3" width="8.3" height="0.6"/>
						<polygon points="198.1,425 196.9,425 196.9,419.8 196.2,419.8 197.5,417.8 198.8,419.8 198.1,419.8 						"/>
						<polygon points="194.3,425 193.1,425 193.1,419.8 192.4,419.8 193.7,417.8 195,419.8 194.3,419.8 						"/>
					</g>
					<g>
						<path d="M202.8,429L202.8,429c0,0.2,0,0.3,0,0.5l0,12.1c0,0.1,0.1,0.2,0.2,0.2l0,0c0.2,0,0.3,0,0.5,0l12.1,0
							c0.1,0,0.2-0.1,0.2-0.2l0-12.6c0-0.1-0.1-0.2-0.2-0.2h0c-0.2,0-0.3,0-0.5,0l-12.1,0C202.9,428.8,202.8,428.9,202.8,429z
							 M203.3,429.2c0.1,0,0.2,0,0.3,0l11.9,0l0,12.1l-12.1,0L203.3,429.2z"/>
						<path d="M212,432.4l-0.2-0.5l0.9,0c-0.1,0.5-0.3,1-0.6,1.4l-0.4-0.7L212,432.4z"/>
						<path d="M211.7,432.3l-0.3,0.3l0.6,1c-0.5,0.6-1.3,1-2.2,1.1l0,3.4l1.8,0l0,0.6l-1.8,0l-0.8,0l-1.9,0l0-0.6l1.9,0l0-3.4
							c-1.5-0.2-2.7-1.3-3-2.8l5.5,0L211.7,432.3z"/>
					</g>
					<g>
						<path d="M189.1,429L189.1,429c0,0.2,0,0.3,0,0.5l0,12.1c0,0.1,0.1,0.2,0.2,0.2h0c0.2,0,0.3,0,0.5,0l12.1,0
							c0.1,0,0.2-0.1,0.2-0.2v0c0-0.2,0-0.3,0-0.5l0-12.1c0-0.1-0.1-0.2-0.2-0.2h0c-0.2,0-0.3,0-0.5,0l-12.1,0
							C189.2,428.7,189.1,428.9,189.1,429z M189.5,429.2c0.1,0,0.2,0,0.3,0l11.9,0c0,0.1,0,0.2,0,0.3l0,11.9l-12.1,0L189.5,429.2z"
							/>
						<path d="M195.3,431.5l0-0.6l0.6,0l0,0.6c2,0.1,3.6,1.6,3.7,3.5c-0.3-0.2-0.7-0.4-1.2-0.4c-0.6,0-1.1,0.2-1.4,0.6
							c-0.2-0.3-0.6-0.5-1.1-0.6l0,3.8h0c0,0.3,0.2,0.5,0.5,0.5c0.3,0,0.5-0.2,0.5-0.5l0.6,0c0,0.6-0.5,1.1-1.1,1.1
							c-0.5,0-1-0.4-1.1-0.9h0l0-3.9c-0.5,0.1-0.9,0.3-1.1,0.6h0c-0.3-0.4-0.8-0.6-1.4-0.6c-0.5,0-0.9,0.1-1.1,0.4
							C191.8,433.2,193.3,431.7,195.3,431.5z"/>
						<polygon points="197,435.3 197,435.3 197,435.3 						"/>
					</g>
				</g>
			</g>
		</g>
		<g>
			<g>
				
					<radialGradient id="SVGID_5_" cx="-1346.363" cy="-5169.5781" r="14.2601" gradientTransform="matrix(-1.679678e-04 1.3832 15.704 -9.999958e-05 81559.75 2338.0989)" gradientUnits="userSpaceOnUse">
					<stop  offset="0" style="stop-color:#B3B3B3"/>
					<stop  offset="0.8058" style="stop-color:#F0F0F0"/>
					<stop  offset="1" style="stop-color:#FFFFFF"/>
				</radialGradient>
				<path class="st7" d="M380.7,494.9c116.7,0,232.3-8.3,232.3-18.6c0-10.3-115.6-18.6-232.3-18.6c-116.7,0-239.6,7.9-239.6,18.2
					C141.1,486.2,264.1,494.9,380.7,494.9z"/>
				<g>
					
						<radialGradient id="SVGID_6_" cx="-3131.1926" cy="-264.1838" r="225.8509" gradientTransform="matrix(-0.8631 -0.5051 -0.5051 0.8631 -2592.8025 -1023.7157)" gradientUnits="userSpaceOnUse">
						<stop  offset="0" style="stop-color:#1A1A1A"/>
						<stop  offset="1" style="stop-color:#000000"/>
					</radialGradient>
					<path class="st8" d="M364.9,93.5L217.8,345c-4.5,7.8-4.1,18.3,1,23.6l96.5,98.7c5.1,5.2,13.9,1.7,19.5-8l182.5-311.8
						c5.6-9.6,4.6-19.3-2.2-21.5L385.6,83.5C378.7,81.3,369.5,85.7,364.9,93.5z"/>
					
						<radialGradient id="SVGID_7_" cx="-2278.937" cy="-519.0222" r="9.7418" gradientTransform="matrix(-0.6946 -0.4065 -0.5051 0.8631 -1348.749 -295.7538)" gradientUnits="userSpaceOnUse">
						<stop  offset="0" style="stop-color:#1A1A1A"/>
						<stop  offset="1" style="stop-color:#000000"/>
					</radialGradient>
					<path class="st9" d="M489.8,193.9L489.8,193.9c1.8,0.8,4.1,0,5.2-1.8l9.3-16c1.1-1.8,0.5-3.9-1.3-4.7l0,0
						c-1.8-0.8-4.1,0.1-5.2,1.9l-9.3,15.9C487.4,191,488,193.1,489.8,193.9z"/>
					
						<radialGradient id="SVGID_8_" cx="-2278.9355" cy="-476.4251" r="14.017" gradientTransform="matrix(-0.6946 -0.4065 -0.5051 0.8631 -1348.749 -295.7538)" gradientUnits="userSpaceOnUse">
						<stop  offset="0" style="stop-color:#1A1A1A"/>
						<stop  offset="1" style="stop-color:#000000"/>
					</radialGradient>
					<path class="st10" d="M465.1,236.1L465.1,236.1c1.7,0.9,4,0.1,5.1-1.7l15.7-26.8c1.1-1.8,0.5-4-1.3-4.8l0,0
						c-1.8-0.8-4.1,0-5.1,1.8l-15.6,26.7C462.8,233,463.3,235.2,465.1,236.1z"/>
					
						<radialGradient id="SVGID_9_" cx="-2278.9338" cy="-430.3341" r="14.0123" gradientTransform="matrix(-0.6946 -0.4065 -0.5051 0.8631 -1348.749 -295.7538)" gradientUnits="userSpaceOnUse">
						<stop  offset="0" style="stop-color:#1A1A1A"/>
						<stop  offset="1" style="stop-color:#000000"/>
					</radialGradient>
					<path class="st11" d="M441.8,275.9L441.8,275.9c1.7,1,3.9,0.3,5-1.5l15.7-26.8c1.1-1.8,0.5-4.1-1.2-5l0,0
						c-1.7-0.9-4-0.2-5.1,1.6l-15.6,26.7C439.6,272.6,440.1,274.9,441.8,275.9z"/>
					
						<radialGradient id="SVGID_10_" cx="-3402.4939" cy="162.0696" r="188.4608" gradientTransform="matrix(-1 0 0 1 -3143.7034 0)" gradientUnits="userSpaceOnUse">
						<stop  offset="0" style="stop-color:#FFFFFF"/>
						<stop  offset="1" style="stop-color:#E6E6E6"/>
					</radialGradient>
					<polygon class="st12" points="232.5,319.8 341,425.2 461.9,217.5 494.9,160.9 356.9,107.3 247.4,294.3 					"/>
					
						<linearGradient id="SVGID_11_" gradientUnits="userSpaceOnUse" x1="-4985.7759" y1="-923.0936" x2="-4961.9888" y2="-923.0936" gradientTransform="matrix(-1.6278 -0.7598 -0.5878 0.8371 -8202.1553 -2887.6555)">
						<stop  offset="0" style="stop-color:#4EAD42"/>
						<stop  offset="1" style="stop-color:#4EAD42"/>
					</linearGradient>
					<path class="st13" d="M416.9,111.3L416.9,111.3c-0.4,1.4-1,3.1,2.5,3.9l33.1,12.2c3.1,1.4,4.3,0.3,4.6-1.2l0,0
						c0.3-1.5,0.7-2.7-1.5-3.5l-36.3-12.5C417.2,109.4,417.3,109.9,416.9,111.3z"/>
					
						<linearGradient id="SVGID_12_" gradientUnits="userSpaceOnUse" x1="-3156.6997" y1="-536.6044" x2="-3150.605" y2="-536.6044" gradientTransform="matrix(-0.8631 -0.5051 -0.5051 0.8631 -2592.8025 -1023.7157)">
						<stop  offset="0" style="stop-color:#4EAD42"/>
						<stop  offset="1" style="stop-color:#4EAD42"/>
					</linearGradient>
					<path class="st14" d="M397.5,104.5c-0.9,1.5-0.4,3.3,1.1,4.2c1.5,0.9,3.3,0.4,4.2-1.1c0.9-1.5,0.4-3.3-1.1-4.2
						C400.2,102.6,398.4,103.1,397.5,104.5z"/>
					<path class="st15" d="M232.5,319.8L341,425.2l107.4-184.4l0,0l13.6-23.3c0,0-32.3-6.8-41.1,14.9c-0.1,0.1-0.1,0.3-0.2,0.4
						c0,0-0.1-0.1-0.2-0.2c-2.2-2-25.2-22.5-38.7-7.9c0,0-28.4-11.1-35.8,11.7c-7.4,22.8-22.8,2.5-27.8,29.6c-1,5.4-2.5,8.4-4.3,9.8
						c-0.5,0.4-1,0.7-1.6,0.9c-7.6,2.7-19.7-12.8-28-0.6c-11.1,16.3-1.9,28.7-10.5,33s-8.6-22.5-19.1-16c-4.3,2.7-6.1,2.2-7.3,1
						l-8.6,14.7L232.5,319.8z"/>
					<path class="st15" d="M232.5,319.8L341,425.2l107.4-184.4l0,0c0,0-17.5-15.4-27.6-8.4c-0.1,0.1-0.2,0.2-0.3,0.2
						c-2,1.6-3.8,4.1-4.9,8c-6.8,22.8,6.8,43.2-9.3,35.5c-16-7.7-29.3-29.6-36.4-9.9c-7.1,19.7-8.9-13.3-17.3-2.5
						c-8.3,10.8-8.9-8-24.4,5.2c-7.6,6.6-11.9,6.3-14.3,6.9c-0.7,0.2-1.2,0.4-1.6,0.9c-1,1.3-1.2,4.1-1,11.6
						c0.3,20.7,36.7,33.9,27.4,50.9c-9.3,17,14.8,37,5.6,39.8c-9.3,2.8-32.1-32.7-37-20.4c-4.9,12.3-12.6-16-21.3-11.7
						c-8.2,4.1-30-40.6-47.2-38.1L232.5,319.8z"/>
					<path class="st16" d="M301.1,322.7c-0.5-1.1-1.1-2.1-1.8-3c-0.7-1-1.4-1.9-2.2-2.8c-1.6-1.8-3.3-3.4-5.3-4.9
						c-1-0.7-2-1.4-3.1-1.9c-1.1-0.6-2.3-1.1-3.5-1.4c-1.2-0.4-2.5-0.7-3.8-0.8c-1.3-0.1-2.6-0.1-3.9,0c-1.3,0.1-2.6,0.4-3.8,0.8
						c-1.2,0.4-2.4,0.9-3.5,1.6c-1.1,0.7-2.1,1.4-3.1,2.2c-0.2,0.2-0.5,0.4-0.7,0.6c-0.2,0.2-0.5,0.4-0.7,0.6
						c-0.4,0.4-0.9,0.9-1.3,1.3c-1.6,1.8-3,3.8-4.1,5.9c-1.1,2.1-2.1,4.2-2.8,6.5c1.5-1.8,3-3.6,4.5-5.2c1.5-1.7,3.1-3.3,4.8-4.7
						c1.7-1.4,3.4-2.6,5.3-3.5c0.9-0.5,1.9-0.9,2.8-1.1c1-0.3,1.9-0.5,2.9-0.6c1-0.1,2-0.1,3,0c1,0.1,2,0.3,3,0.5
						c2,0.5,4,1.3,5.9,2.3c1.9,1,3.8,2.2,5.7,3.5C297.6,319.8,299.4,321.2,301.1,322.7z"/>
					<path class="st16" d="M326.1,304.2c-2.1-0.3-4.3-0.1-6.4,0.2c-2.1,0.3-4.2,0.9-6.3,1.7c-2,0.8-4,1.9-5.8,3.2
						c-0.5,0.3-0.9,0.7-1.3,1l-0.6,0.6l-0.3,0.3l-0.3,0.3c-0.2,0.2-0.4,0.4-0.6,0.6c-0.2,0.2-0.4,0.4-0.6,0.6
						c-0.4,0.4-0.7,0.9-1.1,1.3c-2.8,3.7-4.3,8.2-4.4,12.7c0,0.6,0,1.1,0,1.7c0,0.6,0.1,1.1,0.1,1.6c0,1.1,0.3,2.2,0.5,3.2
						c0,0.3,0.1,0.5,0.2,0.8c0.1,0.3,0.1,0.5,0.2,0.8c0.1,0.5,0.3,1,0.4,1.5c0.4,1,0.8,2,1.2,3c0-0.5,0-1.1,0-1.6l0-1.6
						c0-0.5,0-1,0.1-1.6c0-0.5,0-1,0.1-1.5l0.1-1.5c0-0.3,0-0.5,0.1-0.8l0.1-0.7c0.1-0.5,0.1-1,0.2-1.5c0.1-0.5,0.2-1,0.3-1.5
						c0-0.2,0.1-0.5,0.1-0.7l0.2-0.7l0.2-0.7c0.1-0.2,0.1-0.5,0.2-0.7c0.2-0.5,0.3-0.9,0.5-1.4c0.1-0.2,0.2-0.4,0.3-0.7l0.3-0.7
						c0.1-0.2,0.2-0.4,0.3-0.7l0.3-0.6c0.2-0.4,0.4-0.9,0.7-1.2c0.3-0.4,0.5-0.8,0.7-1.2l0.8-1.2c2.3-3,5.3-5.5,8.7-7.5
						C318.3,307.3,322.1,305.6,326.1,304.2z"/>
				</g>
				<g>
					
						<linearGradient id="SVGID_13_" gradientUnits="userSpaceOnUse" x1="-3509.5576" y1="282.2356" x2="-3502.7898" y2="282.2356" gradientTransform="matrix(-1 0 0 1 -3143.7034 0)">
						<stop  offset="0" style="stop-color:#000000"/>
						<stop  offset="1" style="stop-color:#1A1A1A"/>
					</linearGradient>
					<path class="st17" d="M365.9,285.7c0,0-3.4,0.1-6.8-1.7l6.4-5.3L365.9,285.7z"/>
					<polygon class="st18" points="296.4,380.7 302.6,386.8 308,392 341,424 358.8,393.4 358.3,390.2 357.4,384 356.9,381.1 					
						"/>
					<path class="st18" d="M356.9,381.1l-60.6-0.3l6.2,6l5.4,5.2c1.1,0.1,2.2,0.1,3.3,0.1c15.7,0.2,46.1-8.1,46.1-8.1L356.9,381.1z"
						/>
					<path class="st4" d="M242,273.7c0,0-5.8,14.2-8.4,21.5c-2.6,7.3-1.2,15.7,11.9,16c13.1,0.3,16.4-37.3,16.4-37.3
						S251.3,260.2,242,273.7z"/>
					<path class="st19" d="M232.5,301.5c0,0-1.4,17.8,36.3,51.7l0.5-24.7C269.2,328.5,256.2,287.1,232.5,301.5z"/>
					<path class="st4" d="M364.4,275c0,0,0.1,0.8,0.2,2.3c0.1,1.2,0.3,2.7,0.6,4.5c1.2,8.1,3.9,21.2,9.2,27.3
						c1.8,2.1,3.9,3.3,6.3,3.3c5.7-0.1,9.2-1.8,11.1-4.3c1.6-2,2-4.6,1.8-7.2c-0.1-1.5-0.5-3-1-4.5c-2.6-7.3-8.4-21.5-8.4-21.5
						c-1.4-2-2.9-3.5-4.3-4.4C371.9,265.2,364.4,275,364.4,275z"/>
					<path class="st4" d="M264,323.5c-0.1,0.2-2.8,4.2-2.7,8.4c-0.5,0.6-1.7,2.2-2.3,4.8c-8.5-9.2-18.1-20.8-19.2-27.2
						c-2-11.5,15-5.3,15.2-5.3c0,0,0,0,0,0l0,0l1.5,1.5c3.6,3.9,6.4,8.8,8.5,13L264,323.5z"/>
					
						<linearGradient id="SVGID_14_" gradientUnits="userSpaceOnUse" x1="-3456.5571" y1="387.1704" x2="-3456.5571" y2="192.2308" gradientTransform="matrix(-1 0 0 1 -3143.7034 0)">
						<stop  offset="0" style="stop-color:#4EAD42"/>
						<stop  offset="1" style="stop-color:#4EAD42"/>
					</linearGradient>
					<path class="st20" d="M232,279.6l5.3,3.1l2.9-4.8l0.1-0.2l0.4-0.6c0,0,6.3-3.2,15.7,0.6c1.5,0.6,3,1.3,4.6,2.3c0,0,0,0,0,0
						c1.3,0.8,2.7,1.8,4.1,2.9l0.1,0.1c0.4,0.4,0.9,0.7,1.3,1.1c0,0,6-6.3,7.4-8.9c2.3-4.4,5.3-18.9,5.5-19.7l-4.8,29.1l-1,6.2
						l-0.3,1.9l0.3,16.4l-4.5,25.9v0l-2.8,15.9l0,0.1l0,0.2l-0.1,0.5l0,0.1c0.1,0,0.1,0.1,0.2,0.1c0,0,0,0,0,0l30,29.1l6.2,6
						c3.4,0.3,6.9,0.4,10.3,0.4c16.8,0,34.6-3.8,44.1-6.1c4.3-1.1,6.8-1.8,6.8-1.8l-1.2-8.1l-2.2-15.4l-0.3-1.8l-0.5-3.2l-1.8-12.5
						l-4.3-30.3l0.2-14.7l-0.4-2.5l-1-5.8l-4.4-26.3c0.3,1.9,2.5,13.4,4.3,17.1c1.2,2.4,6.8,8.4,6.8,8.4c0.5-0.4,0.9-0.8,1.4-1.1
						c0,0,0.1-0.1,0.1-0.1c1-0.8,2-1.5,2.9-2.1c0.2-0.1,0.4-0.3,0.7-0.4c0.2-0.1,0.3-0.2,0.5-0.3c0.1-0.1,0.2-0.1,0.3-0.2
						c0.2-0.1,0.4-0.2,0.6-0.3c0,0,0,0,0,0v0c0.1-0.1,0.2-0.1,0.3-0.2c0.1-0.1,0.2-0.1,0.3-0.2c0.1,0,0.1-0.1,0.2-0.1
						c1-0.5,1.9-0.9,2.8-1.3c0.2-0.1,0.5-0.2,0.7-0.3c0.8-0.3,1.5-0.6,2.3-0.8c0.1,0,0.2-0.1,0.3-0.1c0,0,0,0,0,0
						c0.1,0,0.2-0.1,0.3-0.1c0.9-0.2,1.8-0.4,2.7-0.5c0.1,0,0.2,0,0.3,0c0.1,0,0.2,0,0.3,0c0.2,0,0.4,0,0.6-0.1c0.1,0,0.3,0,0.4,0
						c0.1,0,0.1,0,0.2,0c0.1,0,0.1,0,0.2,0h0c0.1,0,0.1,0,0.2,0c0.1,0,0.1,0,0.2,0c0.1,0,0.2,0,0.2,0c0.1,0,0.2,0,0.2,0
						c0.1,0,0.2,0,0.2,0c0.5,0,0.9,0,1.3,0c0.1,0,0.2,0,0.3,0c0.4,0,0.8,0.1,1.2,0.1c0.1,0,0.3,0,0.4,0.1l0.3,0
						c0.6,0.1,1.1,0.2,1.5,0.3c0.1,0,0.1,0,0.2,0c0,0,0.1,0,0.1,0c0.1,0,0.2,0.1,0.3,0.1c0,0,0.1,0,0.1,0c0.1,0,0.3,0.1,0.4,0.1
						c0,0,0,0,0,0c0.1,0,0.1,0,0.2,0.1c0,0,0,0,0,0c0.1,0,0.1,0,0.2,0.1c0,0,0,0,0,0c0.1,0,0.2,0.1,0.2,0.1l1.2,2.2l2,3.6l5.3-3.1
						l-4-8.9l-6.6-14.8l-0.8-1.9l-0.1-0.2c0,0-0.4-2.7-1.1-6.6c-0.9-4.9-2.2-11.6-3.7-16.8c-0.4-1.2-0.7-2.4-1.1-3.4
						c-3.2-8.7-11-14.9-16.9-16.9c-5.9-2.1-19.9-12.8-21.3-14.6c-1.4-1.8-6-3.2-6-3.2l-0.1,0l-12.1,1.1l-7.1,0.6l-7-0.6l-0.5,0h0
						l-11.7-1.1c0,0-0.1,0-0.3,0.1c-1,0.4-4.6,1.6-5.7,3.1c-1.4,1.8-15.4,12.5-21.3,14.6c-5.9,2.1-13.7,8.2-16.9,16.9
						c-3.2,8.7-3.8,22.5-3.8,22.5L232,279.6z"/>
					
						<linearGradient id="SVGID_15_" gradientUnits="userSpaceOnUse" x1="-3410.322" y1="282.4719" x2="-3403.8486" y2="282.4719" gradientTransform="matrix(-1 0 0 1 -3143.7034 0)">
						<stop  offset="0" style="stop-color:#000000"/>
						<stop  offset="1" style="stop-color:#1A1A1A"/>
					</linearGradient>
					<path class="st21" d="M260.1,285.4c0,0,3.1,0.4,6.5-1.4l-5.5-4.6L260.1,285.4z"/>
					<polygon class="st19" points="301.6,190.7 323.7,190.7 323.1,180.7 322.4,168.6 302.7,168.6 302.1,182 					"/>
					<path class="st4" d="M301.6,190.7l11,7.7l11-7.7l-0.7-7.4c-4.3,1.2-12.4,2.8-21,1.3L301.6,190.7z"/>
					<path class="st4" d="M281.6,155.8c2.1,2.3,4.6,4.9,4.6,4.9s6.9,16.8,26.1,20.1l0,0.1c0.1,0,0.1,0,0.2,0c0.1,0,0.1,0,0.2,0
						l0-0.1c19.2-3.3,26.1-20.1,26.1-20.1s2.5-2.6,4.6-4.9c2.1-2.3,3.3-10,0-10.6c-3.3-0.7-4.6,4.6-4.6,4.6c0.5-5.9,0-10.4-1.2-13.9
						c-4.5-13.2-18.6-11.3-25.1-9.5c-6.4-1.7-20.3-3.7-24.9,9.1c-1.3,3.5-1.9,8.2-1.4,14.3c0,0-1.3-5.2-4.6-4.6
						C278.3,145.8,279.5,153.5,281.6,155.8z"/>
					<path class="st19" d="M287.5,135.5c7.3-1.2,17.4-2.5,24.9-2.3c7.9,0.2,18.2,1.6,25.1,2.7c-4.5-13.2-18.6-11.3-25.1-9.5
						C306.1,124.7,292.2,122.7,287.5,135.5z"/>
					
						<linearGradient id="SVGID_16_" gradientUnits="userSpaceOnUse" x1="-3485.6389" y1="138.2588" x2="-3476.3281" y2="138.2588" gradientTransform="matrix(-1 0 0 1 -3143.7034 0)">
						<stop  offset="0" style="stop-color:#000000"/>
						<stop  offset="1" style="stop-color:#1A1A1A"/>
					</linearGradient>
					<path class="st22" d="M332.6,129.9c0,0,0.3,2.8,0.9,5.4c0.5,2.1,1.1,4,2,4.2c2,0.3,3.3,10.3,3.3,10.3s3.5-5.9,3.1-13.2
						c-0.1-1.7-0.4-3.5-1.1-5.3C337.5,121.9,332.6,129.9,332.6,129.9z"/>
					
						<linearGradient id="SVGID_17_" gradientUnits="userSpaceOnUse" x1="-3436.0522" y1="138.2588" x2="-3426.7412" y2="138.2588" gradientTransform="matrix(-1 0 0 1 -3143.7034 0)">
						<stop  offset="0" style="stop-color:#000000"/>
						<stop  offset="1" style="stop-color:#1A1A1A"/>
					</linearGradient>
					<path class="st23" d="M286.2,149.8c0,0,1.3-10,3.3-10.3c0.9-0.2,1.6-2.3,2.1-4.6c0.5-2.5,0.8-5,0.8-5s-4.9-7.9-8.2,1.5
						c-0.6,1.7-0.9,3.3-1,4.9C282.5,143.7,286.2,149.8,286.2,149.8z"/>
					<path d="M332.6,129.9c0,0,0.3,2.8,0.9,5.4c3.3,0.5,6.3,1,8.4,1.4c-0.1-1.7-0.4-3.5-1.1-5.3
						C337.5,121.9,332.6,129.9,332.6,129.9z"/>
					<path d="M283.1,136.2c2.3-0.4,5.3-0.9,8.5-1.4c0.5-2.5,0.8-5,0.8-5s-4.9-7.9-8.2,1.5C283.5,133,283.2,134.7,283.1,136.2z"/>
					<radialGradient id="SVGID_18_" cx="312.4438" cy="118.1785" r="22.6682" gradientUnits="userSpaceOnUse">
						<stop  offset="0" style="stop-color:#1A1A1A"/>
						<stop  offset="1" style="stop-color:#000000"/>
					</radialGradient>
					<path class="st24" d="M283.6,112v20.3c0,0,21.6-3.3,28.8-3.3c7.2,0,28.5,3.2,28.8,3.3c0,0,0,0,0,0V112c0,0-20.9-7.8-28.1-7.9
						C305.6,104.1,283.6,112,283.6,112z"/>
					<path class="st25" d="M283.6,132.2L283.6,132.2c0,0.1,21.6-3.2,28.8-3.2c7.2,0,28.5,3.2,28.8,3.3c0,0,0,0,0,0v-0.9
						c-2.8-2.5-11.9-9-28.8-8.8C297.3,122.7,287.7,128.9,283.6,132.2z"/>
					<path class="st26" d="M340.6,145.6l-3.4,8.6c0,0-16.3-2.6-24.7-2.4c-8.4,0.2-24.8,2.4-24.8,2.4l-3.4-8.5l-0.4,0.2l3.8,12.7
						c0,0,0.5,5.2,2.1,10.1c1.6,4.8,10.7,13.6,22.7,14.2c11.9,0.6,22.5-9.5,23.7-14.9c1.2-5.4,1.3-11.1,1.3-11.1l3.4-10.9
						L340.6,145.6z"/>
					<path class="st27" d="M336.3,167.8c-0.1,0.6-0.4,1.2-0.7,1.9c-4.4-0.7-16.2-2.3-23-2.1c-6.4,0.2-17.3,1.4-22.2,2
						c-0.2-0.4-0.3-0.7-0.5-1.1c-1.6-4.8-2.1-10.1-2.1-10.1l-3.8-12.7l0.4-0.2l3.4,8.5c0,0,16.4-2.1,24.8-2.4
						c8.4-0.2,24.7,2.4,24.7,2.4l3.4-8.6l0.4,0.2l-3.4,10.9C337.6,156.7,337.5,162.4,336.3,167.8z"/>
					<path class="st1" d="M337.2,162.1c-0.9-0.1-16.5-2.6-24.7-2.4c-7.6,0.2-21.5,2-24.3,2.3c-0.4-2.1-0.5-3.5-0.5-3.5l-3.8-12.7
						l0.4-0.2l3.4,8.5c0,0,16.4-2.1,24.8-2.4c8.4-0.2,24.7,2.4,24.7,2.4l3.4-8.6l0.4,0.2l-3.4,10.9
						C337.6,156.7,337.5,159,337.2,162.1z"/>
					<path class="st19" d="M341.6,147.9c0,0,1.6-1.5,2.6,0.3c1,1.8-0.3,5.7-1.9,7.1c-1.6,1.4-3.2,3.4-3.2,3.4s0.7-2.5,2.4-4.4
						c1.6-2,0.7-3-0.5-2.2c-1.2,0.8-1-0.4,0-1.3c1-0.9,2.1-0.1,2.1-0.1S344.5,148.4,341.6,147.9z"/>
					<path class="st19" d="M283.3,147c0,0-1.6-1.5-2.6,0.3c-1,1.8,0.3,5.7,1.9,7.1c1.6,1.4,3.2,3.4,3.2,3.4s-0.7-2.5-2.4-4.4
						c-1.6-2-0.7-3,0.5-2.2c1.2,0.8,1-0.4,0-1.3c-1-0.9-2.1-0.1-2.1-0.1S280.4,147.5,283.3,147z"/>
					
						<linearGradient id="SVGID_19_" gradientUnits="userSpaceOnUse" x1="-3475.8066" y1="198.1783" x2="-3456.3721" y2="198.1783" gradientTransform="matrix(-1 0 0 1 -3143.7034 0)">
						<stop  offset="0" style="stop-color:#000000"/>
						<stop  offset="1" style="stop-color:#1A1A1A"/>
					</linearGradient>
					<path class="st28" d="M323.4,186.3c0,0,7.3-0.1,8.6,5.9c1.3,6-12.8,17.8-12.8,17.8l-6.5-11.6l11-7.7L323.4,186.3z"/>
					
						<linearGradient id="SVGID_20_" gradientUnits="userSpaceOnUse" x1="-3456.3862" y1="198.1783" x2="-3436.9517" y2="198.1783" gradientTransform="matrix(-1 0 0 1 -3143.7034 0)">
						<stop  offset="0" style="stop-color:#000000"/>
						<stop  offset="1" style="stop-color:#1A1A1A"/>
					</linearGradient>
					<path class="st29" d="M301.9,186.3c0,0-7.3-0.1-8.6,5.9c-1.3,6,12.8,17.8,12.8,17.8l6.5-11.6l-11-7.7L301.9,186.3z"/>
					
						<linearGradient id="SVGID_21_" gradientUnits="userSpaceOnUse" x1="-3469.4797" y1="188.5169" x2="-3467.1121" y2="188.5169" gradientTransform="matrix(-1 0 0 1 -3143.7034 0)">
						<stop  offset="0" style="stop-color:#000000"/>
						<stop  offset="1" style="stop-color:#1A1A1A"/>
					</linearGradient>
					<path class="st30" d="M323.7,190.7c0,0,4.9-2.4-0.3-4.3L323.7,190.7z"/>
					
						<linearGradient id="SVGID_22_" gradientUnits="userSpaceOnUse" x1="-3445.5718" y1="188.5169" x2="-3443.2043" y2="188.5169" gradientTransform="matrix(-1 0 0 1 -3143.7034 0)">
						<stop  offset="0" style="stop-color:#000000"/>
						<stop  offset="1" style="stop-color:#1A1A1A"/>
					</linearGradient>
					<path class="st31" d="M301.6,190.7c0,0-4.9-2.4,0.3-4.3L301.6,190.7z"/>
					
						<linearGradient id="SVGID_23_" gradientUnits="userSpaceOnUse" x1="-3459.8296" y1="213.4178" x2="-3453.0618" y2="213.4178" gradientTransform="matrix(-1 0 0 1 -3143.7034 0)">
						<stop  offset="0" style="stop-color:#000000"/>
						<stop  offset="1" style="stop-color:#1A1A1A"/>
					</linearGradient>
					<polygon class="st32" points="309.4,228.4 316.1,228.4 316.1,204.4 312.7,198.4 309.4,204.4 					"/>
					<path class="st33" d="M310.9,210.4c0,1,0.8,1.8,1.8,1.8c1,0,1.8-0.8,1.8-1.8s-0.8-1.8-1.8-1.8
						C311.7,208.6,310.9,209.4,310.9,210.4z"/>
					<path class="st33" d="M311,221.1c0,1,0.8,1.8,1.8,1.8c1,0,1.8-0.8,1.8-1.8c0-1-0.8-1.8-1.8-1.8
						C311.8,219.3,311,220.1,311,221.1z"/>
					<polygon class="st34" points="360.9,290.7 360.7,350.7 264.9,350.7 264.9,290.7 					"/>
					<polygon class="st4" points="264.9,290.7 360.7,290.7 351.9,284.5 272.7,284.5 					"/>
					<g>
						<g>
							<polygon points="349.1,326.2 346.9,327.3 346.9,323.8 349.1,323.1 							"/>
							<polygon points="344.6,323.1 346.8,323.8 346.8,327.3 344.6,326.2 							"/>
							<polygon points="346.9,322.3 349,322.9 346.9,323.7 344.7,322.9 							"/>
							<path d="M347.3,327.6l1.9-1.1c0.1,0,0.1,0,0.2,0l0.1,0.2c0,0.1,0,0.1,0,0.2l-1.1,0.6c-0.1,0-0.1,0.1,0,0.2l0.1,0.1
								c0,0.1,0.1,0.1,0.2,0l1.6-0.9c0.1,0,0.1-0.1,0.1-0.2l0-1.4c0-0.1,0.1-0.1,0.1-0.1h0.3c0.1,0,0.1,0.1,0.1,0.1v1.7
								c0,0.1,0,0.1-0.1,0.2l-2,1.1c-0.1,0-0.1,0.1-0.1,0.2v1c0,0.1-0.1,0.1-0.1,0.1h-1.2c-0.1,0-0.1-0.1-0.1-0.1v-1.7
								C347.2,327.7,347.3,327.6,347.3,327.6z"/>
							<path d="M343.1,325.3h0.3c0.1,0,0.1,0.1,0.1,0.1l0,1.4c0,0.1,0,0.1,0.1,0.2l1.6,0.9c0.1,0,0.1,0,0.2,0l0.1-0.1
								c0-0.1,0-0.1,0-0.2l-1.1-0.6c-0.1,0-0.1-0.1,0-0.2l0.1-0.2c0-0.1,0.1-0.1,0.2,0l1.9,1.1c0.1,0,0.1,0.1,0.1,0.2v1.7
								c0,0.1-0.1,0.1-0.1,0.1h-1.2c-0.1,0-0.1-0.1-0.1-0.1v-1c0-0.1,0-0.1-0.1-0.2l-2-1.1c-0.1,0-0.1-0.1-0.1-0.2v-1.7
								C343,325.4,343,325.3,343.1,325.3z"/>
							<path d="M340.9,320.3L340.9,320.3c0,0.2,0,0.3,0,0.5v11c0,0.1,0.1,0.2,0.2,0.2h0c0.1,0,0.3,0,0.4,0h11c0.1,0,0.2-0.1,0.2-0.2
								v-11.4c0-0.1-0.1-0.2-0.2-0.2h-11.4C341,320.1,340.9,320.2,340.9,320.3z M341.3,320.5h11v11h-11V320.5z"/>
						</g>
						<g>
							<path d="M328.5,320.3L328.5,320.3c0,0.2,0,0.3,0,0.5v11c0,0.1,0.1,0.2,0.2,0.2h0c0.1,0,0.3,0,0.4,0h11c0.1,0,0.2-0.1,0.2-0.2
								v0c0-0.1,0-0.3,0-0.4v-11c0-0.1-0.1-0.2-0.2-0.2h-11.4C328.6,320.1,328.5,320.2,328.5,320.3z M328.9,320.5h11
								c0,0.1,0,0.2,0,0.3v10.7h-11V320.5z"/>
							<rect x="330.6" y="329.3" width="7.5" height="0.6"/>
							<polygon points="336.6,329 335.6,329 335.6,324.4 335,324.4 336.1,322.6 337.3,324.4 336.6,324.4 							"/>
							<polygon points="333.2,329 332.2,329 332.2,324.4 331.5,324.4 332.7,322.6 333.9,324.4 333.2,324.4 							"/>
						</g>
						<g>
							<path d="M340.9,332.7L340.9,332.7c0,0.2,0,0.3,0,0.5v11c0,0.1,0.1,0.2,0.2,0.2h0c0.1,0,0.3,0,0.4,0h11c0.1,0,0.2-0.1,0.2-0.2
								v-11.4c0-0.1-0.1-0.2-0.2-0.2h0c-0.1,0-0.3,0-0.4,0h-11C341,332.5,340.9,332.6,340.9,332.7z M341.3,332.9c0.1,0,0.2,0,0.3,0
								h10.7v11h-11V332.9z"/>
							<path d="M349.3,335.8l-0.2-0.4h0.8c-0.1,0.5-0.3,0.9-0.5,1.3L349,336L349.3,335.8z"/>
							<path d="M349,335.7l-0.3,0.3l0.5,0.9c-0.5,0.6-1.2,0.9-2,1v3.1h1.6v0.5h-1.6h-0.7h-1.7V341h1.7v-3.1
								c-1.4-0.2-2.4-1.2-2.7-2.5h5L349,335.7z"/>
						</g>
						<g>
							<path d="M328.5,332.7L328.5,332.7c0,0.2,0,0.3,0,0.5v11c0,0.1,0.1,0.2,0.2,0.2h0c0.1,0,0.3,0,0.4,0h11c0.1,0,0.2-0.1,0.2-0.2
								v0c0-0.1,0-0.3,0-0.4v-11c0-0.1-0.1-0.2-0.2-0.2h0c-0.1,0-0.3,0-0.4,0h-11C328.6,332.5,328.5,332.6,328.5,332.7z
								 M328.9,332.9c0.1,0,0.2,0,0.3,0h10.7c0,0.1,0,0.2,0,0.3v10.8h-11V332.9z"/>
							<path d="M334.1,335v-0.5h0.5v0.5c1.8,0.1,3.3,1.5,3.4,3.2c-0.3-0.2-0.6-0.4-1.1-0.4c-0.5,0-1,0.2-1.3,0.6
								c-0.2-0.3-0.6-0.5-1-0.5v3.4h0c0,0.3,0.2,0.5,0.5,0.5c0.3,0,0.5-0.2,0.5-0.5h0.5c0,0.5-0.4,1-1,1c-0.5,0-0.9-0.4-1-0.8h0
								v-3.6c-0.4,0.1-0.8,0.3-1,0.5h0c-0.2-0.3-0.7-0.6-1.3-0.6c-0.4,0-0.8,0.1-1,0.3C330.9,336.5,332.4,335.1,334.1,335z"/>
							<polygon points="335.6,338.4 335.6,338.4 335.7,338.4 							"/>
						</g>
					</g>
					<path class="st35" d="M385.1,276.8c0,0,3.6,0.8,8.5,2.7l-6.1,3.7L385.1,276.8z"/>
					
						<linearGradient id="SVGID_24_" gradientUnits="userSpaceOnUse" x1="-3384.281" y1="280.0652" x2="-3375.7478" y2="280.0652" gradientTransform="matrix(-1 0 0 1 -3143.7034 0)">
						<stop  offset="0" style="stop-color:#000000"/>
						<stop  offset="1" style="stop-color:#1A1A1A"/>
					</linearGradient>
					<path class="st36" d="M240.6,277c0,0-3.6,0.7-8.5,2.6l6.1,3.6L240.6,277z"/>
					
						<linearGradient id="SVGID_25_" gradientUnits="userSpaceOnUse" x1="-3468.9741" y1="144.5174" x2="-3463.3828" y2="144.5174" gradientTransform="matrix(-1 0 0 1 -3143.7034 0)">
						<stop  offset="0" style="stop-color:#000000"/>
						<stop  offset="1" style="stop-color:#1A1A1A"/>
					</linearGradient>
					<ellipse class="st37" cx="322.5" cy="144.5" rx="2.8" ry="5"/>
					
						<linearGradient id="SVGID_26_" gradientUnits="userSpaceOnUse" x1="-3449.916" y1="144.5174" x2="-3444.3245" y2="144.5174" gradientTransform="matrix(-1 0 0 1 -3143.7034 0)">
						<stop  offset="0" style="stop-color:#000000"/>
						<stop  offset="1" style="stop-color:#1A1A1A"/>
					</linearGradient>
					<ellipse class="st38" cx="303.4" cy="144.5" rx="2.8" ry="5"/>
					<circle class="st1" cx="323.5" cy="141.9" r="1.3"/>
					<path class="st1" d="M303.2,141.9c0,0.7,0.6,1.3,1.3,1.3c0.7,0,1.3-0.6,1.3-1.3c0-0.7-0.6-1.3-1.3-1.3
						C303.7,140.7,303.2,141.2,303.2,141.9z"/>
					<g>
						
							<linearGradient id="SVGID_27_" gradientUnits="userSpaceOnUse" x1="-3470.4773" y1="136.6528" x2="-3465.3938" y2="136.6528" gradientTransform="matrix(-1 0 0 1 -3143.7034 0)">
							<stop  offset="0" style="stop-color:#000000"/>
							<stop  offset="1" style="stop-color:#1A1A1A"/>
						</linearGradient>
						<path class="st39" d="M325.9,137.8c0-0.1-0.1-0.2-0.1-0.2c0,0-0.1-0.1-0.1-0.1c0,0,0,0,0-0.1c0,0,0.1,0.1,0,0.1c0,0,0,0,0,0
							c-0.1-0.1-0.2-0.2-0.3-0.3c-0.1-0.1-0.2-0.2-0.3-0.3c0.1,0.1,0,0,0,0c0,0-0.1,0-0.1-0.1c-0.1,0-0.2-0.1-0.2-0.1
							c-0.1,0-0.2-0.1-0.2-0.1c0,0-0.1,0,0,0c0,0,0,0-0.1,0c0,0-0.1,0-0.1-0.1c-0.1,0-0.2-0.1-0.3-0.1c0,0-0.1,0-0.1,0
							c0,0-0.1,0-0.1,0c-0.1,0,0.1,0,0,0c-0.2,0-0.5,0-0.7,0c-0.1,0,0.1,0,0,0c0,0-0.1,0-0.1,0c-0.1,0-0.1,0-0.2,0
							c-0.2,0-0.3,0.1-0.5,0.1c-0.2,0.1-0.5-0.1-0.6-0.3c-0.1-0.3,0.1-0.5,0.3-0.6c1-0.3,2-0.4,3,0.1c0.6,0.3,1.1,0.8,1.5,1.3
							c0.1,0.1,0.1,0.2,0.2,0.3c0.1,0.2,0.1,0.5-0.2,0.6C326.3,138,326,138,325.9,137.8L325.9,137.8z"/>
					</g>
					<g>
						
							<linearGradient id="SVGID_28_" gradientUnits="userSpaceOnUse" x1="-3448.9351" y1="136.9918" x2="-3443.8438" y2="136.9918" gradientTransform="matrix(-1 0 0 1 -3143.7034 0)">
							<stop  offset="0" style="stop-color:#000000"/>
							<stop  offset="1" style="stop-color:#1A1A1A"/>
						</linearGradient>
						<path class="st40" d="M300.2,137.6c0.2-0.3,0.4-0.6,0.7-0.9c0.6-0.6,1.4-1,2.2-1.1c0.6-0.1,1.2,0,1.8,0.2
							c0.2,0.1,0.4,0.3,0.3,0.6c-0.1,0.2-0.3,0.4-0.6,0.3c-0.3-0.1-0.5-0.2-0.8-0.2c-0.1,0,0.1,0,0,0c0,0-0.1,0-0.1,0
							c-0.1,0-0.1,0-0.2,0c-0.1,0-0.2,0-0.4,0c-0.1,0-0.1,0-0.2,0c0,0-0.1,0,0,0c0,0-0.1,0-0.1,0c-0.1,0-0.2,0-0.3,0.1
							c-0.1,0-0.2,0.1-0.3,0.1c0,0,0,0-0.1,0c-0.1,0,0,0,0,0c0,0-0.1,0-0.1,0.1c-0.2,0.1-0.3,0.2-0.4,0.3c0,0,0,0,0,0c0,0,0,0.1,0,0
							c0,0-0.1,0-0.1,0.1c-0.1,0.1-0.1,0.1-0.2,0.2c-0.1,0.1-0.2,0.2-0.3,0.3c0,0-0.1,0.1-0.1,0.1c0.1-0.1,0,0,0,0
							c-0.1,0.1-0.1,0.2-0.2,0.3c-0.1,0.2-0.4,0.3-0.6,0.2C300.1,138.1,300.1,137.9,300.2,137.6L300.2,137.6z"/>
					</g>
					<path class="st4" d="M264.9,350.8c0,0,0.5,0.3,1.2,0.7c0.1,0,0.1,0.1,0.2,0.1c0,0,0,0,0,0c0.4,0.2,0.8,0.4,1.3,0.6
						c0.3,0.1,0.7,0.3,1.1,0.4c0.9,0.3,1.9,0.5,2.9,0.4c0,0,0,0,0,0c0,0,0,0,0,0c0.2,0.2,1.9,1.7,4.9,2.2c3.2,0.5,5.4-1.3,5.4-1.3
						s1.7,1.6,3.3,2.1c1.7,0.4,3.9,0.1,3.9,0.1l3.6-5.3l-3.6,0l-1.7,0l-4.5,0h-1.6l-3.9,0l-1.4,0l-7.4,0l-2.5,0H264.9z"/>
					<polygon class="st19" points="289.3,350.7 286.1,353.4 282.2,354 285.6,352.9 287.6,350.7 					"/>
					<polygon class="st19" points="283.2,350.6 280,353.3 276.1,353.9 279.6,352.8 281.5,350.6 					"/>
					<polygon class="st19" points="278.8,349.7 275.5,352.5 271.6,353 275.1,352 277.1,349.8 					"/>
					<path class="st19" d="M363.5,280.7l0.9,1.6c0,0,0.3-0.2,0.9-0.6c1.9-1.1,7-3.5,15.5-3.7l2.6,7.8c0,0-8.1,2.3-8.9,23.2
						c1.8,2.1,3.9,3.3,6.3,3.3c5.7-0.1,9.2-1.8,11.1-4.3l1.8-7.2c-0.1-1.5-0.5-3-1-4.5c-2-5.6-6-15.5-7.6-19.6
						C383.7,276.2,375,273.1,363.5,280.7z"/>
					<path class="st19" d="M402.8,256.3c0,0,2.6-9.7-5.9-13.8c-8.5-4.1-0.4,11.3-0.4,11.3L402.8,256.3z"/>
					
						<linearGradient id="SVGID_29_" gradientUnits="userSpaceOnUse" x1="-4108.0259" y1="1309.6521" x2="-4081.5127" y2="1309.6521" gradientTransform="matrix(-0.9281 -0.3723 -0.3723 0.9281 -2929.9705 -2487.7363)">
						<stop  offset="0" style="stop-color:#000000"/>
						<stop  offset="1" style="stop-color:#1A1A1A"/>
					</linearGradient>
					<polygon class="st41" points="404,235.1 386.2,279.3 362.6,269.8 379.4,225.2 					"/>
					<path class="st4" d="M392.3,307.6c0,0,6.8-16.2,5.6-25.3c0,0,6.7-17.4,5-25.9c-1.7-8.6-23-9.2-23-9.2s-5.8,1.3-2.1,4.4
						c3.7,3.1,10.1,3.3,10.2,5c0.1,1.7-2,0.1-8.1-1.8c-6-1.9-9.4,2.2-3.2,5.8s8.8,2.8,8.8,2.8s2.5,4.4-10.2-2c0,0-4.9,6.2,7.9,8.2
						c0,0,1.8,1.4-0.9,0.6c-2.7-0.8-7.1-2.1-7.3-1.9c-0.2,0.3-2,5.2,8.9,8.3l2.2,5.8c0,0-11.8,12.4-8.7,29l6.7,0.6L392.3,307.6z"/>
				</g>
			</g>
		</g>
		<g>
			<path class="st1" d="M288.6,299.6h21.7l1.3-2.1h-23c-0.6,0-1.2,0.1-1.6,0.3c-0.5,0.2-0.9,0.4-1.2,0.7c-0.3,0.3-0.6,0.7-0.7,1.1
				c-0.2,0.4-0.2,0.9-0.2,1.4c0,0.5,0.1,1,0.3,1.4c0.2,0.4,0.4,0.8,0.8,1.1c0.3,0.3,0.7,0.5,1.2,0.7c0.5,0.2,1,0.3,1.6,0.3h5.7
				c0.6,0,1,0.1,1.3,0.4c0.3,0.3,0.5,0.7,0.5,1.2c0,0.5-0.2,0.9-0.5,1.2c-0.3,0.3-0.8,0.4-1.3,0.4h-18.4l-1.3,2.1h13.6
				c0.8-1,2.1-1.6,3.4-1.6c1.4,0,2.6,0.6,3.4,1.5c0.4,0,0.7-0.1,1-0.2c0.5-0.2,0.9-0.4,1.2-0.7c0.3-0.3,0.6-0.7,0.7-1.1
				c0.2-0.4,0.2-0.9,0.2-1.4c0-1.2-0.3-2.1-1-2.6c-0.7-0.6-1.6-0.9-2.9-0.9h-5.7c-0.5,0-0.9-0.1-1.1-0.4c-0.3-0.3-0.4-0.6-0.4-1.1
				c0-0.5,0.1-0.8,0.4-1.1C287.7,299.7,288.1,299.6,288.6,299.6"/>
			<polygon class="st1" points="298.3,297.5 298.3,309.6 300.5,309.6 300.5,299.6 310.2,299.6 311.6,297.5 			"/>
			<polygon class="st1" points="308.4,302.7 307.2,304.6 302.1,304.6 302.1,302.7 			"/>
			<polygon class="st1" points="318.2,306.6 312.3,306.6 313.3,304.8 317.1,304.8 			"/>
			<path class="st1" d="M334.5,303.4c-0.7-0.6-1.6-0.9-2.9-0.9H326c-0.5,0-0.9-0.1-1.1-0.4c-0.3-0.3-0.4-0.6-0.4-1.1
				c0-0.5,0.1-0.8,0.4-1.1c0.3-0.3,0.7-0.4,1.2-0.4h21.3l1.3-2.1l-22.6,0c-0.6,0-1.2,0.1-1.6,0.3c-0.5,0.2-0.9,0.4-1.2,0.7
				c-0.3,0.3-0.6,0.7-0.7,1.1c-0.2,0.4-0.2,0.9-0.2,1.4c0,0.5,0.1,1,0.3,1.4c0.2,0.4,0.4,0.8,0.8,1.1c0.3,0.3,0.7,0.5,1.2,0.7
				c0.5,0.2,1,0.3,1.6,0.3h5.7c0.6,0,1,0.1,1.3,0.4c0.3,0.3,0.5,0.7,0.5,1.2c0,0.5-0.2,0.9-0.5,1.2c-0.3,0.3-0.8,0.4-1.3,0.4
				l-12.9,0l1.3,2.2l6.1,0c0.8-1,2.1-1.6,3.4-1.6c1.3,0,2.5,0.6,3.3,1.4c0.2,0,0.3-0.1,0.5-0.1c0.5-0.2,0.9-0.4,1.2-0.7
				c0.3-0.3,0.6-0.7,0.7-1.1c0.2-0.4,0.2-0.9,0.2-1.4C335.5,304.9,335.2,304,334.5,303.4"/>
			<path class="st1" d="M315.5,298c-0.1-0.2-0.3-0.4-0.4-0.5c-0.2-0.1-0.4-0.2-0.6-0.2c-0.2,0-0.4,0.1-0.6,0.2
				c-0.2,0.1-0.3,0.3-0.4,0.5l-7.1,11.6h2.5l5.6-9.3l2.7,4.4l0.1,0.1l1,1.7h0l1.9,3h2.6L315.5,298z"/>
			<polygon class="st1" points="339.7,309.6 339.7,299.6 335,299.6 335,297.5 348.6,297.5 347.3,299.6 341.9,299.6 341.9,309.6 			
				"/>
			<path class="st1" d="M291.5,308.8c-2.2,0-4,1.7-4,3.9c0,2.1,1.8,3.9,4,3.9c2.2,0,4-1.7,4-3.9
				C295.5,310.5,293.7,308.8,291.5,308.8 M291.5,314.9c-1.2,0-2.2-1-2.2-2.2c0-1.2,1-2.2,2.2-2.2c1.2,0,2.2,1,2.2,2.2
				C293.7,313.9,292.7,314.9,291.5,314.9"/>
			<path class="st1" d="M329.5,308.8c-2.2,0-4,1.7-4,3.9c0,2.1,1.8,3.9,4,3.9s4-1.7,4-3.9C333.5,310.5,331.7,308.8,329.5,308.8
				 M329.5,314.9c-1.2,0-2.2-1-2.2-2.2c0-1.2,1-2.2,2.2-2.2s2.2,1,2.2,2.2C331.7,313.9,330.8,314.9,329.5,314.9"/>
			<path class="st1" d="M292.3,312.7c0,0.4-0.3,0.7-0.8,0.7c-0.4,0-0.8-0.3-0.8-0.7s0.3-0.7,0.8-0.7
				C291.9,311.9,292.3,312.3,292.3,312.7"/>
			<path class="st1" d="M330.3,312.7c0,0.4-0.3,0.7-0.8,0.7c-0.4,0-0.8-0.3-0.8-0.7s0.3-0.7,0.8-0.7
				C330,311.9,330.3,312.3,330.3,312.7"/>
			<path class="st1" d="M281,305.7h-6.5H281z"/>
			<path class="st1" d="M281,305.4h-6.5c-0.1,0-0.3,0.1-0.3,0.3c0,0.1,0.1,0.3,0.3,0.3h6.5c0.1,0,0.3-0.1,0.3-0.3
				c0-0.3-0.5-0.3-0.5,0L281,305.4h-6.5l0.3,0.3l-0.3,0.3h6.5C281.3,306,281.3,305.4,281,305.4"/>
			<path class="st1" d="M283.3,302.8h-6.5H283.3z"/>
			<path class="st1" d="M283.3,302.6h-6.5c-0.1,0-0.3,0.1-0.3,0.3c0,0.1,0.1,0.3,0.3,0.3h6.5c0.1,0,0.3-0.1,0.3-0.3
				c0-0.3-0.5-0.3-0.5,0L283.3,302.6h-6.5l0.3,0.3l-0.3,0.3h6.5C283.7,303.1,283.7,302.6,283.3,302.6"/>
			<path class="st1" d="M282.9,299.8h-6.5H282.9z"/>
			<path class="st1" d="M282.9,299.5h-6.5c-0.1,0-0.3,0.1-0.3,0.3c0,0.1,0.1,0.3,0.3,0.3h6.5c0.1,0,0.3-0.1,0.3-0.3
				c0-0.3-0.5-0.3-0.5,0L282.9,299.5h-6.5l0.3,0.3l-0.3,0.3h6.5C283.2,300,283.2,299.5,282.9,299.5"/>
			<polygon class="st1" points="302.1,311.3 300.4,315.5 299.8,315.5 300.2,313.5 299.4,315.5 298.8,315.5 299.5,311.3 300.1,311.3 
				299.5,314 300.5,311.3 301.1,311.3 300.5,314 301.5,311.3 			"/>
			<polygon class="st1" points="304.8,311.3 303.2,315.5 302.6,315.5 302.9,313.5 302.1,315.5 301.5,315.5 302.2,311.3 302.8,311.3 
				302.3,314 303.2,311.3 303.8,311.3 303.3,314 304.2,311.3 			"/>
			<polygon class="st1" points="307.5,311.3 305.9,315.5 305.3,315.5 305.6,313.5 304.9,315.5 304.3,315.5 304.9,311.3 305.5,311.3 
				305,314 306,311.3 306.5,311.3 306,314 306.9,311.3 			"/>
			<path class="st1" d="M307.1,315.5c-0.2,0-0.3-0.2-0.3-0.4c0-0.2,0.1-0.4,0.3-0.4c0.2,0,0.3,0.2,0.3,0.4
				C307.3,315.4,307.2,315.5,307.1,315.5"/>
			<path class="st1" d="M309.5,314.6c-0.1,0.3-0.2,0.5-0.4,0.7c-0.2,0.2-0.3,0.2-0.6,0.2c-0.2,0-0.4-0.1-0.5-0.2
				c-0.1-0.2-0.2-0.4-0.1-0.7l0.1-0.7h0.6l-0.1,0.7c0,0.1,0.1,0.1,0.1,0.1c0,0,0.1,0,0.1-0.1l0.1-0.5c0-0.2,0-0.2-0.1-0.4l-0.4-0.5
				c-0.1-0.2-0.1-0.3-0.1-0.6c0,0,0.1-0.5,0.1-0.5c0.1-0.3,0.2-0.5,0.4-0.7c0.2-0.2,0.3-0.2,0.6-0.2c0.2,0,0.4,0.1,0.5,0.2
				c0.1,0.2,0.1,0.4,0.1,0.7l-0.1,0.6h-0.6l0.1-0.6c0-0.1,0-0.1-0.1-0.1c0,0-0.1,0-0.1,0.1l-0.1,0.5c0,0.2,0,0.2,0.1,0.4l0.4,0.5
				c0.1,0.2,0.1,0.3,0,0.7L309.5,314.6z"/>
			<polygon class="st1" points="310.9,311.3 312.2,311.3 312,312 311.4,312 311.2,313.1 311.7,313.1 311.5,313.7 311.1,313.7 
				310.7,315.5 310.1,315.5 			"/>
			<path class="st1" d="M312.7,315.5l0.1-0.6h-0.3l-0.2,0.6h-0.7l1.4-4.2h0.7l-0.3,4.2H312.7L312.7,315.5z M312.9,314.2l0.2-1.7
				l-0.5,1.7H312.9z"/>
			<path class="st1" d="M315.5,314.6c-0.1,0.3-0.2,0.5-0.4,0.7c-0.2,0.2-0.3,0.2-0.6,0.2c-0.2,0-0.4-0.1-0.5-0.2
				c-0.1-0.2-0.2-0.4-0.1-0.7l0.1-0.7h0.6l-0.1,0.7c0,0.1,0.1,0.1,0.1,0.1c0,0,0.1,0,0.1-0.1l0.1-0.5c0-0.2,0-0.2-0.1-0.4l-0.4-0.5
				c-0.1-0.2-0.1-0.3-0.1-0.6c0,0,0.1-0.5,0.1-0.5c0.1-0.3,0.2-0.5,0.4-0.7c0.2-0.2,0.3-0.2,0.6-0.2c0.2,0,0.4,0.1,0.5,0.2
				c0.1,0.2,0.1,0.4,0.1,0.7l-0.1,0.6h-0.6l0.1-0.6c0-0.1,0-0.1-0.1-0.1c0,0-0.1,0-0.1,0.1l-0.1,0.5c0,0.2,0,0.2,0.1,0.4l0.4,0.5
				c0.1,0.2,0.1,0.3,0,0.7L315.5,314.6z"/>
			<polygon class="st1" points="317.1,312 316.6,312 316.8,311.3 318.3,311.3 318.1,312 317.7,312 317,315.5 316.4,315.5 			"/>
			<path class="st1" d="M318.1,315.5c-0.2,0-0.3-0.2-0.3-0.4c0-0.2,0.1-0.4,0.3-0.4c0.2,0,0.3,0.2,0.3,0.4
				C318.4,315.4,318.3,315.5,318.1,315.5"/>
			<path class="st1" d="M320,313.8h0.7l-0.2,0.8c-0.1,0.3-0.2,0.5-0.4,0.7c-0.2,0.2-0.4,0.2-0.6,0.2s-0.4-0.1-0.5-0.2
				c-0.1-0.2-0.1-0.4,0-0.7l0.7-2.5c0.1-0.3,0.2-0.5,0.4-0.7c0.2-0.2,0.4-0.2,0.6-0.2c0.2,0,0.4,0.1,0.5,0.2c0.1,0.2,0.1,0.4,0,0.7
				l-0.2,0.8h-0.7l0.2-0.9c0-0.1,0-0.1-0.1-0.1c0,0-0.1,0-0.2,0.1l-0.7,2.6c0,0.1,0,0.1,0.1,0.1c0,0,0.1,0,0.2-0.1L320,313.8z"/>
			<polygon class="st1" points="321.6,311.3 322.2,311.3 321.3,314.7 321.9,314.7 321.7,315.5 320.4,315.5 			"/>
		</g>
		<g>
			<path class="st1" d="M111.8,337.8h21.7l1.3-2.1h-23c-0.6,0-1.2,0.1-1.6,0.3c-0.5,0.2-0.9,0.4-1.2,0.7c-0.3,0.3-0.6,0.7-0.7,1.1
				c-0.2,0.4-0.2,0.9-0.2,1.4c0,0.5,0.1,1,0.3,1.4c0.2,0.4,0.4,0.8,0.8,1.1c0.3,0.3,0.7,0.5,1.2,0.7c0.5,0.2,1,0.3,1.6,0.3h5.7
				c0.6,0,1,0.1,1.3,0.4c0.3,0.3,0.5,0.7,0.5,1.2c0,0.5-0.2,0.9-0.5,1.2c-0.3,0.3-0.8,0.4-1.3,0.4H99l-1.3,2.1h13.6
				c0.8-1,2.1-1.6,3.4-1.6c1.4,0,2.6,0.6,3.4,1.5c0.4,0,0.7-0.1,1-0.2c0.5-0.2,0.9-0.4,1.2-0.7c0.3-0.3,0.6-0.7,0.7-1.1
				c0.2-0.4,0.2-0.9,0.2-1.4c0-1.2-0.3-2.1-1-2.6c-0.7-0.6-1.6-0.9-2.9-0.9h-5.7c-0.5,0-0.9-0.1-1.1-0.4c-0.3-0.3-0.4-0.6-0.4-1.1
				c0-0.5,0.1-0.8,0.4-1.1C110.9,337.9,111.3,337.8,111.8,337.8"/>
			<polygon class="st1" points="121.5,335.7 121.5,347.8 123.7,347.8 123.7,337.8 133.4,337.8 134.8,335.7 			"/>
			<polygon class="st1" points="131.6,340.9 130.4,342.8 125.3,342.8 125.3,340.9 			"/>
			<polygon class="st1" points="141.4,344.8 135.5,344.8 136.5,343 140.3,343 			"/>
			<path class="st1" d="M157.8,341.6c-0.7-0.6-1.6-0.9-2.9-0.9h-5.7c-0.5,0-0.9-0.1-1.1-0.4c-0.3-0.3-0.4-0.6-0.4-1.1
				c0-0.5,0.1-0.8,0.4-1.1c0.3-0.3,0.7-0.4,1.2-0.4h21.3l1.3-2.1l-22.6,0c-0.6,0-1.2,0.1-1.6,0.3c-0.5,0.2-0.9,0.4-1.2,0.7
				c-0.3,0.3-0.6,0.7-0.7,1.1c-0.2,0.4-0.2,0.9-0.2,1.4c0,0.5,0.1,1,0.3,1.4c0.2,0.4,0.4,0.8,0.8,1.1c0.3,0.3,0.7,0.5,1.2,0.7
				c0.5,0.2,1,0.3,1.6,0.3h5.7c0.6,0,1,0.1,1.3,0.4c0.3,0.3,0.5,0.7,0.5,1.2c0,0.5-0.2,0.9-0.5,1.2c-0.3,0.3-0.8,0.4-1.3,0.4
				l-12.9,0l1.3,2.2l6.1,0c0.8-1,2.1-1.6,3.4-1.6c1.3,0,2.5,0.6,3.3,1.4c0.2,0,0.3-0.1,0.5-0.1c0.5-0.2,0.9-0.4,1.2-0.7
				c0.3-0.3,0.6-0.7,0.7-1.1c0.2-0.4,0.2-0.9,0.2-1.4C158.7,343.1,158.4,342.2,157.8,341.6"/>
			<path class="st1" d="M138.7,336.2c-0.1-0.2-0.3-0.4-0.4-0.5c-0.2-0.1-0.4-0.2-0.6-0.2c-0.2,0-0.4,0.1-0.6,0.2
				c-0.2,0.1-0.3,0.3-0.4,0.5l-7.1,11.6h2.5l5.6-9.3l2.7,4.4l0.1,0.1l1,1.7h0l1.9,3h2.6L138.7,336.2z"/>
			<polygon class="st1" points="163,347.8 163,337.8 158.2,337.8 158.2,335.7 171.8,335.7 170.5,337.8 165.1,337.8 165.1,347.8 			
				"/>
			<path class="st1" d="M114.7,347c-2.2,0-4,1.7-4,3.9c0,2.1,1.8,3.9,4,3.9c2.2,0,4-1.7,4-3.9C118.7,348.7,116.9,347,114.7,347
				 M114.7,353.1c-1.2,0-2.2-1-2.2-2.2c0-1.2,1-2.2,2.2-2.2c1.2,0,2.2,1,2.2,2.2C116.9,352.1,116,353.1,114.7,353.1"/>
			<path class="st1" d="M152.7,347c-2.2,0-4,1.7-4,3.9c0,2.1,1.8,3.9,4,3.9s4-1.7,4-3.9C156.7,348.7,154.9,347,152.7,347
				 M152.7,353.1c-1.2,0-2.2-1-2.2-2.2c0-1.2,1-2.2,2.2-2.2s2.2,1,2.2,2.2C155,352.1,154,353.1,152.7,353.1"/>
			<path class="st1" d="M115.5,350.9c0,0.4-0.3,0.7-0.8,0.7c-0.4,0-0.8-0.3-0.8-0.7s0.3-0.7,0.8-0.7
				C115.2,350.1,115.5,350.5,115.5,350.9"/>
			<path class="st1" d="M153.5,350.9c0,0.4-0.3,0.7-0.8,0.7c-0.4,0-0.8-0.3-0.8-0.7s0.3-0.7,0.8-0.7
				C153.2,350.1,153.5,350.5,153.5,350.9"/>
			<path class="st1" d="M104.2,343.9h-6.5H104.2z"/>
			<path class="st1" d="M104.2,343.6h-6.5c-0.1,0-0.3,0.1-0.3,0.3c0,0.1,0.1,0.3,0.3,0.3h6.5c0.1,0,0.3-0.1,0.3-0.3
				c0-0.3-0.5-0.3-0.5,0L104.2,343.6h-6.5l0.3,0.3l-0.3,0.3h6.5C104.6,344.2,104.6,343.6,104.2,343.6"/>
			<path class="st1" d="M106.5,341h-6.5H106.5z"/>
			<path class="st1" d="M106.5,340.8h-6.5c-0.1,0-0.3,0.1-0.3,0.3c0,0.1,0.1,0.3,0.3,0.3h6.5c0.1,0,0.3-0.1,0.3-0.3
				c0-0.3-0.5-0.3-0.5,0L106.5,340.8h-6.5l0.3,0.3l-0.3,0.3h6.5C106.9,341.3,106.9,340.8,106.5,340.8"/>
			<path class="st1" d="M106.1,338h-6.5H106.1z"/>
			<path class="st1" d="M106.1,337.7h-6.5c-0.1,0-0.3,0.1-0.3,0.3c0,0.1,0.1,0.3,0.3,0.3h6.5c0.1,0,0.3-0.1,0.3-0.3
				c0-0.3-0.5-0.3-0.5,0L106.1,337.7h-6.5l0.3,0.3l-0.3,0.3h6.5C106.4,338.2,106.4,337.7,106.1,337.7"/>
			<polygon class="st1" points="125.3,349.5 123.6,353.7 123,353.7 123.4,351.7 122.6,353.7 122,353.7 122.7,349.5 123.3,349.5 
				122.8,352.2 123.7,349.5 124.3,349.5 123.8,352.2 124.7,349.5 			"/>
			<polygon class="st1" points="128,349.5 126.4,353.7 125.8,353.7 126.1,351.7 125.4,353.7 124.8,353.7 125.4,349.5 126,349.5 
				125.5,352.2 126.4,349.5 127,349.5 126.5,352.2 127.4,349.5 			"/>
			<polygon class="st1" points="130.8,349.5 129.1,353.7 128.5,353.7 128.8,351.7 128.1,353.7 127.5,353.7 128.1,349.5 128.7,349.5 
				128.2,352.2 129.2,349.5 129.7,349.5 129.2,352.2 130.2,349.5 			"/>
			<path class="st1" d="M130.3,353.7c-0.2,0-0.3-0.2-0.3-0.4c0-0.2,0.1-0.4,0.3-0.4c0.2,0,0.3,0.2,0.3,0.4
				C130.6,353.6,130.4,353.7,130.3,353.7"/>
			<path class="st1" d="M132.7,352.9c-0.1,0.3-0.2,0.5-0.4,0.7c-0.2,0.2-0.3,0.2-0.6,0.2c-0.2,0-0.4-0.1-0.5-0.2
				c-0.1-0.2-0.2-0.4-0.1-0.7l0.1-0.7h0.6l-0.1,0.7c0,0.1,0.1,0.1,0.1,0.1c0,0,0.1,0,0.1-0.1l0.1-0.5c0-0.2,0-0.2-0.1-0.4l-0.4-0.5
				c-0.1-0.2-0.1-0.3-0.1-0.6c0,0,0.1-0.5,0.1-0.5c0.1-0.3,0.2-0.5,0.4-0.7c0.2-0.2,0.3-0.2,0.6-0.2c0.2,0,0.4,0.1,0.5,0.2
				c0.1,0.2,0.1,0.4,0.1,0.7l-0.1,0.6h-0.6l0.1-0.6c0-0.1,0-0.1-0.1-0.1c0,0-0.1,0-0.1,0.1l-0.1,0.5c0,0.2,0,0.2,0.1,0.4l0.4,0.5
				c0.1,0.2,0.1,0.3,0,0.7L132.7,352.9z"/>
			<polygon class="st1" points="134.1,349.5 135.4,349.5 135.3,350.2 134.7,350.2 134.4,351.3 134.9,351.3 134.8,351.9 134.3,351.9 
				134,353.7 133.3,353.7 			"/>
			<path class="st1" d="M135.9,353.7l0.1-0.6h-0.3l-0.2,0.6h-0.7l1.4-4.2h0.7l-0.3,4.2H135.9L135.9,353.7z M136.1,352.4l0.2-1.7
				l-0.5,1.7H136.1z"/>
			<path class="st1" d="M138.7,352.9c-0.1,0.3-0.2,0.5-0.4,0.7c-0.2,0.2-0.3,0.2-0.6,0.2c-0.2,0-0.4-0.1-0.5-0.2
				c-0.1-0.2-0.2-0.4-0.1-0.7l0.1-0.7h0.6l-0.1,0.7c0,0.1,0.1,0.1,0.1,0.1c0,0,0.1,0,0.1-0.1l0.1-0.5c0-0.2,0-0.2-0.1-0.4l-0.4-0.5
				c-0.1-0.2-0.1-0.3-0.1-0.6c0,0,0.1-0.5,0.1-0.5c0.1-0.3,0.2-0.5,0.4-0.7c0.2-0.2,0.3-0.2,0.6-0.2c0.2,0,0.4,0.1,0.5,0.2
				c0.1,0.2,0.1,0.4,0.1,0.7l-0.1,0.6h-0.6l0.1-0.6c0-0.1,0-0.1-0.1-0.1c0,0-0.1,0-0.1,0.1l-0.1,0.5c0,0.2,0,0.2,0.1,0.4l0.4,0.5
				c0.1,0.2,0.1,0.3,0,0.7L138.7,352.9z"/>
			<polygon class="st1" points="140.3,350.2 139.8,350.2 140,349.5 141.5,349.5 141.4,350.2 140.9,350.2 140.2,353.7 139.6,353.7 
							"/>
			<path class="st1" d="M141.4,353.7c-0.2,0-0.3-0.2-0.3-0.4c0-0.2,0.1-0.4,0.3-0.4c0.2,0,0.3,0.2,0.3,0.4
				C141.6,353.6,141.5,353.7,141.4,353.7"/>
			<path class="st1" d="M143.2,352h0.7l-0.2,0.8c-0.1,0.3-0.2,0.5-0.4,0.7c-0.2,0.2-0.4,0.2-0.6,0.2s-0.4-0.1-0.5-0.2
				c-0.1-0.2-0.1-0.4,0-0.7l0.7-2.5c0.1-0.3,0.2-0.5,0.4-0.7c0.2-0.2,0.4-0.2,0.6-0.2c0.2,0,0.4,0.1,0.5,0.2c0.1,0.2,0.1,0.4,0,0.7
				l-0.2,0.8h-0.7l0.2-0.9c0-0.1,0-0.1-0.1-0.1c0,0-0.1,0-0.2,0.1l-0.7,2.6c0,0.1,0,0.1,0.1,0.1c0,0,0.1,0,0.2-0.1L143.2,352z"/>
			<polygon class="st1" points="144.8,349.5 145.5,349.5 144.5,352.9 145.1,352.9 144.9,353.7 143.6,353.7 			"/>
		</g>
		<g>
			<path class="st1" d="M138.4,395.7h16.1l1-1.6h-17.1c-0.5,0-0.9,0.1-1.2,0.2c-0.4,0.1-0.7,0.3-0.9,0.5c-0.2,0.2-0.4,0.5-0.5,0.8
				c-0.1,0.3-0.2,0.6-0.2,1c0,0.4,0.1,0.7,0.2,1c0.1,0.3,0.3,0.6,0.6,0.8c0.2,0.2,0.5,0.4,0.9,0.5c0.4,0.1,0.7,0.2,1.2,0.2h4.2
				c0.4,0,0.8,0.1,1,0.3c0.2,0.2,0.3,0.5,0.3,0.9c0,0.4-0.1,0.6-0.3,0.9c-0.2,0.2-0.6,0.3-1,0.3H129l-1,1.6h10.1
				c0.6-0.7,1.5-1.2,2.6-1.2c1,0,1.9,0.4,2.5,1.1c0.3,0,0.5-0.1,0.7-0.2c0.4-0.1,0.7-0.3,0.9-0.6c0.2-0.2,0.4-0.5,0.5-0.8
				c0.1-0.3,0.2-0.7,0.2-1.1c0-0.9-0.2-1.5-0.7-2c-0.5-0.4-1.2-0.6-2.1-0.6h-4.2c-0.4,0-0.6-0.1-0.8-0.3c-0.2-0.2-0.3-0.5-0.3-0.8
				c0-0.3,0.1-0.6,0.3-0.8C137.8,395.8,138.1,395.7,138.4,395.7"/>
			<polygon class="st1" points="145.7,394.1 145.7,403.1 147.3,403.1 147.3,395.7 154.5,395.7 155.5,394.1 			"/>
			<polygon class="st1" points="153.1,398 152.3,399.4 148.5,399.4 148.5,398 			"/>
			<polygon class="st1" points="160.4,400.8 156.1,400.8 156.8,399.5 159.7,399.5 			"/>
			<path class="st1" d="M172.6,398.5c-0.5-0.4-1.2-0.6-2.1-0.6h-4.2c-0.4,0-0.6-0.1-0.8-0.3c-0.2-0.2-0.3-0.5-0.3-0.8
				c0-0.3,0.1-0.6,0.3-0.8c0.2-0.2,0.5-0.3,0.9-0.3h15.8l1-1.6l-16.8,0c-0.5,0-0.9,0.1-1.2,0.2c-0.4,0.1-0.7,0.3-0.9,0.5
				c-0.2,0.2-0.4,0.5-0.5,0.8c-0.1,0.3-0.2,0.6-0.2,1c0,0.4,0.1,0.7,0.2,1c0.1,0.3,0.3,0.6,0.6,0.8c0.2,0.2,0.5,0.4,0.9,0.5
				c0.4,0.1,0.7,0.2,1.2,0.2h4.2c0.4,0,0.8,0.1,1,0.3c0.2,0.2,0.3,0.5,0.3,0.9c0,0.4-0.1,0.6-0.3,0.9c-0.2,0.2-0.6,0.3-1,0.3l-9.6,0
				l1,1.6l4.5,0c0.6-0.7,1.5-1.2,2.6-1.2c1,0,1.9,0.4,2.5,1.1c0.1,0,0.2-0.1,0.4-0.1c0.4-0.1,0.7-0.3,0.9-0.6
				c0.2-0.2,0.4-0.5,0.5-0.8c0.1-0.3,0.2-0.7,0.2-1.1C173.3,399.6,173.1,398.9,172.6,398.5"/>
			<path class="st1" d="M158.4,394.5c-0.1-0.2-0.2-0.3-0.3-0.4c-0.1-0.1-0.3-0.1-0.5-0.1c-0.2,0-0.3,0-0.5,0.1
				c-0.1,0.1-0.2,0.2-0.3,0.4l-5.3,8.6h1.8l4.2-6.9l2,3.3l0.1,0.1l0.8,1.3h0l1.4,2.3h1.9L158.4,394.5z"/>
			<polygon class="st1" points="176.5,403.1 176.5,395.7 173,395.7 173,394.1 183,394.1 182.1,395.7 178.1,395.7 178.1,403.1 			"/>
			<path class="st1" d="M140.6,402.5c-1.6,0-3,1.3-3,2.9c0,1.6,1.3,2.9,3,2.9c1.6,0,3-1.3,3-2.9
				C143.6,403.8,142.3,402.5,140.6,402.5 M140.6,407c-0.9,0-1.6-0.7-1.6-1.7c0-0.9,0.7-1.7,1.6-1.7c0.9,0,1.6,0.7,1.6,1.7
				C142.3,406.3,141.5,407,140.6,407"/>
			<path class="st1" d="M168.9,402.5c-1.6,0-3,1.3-3,2.9c0,1.6,1.3,2.9,3,2.9s3-1.3,3-2.9C171.8,403.8,170.5,402.5,168.9,402.5
				 M168.9,407c-0.9,0-1.6-0.7-1.6-1.7c0-0.9,0.7-1.7,1.6-1.7s1.6,0.7,1.6,1.7C170.5,406.3,169.8,407,168.9,407"/>
			<path class="st1" d="M141.2,405.4c0,0.3-0.3,0.6-0.6,0.6c-0.3,0-0.6-0.2-0.6-0.6s0.3-0.6,0.6-0.6
				C140.9,404.8,141.2,405.1,141.2,405.4"/>
			<path class="st1" d="M169.4,405.4c0,0.3-0.3,0.6-0.6,0.6c-0.3,0-0.6-0.2-0.6-0.6s0.3-0.6,0.6-0.6
				C169.2,404.8,169.4,405.1,169.4,405.4"/>
			<path class="st1" d="M132.8,400.2H128H132.8z"/>
			<path class="st1" d="M132.8,400H128c-0.1,0-0.2,0.1-0.2,0.2c0,0.1,0.1,0.2,0.2,0.2h4.8c0.1,0,0.2-0.1,0.2-0.2
				c0-0.2-0.4-0.2-0.4,0L132.8,400H128l0.2,0.2l-0.2,0.2h4.8C133.1,400.4,133.1,400,132.8,400"/>
			<path class="st1" d="M134.6,398h-4.8H134.6z"/>
			<path class="st1" d="M134.6,397.9h-4.8c-0.1,0-0.2,0.1-0.2,0.2c0,0.1,0.1,0.2,0.2,0.2h4.8c0.1,0,0.2-0.1,0.2-0.2
				c0-0.2-0.4-0.2-0.4,0L134.6,397.9h-4.8l0.2,0.2l-0.2,0.2h4.8C134.8,398.2,134.8,397.9,134.6,397.9"/>
			<path class="st1" d="M134.2,395.8h-4.8H134.2z"/>
			<path class="st1" d="M134.2,395.6h-4.8c-0.1,0-0.2,0.1-0.2,0.2c0,0.1,0.1,0.2,0.2,0.2h4.8c0.1,0,0.2-0.1,0.2-0.2
				c0-0.2-0.4-0.2-0.4,0L134.2,395.6h-4.8l0.2,0.2l-0.2,0.2h4.8C134.5,396,134.5,395.6,134.2,395.6"/>
			<polygon class="st1" points="148.5,404.3 147.3,407.4 146.8,407.4 147.1,406 146.5,407.4 146.1,407.4 146.5,404.3 147,404.3 
				146.6,406.3 147.3,404.3 147.7,404.3 147.3,406.3 148,404.3 			"/>
			<polygon class="st1" points="150.5,404.3 149.3,407.4 148.8,407.4 149.1,406 148.5,407.4 148.1,407.4 148.6,404.3 149,404.3 
				148.6,406.3 149.3,404.3 149.7,404.3 149.4,406.3 150.1,404.3 			"/>
			<polygon class="st1" points="152.5,404.3 151.3,407.4 150.9,407.4 151.1,406 150.6,407.4 150.1,407.4 150.6,404.3 151,404.3 
				150.7,406.3 151.4,404.3 151.8,404.3 151.4,406.3 152.1,404.3 			"/>
			<path class="st1" d="M152.2,407.5c-0.1,0-0.2-0.1-0.2-0.3c0-0.1,0.1-0.3,0.2-0.3c0.1,0,0.2,0.1,0.2,0.3
				C152.4,407.4,152.3,407.5,152.2,407.5"/>
			<path class="st1" d="M154,406.8c0,0.2-0.1,0.4-0.3,0.5c-0.1,0.1-0.3,0.2-0.4,0.2c-0.2,0-0.3-0.1-0.3-0.2
				c-0.1-0.1-0.1-0.3-0.1-0.5l0.1-0.5h0.5l-0.1,0.5c0,0.1,0,0.1,0.1,0.1c0,0,0.1,0,0.1-0.1l0.1-0.4c0-0.1,0-0.1-0.1-0.3l-0.3-0.4
				c-0.1-0.1-0.1-0.2-0.1-0.4c0,0,0.1-0.4,0.1-0.4c0-0.2,0.1-0.4,0.3-0.5c0.1-0.1,0.2-0.2,0.4-0.2c0.2,0,0.3,0.1,0.3,0.2
				c0.1,0.1,0.1,0.3,0.1,0.5l-0.1,0.4h-0.5l0.1-0.5c0-0.1,0-0.1-0.1-0.1c0,0-0.1,0-0.1,0.1l-0.1,0.4c0,0.1,0,0.2,0.1,0.3l0.3,0.4
				c0.1,0.1,0.1,0.3,0,0.5L154,406.8z"/>
			<polygon class="st1" points="155,404.3 156,404.3 155.9,404.9 155.4,404.9 155.3,405.7 155.6,405.7 155.5,406.1 155.2,406.1 
				154.9,407.4 154.4,407.4 			"/>
			<path class="st1" d="M156.4,407.4l0.1-0.5h-0.2l-0.1,0.5h-0.5l1-3.1h0.5l-0.2,3.1H156.4L156.4,407.4z M156.5,406.5l0.2-1.2
				l-0.3,1.2H156.5z"/>
			<path class="st1" d="M158.5,406.8c0,0.2-0.1,0.4-0.3,0.5c-0.1,0.1-0.3,0.2-0.4,0.2c-0.2,0-0.3-0.1-0.3-0.2
				c-0.1-0.1-0.1-0.3-0.1-0.5l0.1-0.5h0.5l-0.1,0.5c0,0.1,0,0.1,0.1,0.1c0,0,0.1,0,0.1-0.1l0.1-0.4c0-0.1,0-0.1-0.1-0.3l-0.3-0.4
				c-0.1-0.1-0.1-0.2-0.1-0.4c0,0,0.1-0.4,0.1-0.4c0-0.2,0.1-0.4,0.3-0.5c0.1-0.1,0.2-0.2,0.4-0.2c0.2,0,0.3,0.1,0.3,0.2
				c0.1,0.1,0.1,0.3,0.1,0.5l-0.1,0.4h-0.5l0.1-0.5c0-0.1,0-0.1-0.1-0.1c0,0-0.1,0-0.1,0.1l-0.1,0.4c0,0.1,0,0.2,0.1,0.3l0.3,0.4
				c0.1,0.1,0.1,0.3,0,0.5L158.5,406.8z"/>
			<polygon class="st1" points="159.6,404.9 159.3,404.9 159.4,404.3 160.5,404.3 160.4,404.9 160.1,404.9 159.6,407.4 159.1,407.4 
							"/>
			<path class="st1" d="M160.4,407.5c-0.1,0-0.2-0.1-0.2-0.3c0-0.1,0.1-0.3,0.2-0.3c0.1,0,0.2,0.1,0.2,0.3
				C160.6,407.4,160.5,407.5,160.4,407.5"/>
			<path class="st1" d="M161.8,406.2h0.5l-0.2,0.6c-0.1,0.2-0.2,0.4-0.3,0.5c-0.1,0.1-0.3,0.2-0.4,0.2c-0.1,0-0.3,0-0.3-0.2
				c-0.1-0.1-0.1-0.3,0-0.5l0.5-1.8c0.1-0.2,0.2-0.4,0.3-0.5c0.1-0.1,0.3-0.2,0.4-0.2c0.1,0,0.3,0,0.3,0.2c0.1,0.1,0.1,0.3,0,0.5
				l-0.2,0.6H162l0.2-0.7c0-0.1,0-0.1-0.1-0.1c0,0-0.1,0-0.1,0.1l-0.5,1.9c0,0.1,0,0.1,0.1,0.1c0,0,0.1,0,0.1-0.1L161.8,406.2z"/>
			<polygon class="st1" points="163,404.3 163.5,404.3 162.8,406.9 163.2,406.9 163.1,407.4 162.1,407.4 			"/>
		</g>
		<g>
			<rect x="474.9" y="205.4" class="st42" width="10.4" height="247.2"/>
			<rect x="441.2" y="360.2" class="st43" width="33.7" height="12"/>
			<rect x="438.1" y="205.4" class="st42" width="45.2" height="10.5"/>
			<g>
				<path class="st44" d="M503.4,454.2c0,12.9-10.5,23.4-23.4,23.4c-12.9,0-23.4-10.5-23.4-23.4c0-12.9,10.5-23.4,23.4-23.4
					C493,430.8,503.4,441.3,503.4,454.2z"/>
				<path class="st45" d="M493.2,454.2c0,7.3-5.9,13.1-13.1,13.1c-7.3,0-13.1-5.9-13.1-13.1c0-7.3,5.9-13.1,13.1-13.1
					C487.3,441,493.2,446.9,493.2,454.2z"/>
				<path class="st46" d="M489.7,454.2c0,5.3-4.3,9.6-9.6,9.6c-5.3,0-9.6-4.3-9.6-9.6c0-5.3,4.3-9.6,9.6-9.6
					C485.4,444.6,489.7,448.9,489.7,454.2z"/>
			</g>
			<rect x="430.8" y="205.4" class="st42" width="10.4" height="247.2"/>
			<rect x="436" y="447.4" class="st42" width="115" height="10.4"/>
			<rect x="551.1" y="447.4" class="st47" width="50.3" height="10.4"/>
			<rect x="396" y="205.4" class="st42" width="45.2" height="10.5"/>
			<g>
				<rect x="452.4" y="348.7" class="st48" width="98.7" height="98.7"/>
				<rect x="491.7" y="348.7" class="st49" width="20.2" height="22.9"/>
				<rect x="551.2" y="348.7" class="st34" width="30.1" height="98.7"/>
				<g>
					<rect x="497.2" y="421.8" class="st34" width="45.9" height="18.2"/>
					<g>
						<g>
							<polygon class="st50" points="507.5,429.2 504.7,425.1 501.8,429.2 503.6,429.2 503.6,433.9 505.8,433.9 505.8,429.2 							
								"/>
							<polygon class="st50" points="514.1,429.2 511.2,425.1 508.4,429.2 510.1,429.2 510.1,433.9 512.4,433.9 512.4,429.2 							
								"/>
							<rect x="501.8" y="434.6" class="st50" width="12.3" height="2.3"/>
						</g>
						<g>
							<rect x="521.2" y="431.5" class="st50" width="0.8" height="4.1"/>
							<polygon class="st50" points="522,435.5 521.6,435.5 521.3,435.5 518.6,436.9 521.6,436.9 524.6,436.9 							"/>
							<path class="st50" d="M518.3,425.3v3.3c0,1.8,1.5,3.3,3.3,3.3c1.8,0,3.3-1.5,3.3-3.3v-3.3H518.3z"/>
							<polygon class="st34" points="522.2,425.3 520.9,425.3 520.1,427.2 521,427.2 520.7,430.1 523.2,426.1 521.7,426.1 							
								"/>
						</g>
						<g>
							<path class="st50" d="M538.6,429.2c-0.5-2-2.4-3.5-4.6-3.5c-2.2,0-4.1,1.5-4.6,3.5H538.6z"/>
							<path class="st50" d="M534.2,435.1c0,0.1-0.1,0.2-0.2,0.2l0,0c-0.1,0-0.2-0.1-0.2-0.2v-9.8c0-0.1,0.1-0.2,0.2-0.2l0,0
								c0.1,0,0.2,0.1,0.2,0.2V435.1z"/>
							<path class="st50" d="M533.7,435.1h0.5v0.9c0,0,0,0.6,0.4,0.6c0,0,0.6,0.1,0.6-0.5c0,0,0-0.2,0.2-0.2c0,0,0.2,0,0.2,0.2
								c0,0,0.1,1-1,1c0,0-1,0-0.9-1V435.1z"/>
						</g>
					</g>
				</g>
			</g>
			<g>
				<rect x="469.3" y="250" class="st48" width="98.7" height="98.7"/>
				<rect x="508.6" y="250" class="st49" width="20.2" height="22.9"/>
				<rect x="568" y="250" class="st34" width="30.1" height="98.7"/>
				<g>
					<rect x="514.1" y="323.1" class="st34" width="45.9" height="18.2"/>
					<g>
						<g>
							<polygon class="st50" points="524.4,330.5 521.5,326.4 518.7,330.5 520.4,330.5 520.4,335.2 522.7,335.2 522.7,330.5 							
								"/>
							<polygon class="st50" points="531,330.5 528.1,326.4 525.2,330.5 527,330.5 527,335.2 529.2,335.2 529.2,330.5 							"/>
							<rect x="518.7" y="335.9" class="st50" width="12.3" height="2.3"/>
						</g>
						<g>
							<rect x="538.1" y="332.8" class="st50" width="0.8" height="4.1"/>
							<polygon class="st50" points="538.9,336.8 538.5,336.8 538.1,336.8 535.5,338.2 538.5,338.2 541.5,338.2 							"/>
							<path class="st50" d="M535.2,326.5v3.3c0,1.8,1.5,3.3,3.3,3.3c1.8,0,3.3-1.5,3.3-3.3v-3.3H535.2z"/>
							<polygon class="st34" points="539.1,326.5 537.7,326.5 537,328.5 537.8,328.5 537.6,331.4 540,327.4 538.6,327.4 							"/>
						</g>
						<g>
							<path class="st50" d="M555.5,330.5c-0.5-2-2.4-3.5-4.6-3.5c-2.2,0-4.1,1.5-4.6,3.5H555.5z"/>
							<path class="st50" d="M551.1,336.3c0,0.1-0.1,0.2-0.2,0.2l0,0c-0.1,0-0.2-0.1-0.2-0.2v-9.8c0-0.1,0.1-0.2,0.2-0.2l0,0
								c0.1,0,0.2,0.1,0.2,0.2V336.3z"/>
							<path class="st50" d="M550.6,336.3h0.5v0.9c0,0,0,0.6,0.4,0.6c0,0,0.6,0.1,0.6-0.5c0,0,0-0.2,0.2-0.2c0,0,0.2,0,0.2,0.2
								c0,0,0.1,1-1,1c0,0-1,0-0.9-1V336.3z"/>
						</g>
					</g>
				</g>
			</g>
			<g>
				<path class="st51" d="M459.4,454.2c0,12.9-10.5,23.4-23.4,23.4c-12.9,0-23.4-10.5-23.4-23.4c0-12.9,10.5-23.4,23.4-23.4
					C448.9,430.8,459.4,441.3,459.4,454.2z"/>
				<path class="st45" d="M449.1,454.2c0,7.3-5.9,13.1-13.1,13.1c-7.3,0-13.1-5.9-13.1-13.1c0-7.3,5.9-13.1,13.1-13.1
					C443.3,441,449.1,446.9,449.1,454.2z"/>
				<path class="st46" d="M445.6,454.2c0,5.3-4.3,9.6-9.6,9.6c-5.3,0-9.6-4.3-9.6-9.6c0-5.3,4.3-9.6,9.6-9.6
					C441.3,444.6,445.6,448.9,445.6,454.2z"/>
			</g>
		</g>
		<g>
			<path class="st1" d="M478.8,395.1h21.7l1.3-2.1h-23c-0.6,0-1.2,0.1-1.6,0.3c-0.5,0.2-0.9,0.4-1.2,0.7c-0.3,0.3-0.6,0.7-0.7,1.1
				c-0.2,0.4-0.2,0.9-0.2,1.4c0,0.5,0.1,1,0.3,1.4c0.2,0.4,0.4,0.8,0.8,1.1c0.3,0.3,0.7,0.5,1.2,0.7c0.5,0.2,1,0.3,1.6,0.3h5.7
				c0.6,0,1,0.1,1.3,0.4c0.3,0.3,0.5,0.7,0.5,1.2c0,0.5-0.2,0.9-0.5,1.2c-0.3,0.3-0.8,0.4-1.3,0.4h-18.4l-1.3,2.1h13.6
				c0.8-1,2.1-1.6,3.4-1.6c1.4,0,2.6,0.6,3.4,1.5c0.4,0,0.7-0.1,1-0.2c0.5-0.2,0.9-0.4,1.2-0.7c0.3-0.3,0.6-0.7,0.7-1.1
				c0.2-0.4,0.2-0.9,0.2-1.4c0-1.2-0.3-2.1-1-2.6c-0.7-0.6-1.6-0.9-2.9-0.9h-5.7c-0.5,0-0.9-0.1-1.1-0.4c-0.3-0.3-0.4-0.6-0.4-1.1
				c0-0.5,0.1-0.8,0.4-1.1C477.9,395.2,478.3,395.1,478.8,395.1"/>
			<polygon class="st1" points="488.6,393 488.6,405.1 490.7,405.1 490.7,395.1 500.5,395.1 501.8,393 			"/>
			<polygon class="st1" points="498.6,398.3 497.5,400.1 492.3,400.1 492.3,398.3 			"/>
			<polygon class="st1" points="508.4,402.1 502.6,402.1 503.6,400.4 507.4,400.4 			"/>
			<path class="st1" d="M524.8,398.9c-0.7-0.6-1.6-0.9-2.9-0.9h-5.7c-0.5,0-0.9-0.1-1.1-0.4c-0.3-0.3-0.4-0.6-0.4-1.1
				c0-0.5,0.1-0.8,0.4-1.1c0.3-0.3,0.7-0.4,1.2-0.4h21.3l1.3-2.1l-22.6,0c-0.6,0-1.2,0.1-1.6,0.3c-0.5,0.2-0.9,0.4-1.2,0.7
				c-0.3,0.3-0.6,0.7-0.7,1.1c-0.2,0.4-0.2,0.9-0.2,1.4c0,0.5,0.1,1,0.3,1.4c0.2,0.4,0.4,0.8,0.8,1.1c0.3,0.3,0.7,0.5,1.2,0.7
				c0.5,0.2,1,0.3,1.6,0.3h5.7c0.6,0,1,0.1,1.3,0.4c0.3,0.3,0.5,0.7,0.5,1.2c0,0.5-0.2,0.9-0.5,1.2c-0.3,0.3-0.8,0.4-1.3,0.4
				l-12.9,0l1.3,2.2l6.1,0c0.8-1,2.1-1.6,3.4-1.6c1.3,0,2.5,0.6,3.3,1.4c0.2,0,0.3-0.1,0.5-0.1c0.5-0.2,0.9-0.4,1.2-0.7
				c0.3-0.3,0.6-0.7,0.7-1.1c0.2-0.4,0.2-0.9,0.2-1.4C525.8,400.4,525.5,399.5,524.8,398.9"/>
			<path class="st1" d="M505.8,393.5c-0.1-0.2-0.3-0.4-0.4-0.5c-0.2-0.1-0.4-0.2-0.6-0.2c-0.2,0-0.4,0.1-0.6,0.2
				c-0.2,0.1-0.3,0.3-0.4,0.5l-7.1,11.6h2.5l5.6-9.3l2.7,4.4l0.1,0.1l1,1.7h0l1.9,3h2.6L505.8,393.5z"/>
			<polygon class="st1" points="530,405.1 530,395.1 525.3,395.1 525.3,393 538.8,393 537.5,395.1 532.2,395.1 532.2,405.1 			"/>
			<path class="st1" d="M481.8,404.3c-2.2,0-4,1.7-4,3.9c0,2.1,1.8,3.9,4,3.9c2.2,0,4-1.7,4-3.9C485.8,406,484,404.3,481.8,404.3
				 M481.8,410.4c-1.2,0-2.2-1-2.2-2.2c0-1.2,1-2.2,2.2-2.2c1.2,0,2.2,1,2.2,2.2C484,409.4,483,410.4,481.8,410.4"/>
			<path class="st1" d="M519.8,404.3c-2.2,0-4,1.7-4,3.9c0,2.1,1.8,3.9,4,3.9c2.2,0,4-1.7,4-3.9C523.8,406,522,404.3,519.8,404.3
				 M519.8,410.4c-1.2,0-2.2-1-2.2-2.2c0-1.2,1-2.2,2.2-2.2s2.2,1,2.2,2.2C522,409.4,521,410.4,519.8,410.4"/>
			<path class="st1" d="M482.5,408.2c0,0.4-0.3,0.7-0.8,0.7c-0.4,0-0.8-0.3-0.8-0.7s0.3-0.7,0.8-0.7
				C482.2,407.4,482.5,407.8,482.5,408.2"/>
			<path class="st1" d="M520.6,408.2c0,0.4-0.3,0.7-0.8,0.7c-0.4,0-0.8-0.3-0.8-0.7s0.3-0.7,0.8-0.7
				C520.2,407.4,520.6,407.8,520.6,408.2"/>
			<path class="st1" d="M471.3,401.2h-6.5H471.3z"/>
			<path class="st1" d="M471.3,401h-6.5c-0.1,0-0.3,0.1-0.3,0.3c0,0.1,0.1,0.3,0.3,0.3h6.5c0.1,0,0.3-0.1,0.3-0.3
				c0-0.3-0.5-0.3-0.5,0L471.3,401h-6.5l0.3,0.3l-0.3,0.3h6.5C471.6,401.5,471.6,401,471.3,401"/>
			<path class="st1" d="M473.6,398.3h-6.5H473.6z"/>
			<path class="st1" d="M473.6,398.1h-6.5c-0.1,0-0.3,0.1-0.3,0.3c0,0.1,0.1,0.3,0.3,0.3h6.5c0.1,0,0.3-0.1,0.3-0.3
				c0-0.3-0.5-0.3-0.5,0L473.6,398.1h-6.5l0.3,0.3l-0.3,0.3h6.5C473.9,398.6,473.9,398.1,473.6,398.1"/>
			<path class="st1" d="M473.1,395.3h-6.5H473.1z"/>
			<path class="st1" d="M473.1,395h-6.5c-0.1,0-0.3,0.1-0.3,0.3c0,0.1,0.1,0.3,0.3,0.3h6.5c0.1,0,0.3-0.1,0.3-0.3
				c0-0.3-0.5-0.3-0.5,0L473.1,395h-6.5l0.3,0.3l-0.3,0.3h6.5C473.5,395.5,473.5,395,473.1,395"/>
			<polygon class="st1" points="492.4,406.8 490.7,411 490.1,411 490.4,409 489.7,411 489.1,411 489.7,406.8 490.3,406.8 
				489.8,409.5 490.8,406.8 491.3,406.8 490.8,409.5 491.8,406.8 			"/>
			<polygon class="st1" points="495.1,406.8 493.4,411 492.8,411 493.2,409 492.4,411 491.8,411 492.5,406.8 493.1,406.8 
				492.5,409.5 493.5,406.8 494.1,406.8 493.5,409.5 494.5,406.8 			"/>
			<polygon class="st1" points="497.8,406.8 496.2,411 495.6,411 495.9,409 495.1,411 494.6,411 495.2,406.8 495.8,406.8 
				495.3,409.5 496.2,406.8 496.8,406.8 496.3,409.5 497.2,406.8 			"/>
			<path class="st1" d="M497.3,411c-0.2,0-0.3-0.2-0.3-0.4c0-0.2,0.1-0.4,0.3-0.4c0.2,0,0.3,0.2,0.3,0.4
				C497.6,410.9,497.5,411,497.3,411"/>
			<path class="st1" d="M499.8,410.2c-0.1,0.3-0.2,0.5-0.4,0.7c-0.2,0.2-0.3,0.2-0.6,0.2c-0.2,0-0.4-0.1-0.5-0.2
				c-0.1-0.2-0.2-0.4-0.1-0.7l0.1-0.7h0.6l-0.1,0.7c0,0.1,0.1,0.1,0.1,0.1c0,0,0.1,0,0.1-0.1l0.1-0.5c0-0.2,0-0.2-0.1-0.4l-0.4-0.5
				c-0.1-0.2-0.1-0.3-0.1-0.6c0,0,0.1-0.5,0.1-0.5c0.1-0.3,0.2-0.5,0.4-0.7c0.2-0.2,0.3-0.2,0.6-0.2c0.2,0,0.4,0.1,0.5,0.2
				c0.1,0.2,0.1,0.4,0.1,0.7l-0.1,0.6h-0.6l0.1-0.6c0-0.1,0-0.1-0.1-0.1c0,0-0.1,0-0.1,0.1l-0.1,0.5c0,0.2,0,0.2,0.1,0.4l0.4,0.5
				c0.1,0.2,0.1,0.3,0,0.7L499.8,410.2z"/>
			<polygon class="st1" points="501.2,406.8 502.5,406.8 502.3,407.5 501.7,407.5 501.5,408.6 501.9,408.6 501.8,409.2 501.4,409.2 
				501,411 500.3,411 			"/>
			<path class="st1" d="M503,411l0.1-0.6h-0.3l-0.2,0.6h-0.7l1.4-4.2h0.7l-0.3,4.2H503L503,411z M503.2,409.7l0.2-1.7l-0.5,1.7
				H503.2z"/>
			<path class="st1" d="M505.8,410.2c-0.1,0.3-0.2,0.5-0.4,0.7c-0.2,0.2-0.3,0.2-0.6,0.2c-0.2,0-0.4-0.1-0.5-0.2
				c-0.1-0.2-0.2-0.4-0.1-0.7l0.1-0.7h0.6l-0.1,0.7c0,0.1,0.1,0.1,0.1,0.1c0,0,0.1,0,0.1-0.1l0.1-0.5c0-0.2,0-0.2-0.1-0.4l-0.4-0.5
				c-0.1-0.2-0.1-0.3-0.1-0.6c0,0,0.1-0.5,0.1-0.5c0.1-0.3,0.2-0.5,0.4-0.7c0.2-0.2,0.3-0.2,0.6-0.2c0.2,0,0.4,0.1,0.5,0.2
				c0.1,0.2,0.1,0.4,0.1,0.7l-0.1,0.6h-0.6l0.1-0.6c0-0.1,0-0.1-0.1-0.1c0,0-0.1,0-0.1,0.1l-0.1,0.5c0,0.2,0,0.2,0.1,0.4l0.4,0.5
				c0.1,0.2,0.1,0.3,0,0.7L505.8,410.2z"/>
			<polygon class="st1" points="507.3,407.5 506.9,407.5 507,406.8 508.6,406.8 508.4,407.5 508,407.5 507.3,411 506.6,411 			"/>
			<path class="st1" d="M508.4,411c-0.2,0-0.3-0.2-0.3-0.4c0-0.2,0.1-0.4,0.3-0.4c0.2,0,0.3,0.2,0.3,0.4
				C508.7,410.9,508.6,411,508.4,411"/>
			<path class="st1" d="M510.3,409.3h0.7l-0.2,0.8c-0.1,0.3-0.2,0.5-0.4,0.7c-0.2,0.2-0.4,0.2-0.6,0.2s-0.4-0.1-0.5-0.2
				c-0.1-0.2-0.1-0.4,0-0.7l0.7-2.5c0.1-0.3,0.2-0.5,0.4-0.7c0.2-0.2,0.4-0.2,0.6-0.2c0.2,0,0.4,0.1,0.5,0.2c0.1,0.2,0.1,0.4,0,0.7
				l-0.2,0.8h-0.7l0.2-0.9c0-0.1,0-0.1-0.1-0.1c0,0-0.1,0-0.2,0.1l-0.7,2.6c0,0.1,0,0.1,0.1,0.1c0,0,0.1,0,0.2-0.1L510.3,409.3z"/>
			<polygon class="st1" points="511.8,406.8 512.5,406.8 511.6,410.2 512.2,410.2 512,411 510.7,411 			"/>
		</g>
		<g>
			<path class="st1" d="M494.6,292.1h21.7l1.3-2.1h-23c-0.6,0-1.2,0.1-1.6,0.3c-0.5,0.2-0.9,0.4-1.2,0.7c-0.3,0.3-0.6,0.7-0.7,1.1
				c-0.2,0.4-0.2,0.9-0.2,1.4c0,0.5,0.1,1,0.3,1.4c0.2,0.4,0.4,0.8,0.8,1.1c0.3,0.3,0.7,0.5,1.2,0.7c0.5,0.2,1,0.3,1.6,0.3h5.7
				c0.6,0,1,0.1,1.3,0.4c0.3,0.3,0.5,0.7,0.5,1.2c0,0.5-0.2,0.9-0.5,1.2c-0.3,0.3-0.8,0.4-1.3,0.4h-18.4l-1.3,2.1h13.6
				c0.8-1,2.1-1.6,3.4-1.6c1.4,0,2.6,0.6,3.4,1.5c0.4,0,0.7-0.1,1-0.2c0.5-0.2,0.9-0.4,1.2-0.7c0.3-0.3,0.6-0.7,0.7-1.1
				c0.2-0.4,0.2-0.9,0.2-1.4c0-1.2-0.3-2.1-1-2.6c-0.7-0.6-1.6-0.9-2.9-0.9h-5.7c-0.5,0-0.9-0.1-1.1-0.4c-0.3-0.3-0.4-0.6-0.4-1.1
				c0-0.5,0.1-0.8,0.4-1.1C493.7,292.2,494.1,292.1,494.6,292.1"/>
			<polygon class="st1" points="504.3,290 504.3,302.1 506.5,302.1 506.5,292.1 516.2,292.1 517.6,290 			"/>
			<polygon class="st1" points="514.4,295.3 513.2,297.1 508.1,297.1 508.1,295.3 			"/>
			<polygon class="st1" points="524.2,299.1 518.3,299.1 519.3,297.4 523.1,297.4 			"/>
			<path class="st1" d="M540.5,295.9c-0.7-0.6-1.6-0.9-2.9-0.9H532c-0.5,0-0.9-0.1-1.1-0.4c-0.3-0.3-0.4-0.6-0.4-1.1
				c0-0.5,0.1-0.8,0.4-1.1c0.3-0.3,0.7-0.4,1.2-0.4h21.3l1.3-2.1l-22.6,0c-0.6,0-1.2,0.1-1.6,0.3c-0.5,0.2-0.9,0.4-1.2,0.7
				c-0.3,0.3-0.6,0.7-0.7,1.1c-0.2,0.4-0.2,0.9-0.2,1.4c0,0.5,0.1,1,0.3,1.4c0.2,0.4,0.4,0.8,0.8,1.1c0.3,0.3,0.7,0.5,1.2,0.7
				c0.5,0.2,1,0.3,1.6,0.3h5.7c0.6,0,1,0.1,1.3,0.4c0.3,0.3,0.5,0.7,0.5,1.2c0,0.5-0.2,0.9-0.5,1.2c-0.3,0.3-0.8,0.4-1.3,0.4
				l-12.9,0l1.3,2.2l6.1,0c0.8-1,2.1-1.6,3.4-1.6c1.3,0,2.5,0.6,3.3,1.4c0.2,0,0.3-0.1,0.5-0.1c0.5-0.2,0.9-0.4,1.2-0.7
				c0.3-0.3,0.6-0.7,0.7-1.1c0.2-0.4,0.2-0.9,0.2-1.4C541.5,297.4,541.2,296.5,540.5,295.9"/>
			<path class="st1" d="M521.5,290.5c-0.1-0.2-0.3-0.4-0.4-0.5c-0.2-0.1-0.4-0.2-0.6-0.2c-0.2,0-0.4,0.1-0.6,0.2
				c-0.2,0.1-0.3,0.3-0.4,0.5l-7.1,11.6h2.5l5.6-9.3l2.7,4.4l0.1,0.1l1,1.7h0l1.9,3h2.6L521.5,290.5z"/>
			<polygon class="st1" points="545.7,302.1 545.7,292.1 541,292.1 541,290 554.6,290 553.3,292.1 547.9,292.1 547.9,302.1 			"/>
			<path class="st1" d="M497.5,301.3c-2.2,0-4,1.7-4,3.9c0,2.1,1.8,3.9,4,3.9c2.2,0,4-1.7,4-3.9C501.5,303,499.7,301.3,497.5,301.3
				 M497.5,307.4c-1.2,0-2.2-1-2.2-2.2c0-1.2,1-2.2,2.2-2.2c1.2,0,2.2,1,2.2,2.2C499.7,306.4,498.7,307.4,497.5,307.4"/>
			<path class="st1" d="M535.5,301.3c-2.2,0-4,1.7-4,3.9c0,2.1,1.8,3.9,4,3.9c2.2,0,4-1.7,4-3.9C539.5,303,537.7,301.3,535.5,301.3
				 M535.5,307.4c-1.2,0-2.2-1-2.2-2.2c0-1.2,1-2.2,2.2-2.2c1.2,0,2.2,1,2.2,2.2C537.7,306.4,536.8,307.4,535.5,307.4"/>
			<path class="st1" d="M498.3,305.2c0,0.4-0.3,0.7-0.8,0.7c-0.4,0-0.8-0.3-0.8-0.7s0.3-0.7,0.8-0.7
				C497.9,304.4,498.3,304.8,498.3,305.2"/>
			<path class="st1" d="M536.3,305.2c0,0.4-0.3,0.7-0.8,0.7c-0.4,0-0.8-0.3-0.8-0.7s0.3-0.7,0.8-0.7
				C536,304.4,536.3,304.8,536.3,305.2"/>
			<path class="st1" d="M487,298.2h-6.5H487z"/>
			<path class="st1" d="M487,298h-6.5c-0.1,0-0.3,0.1-0.3,0.3c0,0.1,0.1,0.3,0.3,0.3h6.5c0.1,0,0.3-0.1,0.3-0.3c0-0.3-0.5-0.3-0.5,0
				L487,298h-6.5l0.3,0.3l-0.3,0.3h6.5C487.3,298.5,487.3,298,487,298"/>
			<path class="st1" d="M489.3,295.3h-6.5H489.3z"/>
			<path class="st1" d="M489.3,295.1h-6.5c-0.1,0-0.3,0.1-0.3,0.3c0,0.1,0.1,0.3,0.3,0.3h6.5c0.1,0,0.3-0.1,0.3-0.3
				c0-0.3-0.5-0.3-0.5,0L489.3,295.1h-6.5l0.3,0.3l-0.3,0.3h6.5C489.7,295.6,489.7,295.1,489.3,295.1"/>
			<path class="st1" d="M488.9,292.3h-6.5H488.9z"/>
			<path class="st1" d="M488.9,292h-6.5c-0.1,0-0.3,0.1-0.3,0.3c0,0.1,0.1,0.3,0.3,0.3h6.5c0.1,0,0.3-0.1,0.3-0.3
				c0-0.3-0.5-0.3-0.5,0L488.9,292h-6.5l0.3,0.3l-0.3,0.3h6.5C489.2,292.5,489.2,292,488.9,292"/>
			<polygon class="st1" points="508.1,303.8 506.4,308 505.8,308 506.2,306 505.4,308 504.8,308 505.5,303.8 506.1,303.8 
				505.5,306.5 506.5,303.8 507.1,303.8 506.5,306.5 507.5,303.8 			"/>
			<polygon class="st1" points="510.8,303.8 509.2,308 508.6,308 508.9,306 508.1,308 507.5,308 508.2,303.8 508.8,303.8 
				508.3,306.5 509.2,303.8 509.8,303.8 509.3,306.5 510.2,303.8 			"/>
			<polygon class="st1" points="513.5,303.8 511.9,308 511.3,308 511.6,306 510.9,308 510.3,308 510.9,303.8 511.5,303.8 511,306.5 
				512,303.8 512.5,303.8 512,306.5 512.9,303.8 			"/>
			<path class="st1" d="M513.1,308c-0.2,0-0.3-0.2-0.3-0.4c0-0.2,0.1-0.4,0.3-0.4c0.2,0,0.3,0.2,0.3,0.4
				C513.3,307.9,513.2,308,513.1,308"/>
			<path class="st1" d="M515.5,307.2c-0.1,0.3-0.2,0.5-0.4,0.7c-0.2,0.2-0.3,0.2-0.6,0.2c-0.2,0-0.4-0.1-0.5-0.2
				c-0.1-0.2-0.2-0.4-0.1-0.7l0.1-0.7h0.6l-0.1,0.7c0,0.1,0.1,0.1,0.1,0.1c0,0,0.1,0,0.1-0.1l0.1-0.5c0-0.2,0-0.2-0.1-0.4l-0.4-0.5
				c-0.1-0.2-0.1-0.3-0.1-0.6c0,0,0.1-0.5,0.1-0.5c0.1-0.3,0.2-0.5,0.4-0.7c0.2-0.2,0.3-0.2,0.6-0.2c0.2,0,0.4,0.1,0.5,0.2
				c0.1,0.2,0.1,0.4,0.1,0.7l-0.1,0.6h-0.6l0.1-0.6c0-0.1,0-0.1-0.1-0.1c0,0-0.1,0-0.1,0.1l-0.1,0.5c0,0.2,0,0.2,0.1,0.4l0.4,0.5
				c0.1,0.2,0.1,0.3,0,0.7L515.5,307.2z"/>
			<polygon class="st1" points="516.9,303.8 518.2,303.8 518,304.5 517.4,304.5 517.2,305.6 517.7,305.6 517.5,306.2 517.1,306.2 
				516.7,308 516.1,308 			"/>
			<path class="st1" d="M518.7,308l0.1-0.6h-0.3l-0.2,0.6h-0.7l1.4-4.2h0.7l-0.3,4.2H518.7L518.7,308z M518.9,306.7l0.2-1.7
				l-0.5,1.7H518.9z"/>
			<path class="st1" d="M521.5,307.2c-0.1,0.3-0.2,0.5-0.4,0.7c-0.2,0.2-0.3,0.2-0.6,0.2c-0.2,0-0.4-0.1-0.5-0.2
				c-0.1-0.2-0.2-0.4-0.1-0.7l0.1-0.7h0.6l-0.1,0.7c0,0.1,0.1,0.1,0.1,0.1c0,0,0.1,0,0.1-0.1l0.1-0.5c0-0.2,0-0.2-0.1-0.4l-0.4-0.5
				c-0.1-0.2-0.1-0.3-0.1-0.6c0,0,0.1-0.5,0.1-0.5c0.1-0.3,0.2-0.5,0.4-0.7c0.2-0.2,0.3-0.2,0.6-0.2c0.2,0,0.4,0.1,0.5,0.2
				c0.1,0.2,0.1,0.4,0.1,0.7l-0.1,0.6h-0.6l0.1-0.6c0-0.1,0-0.1-0.1-0.1c0,0-0.1,0-0.1,0.1l-0.1,0.5c0,0.2,0,0.2,0.1,0.4l0.4,0.5
				c0.1,0.2,0.1,0.3,0,0.7L521.5,307.2z"/>
			<polygon class="st1" points="523.1,304.5 522.6,304.5 522.8,303.8 524.3,303.8 524.1,304.5 523.7,304.5 523,308 522.4,308 			"/>
			<path class="st1" d="M524.1,308c-0.2,0-0.3-0.2-0.3-0.4c0-0.2,0.1-0.4,0.3-0.4c0.2,0,0.3,0.2,0.3,0.4
				C524.4,307.9,524.3,308,524.1,308"/>
			<path class="st1" d="M526,306.3h0.7l-0.2,0.8c-0.1,0.3-0.2,0.5-0.4,0.7c-0.2,0.2-0.4,0.2-0.6,0.2c-0.2,0-0.4-0.1-0.5-0.2
				c-0.1-0.2-0.1-0.4,0-0.7l0.7-2.5c0.1-0.3,0.2-0.5,0.4-0.7c0.2-0.2,0.4-0.2,0.6-0.2c0.2,0,0.4,0.1,0.5,0.2c0.1,0.2,0.1,0.4,0,0.7
				l-0.2,0.8h-0.7l0.2-0.9c0-0.1,0-0.1-0.1-0.1c0,0-0.1,0-0.2,0.1l-0.7,2.6c0,0.1,0,0.1,0.1,0.1c0,0,0.1,0,0.2-0.1L526,306.3z"/>
			<polygon class="st1" points="527.6,303.8 528.2,303.8 527.3,307.2 527.9,307.2 527.7,308 526.4,308 			"/>
		</g>
		<g>
			
				<radialGradient id="SVGID_30_" cx="-1462.4009" cy="-5191.0054" r="3.6822" gradientTransform="matrix(-1.000001e-04 1.3832 9.3494 -9.999958e-05 48699.2695 2338.0989)" gradientUnits="userSpaceOnUse">
				<stop  offset="0" style="stop-color:#B3B3B3"/>
				<stop  offset="0.6724" style="stop-color:#EAEAEA"/>
				<stop  offset="1" style="stop-color:#FFFFFF"/>
			</radialGradient>
			<ellipse class="st52" cx="166.6" cy="315.8" rx="34.4" ry="5.1"/>
			<g>
				<path class="st25" d="M132,235.8c0,0.8,0.1,1.6,0.2,2.5c0.1,0.8,0.2,1.6,0.3,2.5c1.6,9,4.9,17.6,8.2,26
					c3.9,10.2,19.1,34.5,22.9,41.1c0.1,0.2,0.3,0.5,0.4,0.7c0.6,1,1.4,2.3,2.4,2.3c0.1,0,0.2,0,0.3,0c0.9-0.2,1.5-1.2,2.1-2.2
					c0.3-0.6,0.6-1.1,0.8-1.5c3.8-6.9,19.4-31.5,23.2-41.6c3.2-8.2,6.3-16.7,7.8-25.3c1.9-10.9-2.9-22.5-11.2-29.7
					c-10.3-8.8-24.9-10.8-37.3-5.3C140.1,210.5,132.1,222.5,132,235.8z M143.3,238.2c0-12.9,10.4-23.3,23.3-23.3
					c12.9,0,23.3,10.4,23.3,23.3s-10.4,23.3-23.3,23.3c-1.1,0-2.2-0.1-3.3-0.2C152,259.7,143.3,250,143.3,238.2z"/>
				
					<linearGradient id="SVGID_31_" gradientUnits="userSpaceOnUse" x1="-3302.7483" y1="278.1735" x2="-3275.1519" y2="220.8486" gradientTransform="matrix(-1 0 0 1 -3143.7034 0)">
					<stop  offset="0" style="stop-color:#4EAD42"/>
					<stop  offset="1" style="stop-color:#4EAD42"/>
				</linearGradient>
				<path class="st53" d="M132.2,238.2c0.1,0.8,0.2,1.6,0.3,2.5c1.6,9,4.9,17.6,8.2,26c3.9,10.2,19.1,34.5,22.9,41.1
					c0.1,0.2,0.3,0.5,0.4,0.7c0.6,1,1.4,2.3,2.4,2.3l0-2.3l0.2-41.6l-3.3-5.6c-11.3-1.6-20.1-11.3-20.1-23.1H132.2z"/>
				
					<linearGradient id="SVGID_32_" gradientUnits="userSpaceOnUse" x1="-3339.0635" y1="238.2229" x2="-3281.6191" y2="238.2229" gradientTransform="matrix(-1 0 0 1 -3143.7034 0)">
					<stop  offset="0" style="stop-color:#8DFF2A"/>
					<stop  offset="1" style="stop-color:#0A6A00"/>
				</linearGradient>
				<path class="st54" d="M137.9,238.2c0,15.9,12.9,28.7,28.7,28.7c15.9,0,28.7-12.9,28.7-28.7c0-15.9-12.9-28.7-28.7-28.7
					C150.8,209.5,137.9,222.4,137.9,238.2z M143.3,238.2c0-12.9,10.4-23.3,23.3-23.3c12.9,0,23.3,10.4,23.3,23.3
					s-10.4,23.3-23.3,23.3c-1.1,0-2.2-0.1-3.3-0.2C152,259.7,143.3,250,143.3,238.2z"/>
			</g>
		</g>
	</g>
</g>
</svg>
