<?xml version="1.0" encoding="utf-8"?>
<!-- Generator: Adobe Illustrator 22.0.0, SVG Export Plug-In . SVG Version: 6.00 Build 0)  -->
<svg version="1.1" id="Capa_1" xmlns="http://www.w3.org/2000/svg" xmlns:xlink="http://www.w3.org/1999/xlink" x="0px" y="0px"
	 viewBox="0 0 150 150" style="enable-background:new 0 0 150 150;" xml:space="preserve">
<style type="text/css">
	.st0{fill:#2F2F41;}
	.st1{fill:#FFFFFF;}
</style>
<g>
	<path class="st0" d="M31.9,72.4v55.4h27.8V88.3c0-1.2,1-2.2,2.2-2.2h5.7V72.4H31.9z M39.8,102.3h-2.9c-1.2,0-2.2-1-2.2-2.2
		c0-1.2,1-2.2,2.2-2.2h2.9c1.2,0,2.2,1,2.2,2.2C42,101.3,41,102.3,39.8,102.3z"/>
	<polygon class="st0" points="39.9,18.6 28.8,18.6 28.8,38.2 39.9,30.1 	"/>
	<path class="st0" d="M95.4,104.8c0,0.9-0.5,1.6-1.3,2c-0.3,0.1-0.6,0.2-1,0.2c-0.5,0-1-0.2-1.4-0.5l-5-4l-5,4
		c-0.7,0.5-1.6,0.6-2.4,0.3c-0.8-0.4-1.3-1.2-1.3-2V90.5h-14v45.3h45.3V90.5h-14V104.8z"/>
	<path class="st0" d="M88.2,98l2.8,2.2v-9.7h-8.3v9.7l2.8-2.2c0.4-0.3,0.9-0.5,1.4-0.5C87.3,97.5,87.8,97.7,88.2,98z"/>
	<path class="st0" d="M71.1,13.1L13,55.1h4.6c1.2,0,2.2,1,2.2,2.2v70.4h7.7V70.1c0-1.2,1-2.2,2.2-2.2h40.2c1.2,0,2.2,1,2.2,2.2V86
		h8.3h12.8h18.5c1.2,0,2.2,1,2.2,2.2v39.5h6.1V57.3c0-1.2,1-2.2,2.2-2.2h4.8L71.1,13.1z M69.9,41.7c-1.8,0-3.2-1.4-3.2-3.2
		c0-1.8,1.4-3.2,3.2-3.2c1.8,0,3.2,1.4,3.2,3.2C73.1,40.3,71.7,41.7,69.9,41.7z"/>
</g>
<g>
	<g>
		<circle class="st0" cx="116.5" cy="48.4" r="23.9"/>
		<path class="st1" d="M116.5,74.1c-14.2,0-25.7-11.5-25.7-25.7s11.5-25.7,25.7-25.7s25.7,11.5,25.7,25.7S130.6,74.1,116.5,74.1z
			 M116.5,26.4c-12.2,0-22,9.9-22,22s9.9,22,22,22c12.2,0,22-9.9,22-22S128.6,26.4,116.5,26.4z"/>
	</g>
	<path class="st1" d="M127.8,43.3L115.9,57c-0.5,0.6-1.2,0.9-2,0.9c0,0-0.1,0-0.1,0c-0.7,0-1.4-0.3-1.9-0.8l-6.4-6.4
		c-1.1-1.1-1.1-2.8,0-3.9c1.1-1.1,2.8-1.1,3.9,0l4.3,4.3l9.9-11.5c1-1.1,2.7-1.3,3.9-0.3C128.6,40.5,128.8,42.2,127.8,43.3z"/>
</g>
</svg>
