<?xml version="1.0" encoding="utf-8"?>
<!-- Generator: Adobe Illustrator 22.0.0, SVG Export Plug-In . SVG Version: 6.00 Build 0)  -->
<svg version="1.1" id="Capa_1" xmlns="http://www.w3.org/2000/svg" xmlns:xlink="http://www.w3.org/1999/xlink" x="0px" y="0px"
	 viewBox="0 0 1280 432.2" style="enable-background:new 0 0 1280 432.2;" xml:space="preserve">
<style type="text/css">
	.st0{fill:#4EAD42;}
	.st1{opacity:0.2;fill:#FFFFFF;}
	.st2{opacity:5.000000e-02;fill:#FFFFFF;}
	.st3{opacity:0.1;fill:#FFFFFF;}
	.st4{opacity:0.15;fill:#FFFFFF;}
</style>
<polygon class="st0" points="0,0.6 1280,0.6 1280,123 931,364 0,368"/>
<path class="st1" d="M3625.7,4.9c-2.8,5-0.9,11.4,4.1,14.2c5,2.8,11.4,0.9,14.2-4.1c2.8-5,0.9-11.4-4.1-14.2
	C3634.8-2,3628.4-0.2,3625.7,4.9z"/>
<path class="st2" d="M3059.8,267.1c7.7,4.3,17.4,1.4,21.7-6.3c4.3-7.7,1.4-17.4-6.3-21.7c-7.7-4.3-17.4-1.4-21.7,6.3
	C3049.3,253.1,3052.1,262.8,3059.8,267.1z"/>
<path class="st3" d="M3133.8,227.3c6.9,5.5,16.9,4.4,22.4-2.4c5.5-6.9,4.5-16.9-2.4-22.4c-6.9-5.5-16.9-4.5-22.4,2.4
	C3125.9,211.7,3126.9,221.8,3133.8,227.3z"/>
<path class="st2" d="M3038.2,206.7c6.3,5.1,15.4,4.1,20.5-2.2c5.1-6.3,4.1-15.4-2.2-20.5c-6.3-5-15.4-4.1-20.5,2.2
	C3031,192.5,3032,201.7,3038.2,206.7z"/>
<path class="st3" d="M3209.4,190.4c5.8,6.6,15.9,7.3,22.5,1.5c6.6-5.8,7.3-15.9,1.5-22.5c-5.8-6.6-15.9-7.3-22.5-1.5
	C3204.3,173.7,3203.6,183.7,3209.4,190.4z"/>
<path class="st3" d="M3123,164.1c5.3,6.1,14.5,6.7,20.6,1.4c6.1-5.3,6.7-14.5,1.4-20.6c-5.3-6.1-14.5-6.7-20.6-1.4
	C3118.3,148.8,3117.7,158,3123,164.1z"/>
<path class="st2" d="M3026.8,145.7c4.8,5.5,13.1,6,18.6,1.3c5.5-4.8,6-13.1,1.3-18.6c-4.8-5.5-13.1-6.1-18.6-1.3
	C3022.6,131.9,3022,140.2,3026.8,145.7z"/>
<path class="st4" d="M3291.8,172.6c4.6,7.5,14.4,10,21.9,5.4c7.5-4.6,10-14.4,5.4-21.9c-4.6-7.5-14.4-10-21.9-5.4
	C3289.7,155.3,3287.3,165.1,3291.8,172.6z"/>
<path class="st3" d="M3209.7,126.2c4.2,6.9,13.1,9.1,20,4.9c6.9-4.2,9.1-13.1,4.9-20c-4.2-6.9-13.1-9.1-20-4.9
	C3207.8,110.4,3205.6,119.4,3209.7,126.2z"/>
<path class="st3" d="M3122.4,102.1c3.8,6.2,11.9,8.2,18.1,4.5c6.2-3.8,8.2-11.9,4.5-18.1c-3.8-6.2-11.9-8.2-18.1-4.5
	C3120.6,87.7,3118.6,95.8,3122.4,102.1z"/>
<path class="st2" d="M3024.9,85.3c3.4,5.6,10.6,7.4,16.2,4c5.6-3.4,7.4-10.6,4-16.2c-3.4-5.6-10.6-7.4-16.2-4
	C3023.3,72.5,3021.5,79.7,3024.9,85.3z"/>
<path class="st4" d="M3376.1,169.5c3.2,8.2,12.4,12.3,20.6,9.1c8.2-3.2,12.3-12.4,9.1-20.6c-3.2-8.2-12.4-12.3-20.6-9.1
	C3377,152,3372.9,161.2,3376.1,169.5z"/>
<path class="st4" d="M3303.3,109.5c2.9,7.5,11.3,11.2,18.9,8.3c7.5-2.9,11.2-11.3,8.3-18.9c-2.9-7.5-11.3-11.2-18.9-8.3
	C3304.1,93.6,3300.4,102,3303.3,109.5z"/>
<path class="st3" d="M3219.9,65.1c2.6,6.8,10.3,10.2,17.1,7.5c6.8-2.6,10.2-10.3,7.5-17.1c-2.6-6.8-10.3-10.2-17.1-7.5
	C3220.6,50.6,3217.2,58.3,3219.9,65.1z"/>
<path class="st3" d="M3128.8,49.5c2.4,6.1,9.2,9.1,15.3,6.8c6.1-2.3,9.1-9.2,6.8-15.3c-2.4-6.1-9.2-9.1-15.3-6.8
	C3129.5,36.6,3126.5,43.4,3128.8,49.5z"/>
<path class="st2" d="M3031.6,26.8c2.1,5.4,8.1,8,13.5,6c5.4-2.1,8-8.1,6-13.5c-2.1-5.4-8.1-8-13.5-6
	C3032.2,15.4,3029.6,21.4,3031.6,26.8z"/>
<path class="st1" d="M3459.7,181c1.7,8.6,10.1,14.3,18.7,12.6c8.7-1.7,14.3-10.1,12.6-18.7c-1.7-8.6-10.1-14.3-18.7-12.6
	C3463.6,163.9,3458,172.3,3459.7,181z"/>
<path class="st4" d="M3398.4,109.3c1.6,7.9,9.2,13,17.1,11.5c7.9-1.6,13-9.2,11.5-17.1c-1.6-7.9-9.2-13-17.1-11.5
	C3402,93.7,3396.8,101.4,3398.4,109.3z"/>
<path class="st4" d="M3323.9,51c1.4,7.1,8.3,11.8,15.5,10.4c7.1-1.4,11.8-8.3,10.4-15.5c-1.4-7.1-8.3-11.8-15.5-10.4
	C3327.2,36.9,3322.5,43.9,3323.9,51z"/>
<path class="st3" d="M3240.6-1.4c-1.8,2.5-2.6,5.8-1.9,9c1.3,6.4,7.5,10.6,13.9,9.3c6.4-1.3,10.6-7.5,9.3-13.9
	c-0.3-1.7-1-3.2-1.9-4.5"/>
<path class="st1" d="M3540,206.8c0.2,8.8,7.5,15.8,16.3,15.6c8.8-0.2,15.8-7.5,15.6-16.3c-0.2-8.8-7.5-15.8-16.3-15.6
	C3546.8,190.7,3539.8,198,3540,206.8z"/>
<path class="st1" d="M3492,125.6c0.2,8.1,6.8,14.4,14.9,14.3c8-0.2,14.4-6.8,14.3-14.9c-0.2-8-6.8-14.4-14.9-14.3
	C3498.3,110.9,3491.9,117.5,3492,125.6z"/>
<path class="st4" d="M3428.8,55.3c0.1,7.3,6.2,13.1,13.4,12.9c7.3-0.1,13.1-6.2,12.9-13.5c-0.1-7.3-6.2-13.1-13.5-12.9
	C3434.5,42,3428.7,48,3428.8,55.3z"/>
<path class="st4" d="M3352.5-1.4c0.6,6.1,5.8,10.8,12,10.7c6.1-0.1,11-4.8,11.5-10.7"/>
<path class="st1" d="M3606,248.8c-1.4,8.7,4.6,16.9,13.3,18.2c8.7,1.4,16.9-4.6,18.2-13.3c1.4-8.7-4.6-16.9-13.3-18.2
	C3615.6,234.1,3607.4,240.1,3606,248.8z"/>
<path class="st1" d="M3581.5,157.9c-1.2,8,4.2,15.4,12.2,16.6c8,1.2,15.4-4.2,16.6-12.2c1.2-8-4.2-15.4-12.2-16.6
	C3590.2,144.5,3582.7,150,3581.5,157.9z"/>
<path class="st1" d="M3531.4,77.7c-1.1,7.2,3.8,13.9,11,15.1c7.2,1.1,13.9-3.8,15.1-11c1.1-7.2-3.8-13.9-11-15.1
	C3539.3,65.6,3532.6,70.5,3531.4,77.7z"/>
<path class="st4" d="M3473.6-1.4c-3.8,1.5-6.7,4.9-7.4,9.2c-1,6.4,3.4,12.5,9.8,13.5c6.4,1,12.5-3.4,13.5-9.8
	c0.9-5.6-2.3-10.8-7.4-12.8"/>
<path class="st1" d="M3641.9,209.5c-2.6,7.6,1.5,15.9,9.1,18.5c7.6,2.6,15.9-1.5,18.5-9.1c2.6-7.6-1.5-15.9-9.1-18.5
	C3652.7,197.8,3644.5,201.9,3641.9,209.5z"/>
<path class="st1" d="M3628.6,117.6c-2.4,6.9,1.3,14.4,8.2,16.7c6.9,2.4,14.4-1.3,16.7-8.2c2.4-6.9-1.3-14.4-8.2-16.7
	C3638.4,107,3630.9,110.7,3628.6,117.6z"/>
<path class="st1" d="M3576.5,37.4c-2.1,6.2,1.2,12.9,7.4,15c6.2,2.1,12.9-1.2,15-7.4c2.1-6.2-1.2-12.9-7.4-15
	C3585.3,27.9,3578.6,31.2,3576.5,37.4z"/>
<path class="st3" d="M3141.5-1.4c-0.1,1.5,0.1,3.2,0.7,4.7c2.1,5.4,8.1,8,13.5,6c4.4-1.7,7-6.1,6.6-10.7"/>
</svg>
