<?xml version="1.0" encoding="utf-8"?>
<!-- Generator: Adobe Illustrator 22.0.0, SVG Export Plug-In . SVG Version: 6.00 Build 0)  -->
<svg version="1.1" id="Capa_1" xmlns="http://www.w3.org/2000/svg" xmlns:xlink="http://www.w3.org/1999/xlink" x="0px" y="0px"
	 viewBox="0 0 251.2 145.7" style="enable-background:new 0 0 251.2 145.7;" xml:space="preserve">
<style type="text/css">
	.st0{fill:#3C3C3B;}
	.st1{fill:url(#SVGID_1_);}
	.st2{fill:#868686;}
	.st3{fill:#1D1D1B;}
	.st4{fill:#B1DEF0;}
	.st5{fill:#F8FBFD;}
	.st6{opacity:0.6;fill:#5CB1CC;}
	.st7{fill:#F7B690;}
	.st8{fill:#ED9872;}
	.st9{fill:#F08E5F;}
	.st10{fill:#FBEAE8;}
	.st11{fill:#1A1A1A;}
	.st12{opacity:0.4;}
	.st13{fill:#67AC36;}
	.st14{fill:#0686A5;}
	.st15{fill:#0084A5;}
	.st16{fill:#333333;}
	.st17{fill:#E1EEF3;}
	.st18{opacity:0.5;}
	.st19{fill:#3A5393;}
	.st20{fill:#359236;}
	.st21{fill:#FFF9FA;}
	.st22{fill:#4EAC42;}
	.st23{fill:#E79F7D;}
	.st24{fill:#1E1728;}
	.st25{fill:#6EC6E6;}
	.st26{fill:#FAFCFF;}
	.st27{fill:#342649;}
	.st28{fill:#5A4872;}
	.st29{fill:#C6752C;}
	.st30{fill:#F0994D;}
	.st31{fill:#FCEAE1;}
	.st32{opacity:0.4;fill:#D35C44;}
	.st33{fill:#962227;}
	.st34{fill:#DF8552;}
	.st35{fill:#FFFDFD;}
	.st36{fill:#FFFFFF;}
	.st37{fill:#9C9D9C;}
	.st38{fill:#7E4E38;}
	.st39{fill:#F0AB7B;}
	.st40{fill:#1B7633;}
	.st41{fill:url(#SVGID_2_);}
	.st42{fill:url(#SVGID_3_);}
	.st43{fill:url(#SVGID_4_);}
	.st44{fill:url(#SVGID_5_);}
</style>
<g>
	<g>
		<path class="st0" d="M5.7,133.7v2.7c0,3,2.5,5.5,5.5,5.5h224.5c3,0,5.5-2.4,5.5-5.5v-2.7H5.7z"/>
		<radialGradient id="SVGID_1_" cx="123.3902" cy="138.0166" r="83.2979" gradientUnits="userSpaceOnUse">
			<stop  offset="0.5744" style="stop-color:#161412"/>
			<stop  offset="0.7977" style="stop-color:#161412"/>
			<stop  offset="1" style="stop-color:#161412"/>
		</radialGradient>
		<path class="st1" d="M235.6,139.7H11.1c-3,0-5.5-2.4-5.5-5.5v2.2c0,3,2.5,5.5,5.5,5.5h224.5c3,0,5.5-2.4,5.5-5.5v-2.2
			C241.1,137.2,238.7,139.7,235.6,139.7z"/>
		<path class="st2" d="M26.4,137.7c0,0.5,0.4,0.8,0.8,0.8H157c0.5,0,0.8-0.4,0.8-0.8l0,0c0-0.5-0.4-0.8-0.8-0.8H27.2
			C26.8,136.9,26.4,137.3,26.4,137.7L26.4,137.7z"/>
		<path class="st3" d="M239.8,130.3c2.6,3.4,1.3,6.1-3,6.1H10c-4.3,0-5.6-2.7-3-6.1l29.8-38c2.6-3.4,8.2-6.1,12.5-6.1h148.3
			c4.3,0,9.9,2.7,12.5,6.1L239.8,130.3z"/>
		<path class="st4" d="M231.4,128.2c2.4,3,1.2,5.4-2.8,5.4H18.2c-3.9,0-5.2-2.4-2.8-5.4L43,94.5c2.4-3,7.7-5.4,11.6-5.4h137.5
			c3.9,0,9.2,2.4,11.6,5.4L231.4,128.2z"/>
		<path class="st2" d="M183.2,138c0,0.3-0.4,0.6-0.8,0.6h-21.6c-0.5,0-0.8-0.3-0.8-0.6l0,0c0-0.3,0.4-0.6,0.8-0.6h21.6
			C182.9,137.4,183.2,137.6,183.2,138L183.2,138z"/>
		<path class="st2" d="M230.5,138.2c0,0.2-0.2,0.4-0.4,0.4h-41.7c-0.2,0-0.4-0.2-0.4-0.4l0,0c0-0.2,0.2-0.4,0.4-0.4h41.7
			C230.4,137.7,230.5,137.9,230.5,138.2L230.5,138.2z"/>
		<g>
			<path class="st5" d="M205,112.8l12.2-1.9l-2.4-2.9l-10,1.5l-0.8-14.8l-0.2-0.2c-0.6-0.8-1.5-1.5-2.4-2.2l0.1,1.3l-16-2.7
				l-0.1-1.8h-2.2l3.1,44.6h2.2l-2-28.2l6,2.3l2.6,20.1h8.8l0.4,5.8h2.2L205,112.8z M198,124.6l-2.5-19.2l-9.3-3.5l-0.5-7.6l16,2.7
				l1.9,27.6H198z"/>
			<path class="st5" d="M171.6,133.7l2.9-44.6h-2.2l-2,29.7h-8.8l-3-24.7h-14.7l-0.9-4.9h-2.2l3.3,18.8l-10-2.6l-1.1-16.3h-2.2
				l1.1,15.7l-4.9-1.3l-2.2-9.7l-14.4,2.5l0,0l-3.3-7.2h-2.4l14.4,35.5l-20.2,1.7l-1.4-9l-0.3-1.7L94.6,100l-0.3-1.8l-1.4-9.1h-2.2
				l1.5,9.3l-10.2,1V89.1h-2.5v10.5l-15.6,1.5l3.1-12h-2.3l-0.8,3.3v-1.6h-12l0.5-1.4c-0.8,0.2-1.7,0.4-2.6,0.7l-0.2,0.7h-0.6v1.6
				l-3.5,10.5l-10,1l-1.6,2l11-1.1l-2.2,6.5l-12.4-1l-1.4,1.7l13.2,1l-7,20.6h2.3l6.9-20.5l13.9,1.1l-5,19.4h2.3l5-19.2l10.8,0.9
				l-1.4,18.3H73l1.4-18.1l20.7,1.6l2.6,16.4h2.2l-0.7-4.1l21-1.8l2.4,5.9h2.4l-13.9-34.2l11-1.9l5,21.8l5.6-1.1l1.1,15.4h2.2
				l-0.4-5.8h11.9l1,5.8h2.2l-6.3-36.4h11.3l3,24.7h11.6l-0.7,11.6H171.6z M50.7,94h12.7l-1.9,7.3l-13.7,1.3L50.7,94z M58.6,112.5
				l-13.8-1.1l2.3-6.9l13.9-1.3L58.6,112.5z M60.8,112.7l2.5-9.7l16.1-1.5l2.5-0.2l10.5-1l2.4,15.2L60.8,112.7z M129.6,115.5
				l-1.9-8.4l4.3,1.1l0.5,6.7L129.6,115.5z M144.6,111.5l2.3,13.1h-11.6l-1.1-15.8L144.6,111.5z"/>
		</g>
		<path class="st6" d="M37.7,115.1l-10.3-1.4l-11.9,14.6c-2.4,3-1.2,5.4,2.8,5.4h13.2L37.7,115.1z"/>
		<polygon class="st6" points="47.1,104.5 44.8,111.4 58.6,112.5 61,103.2 		"/>
		<polygon class="st6" points="75.5,116.9 74.3,133.7 96.1,133.7 93.8,118.1 		"/>
		<polygon class="st6" points="112.3,100.2 121.1,121.8 126,119.7 121.6,98.7 		"/>
		<polygon class="st6" points="132,119.3 127.3,120.3 122.7,124.4 126,133 132.9,133 		"/>
		<polygon class="st6" points="132.9,89.1 134,105.3 144,107.9 140.7,89.1 		"/>
		<polygon class="st6" points="174.5,89.1 173.1,110.3 184.4,106.5 183.1,89.1 		"/>
		<polygon class="st6" points="184.4,107.9 173.1,112.9 171.6,133.7 186.3,133.7 		"/>
		<polygon class="st6" points="202.1,102.5 195.5,105.3 198,124.6 203.6,124.6 		"/>
	</g>
</g>
<g>
	<path class="st7" d="M96.1,55.2c0,0,2.1,0.3,3.1-0.2c1.6-0.7,1.9-0.8,3-1.7l-0.6-2c0,0-5.3-1-5.7,0.2c-0.2,0.7,0,0.7-0.2,1.7
		C95.6,53.9,94.6,54.9,96.1,55.2z"/>
	<path class="st7" d="M100.6,51.5c0,0,11.2-5.2,12.5-4.7c3.9,1.5,0.5,3.9,0.5,3.9l-12,2.9L100.6,51.5z"/>
	<g>
		<g>
			<g>
				<g>
					<g>
						<path class="st8" d="M124.1,19.6c0,0,0.6,6.8,1,8.9c0,0-3.9,5.1-7.4,1.1c0,0,0.1-1.5,0.3-4.4L124.1,19.6z"/>
					</g>
				</g>
			</g>
		</g>
		<path class="st9" d="M96.9,52.1c0,0-0.9,2.7-0.3,3c0.5,0.2,1.3-2.7,1.3-2.7L96.9,52.1z"/>
		<g>
			<g>
				<g>
					<g>
						<g>
							<g>
								<g>
									<g>
										<g>
											<g>
												<path class="st10" d="M125.1,112.4h3.7c-0.2-0.7-0.3-1.3-0.5-1.7l0.2-2.5l-2.9,0.2c0,0,0.1,1.6-0.3,3.2
													C125.2,111.8,125.2,112.1,125.1,112.4z"/>
											</g>
										</g>
									</g>
								</g>
							</g>
						</g>
						<g>
							<g>
								<path class="st10" d="M120.4,109c0-0.3,0.1-0.9,0.1-1.7h-3l0.1,2.3c0,0,0.1,1.7-1.3,3.3c0,0-0.1,0.1-0.1,0.2h5
									C120.9,111.9,120.4,109.7,120.4,109z"/>
							</g>
							<g>
								<g>
									<g>
										<path class="st11" d="M129.9,109.3c0,0,0.9-43.7,0.3-48l-17.1,0.3c0,0,1.9,33.5,2.6,47.4c0,0,2.1,0.3,5.5-0.1
											c0.2-5.1,0.3-33.4,0.6-35.6l2.7,36.1C124.6,109.3,127.7,110,129.9,109.3z"/>
									</g>
								</g>
							</g>
							<path class="st12" d="M125.9,61.4l2.5,46.8l1.4,0.2c0.1-6.5,0.9-43.1,0.3-47L125.9,61.4z"/>
							<path class="st12" d="M119.4,108.5l1.9-0.2c0.2-6.4,0.3-32.9,0.6-35c0,0-2.9,3.5-3.2,7.6C118.4,85,119.4,108.5,119.4,108.5z"
								/>
						</g>
						<g>
							<g>
								<g>
									<g>
										<g>
											<g>
												<g>
													<path class="st13" d="M121.2,73.3"/>
													<g>
														<path class="st14" d="M115.2,80L115.2,80C115.2,80,115.3,80,115.2,80C115.3,80,115.2,80,115.2,80z"/>
													</g>
													<g>
														<g>
															<polygon class="st15" points="114.7,81.6 114.7,81.6 114.7,81.6 															"/>
														</g>
													</g>
												</g>
											</g>
										</g>
									</g>
								</g>
							</g>
						</g>
						<g>
							<path class="st16" d="M109.2,117.1l8.2-0.1c2.7-0.3,3.8-0.4,3.8-0.4c0.6-0.5,0.6-2.4,0.4-4c-0.2-1.5-0.6-1.5-0.6-1.5
								c-0.9,1.7-2.9,0.7-2.9,0.7c-1.1-1.3-2.1-0.8-2.1-0.8c-0.3,0.4-0.5,0.9-0.8,1c-1.6,1.2-3.9,1.4-3.9,1.4
								c-3.7,0.8-2.7,3.4-2.7,3.4C108.8,116.9,109,117,109.2,117.1z"/>
							<path class="st17" d="M121.5,117c0,0.1-0.1,0.2-0.3,0.3l-12.5,0.2c-0.2,0-0.3-0.1-0.3-0.2l0-0.3c0-0.1,0.1-0.2,0.3-0.2
								l12.5-0.2c0.2,0,0.3,0.1,0.3,0.2L121.5,117z"/>
							<path class="st17" d="M115.1,112c0,0,1,1,0.9,2.1c0,0-0.1,0.5-0.5,0.1c-0.2-0.3-0.5-1.5-0.9-2
								C114.7,112.3,114.7,111.9,115.1,112z"/>
							<path class="st17" d="M114,112.5c0,0,1,1,0.9,2.1c0,0-0.1,0.5-0.5,0.1c-0.2-0.3-0.5-1.5-0.9-2
								C113.6,112.8,113.6,112.4,114,112.5z"/>
							<path class="st17" d="M112.7,113c0,0,1,1,0.9,2.1c0,0-0.1,0.5-0.5,0.1c-0.2-0.3-0.5-1.5-0.9-2
								C112.3,113.2,112.3,112.9,112.7,113z"/>
						</g>
						<path class="st16" d="M125.1,111c0,0,0.1-0.4,0.4-0.2c0,0,0.3,0.4,0.7,0.4c0,0,1.3,0.4,2.2-0.6c0,0,0.3-0.2,0.4,0.1
							c0.1,0.2,1.6,6.4,1.1,8.3c-0.2,0.9-4.9,2.5-6.2,0C123.6,119,123.2,118.4,125.1,111z"/>
						<path class="st17" d="M123.7,117.1c0,0-0.1,2.8,3,2.7c0,0,3.1-0.5,3-2.9c0,0,0.3,2.1-0.2,3c-0.5,0.8-3.6,2.5-6.1,0.1
							C123.6,119.9,123.2,118.9,123.7,117.1z"/>
						<path class="st17" d="M124.7,115.4c0,0,1.6-1.3,4.6,0c0,0,0.6,0-0.1-0.7c-0.7-0.6-3.2-1-4.5-0.1
							C124.7,114.7,124.2,115.5,124.7,115.4z"/>
						<path class="st17" d="M124.8,114.1c0,0,1.5-1.2,4.2,0c0,0,0.5,0-0.1-0.6c-0.6-0.6-2.9-0.9-4.1-0.1
							C124.8,113.4,124.4,114.1,124.8,114.1z"/>
						<path class="st17" d="M125,113.1c0,0,1.4-1.1,3.9,0c0,0,0.5,0-0.1-0.6c-0.6-0.5-2.7-0.9-3.8-0.1
							C125,112.4,124.6,113.1,125,113.1z"/>
					</g>
					<g class="st18">
						<path class="st19" d="M121.8,72.8l0-1.1c0,0,0,0-0.1,0L121.8,72.8z"/>
					</g>
				</g>
				<polygon points="121.8,109.5 121.8,109.5 115.1,109.5 115.1,109.5 115.1,106.9 115.1,106.9 121.8,106.9 121.8,106.9 				"/>
				<polygon points="130.5,109.9 130.5,109.9 123.8,109.9 123.8,109.9 123.8,107.3 123.8,107.3 130.5,107.3 130.5,107.3 				"/>
			</g>
			<g>
				<path class="st20" d="M111.6,42.7c0,0,3.2,1.7,6.1-0.2l-0.1-5.7l-5.4-6.5c0,0-1.6,0.5-2.1,1.7C109.3,34.2,111.6,42.7,111.6,42.7
					z"/>
				<path class="st21" d="M111.1,41.4l0,1.3c0,0,2.8,1.4,6.8,0l0.1-1.4C118,41.4,112.1,41.7,111.1,41.4z"/>
				<path class="st22" d="M131.5,30.3l-6.4-1.9c0,0.1-0.1,0.2-0.1,0.2c-0.3,0.3-0.6,0.6-0.9,0.8c-0.5,0.4-1,0.7-1.6,0.9
					c-0.1,0-0.2,0-0.3,0c-0.2,0.1-0.3,0.1-0.5,0.2c-0.1,0.1-0.2,0.2-0.3,0.2c-0.1,0-0.2,0-0.3,0c-0.1,0.2-0.2,0.4-0.5,0.4
					c0,0,0,0,0,0c0,0-0.1,0-0.1,0c0,0-0.1,0-0.1,0c0,0-0.1,0-0.1,0c-0.1,0-0.2,0-0.3-0.1c-0.1,0-0.2,0-0.3-0.1c0,0-0.1,0-0.1,0
					c0,0,0,0,0,0c0,0,0,0,0,0c0,0,0,0,0,0c-0.1,0-0.1,0-0.2,0c-0.1,0-0.2-0.1-0.3-0.1c-0.9-0.2-1.8-0.6-2.5-1.4c0,0,0,0,0,0
					c-2.2,0.4-3.7,0.7-4.5,1c-0.8,4.5-0.4,20.6-0.3,32.4c0,1.1,0,1.8,1.1,2.1c6.3,1.7,14.1,0.7,16.8,0c0,0,2.1-0.5,2-1.9
					c-0.1-2.3-0.7-11.8-1.4-18.6C130.4,44.2,132.8,31.2,131.5,30.3z"/>
			</g>
			<g>
				<g>
					<g>
						<g>
							<path class="st8" d="M127.2,18c0,0,1.1-1.9,1.6-0.5c0.5,1.6-1.1,4.6-2.2,3.1C126.5,20.6,126.3,19.6,127.2,18z"/>
							<path class="st8" d="M115.2,18.1c0,0-1.1-1.9-1.6-0.5c-0.5,1.6,1.1,4.6,2.2,3.1C115.8,20.7,116.1,19.8,115.2,18.1z"/>
							<path class="st7" d="M122.2,27c1.8-0.6,3.8-3.4,3.8-3.4c0.7-0.7,1.5-7.6,1.5-7.6c-0.1-6.8-6.1-6.8-6.5-6.8
								c-0.4,0-6.4,0.1-6.3,6.9c0,0,0.4,5.5,1.4,7.2c0,0,1.1,2,4.2,3.7C120.4,27,121.3,27.5,122.2,27z"/>
							<path class="st23" d="M126.3,11.6l-9.6,0.2l-0.4,1.3c0,0,7.6,1.9,11.3,2.3C127.4,13.7,126.9,12.5,126.3,11.6z"/>
						</g>
					</g>
				</g>
			</g>
			<polygon points="121.2,30.8 121.8,28.9 125.5,27.3 127,28.9 			"/>
			<path d="M119.6,30.9l-0.4-1.8l-2.4-1l-0.6,1.2C116.2,29.3,117.2,30.5,119.6,30.9z"/>
			<polygon class="st11" points="121.8,28.9 123.6,31.3 127,28.9 125.5,27.3 			"/>
			<polygon class="st21" points="121.2,30.8 120.2,35.8 119.6,30.9 			"/>
			<polygon class="st11" points="119.2,29.2 117.9,31.1 116.2,29.3 116.8,28.1 			"/>
		</g>
		<path class="st24" d="M118.3,18.2c0,0.3,0.2,0.6,0.4,0.6c0.2,0,0.4-0.3,0.4-0.6c0-0.3-0.2-0.6-0.4-0.6
			C118.4,17.6,118.3,17.8,118.3,18.2z"/>
		<path class="st24" d="M123.2,18.2c0,0.3,0.2,0.6,0.4,0.6c0.2,0,0.4-0.3,0.4-0.6s-0.2-0.6-0.4-0.6
			C123.4,17.6,123.2,17.9,123.2,18.2z"/>
		<path class="st24" d="M115.1,18.8c0,0,0.7-0.1,0.7-0.7c0-0.6-0.3-2.1-0.3-2.7c0-0.6,1.8-3.3,2.5-3.7c0,0,0.6,0.5,1.7,0.8
			c1,0.3,5.3,1.3,7,1.4c0,0,0.5,1.5,0.4,2.2c-0.1,0.7-0.6,2.7-0.4,2.9c0.2,0.2,0.5,0.4,0.6,0.1c0.2-0.3,1.4-2.8,1.5-4.1
			c0.1-1.2-0.1-5.1-1.9-6.6c-2.2-1.9-6.7-2.1-8.9-1.1c-2.1,1-3.3,2.2-3.8,3.5C113.5,12.1,114.5,18,115.1,18.8z"/>
		<path class="st25" d="M115.4,20.6c0,0,4.6-1.4,5.8-1.3c1.2,0.1,5.7,1.3,5.7,1.3s-0.2,2.2-0.6,3.1c-0.4,0.8-3.8,3.7-4.4,3.9
			c-0.6,0.2-1.3,0.1-2-0.3c-0.8-0.5-3.6-2.9-3.9-4C115.5,22.2,115.4,20.6,115.4,20.6z"/>
		<path class="st26" d="M115.4,20.6c0,0,0,0.4,0.1,0.9c1.3-0.7,4.9-1.3,5.8-1.4c0.9-0.1,4.6,1,5.6,1.3c0.1-0.4,0.1-0.7,0.1-0.7
			s-4.5-1.3-5.7-1.3C120,19.2,115.4,20.6,115.4,20.6z"/>
		<path class="st26" d="M114.6,17.4c0,0,1,3.5,1.3,3.7c0,0,0.6,0.1,0.6-0.2C116.4,20.6,114.6,17.4,114.6,17.4z"/>
		<path class="st26" d="M128.1,17.1c0,0-1.3,3.6-1.5,3.8c0,0-0.6,0.1-0.6-0.2C126,20.4,128.1,17.1,128.1,17.1z"/>
		<path d="M113.9,12.2c0,0-0.9-2.5-0.2-4c0.7-1.4,5.8-3.9,7-3.9c0,0,1.5-0.1,2.3,0.4c0.8,0.5,5.2,2,5.6,3.4c0.4,1.3,0.2,4-0.1,4.6
			C128.5,12.7,123.7,9.5,113.9,12.2z"/>
		<path class="st22" d="M113.9,12.2c0,0,3.2-2.7,5.1-3c1.9-0.4,5.1,0.3,6.1,0.6c1,0.4,3.4,2.8,3.4,2.8s-0.4,0.4-1.5,0.4
			c-1.1-0.1-9.4-0.4-10.5-0.4C115.3,12.7,114.2,12.3,113.9,12.2z"/>
	</g>
	<g>
		<path class="st24" d="M119,15.8c-0.1,0-0.3-0.1-0.4-0.1c-0.1,0-0.3,0-0.4,0c-0.3,0.1-0.6,0.2-0.8,0.5l0,0c0,0.1-0.1,0.1-0.2,0
			c0,0-0.1-0.1,0-0.2c0.2-0.3,0.5-0.6,0.8-0.7c0.2-0.1,0.4-0.1,0.6-0.1c0.2,0,0.4,0,0.6,0c0.2,0,0.3,0.2,0.2,0.4
			C119.4,15.7,119.3,15.9,119,15.8C119.1,15.8,119.1,15.8,119,15.8z"/>
	</g>
	<g>
		<path class="st24" d="M122.7,15.2c0.2,0,0.4,0,0.6,0c0.2,0,0.4,0.1,0.6,0.1c0.4,0.1,0.6,0.4,0.8,0.7c0,0.1,0,0.1,0,0.2
			c-0.1,0-0.1,0-0.2,0l0,0c-0.2-0.2-0.5-0.4-0.8-0.5c-0.1,0-0.3,0-0.4,0c-0.1,0-0.3,0.1-0.4,0.1c-0.2,0.1-0.3,0-0.4-0.2
			C122.5,15.5,122.5,15.3,122.7,15.2C122.7,15.2,122.7,15.2,122.7,15.2z"/>
	</g>
	<path class="st27" d="M82.2,117c-0.1,0-0.1,0-0.2,0c-0.6-0.1-1-0.7-0.9-1.3c0.1-0.6,11.1-57.8,11.4-59.6c0.2-1.3,1.4-2.5,3.7-3.7
		c1.5-0.8,2.9-1.3,3-1.3c0.6-0.2,1.2,0.1,1.4,0.7c0.2,0.6-0.1,1.2-0.7,1.4l0,0c0,0-1.4,0.5-2.7,1.2c-1.9,1-2.5,1.8-2.5,2
		c-0.3,1.9-11,57.3-11.4,59.7C83.2,116.7,82.7,117,82.2,117z"/>
	<g>
		<path class="st27" d="M80.7,116.4l0-5.4l0,0l-1.3-0.1c-1.3-0.1-2.7,2.3-3.3,5.2c-0.5,3,0.1,5.4,1.3,5.5l1.4,0.1l0,0L80.7,116.4z"
			/>
		<path class="st28" d="M82,116.5c-0.5,3-2,5.3-3.3,5.2c-1.3-0.1-1.9-2.5-1.3-5.5c0.5-3,2-5.3,3.3-5.2C82,111.1,82.6,113.6,82,116.5
			z"/>
		<path class="st17" d="M81.6,116.5c-0.4,2.2-1.5,4-2.5,3.9c-1-0.1-1.4-1.9-1-4.1c0.4-2.2,1.5-4,2.5-3.9
			C81.6,112.4,82,114.3,81.6,116.5z"/>
		<path class="st27" d="M80.6,112.4c-0.1,0-0.2,0-0.3,0c0.8,0.4,1.1,2,0.7,4c-0.4,2-1.3,3.6-2.2,3.9c0.1,0,0.2,0.1,0.3,0.1
			c1,0.1,2.1-1.7,2.5-3.9C82,114.3,81.6,112.4,80.6,112.4z"/>
	</g>
	<path class="st27" d="M106.5,117.2l-2.2-0.4c0.1-0.6,9.7-59,10-60.8c0.7-4.4,5.1-5.2,5.3-5.3c0.6-0.1,1.2,0.3,1.3,0.9
		c0.1,0.6-0.3,1.2-0.9,1.3c-0.1,0-3,0.6-3.5,3.4C116.2,58.3,106.6,116.6,106.5,117.2z"/>
	<g>
		<polygon class="st29" points="74.2,112.2 105.8,113.4 105.3,116.8 79.2,115.8 		"/>
		<polygon class="st30" points="79.1,82.4 105.9,83.4 101,113.2 74.2,112.2 		"/>
		<polygon class="st29" points="105.9,83.4 110,87.9 105.3,116.8 101,113.2 		"/>
		<polygon class="st31" points="90.8,82.9 94.9,83 90,112.8 85.9,112.7 		"/>
		<polygon class="st31" points="85.9,112.7 90,112.8 93.4,116.3 89.4,116.2 		"/>
	</g>
	<path class="st27" d="M103.9,119.1C103.9,119.1,103.9,119.1,103.9,119.1l-24.4-1.5c-0.3,0-0.7-0.2-0.9-0.4l-7-6.3
		c-0.5-0.4-0.6-1.1-0.4-1.7c0.2-0.6,0.8-0.9,1.4-0.9l22.9,1c0.3,0,0.5,0.1,0.7,0.2l9.9,6.3c0.7,0.4,0.9,1.4,0.5,2.1
		c-0.3,0.6-1,0.8-1.6,0.7C104.8,118.9,104.4,119.1,103.9,119.1z M80.2,114.7l20.7,1.2l-5.8-3.7l-18.4-0.8L80.2,114.7z"/>
	<g>
		<path class="st27" d="M106.9,117.4l0-6l0,0l-1.5-0.1c-1.4-0.1-3,2.5-3.6,5.8c-0.6,3.3,0.1,6,1.5,6.1l1.6,0.1l0,0L106.9,117.4z"/>
		<path class="st28" d="M108.4,117.4c-0.6,3.3-2.2,5.9-3.6,5.8c-1.4-0.1-2.1-2.8-1.5-6.1c0.6-3.3,2.2-5.9,3.6-5.8
			C108.3,111.4,108.9,114.2,108.4,117.4z"/>
		<path class="st17" d="M107.9,117.4c-0.4,2.5-1.7,4.4-2.7,4.4c-1.1-0.1-1.6-2.1-1.1-4.6c0.4-2.5,1.7-4.4,2.7-4.4
			C107.9,112.9,108.4,114.9,107.9,117.4z"/>
		<path class="st27" d="M106.8,112.8c-0.1,0-0.2,0-0.3,0c0.8,0.4,1.2,2.3,0.8,4.5c-0.4,2.2-1.4,4-2.4,4.3c0.1,0,0.2,0.1,0.3,0.1
			c1.1,0.1,2.3-1.9,2.7-4.4C108.4,114.9,107.9,112.9,106.8,112.8z"/>
	</g>
	<path class="st27" d="M113.6,68.3C113.6,68.3,113.6,68.3,113.6,68.3l-21.8-0.7c-0.6,0-1.1-0.5-1.1-1.2c0-0.6,0.5-1.1,1.2-1.1
		l21.8,0.7c0.6,0,1.1,0.5,1.1,1.2C114.7,67.8,114.2,68.3,113.6,68.3z"/>
	<path class="st27" d="M111.2,82.2C111.2,82.2,111.2,82.2,111.2,82.2l-21.8-0.7c-0.6,0-1.1-0.5-1.1-1.2c0-0.6,0.5-1.1,1.2-1.1
		l21.8,0.7c0.6,0,1.1,0.5,1.1,1.2C112.3,81.7,111.8,82.2,111.2,82.2z"/>
	<path class="st7" d="M118.2,55.4c0,0,1.9-0.3,2.7-1c1.4-1,1.7-1.2,2.6-2.3l-1-1.8c0,0-5.4,0.1-5.6,1.4c-0.1,0.7,0.5,0.9,0.5,1.9
		C117.5,54.1,116.6,55.4,118.2,55.4z"/>
	<path class="st7" d="M122.2,50.4c0,0,11.1-2.7,12.4-2.5c1.3,0.2,3.3,3.2,0.9,4c-2.4,0.8-12.3,0.4-12.3,0.4L122.2,50.4z"/>
	<path class="st7" d="M133.6,52.2c0,0,2.3,0.4,2.9-1.2c0.7-1.7-2-16-4.2-19c0,0-3.8,2-3.4,6C129.2,42.1,133.6,52.2,133.6,52.2z"/>
	<path class="st22" d="M130.4,47c1.8,0.2,6-1.2,6.9-2.4c-1.3-6.3-2.1-13.3-5.8-14.4c0,0-4.5,3.4-2.7,11.5
		C128.9,41.8,128.7,43.6,130.4,47z"/>
	<path class="st21" d="M137.1,43l0.6,2.1c0,0-4.3,2.8-7.3,2.7l-0.7-1.5C129.8,46.3,135.6,43.9,137.1,43z"/>
	<path class="st7" d="M99,51.1c0,0-1.1-0.2-1.5,0c-0.4,0.2-1.2,2.9-0.7,2.9c0.5,0,1.2-1.4,1.2-1.5c0.2-0.2,0.5-0.6,0.7-0.9"/>
	<path class="st7" d="M95.3,52.9c0,0-0.6,2.1-0.1,2.3c0.5,0.2,0.7-0.4,0.8-0.8c0.1-0.4,0.4-2.1,0-2.1C95.6,52.4,95.4,52.5,95.3,52.9
		z"/>
	<path class="st7" d="M96.1,52.7c0,0-0.7,2.1-0.1,2.3c0.6,0.2,0.8-0.4,0.9-0.8c0.1-0.4,0.5-2.1,0-2.1C96.4,52.2,96.2,52.4,96.1,52.7
		z"/>
	<path class="st7" d="M97,52.4c0,0-0.6,2.1-0.1,2.3c0.5,0.2,0.7-0.4,0.8-0.8c0.1-0.4,0.4-2.1,0-2.1C97.3,52,97.1,52.1,97,52.4z"/>
	<path class="st7" d="M97.6,52.4c0,0-0.6,2.1-0.1,2.3c0.5,0.2,0.7-0.4,0.8-0.8c0.1-0.4,0.4-2.1,0-2.1C97.9,52,97.7,52.1,97.6,52.4z"
		/>
	<g>
		<g>
			<g>
				<g>
					<g>
						<g>
							<g>
								<g>
									<g>
										<g>
											<g>
												<g>
													<g>
														<g>
															<path class="st10" d="M158.8,116.4h3.6c-0.2-0.7-0.3-1.3-0.5-1.7l0.2-2.4l-2.9,0.2c0,0,0.1,1.6-0.3,3.2
																C158.9,115.9,158.9,116.1,158.8,116.4z"/>
														</g>
													</g>
												</g>
											</g>
										</g>
									</g>
									<g>
										<g>
											<g>
												<g>
													<path class="st11" d="M163.5,113.4c0,0,0.9-43.1,0.3-47.4L147,66.3c0,0,1.9,33,2.6,46.7c0,0,2.1,0.3,5.4-0.1
														c0.2-5.1,0.3-32.9,0.6-35.1l2.7,35.6C158.3,113.4,161.4,114,163.5,113.4z"/>
												</g>
											</g>
										</g>
										<path class="st12" d="M164,71.4L164,71.4C164,71.4,164,71.4,164,71.4c0-0.2,0-0.3,0-0.4c0-0.1,0-0.1,0-0.2
											c0-0.1,0-0.2,0-0.3c0-0.1,0-0.1,0-0.2c0-0.2,0-0.5,0-0.7c0,0,0,0,0-0.1c0-0.1,0-0.2,0-0.3c0-0.1,0-0.1,0-0.2
											c0-0.1,0-0.2,0-0.3c0-0.1,0-0.1,0-0.2c0-0.1,0-0.2,0-0.3c0-0.1,0-0.2,0-0.4c0-0.1,0-0.1,0-0.2c0-0.1,0-0.1,0-0.2
											c0-0.1,0-0.1,0-0.2c0-0.1,0-0.1,0-0.2c0,0,0-0.1,0-0.1c0-0.1,0-0.2,0-0.3c0,0,0,0,0-0.1c0-0.1,0-0.1,0-0.2
											c0,0,0-0.1,0-0.1c0-0.1,0-0.1,0-0.2c0,0,0,0,0-0.1c0-0.1,0-0.1,0-0.2l-4.2,0.1v0L147,66.3c0,0,0.1,1,0.2,2.8
											c2.8,0.5,8.1,1.4,12.8,1.9l2.2,41.2l1.4,0.2C163.6,107.2,164.1,82.7,164,71.4z"/>
										<path class="st12" d="M153.1,112.6l1.9-0.2c0.1-6.3,0.3-32.4,0.6-34.6c0,0-2.8,3.4-3.1,7.5
											C152.2,89.4,153.1,112.6,153.1,112.6z"/>
									</g>
									<g>
										<g>
											<g>
												<g>
													<g>
														<g>
															<g>
																<path class="st13" d="M155,77.8"/>
															</g>
														</g>
													</g>
												</g>
											</g>
										</g>
									</g>
									<g>
										<g>
											<g>
												<g>
													<g>
														<g>
															<g>
																<path class="st10" d="M150.2,116.5l3.3-0.1c-0.2-0.7-0.1-1-0.2-1.6l0.2-2.4l-2.9,0.2c0,0,0.1,1.6-0.3,3.2
																	C150.4,116,150.3,116.2,150.2,116.5z"/>
															</g>
														</g>
													</g>
												</g>
											</g>
										</g>
									</g>
								</g>
								<g class="st18">
									<path class="st19" d="M155.6,77.4l0-1.1c0,0,0,0-0.1,0L155.6,77.4z"/>
								</g>
							</g>
							<polygon points="155.5,114 155.5,114 149,114 149,114 149,111.4 149,111.4 155.5,111.4 155.5,111.4 							"/>
							<polygon points="164.1,114 164.1,114 157.5,114 157.5,114 157.5,111.4 157.5,111.4 164.1,111.4 164.1,111.4 							"/>
						</g>
					</g>
				</g>
			</g>
		</g>
		<g>
			<path class="st7" d="M175.2,52.1c0.5-1.4,0-2.1,0-2.1c-0.7-1.9-5.4-9.5-5.4-9.5l-2.9,4l4.3,7.4c-0.4,1.2-1.8,8.4-2.3,12.3l2-0.7
				C170.9,63.5,175,52.7,175.2,52.1z"/>
			<path class="st32" d="M170.2,41.2l-1.6,0.9l-1.7,2.4l1.7,3c1.1-0.5,2.8-1.2,4.1-2C171.8,43.8,170.8,42.1,170.2,41.2z"/>
			<polygon class="st33" points="152.4,29.2 159.6,29.2 156.7,36 153.3,33.7 			"/>
			<g>
				<g>
					<g>
						<g>
							<g>
								<g>
									<g>
										<g>
											<g>
												<g>
													<path class="st34" d="M165.8,37.5c0.3-1.9,0.5-6.2-4.1-6.9c0,0-3.9-0.8-4.7-1h-2.2c-0.9,0.2-3.4,0.5-4.8,0.8
														c0,0-3,0.1-4.8,3.3c0,0-0.1,0.8,0.4,3.7H165.8z"/>
													<g>
														<g>
															<g>
																<g>
																	<path class="st8" d="M158.4,21.7c0,0,0.5,6.7,1,8.7c0,0-3.8,4.9-7.2,1.1c0,0,0.1-1.4,0.3-4.3L158.4,21.7z"/>
																</g>
															</g>
														</g>
													</g>
													<g>
														<g>
															<g>
																<g>
																	<path class="st8" d="M161.5,20.1c0,0,1.1-1.8,1.5-0.5c0.5,1.5-1.1,4.5-2.2,3C160.8,22.7,160.5,21.7,161.5,20.1z"/>
																	<path class="st8" d="M149.7,20.2c0,0-1.1-1.8-1.5-0.5c-0.5,1.5,1.1,4.5,2.2,3C150.4,22.8,150.7,21.8,149.7,20.2z"
																		/>
																	<path class="st7" d="M156.6,28.9c1.8-0.6,3.7-3.3,3.7-3.3c0.7-0.7,1.5-7.4,1.5-7.4c-0.1-6.7-6-6.6-6.3-6.6
																		c-0.3,0-6.2,0.1-6.2,6.8c0,0,0.4,5.4,1.4,7c0,0,1,2,4.1,3.6C154.8,28.9,155.6,29.4,156.6,28.9z"/>
																	<path class="st23" d="M160.5,13.9l-9.4,0.2l-0.4,1.3c0,0,7.4,1.9,11,2.2C161.7,15.9,161.2,14.7,160.5,13.9z"/>
																</g>
															</g>
														</g>
													</g>
													<path class="st24" d="M152.7,20.3c0,0.3,0.2,0.6,0.4,0.6c0.2,0,0.4-0.3,0.4-0.6s-0.2-0.6-0.4-0.6
														C152.9,19.7,152.7,19.9,152.7,20.3z"/>
													<path class="st24" d="M157.6,20.3c0,0.3,0.2,0.6,0.4,0.6c0.2,0,0.4-0.3,0.4-0.6c0-0.3-0.2-0.6-0.4-0.6
														C157.7,19.7,157.6,20,157.6,20.3z"/>
													<path class="st24" d="M149.6,20.9c0,0,0.7-0.1,0.7-0.6c0-0.6-0.3-2.1-0.3-2.7c0-0.6,1.7-3.2,2.4-3.6
														c0,0,0.6,0.5,1.6,0.7c1,0.2,5.2,1.2,6.8,1.4c0,0,0.5,1.5,0.4,2.1c-0.1,0.7-0.6,2.6-0.4,2.9c0.2,0.2,0.5,0.4,0.6,0.1
														c0.2-0.3,1.4-2.8,1.4-4c0-1.2-0.1-5-1.8-6.4c-2.2-1.8-6.6-2-8.7-1c-2.1,1-3.2,2.2-3.7,3.4
														C148.1,14.4,149,20.1,149.6,20.9z"/>
													<path class="st25" d="M149.9,22.7c0,0,4.5-1.4,5.7-1.3c1.2,0.1,5.6,1.3,5.6,1.3s-0.2,2.2-0.6,3
														c-0.4,0.8-3.7,3.6-4.3,3.8c-0.6,0.2-1.3,0.1-2-0.3c-0.7-0.5-3.5-2.9-3.9-3.9C150.1,24.2,149.9,22.7,149.9,22.7z"/>
													<path class="st26" d="M149.9,22.7c0,0,0,0.4,0.1,0.8c1.2-0.7,4.8-1.3,5.7-1.4c0.9-0.1,4.5,1,5.4,1.2
														c0.1-0.4,0.1-0.7,0.1-0.7s-4.4-1.2-5.6-1.3C154.4,21.3,149.9,22.7,149.9,22.7z"/>
													<path class="st26" d="M149.1,19.5c0,0,1,3.4,1.3,3.6c0,0,0.6,0.1,0.6-0.2C150.9,22.6,149.1,19.5,149.1,19.5z"/>
													<path class="st26" d="M162.3,19.2c0,0-1.2,3.5-1.5,3.7c0,0-0.6,0.1-0.6-0.2C160.3,22.4,162.3,19.2,162.3,19.2z"/>
													<path d="M148.5,14.5c0,0-0.9-2.5-0.2-3.9c0.7-1.4,5.6-3.8,6.8-3.8c0,0,1.5-0.1,2.3,0.3c0.8,0.4,5.1,2,5.5,3.3
														c0.4,1.3,0.2,3.9-0.1,4.5C162.7,14.9,158,11.9,148.5,14.5z"/>
													<path class="st22" d="M148.5,14.5c0,0,3.1-2.6,5-3c1.9-0.3,5,0.2,6,0.6c1,0.4,3.3,2.8,3.3,2.8s-0.3,0.4-1.4,0.4
														c-1.1-0.1-9.1-0.4-10.3-0.4C149.8,15,148.8,14.6,148.5,14.5z"/>
													<g>
														<path class="st24" d="M153.5,18c-0.1,0-0.3-0.1-0.4-0.1c-0.1,0-0.3,0-0.4,0c-0.3,0.1-0.5,0.2-0.7,0.4l0,0
															c0,0-0.1,0.1-0.2,0c0,0-0.1-0.1,0-0.1c0.2-0.3,0.5-0.6,0.8-0.7c0.2-0.1,0.4-0.1,0.5-0.1c0.2,0,0.4,0,0.6,0
															c0.2,0,0.3,0.2,0.2,0.4C153.9,17.9,153.7,18,153.5,18C153.5,18,153.5,18,153.5,18z"/>
													</g>
													<g>
														<path class="st24" d="M157.1,17.4c0.2,0,0.4,0,0.6,0c0.2,0,0.4,0.1,0.5,0.1c0.4,0.1,0.6,0.4,0.8,0.7
															c0,0.1,0,0.1,0,0.2c0,0-0.1,0-0.1,0l0,0c-0.2-0.2-0.5-0.4-0.7-0.4c-0.1,0-0.3,0-0.4,0c-0.1,0-0.3,0.1-0.4,0.1
															c-0.2,0.1-0.3,0-0.4-0.2C156.8,17.7,156.9,17.5,157.1,17.4C157.1,17.4,157.1,17.4,157.1,17.4z"/>
													</g>
													<path class="st35" d="M159.1,32.9c0,0-5.6,0-6.7,0c-0.7,0,1.2,2.7,2.6,4.6h2L159.1,32.9z"/>
													<path class="st22" d="M146.5,43.7c0.5,5.2,0.9,6.2,1.1,10.8c0,0-0.4,5-0.9,8.7c0,0-0.2,1.8-0.3,4.5h18.8
														c-0.1-2-0.2-3.7-0.3-4.5c-0.5-3.7-0.9-8.2-0.9-8.2c0.2-4.6,1-11.7,1.5-16.5c0,0,2.1-7-3.9-7.8c0,0-0.6-0.1-1.5-0.3
														l-3.7,6.4l-0.6,0.1c-1.2-2.7-3.8-6.8-3.8-6.8c-0.8,0.1-1.5,0.3-2.1,0.4c0,0-3,0.1-4.8,3.3c0,0-0.2,1.1,0.8,5.7
														C146.2,41.1,146.4,42.4,146.5,43.7z"/>
													<path class="st20" d="M146.8,63.1c0,0-0.1,0.9-0.2,2.3h18.5c-0.1-1-0.1-1.8-0.2-2.3c0,0,0-0.1,0-0.1h-18.1
														C146.8,63.1,146.8,63.1,146.8,63.1z"/>
													<polygon points="151.6,30.6 150.3,35.4 155.9,36.9 													"/>
													<polygon points="160.6,30.6 162,35.4 156.3,36.9 													"/>
													<path class="st7" d="M135.3,52.1c-0.6-0.9,0-2.1,0-2.1c0.7-1.9,5.4-9.5,5.4-9.5l3.4,3.7l-5.5,6.5c0,0,0.5,1.2,3,13.5
														l-2-0.7C139.7,63.5,135.7,52.6,135.3,52.1z"/>
													<path class="st32" d="M143.7,43.8l-1.5-0.6l-2-2c-0.6,1-1.6,2.7-2.7,4.5c1.2,0.4,2.9,1.3,4,1.6l2.6-3.1L143.7,43.8z"/>
													<path class="st22" d="M147.1,31.6c0,0-5.5,4.8-8.4,10.6c0,0,2.4,3.4,3.7,3.6l4.4-4L147.1,31.6z"/>
												</g>
											</g>
										</g>
									</g>
								</g>
							</g>
						</g>
					</g>
				</g>
				<path class="st22" d="M164.2,31.6c0,0,5.3,4.8,8.2,10.5c0,0-2.4,3.4-3.7,3.6l-4.4-4L164.2,31.6z"/>
			</g>
			<path class="st11" d="M152.4,29.2c0,0,2.4,5.3,3.6,7.7c0,0-3.7-1-6.1-3l1.6-4.2L152.4,29.2z"/>
			<path class="st11" d="M159.6,29.2c0,0-2.3,5.3-3.5,7.7c0,0,3.6-1,6-3l-1.6-4.2L159.6,29.2z"/>
			<path class="st36" d="M157,38.7c0,0.2-0.1,0.3-0.3,0.3c-0.2,0-0.3-0.1-0.3-0.3c0-0.2,0.1-0.3,0.3-0.3
				C156.9,38.4,157,38.5,157,38.7z"/>
			<path class="st36" d="M157,43.2c0,0.2-0.1,0.3-0.3,0.3c-0.2,0-0.3-0.1-0.3-0.3c0-0.2,0.1-0.3,0.3-0.3C156.9,42.9,157,43,157,43.2
				z"/>
			<path class="st36" d="M157,47.7c0,0.2-0.1,0.3-0.3,0.3c-0.2,0-0.3-0.1-0.3-0.3c0-0.2,0.1-0.3,0.3-0.3
				C156.9,47.4,157,47.5,157,47.7z"/>
			<path class="st36" d="M157,52.2c0,0.2-0.1,0.3-0.3,0.3c-0.2,0-0.3-0.1-0.3-0.3c0-0.2,0.1-0.3,0.3-0.3C156.9,51.9,157,52,157,52.2
				z"/>
			<path class="st36" d="M157,56.7c0,0.2-0.1,0.3-0.3,0.3c-0.2,0-0.3-0.1-0.3-0.3c0-0.2,0.1-0.3,0.3-0.3
				C156.9,56.4,157,56.6,157,56.7z"/>
			<path class="st36" d="M157,61.2c0,0.2-0.1,0.3-0.3,0.3c-0.2,0-0.3-0.1-0.3-0.3c0-0.2,0.1-0.3,0.3-0.3
				C156.9,60.9,157,61.1,157,61.2z"/>
			<rect x="158.3" y="39.7" class="st36" width="5" height="3.1"/>
			<rect x="160.3" y="38.2" class="st37" width="1" height="1.9"/>
			<rect x="141.4" y="36" class="st30" width="28.5" height="28.5"/>
			<g>
				<g>
					<g>
						<path class="st38" d="M145.6,60.6c0.2,0,0.3,0.1,0.3,0.3v2.2c0,0.2-0.1,0.3-0.3,0.3h-2.2c-0.2,0-0.3-0.1-0.3-0.3v-2.2
							c0-0.2,0.1-0.3,0.3-0.3H145.6 M145.6,60.4h-2.2c-0.3,0-0.5,0.2-0.5,0.5v2.2c0,0.3,0.2,0.5,0.5,0.5h2.2c0.3,0,0.5-0.2,0.5-0.5
							v-2.2C146.1,60.7,145.9,60.4,145.6,60.4L145.6,60.4z"/>
						<path class="st38" d="M149.4,60.6c0.2,0,0.3,0.1,0.3,0.3v2.2c0,0.2-0.1,0.3-0.3,0.3h-2.2c-0.2,0-0.3-0.1-0.3-0.3v-2.2
							c0-0.2,0.1-0.3,0.3-0.3H149.4 M149.4,60.4h-2.2c-0.3,0-0.5,0.2-0.5,0.5v2.2c0,0.3,0.2,0.5,0.5,0.5h2.2c0.3,0,0.5-0.2,0.5-0.5
							v-2.2C149.9,60.7,149.7,60.4,149.4,60.4L149.4,60.4z"/>
					</g>
					<g>
						<g>
							<g>
								<polygon class="st38" points="152.1,61.5 151.7,60.8 151.3,61.5 151.6,61.5 151.6,62.8 151.8,62.8 151.8,61.5 								"/>
								<polygon class="st38" points="153.1,61.5 152.7,60.8 152.2,61.5 152.6,61.5 152.6,62.8 152.8,62.8 152.8,61.5 								"/>
							</g>
							<g>
								<rect x="151.4" y="63" class="st38" width="1.6" height="0.2"/>
							</g>
						</g>
						<path class="st38" d="M153.3,60.6c0.2,0,0.3,0.1,0.3,0.3v2.2c0,0.2-0.1,0.3-0.3,0.3h-2.2c-0.2,0-0.3-0.1-0.3-0.3v-2.2
							c0-0.2,0.1-0.3,0.3-0.3H153.3 M153.3,60.4h-2.2c-0.3,0-0.5,0.2-0.5,0.5v2.2c0,0.3,0.2,0.5,0.5,0.5h2.2c0.3,0,0.5-0.2,0.5-0.5
							v-2.2C153.8,60.7,153.6,60.4,153.3,60.4L153.3,60.4z"/>
					</g>
					<g>
						<path class="st38" d="M144.5,61.8c-0.1,0-0.1,0-0.1,0v1.4h0.2L144.5,61.8C144.5,61.8,144.5,61.8,144.5,61.8z"/>
						<rect x="144.1" y="63.2" class="st38" width="0.6" height="0.1"/>
					</g>
				</g>
				<g>
					<path class="st38" d="M144.5,61.3h-0.2l0.2-0.5h-0.7c0,0.5,0.3,0.9,0.6,1L144.5,61.3z"/>
					<path class="st38" d="M144.6,60.8l-0.1,0.4l0.2,0l-0.3,0.6c0,0,0.1,0,0.1,0c0.4,0,0.8-0.4,0.8-1H144.6z"/>
				</g>
				<g>
					<path class="st38" d="M148.3,60.8c0,0-1.1,0.2-1.2,0.9c0,0,0.3-0.1,0.4,0.2c0,0,0.2-0.3,0.5,0c0,0,0.2-0.2,0.3,0
						c0.1-0.2,0.3,0,0.3,0c0.3-0.3,0.5,0,0.5,0c0.1-0.3,0.4-0.2,0.4-0.2C149.5,61,148.3,60.8,148.3,60.8z"/>
					<path class="st38" d="M148.6,63.2c-0.2,0-0.3-0.2-0.3-0.3v-1.4c0,0,0-0.1,0.1-0.1s0.1,0,0.1,0.1v1.4c0,0.1,0.1,0.2,0.2,0.2
						c0.1,0,0.2-0.1,0.2-0.2c0,0,0-0.1,0.1-0.1s0.1,0,0.1,0.1C149,63.1,148.8,63.2,148.6,63.2z"/>
				</g>
			</g>
			<path class="st39" d="M141.4,62.6l-1.8,0.7c0,0,0.2,1,1.1,1.4c0.8,0.4,3.2,1.1,3.9,1c0.2,0,3.3-0.8,2.9-1.4c0,0-0.5-0.3-1-0.1
				c-0.5,0.2-1.5,0.4-1.8,0.4c0,0-2.1-0.8-2.4-1c0,0,1.8,0.6,2.3,0.3c0.4-0.3-0.2-0.5-0.5-0.6c-0.3-0.1-1.2-0.4-1.3-0.4
				C142.8,62.7,141.6,62.5,141.4,62.6z"/>
			<rect x="154.3" y="36" class="st31" width="3.7" height="7.2"/>
			<path class="st39" d="M169.1,62.6l1.8,0.7c0,0-0.2,1-1.1,1.4c-0.8,0.4-3.2,1.1-3.9,1c-0.2,0-3.3-0.8-2.9-1.4c0,0,0.5-0.3,1-0.1
				c0.5,0.2,1.5,0.4,1.8,0.4c0,0,2.1-0.8,2.4-1c0,0-1.8,0.6-2.3,0.3c-0.4-0.3,0.2-0.5,0.5-0.6c0.3-0.1,1.2-0.4,1.3-0.4
				C167.7,62.7,168.9,62.5,169.1,62.6z"/>
		</g>
		<g>
			<path class="st16" d="M150.5,122.5c-0.5,0.6-4.3,1.5-5.5-0.8c0,0-0.4-0.8,0.1-1.9c0.5-1.1,1.9-1.9,5.2-4.7c0,0,0.1-0.4,0.3-0.2
				c0,0,0.3,0.4,0.6,0.4c0,0,1.3,0.4,2.1-0.5c0,0,0.2-0.2,0.3,0.1c0,0,0.4,1.3,0.3,2.2C153.9,117.1,153.3,119.3,150.5,122.5z"/>
			<path d="M152.6,115.3c0,0-2.6,4.3-3.6,4.6c0,0-1.8-0.9-2.5-0.8c0,0,4-3.8,4.4-4C150.8,115,152.2,115.5,152.6,115.3z"/>
			<path class="st17" d="M153.9,116.4c0,0.3,0,0.5,0,0.7c0,0-0.7,2.1-3.4,5.4c-0.5,0.6-4.3,1.5-5.5-0.8c0,0-0.4-0.8,0.1-1.9
				c0.1-0.2,0.2-0.4,0.4-0.6c-0.1,0.4-0.4,1.1-0.2,1.5c0.4,0.5,0.6-0.2,1.5-0.2c0.7,0,1.2,0.4,1.6,1.2c0.4,0.8,1.2,0.3,1.8,0
				C150.2,121.7,152.8,118.8,153.9,116.4z"/>
			<path class="st17" d="M146.7,118c0,0,1.7-0.7,3.6,1.4c0,0,0.4,0.3,0.7,0c0.2-0.2,0.2-0.4-0.1-0.8c-0.3-0.4-1.4-1.6-3.1-1.5
				c0,0-0.5,0.1-0.7,0.2C146.9,117.5,146.8,117.7,146.7,118z"/>
			<path class="st17" d="M148.2,116.8c0,0,1.4-0.6,3,1.2c0,0,0.3,0.2,0.6,0c0.2-0.2,0.2-0.3-0.1-0.7c-0.2-0.3-1.2-1.3-2.6-1.2
				c0,0-0.4,0.1-0.6,0.2C148.3,116.4,148.2,116.6,148.2,116.8z"/>
			<path class="st17" d="M149.2,116c0,0,1.3-0.6,2.8,1.1c0,0,0.3,0.2,0.5,0c0.2-0.1,0.2-0.3-0.1-0.6c-0.2-0.3-1.1-1.3-2.4-1.1
				c0,0-0.4,0.1-0.5,0.2C149.3,115.6,149.2,115.8,149.2,116z"/>
			<path d="M150.7,115.1c0,0,0-0.7,0.2-0.8c0.2-0.1,0.7,0.2,1.3,0.1c0,0,0.3-0.1,0.5,0c0.2,0.1,0,0.8,0,0.8
				C152.7,115.2,151.9,115.8,150.7,115.1z"/>
		</g>
		<g>
			<path class="st16" d="M162.2,122.5c0.5,0.6,4.3,1.5,5.5-0.8c0,0,0.4-0.8-0.1-1.9c-0.5-1.1-1.9-1.9-5.2-4.7c0,0-0.1-0.4-0.3-0.2
				c0,0-0.3,0.4-0.6,0.4c0,0-1.3,0.4-2.1-0.5c0,0-0.2-0.2-0.3,0.1c0,0-0.4,1.3-0.3,2.2C158.8,117.1,159.5,119.3,162.2,122.5z"/>
			<path d="M160.1,115.3c0,0,2.6,4.3,3.6,4.6c0,0,1.8-0.9,2.5-0.8c0,0-4-3.8-4.4-4C161.9,115,160.6,115.5,160.1,115.3z"/>
			<path class="st17" d="M158.8,116.4c0,0.3,0,0.5,0,0.7c0,0,0.7,2.1,3.4,5.4c0.5,0.6,4.3,1.5,5.5-0.8c0,0,0.4-0.8-0.1-1.9
				c-0.1-0.2-0.2-0.4-0.4-0.6c0.1,0.4,0.4,1.1,0.2,1.5c-0.4,0.5-0.6-0.2-1.5-0.2c-0.7,0-1.2,0.4-1.6,1.2c-0.4,0.8-1.2,0.3-1.8,0
				C162.6,121.7,159.9,118.8,158.8,116.4z"/>
			<path class="st17" d="M166,118c0,0-1.7-0.7-3.6,1.4c0,0-0.4,0.3-0.7,0c-0.2-0.2-0.2-0.4,0.1-0.8c0.3-0.4,1.4-1.6,3.1-1.5
				c0,0,0.5,0.1,0.7,0.2C165.8,117.5,166,117.7,166,118z"/>
			<path class="st17" d="M164.5,116.8c0,0-1.4-0.6-3,1.2c0,0-0.3,0.2-0.6,0c-0.2-0.2-0.2-0.3,0.1-0.7c0.2-0.3,1.2-1.3,2.6-1.2
				c0,0,0.4,0.1,0.6,0.2C164.4,116.4,164.5,116.6,164.5,116.8z"/>
			<path class="st17" d="M163.6,116c0,0-1.3-0.6-2.8,1.1c0,0-0.3,0.2-0.5,0c-0.2-0.1-0.2-0.3,0.1-0.6c0.2-0.3,1.1-1.3,2.4-1.1
				c0,0,0.4,0.1,0.5,0.2C163.4,115.6,163.5,115.8,163.6,116z"/>
			<path d="M162.1,115.1c0,0,0-0.7-0.2-0.8c-0.2-0.1-0.7,0.2-1.3,0.1c0,0-0.3-0.1-0.5,0c-0.2,0.1,0,0.8,0,0.8
				C160.1,115.2,160.8,115.8,162.1,115.1z"/>
		</g>
	</g>
	<g>
		<path class="st36" d="M148.4,48.7h7.1l0.4-0.7h-7.5c-0.2,0-0.4,0-0.5,0.1c-0.2,0.1-0.3,0.1-0.4,0.2c-0.1,0.1-0.2,0.2-0.2,0.4
			c-0.1,0.1-0.1,0.3-0.1,0.4c0,0.2,0,0.3,0.1,0.5c0.1,0.1,0.1,0.3,0.2,0.4c0.1,0.1,0.2,0.2,0.4,0.2c0.2,0.1,0.3,0.1,0.5,0.1h1.9
			c0.2,0,0.3,0,0.4,0.1c0.1,0.1,0.2,0.2,0.2,0.4c0,0.2-0.1,0.3-0.2,0.4c-0.1,0.1-0.2,0.1-0.4,0.1h-6l-0.4,0.7h4.4
			c0.3-0.3,0.7-0.5,1.1-0.5c0.4,0,0.8,0.2,1.1,0.5c0.1,0,0.2,0,0.3-0.1c0.2-0.1,0.3-0.1,0.4-0.2c0.1-0.1,0.2-0.2,0.2-0.4
			c0.1-0.1,0.1-0.3,0.1-0.5c0-0.4-0.1-0.7-0.3-0.9c-0.2-0.2-0.5-0.3-0.9-0.3h-1.9c-0.2,0-0.3,0-0.4-0.1c-0.1-0.1-0.1-0.2-0.1-0.4
			c0-0.2,0-0.3,0.1-0.4C148.1,48.7,148.2,48.7,148.4,48.7"/>
		<polygon class="st36" points="151.6,48 151.6,51.9 152.3,51.9 152.3,48.7 155.5,48.7 155.9,48 		"/>
		<polygon class="st36" points="154.9,49.7 154.5,50.3 152.8,50.3 152.8,49.7 		"/>
		<polygon class="st36" points="158,50.9 156.1,50.9 156.5,50.4 157.7,50.4 		"/>
		<path class="st36" d="M163.4,49.9c-0.2-0.2-0.5-0.3-0.9-0.3h-1.9c-0.2,0-0.3,0-0.4-0.1c-0.1-0.1-0.1-0.2-0.1-0.4
			c0-0.2,0-0.3,0.1-0.4c0.1-0.1,0.2-0.1,0.4-0.1h6.9l0.4-0.7l-7.4,0c-0.2,0-0.4,0-0.5,0.1c-0.2,0.1-0.3,0.1-0.4,0.2
			c-0.1,0.1-0.2,0.2-0.2,0.4c-0.1,0.1-0.1,0.3-0.1,0.4c0,0.2,0,0.3,0.1,0.5c0.1,0.1,0.1,0.3,0.2,0.4c0.1,0.1,0.2,0.2,0.4,0.2
			c0.2,0.1,0.3,0.1,0.5,0.1h1.9c0.2,0,0.3,0,0.4,0.1c0.1,0.1,0.2,0.2,0.2,0.4c0,0.2-0.1,0.3-0.2,0.4c-0.1,0.1-0.2,0.1-0.4,0.1
			l-4.2,0l0.4,0.7l2,0c0.3-0.3,0.7-0.5,1.1-0.5c0.4,0,0.8,0.2,1.1,0.5c0.1,0,0.1,0,0.2,0c0.2-0.1,0.3-0.1,0.4-0.2
			c0.1-0.1,0.2-0.2,0.2-0.4c0.1-0.1,0.1-0.3,0.1-0.5C163.7,50.4,163.6,50.1,163.4,49.9"/>
		<path class="st36" d="M157.2,48.2c0-0.1-0.1-0.1-0.1-0.2c-0.1,0-0.1-0.1-0.2-0.1c-0.1,0-0.1,0-0.2,0.1c-0.1,0-0.1,0.1-0.1,0.2
			l-2.3,3.8h0.8l1.8-3l0.9,1.4l0,0l0.3,0.6h0l0.6,1h0.9L157.2,48.2z"/>
		<polygon class="st36" points="165.1,51.9 165.1,48.7 163.5,48.7 163.5,48 167.9,48 167.5,48.7 165.8,48.7 165.8,51.9 		"/>
		<path class="st36" d="M149.4,51.7c-0.7,0-1.3,0.6-1.3,1.3c0,0.7,0.6,1.3,1.3,1.3c0.7,0,1.3-0.6,1.3-1.3
			C150.7,52.2,150.1,51.7,149.4,51.7 M149.4,53.7c-0.4,0-0.7-0.3-0.7-0.7c0-0.4,0.3-0.7,0.7-0.7c0.4,0,0.7,0.3,0.7,0.7
			C150.1,53.3,149.8,53.7,149.4,53.7"/>
		<path class="st36" d="M161.7,51.7c-0.7,0-1.3,0.6-1.3,1.3c0,0.7,0.6,1.3,1.3,1.3s1.3-0.6,1.3-1.3C163,52.2,162.5,51.7,161.7,51.7
			 M161.7,53.7c-0.4,0-0.7-0.3-0.7-0.7c0-0.4,0.3-0.7,0.7-0.7c0.4,0,0.7,0.3,0.7,0.7C162.5,53.3,162.1,53.7,161.7,53.7"/>
		<path class="st36" d="M149.6,52.9c0,0.1-0.1,0.2-0.2,0.2c-0.1,0-0.2-0.1-0.2-0.2s0.1-0.2,0.2-0.2
			C149.5,52.7,149.6,52.8,149.6,52.9"/>
		<path class="st36" d="M162,52.9c0,0.1-0.1,0.2-0.2,0.2c-0.1,0-0.2-0.1-0.2-0.2s0.1-0.2,0.2-0.2C161.9,52.7,162,52.8,162,52.9"/>
		<path class="st36" d="M145.9,50.7h-2.1H145.9z"/>
		<path class="st36" d="M145.9,50.6h-2.1c0,0-0.1,0-0.1,0.1c0,0,0,0.1,0.1,0.1h2.1C146,50.7,146,50.7,145.9,50.6
			C146,50.6,145.9,50.6,145.9,50.6L145.9,50.6h-2.1l0.1,0.1l-0.1,0.1h2.1C146.1,50.7,146.1,50.6,145.9,50.6"/>
		<path class="st36" d="M146.7,49.7h-2.1H146.7z"/>
		<path class="st36" d="M146.7,49.6h-2.1c0,0-0.1,0-0.1,0.1c0,0,0,0.1,0.1,0.1h2.1C146.8,49.8,146.8,49.8,146.7,49.6
			C146.8,49.6,146.6,49.6,146.7,49.6L146.7,49.6h-2.1l0.1,0.1l-0.1,0.1h2.1C146.8,49.8,146.8,49.6,146.7,49.6"/>
		<path class="st36" d="M146.6,48.7h-2.1H146.6z"/>
		<path class="st36" d="M146.6,48.7h-2.1c0,0-0.1,0-0.1,0.1c0,0,0,0.1,0.1,0.1h2.1C146.6,48.8,146.6,48.8,146.6,48.7
			C146.6,48.6,146.5,48.6,146.6,48.7L146.6,48.7h-2.1l0.1,0.1l-0.1,0.1h2.1C146.7,48.8,146.7,48.7,146.6,48.7"/>
		<polygon class="st36" points="152.8,52.5 152.3,53.8 152.1,53.8 152.2,53.2 151.9,53.8 151.7,53.8 152,52.5 152.2,52.5 152,53.3 
			152.3,52.5 152.5,52.5 152.3,53.3 152.6,52.5 		"/>
		<polygon class="st36" points="153.7,52.5 153.2,53.8 153,53.8 153.1,53.2 152.8,53.8 152.6,53.8 152.8,52.5 153,52.5 152.9,53.3 
			153.2,52.5 153.4,52.5 153.2,53.3 153.5,52.5 		"/>
		<polygon class="st36" points="154.6,52.5 154.1,53.8 153.9,53.8 154,53.2 153.7,53.8 153.5,53.8 153.7,52.5 153.9,52.5 
			153.8,53.3 154.1,52.5 154.3,52.5 154.1,53.3 154.4,52.5 		"/>
		<path class="st36" d="M154.4,53.9c-0.1,0-0.1-0.1-0.1-0.1c0-0.1,0-0.1,0.1-0.1c0,0,0.1,0.1,0.1,0.1
			C154.5,53.8,154.5,53.9,154.4,53.9"/>
		<path class="st36" d="M155.2,53.6c0,0.1-0.1,0.2-0.1,0.2c-0.1,0.1-0.1,0.1-0.2,0.1c-0.1,0-0.1,0-0.2-0.1c0-0.1,0-0.1,0-0.2l0-0.2
			h0.2l0,0.2c0,0,0,0,0,0c0,0,0,0,0,0l0-0.2c0-0.1,0-0.1,0-0.1l-0.1-0.2c0-0.1,0-0.1,0-0.2c0,0,0-0.2,0-0.2c0-0.1,0.1-0.2,0.1-0.2
			c0.1-0.1,0.1-0.1,0.2-0.1c0.1,0,0.1,0,0.2,0.1c0,0.1,0,0.1,0,0.2l0,0.2h-0.2l0-0.2c0,0,0,0,0,0c0,0,0,0,0,0l0,0.2
			c0,0.1,0,0.1,0,0.1l0.1,0.2c0,0.1,0,0.1,0,0.2L155.2,53.6z"/>
		<polygon class="st36" points="155.7,52.5 156.1,52.5 156.1,52.7 155.9,52.7 155.8,53.1 155.9,53.1 155.9,53.3 155.7,53.3 
			155.6,53.8 155.4,53.8 		"/>
		<path class="st36" d="M156.3,53.8l0-0.2h-0.1l-0.1,0.2h-0.2l0.5-1.4h0.2l-0.1,1.4H156.3L156.3,53.8z M156.3,53.4l0.1-0.5
			L156.3,53.4L156.3,53.4z"/>
		<path class="st36" d="M157.2,53.6c0,0.1-0.1,0.2-0.1,0.2c-0.1,0.1-0.1,0.1-0.2,0.1c-0.1,0-0.1,0-0.2-0.1c0-0.1,0-0.1,0-0.2l0-0.2
			h0.2l0,0.2c0,0,0,0,0,0c0,0,0,0,0,0l0-0.2c0-0.1,0-0.1,0-0.1l-0.1-0.2c0-0.1,0-0.1,0-0.2c0,0,0-0.2,0-0.2c0-0.1,0.1-0.2,0.1-0.2
			c0.1-0.1,0.1-0.1,0.2-0.1c0.1,0,0.1,0,0.2,0.1c0,0.1,0,0.1,0,0.2l0,0.2h-0.2l0-0.2c0,0,0,0,0,0c0,0,0,0,0,0l0,0.2
			c0,0.1,0,0.1,0,0.1l0.1,0.2c0,0.1,0,0.1,0,0.2L157.2,53.6z"/>
		<polygon class="st36" points="157.7,52.7 157.5,52.7 157.6,52.5 158.1,52.5 158,52.7 157.9,52.7 157.7,53.8 157.5,53.8 		"/>
		<path class="st36" d="M158,53.9c-0.1,0-0.1-0.1-0.1-0.1c0-0.1,0-0.1,0.1-0.1c0,0,0.1,0.1,0.1,0.1C158.1,53.8,158.1,53.9,158,53.9"
			/>
		<path class="st36" d="M158.7,53.3h0.2l-0.1,0.3c0,0.1-0.1,0.2-0.1,0.2c-0.1,0.1-0.1,0.1-0.2,0.1c-0.1,0-0.1,0-0.2-0.1
			c0-0.1,0-0.1,0-0.2l0.2-0.8c0-0.1,0.1-0.2,0.1-0.2c0.1-0.1,0.1-0.1,0.2-0.1c0.1,0,0.1,0,0.2,0.1c0,0.1,0,0.1,0,0.2l-0.1,0.3h-0.2
			l0.1-0.3c0,0,0,0,0,0c0,0,0,0,0,0l-0.2,0.8c0,0,0,0,0,0c0,0,0,0,0,0L158.7,53.3z"/>
		<polygon class="st36" points="159.2,52.5 159.4,52.5 159.1,53.6 159.3,53.6 159.2,53.8 158.8,53.8 		"/>
	</g>
	<g>
		<path class="st36" d="M79.6,101l1.1-5.8l-0.5-0.5l-1.1,6.1c0,0.2,0,0.3,0,0.4c0,0.1,0.1,0.3,0.1,0.4c0.1,0.1,0.1,0.2,0.2,0.2
			c0.1,0.1,0.2,0.1,0.3,0.1c0.1,0,0.3,0,0.4,0c0.1,0,0.2-0.1,0.3-0.1c0.1-0.1,0.2-0.2,0.3-0.3c0.1-0.1,0.1-0.3,0.1-0.4l0.3-1.5
			c0-0.2,0.1-0.3,0.2-0.3c0.1-0.1,0.2-0.1,0.3-0.1c0.1,0,0.2,0.1,0.3,0.2c0.1,0.1,0.1,0.2,0,0.4l-0.9,4.9l0.5,0.5l0.7-3.6
			c-0.2-0.3-0.3-0.6-0.2-1c0.1-0.4,0.3-0.7,0.6-0.8c0-0.1,0-0.2,0-0.3c0-0.1-0.1-0.3-0.1-0.4c-0.1-0.1-0.2-0.2-0.3-0.2
			c-0.1-0.1-0.2-0.1-0.4-0.1c-0.3-0.1-0.6,0-0.7,0.1c-0.2,0.1-0.3,0.4-0.4,0.7l-0.3,1.5c0,0.1-0.1,0.2-0.2,0.3
			c-0.1,0.1-0.2,0.1-0.3,0.1c-0.1,0-0.2-0.1-0.3-0.2C79.6,101.2,79.6,101.1,79.6,101"/>
		<polygon class="st36" points="79.5,98.3 82.8,98.9 82.9,98.3 80.2,97.8 80.7,95.2 80.2,94.8 		"/>
		<polygon class="st36" points="81.4,95.9 81.9,96.3 81.6,97.7 81.1,97.6 		"/>
		<polygon class="st36" points="82.9,93.5 82.7,95 82.2,94.7 82.4,93.7 		"/>
		<path class="st36" d="M82.9,89c-0.2,0.1-0.3,0.4-0.4,0.7l-0.3,1.5c0,0.1-0.1,0.2-0.2,0.3c-0.1,0.1-0.2,0.1-0.3,0.1
			c-0.1,0-0.2-0.1-0.3-0.2c-0.1-0.1-0.1-0.2,0-0.3l1.1-5.7l-0.5-0.5l-1.1,6c0,0.2,0,0.3,0,0.4c0,0.1,0.1,0.3,0.1,0.4
			c0.1,0.1,0.1,0.2,0.2,0.2c0.1,0.1,0.2,0.1,0.3,0.1c0.1,0,0.3,0,0.4,0c0.1,0,0.2-0.1,0.3-0.1c0.1-0.1,0.2-0.2,0.3-0.3
			c0.1-0.1,0.1-0.3,0.1-0.4l0.3-1.5c0-0.2,0.1-0.3,0.2-0.3c0.1-0.1,0.2-0.1,0.3-0.1c0.1,0,0.2,0.1,0.3,0.2c0.1,0.1,0.1,0.2,0,0.4
			l-0.7,3.4l0.6-0.2l0.3-1.6c-0.2-0.3-0.3-0.6-0.2-1c0.1-0.4,0.3-0.6,0.6-0.8c0,0,0-0.1,0-0.1c0-0.1-0.1-0.3-0.1-0.4
			C84.2,89.1,84.2,89,84,89c-0.1-0.1-0.2-0.1-0.4-0.1C83.4,88.8,83.1,88.8,82.9,89"/>
		<path class="st36" d="M80.5,93.8c-0.1,0-0.1,0.1-0.2,0.1c0,0-0.1,0.1-0.1,0.2c0,0.1,0,0.1,0,0.2c0,0.1,0.1,0.1,0.1,0.1l2.7,2.5
			l0.1-0.7l-2.2-2l1.3-0.5l0,0l0.5-0.2l0,0l0.9-0.3l0.1-0.7L80.5,93.8z"/>
		<polygon class="st36" points="84.8,87.9 82.2,87.4 81.9,88.6 81.4,88.5 82.1,84.9 82.6,85.4 82.3,86.8 84.9,87.3 		"/>
		<path class="st36" d="M82.2,100.7c-0.1,0.6,0.3,1.1,0.8,1.3c0.6,0.1,1.1-0.3,1.2-0.9c0.1-0.6-0.3-1.1-0.8-1.3
			C82.9,99.7,82.3,100.1,82.2,100.7 M83.8,101c-0.1,0.3-0.4,0.5-0.7,0.5c-0.3-0.1-0.5-0.4-0.5-0.7c0.1-0.3,0.4-0.5,0.7-0.5
			C83.7,100.3,83.9,100.7,83.8,101"/>
		<path class="st36" d="M84.1,90.6c-0.1,0.6,0.3,1.1,0.8,1.3c0.6,0.1,1.1-0.3,1.2-0.9c0.1-0.6-0.3-1.1-0.8-1.3
			C84.8,89.6,84.2,90,84.1,90.6 M85.7,90.9c-0.1,0.3-0.4,0.5-0.7,0.5c-0.3-0.1-0.5-0.4-0.5-0.7c0.1-0.3,0.4-0.5,0.7-0.5
			C85.6,90.2,85.8,90.5,85.7,90.9"/>
		<path class="st36" d="M83.3,100.7c0.1,0,0.2,0.1,0.2,0.2c0,0.1-0.1,0.2-0.2,0.2c-0.1,0-0.2-0.1-0.2-0.2
			C83.1,100.7,83.2,100.6,83.3,100.7"/>
		<path class="st36" d="M85.2,90.6c0.1,0,0.2,0.1,0.2,0.2c0,0.1-0.1,0.2-0.2,0.2c-0.1,0-0.2-0.1-0.2-0.2
			C85,90.6,85.1,90.5,85.2,90.6"/>
		<path class="st36" d="M80.9,103.3l-0.3,1.7L80.9,103.3z"/>
		<path class="st36" d="M80.8,103.3l-0.3,1.7c0,0,0,0.1,0.1,0.1c0,0,0.1,0,0.1-0.1l0.3-1.7C80.9,103.3,80.9,103.3,80.8,103.3
			C80.8,103.2,80.8,103.4,80.8,103.3L80.8,103.3l-0.3,1.7l0.1-0.1l0.1,0.1l0.3-1.7C81,103.2,80.8,103.2,80.8,103.3"/>
		<path class="st36" d="M80.2,102.6l-0.3,1.7L80.2,102.6z"/>
		<path class="st36" d="M80.2,102.5l-0.3,1.7c0,0,0,0.1,0.1,0.1c0,0,0.1,0,0.1-0.1l0.3-1.7C80.3,102.5,80.3,102.5,80.2,102.5
			C80.1,102.5,80.1,102.6,80.2,102.5L80.2,102.5l-0.3,1.7l0.1-0.1l0.1,0.1l0.3-1.7C80.3,102.5,80.2,102.5,80.2,102.5"/>
		<path class="st36" d="M79.4,102.5l-0.3,1.7L79.4,102.5z"/>
		<path class="st36" d="M79.3,102.5l-0.3,1.7c0,0,0,0.1,0.1,0.1c0,0,0.1,0,0.1-0.1l0.3-1.7C79.5,102.5,79.4,102.5,79.3,102.5
			C79.3,102.4,79.3,102.6,79.3,102.5L79.3,102.5l-0.3,1.7l0.1-0.1l0.1,0.1l0.3-1.7C79.5,102.5,79.3,102.4,79.3,102.5"/>
		<polygon class="st36" points="83.4,98 84.4,98.6 84.4,98.8 83.9,98.6 84.4,98.9 84.4,99.1 83.3,98.7 83.3,98.5 84,98.8 83.3,98.4 
			83.4,98.3 84,98.5 83.4,98.1 		"/>
		<polygon class="st36" points="83.5,97.3 84.6,97.9 84.5,98.1 84,97.9 84.5,98.2 84.5,98.3 83.4,98 83.4,97.8 84.1,98.1 83.5,97.7 
			83.5,97.5 84.2,97.8 83.5,97.4 		"/>
		<polygon class="st36" points="83.7,96.5 84.7,97.2 84.7,97.3 84.2,97.2 84.7,97.5 84.6,97.6 83.5,97.2 83.6,97.1 84.3,97.3 
			83.6,97 83.6,96.8 84.3,97.1 83.7,96.7 		"/>
		<path class="st36" d="M84.8,96.9c0,0-0.1,0.1-0.1,0.1c-0.1,0-0.1-0.1-0.1-0.1C84.6,96.8,84.6,96.8,84.8,96.9
			C84.7,96.8,84.8,96.8,84.8,96.9"/>
		<path class="st36" d="M84.7,96.2c0.1,0,0.1,0.1,0.2,0.1c0,0,0,0.1,0,0.2c0,0.1,0,0.1-0.1,0.1c-0.1,0-0.1,0-0.2,0l-0.2-0.1l0-0.2
			l0.2,0.1c0,0,0,0,0,0c0,0,0,0,0,0l-0.1-0.1c0,0-0.1,0-0.1,0l-0.2,0.1c0,0-0.1,0-0.2,0c0,0-0.1-0.1-0.1-0.1c-0.1,0-0.1-0.1-0.2-0.1
			c0-0.1,0-0.1,0-0.2c0-0.1,0-0.1,0.1-0.1c0.1,0,0.1,0,0.2,0l0.2,0.1l0,0.2L84,96.1c0,0,0,0,0,0c0,0,0,0,0,0l0.1,0.1
			c0.1,0,0.1,0,0.1,0l0.2-0.1c0.1,0,0.1,0,0.2,0L84.7,96.2z"/>
		<polygon class="st36" points="83.8,95.6 83.9,95.3 84.1,95.4 84.1,95.5 84.3,95.7 84.4,95.5 84.5,95.6 84.5,95.7 84.9,95.9 
			84.9,96.1 		"/>
		<path class="st36" d="M85,95.4l-0.2-0.1l0,0.1l0.2,0.1l0,0.2l-1-0.6l0-0.2l1.1,0.3L85,95.4L85,95.4z M84.7,95.3l-0.4-0.1
			L84.7,95.3L84.7,95.3z"/>
		<path class="st36" d="M85,94.6c0.1,0,0.1,0.1,0.2,0.1c0,0,0,0.1,0,0.2c0,0.1,0,0.1-0.1,0.1c-0.1,0-0.1,0-0.2,0l-0.2-0.1l0-0.2
			l0.2,0.1c0,0,0,0,0,0c0,0,0,0,0,0l-0.1-0.1c0,0-0.1,0-0.1,0l-0.2,0.1c0,0-0.1,0-0.2,0c0,0-0.1-0.1-0.1-0.1c-0.1,0-0.1-0.1-0.2-0.1
			c0-0.1,0-0.1,0-0.2c0-0.1,0-0.1,0.1-0.1c0.1,0,0.1,0,0.2,0l0.2,0.1l0,0.2l-0.2-0.1c0,0,0,0,0,0c0,0,0,0,0,0l0.1,0.1
			c0.1,0,0.1,0,0.1,0l0.2-0.1c0.1,0,0.1,0,0.2,0L85,94.6z"/>
		<polygon class="st36" points="84.3,94 84.3,94.2 84.1,94.1 84.2,93.7 84.4,93.8 84.4,93.9 85.3,94.2 85.2,94.4 		"/>
		<path class="st36" d="M85.3,93.9c0,0-0.1,0.1-0.1,0.1c-0.1,0-0.1-0.1-0.1-0.1C85.1,93.9,85.2,93.8,85.3,93.9
			C85.3,93.8,85.3,93.9,85.3,93.9"/>
		<path class="st36" d="M85,93.3l0-0.2l0.2,0.1c0.1,0,0.1,0.1,0.2,0.1c0,0.1,0,0.1,0,0.2c0,0.1,0,0.1-0.1,0.1c-0.1,0-0.1,0-0.2,0
			l-0.6-0.3c-0.1,0-0.1-0.1-0.2-0.1c0-0.1,0-0.1,0-0.2c0-0.1,0-0.1,0.1-0.1c0.1,0,0.1,0,0.2,0l0.2,0.1l0,0.2l-0.2-0.1c0,0,0,0,0,0
			c0,0,0,0,0,0l0.7,0.3c0,0,0,0,0,0c0,0,0,0,0,0L85,93.3z"/>
		<polygon class="st36" points="84.4,92.8 84.4,92.6 85.3,93 85.3,92.9 85.5,93 85.4,93.3 		"/>
	</g>
</g>
<g>
	<g>
		<path class="st40" d="M47.5,80.9c0,0.2,0,0.4,0,0.6c0,0.2,0.1,0.4,0.1,0.6c0.4,2.1,1.2,4.2,1.9,6.1c0.9,2.4,4.5,8.1,5.4,9.7
			c0,0,0.1,0.1,0.1,0.2c0.1,0.2,0.3,0.5,0.6,0.5c0,0,0,0,0.1,0c0.2-0.1,0.4-0.3,0.5-0.5c0.1-0.1,0.1-0.3,0.2-0.4
			c0.9-1.6,4.6-7.4,5.5-9.8c0.7-1.9,1.5-3.9,1.8-6c0.4-2.6-0.7-5.3-2.6-7c-2.4-2.1-5.9-2.6-8.8-1.3C49.4,75,47.5,77.8,47.5,80.9z
			 M50.1,81.5c0-3,2.5-5.5,5.5-5.5c3,0,5.5,2.5,5.5,5.5c0,3-2.5,5.5-5.5,5.5c-0.3,0-0.5,0-0.8-0.1C52.2,86.6,50.1,84.3,50.1,81.5z"
			/>
		
			<linearGradient id="SVGID_2_" gradientUnits="userSpaceOnUse" x1="-2855.811" y1="90.9344" x2="-2849.3115" y2="77.4333" gradientTransform="matrix(-1 0 0 1 -2801.9922 0)">
			<stop  offset="0" style="stop-color:#4EAC42"/>
			<stop  offset="1" style="stop-color:#4EAC42"/>
		</linearGradient>
		<path class="st41" d="M47.5,81.5c0,0.2,0.1,0.4,0.1,0.6c0.4,2.1,1.2,4.2,1.9,6.1c0.9,2.4,4.5,8.1,5.4,9.7c0,0,0.1,0.1,0.1,0.2
			c0.1,0.2,0.3,0.5,0.6,0.5l0-0.5l0-9.8L54.8,87c-2.7-0.4-4.7-2.7-4.7-5.4H47.5z"/>
		
			<linearGradient id="SVGID_3_" gradientUnits="userSpaceOnUse" x1="-2864.364" y1="81.5253" x2="-2850.8347" y2="81.5253" gradientTransform="matrix(-1 0 0 1 -2801.9922 0)">
			<stop  offset="0" style="stop-color:#97C11D"/>
			<stop  offset="1" style="stop-color:#106B30"/>
		</linearGradient>
		<path class="st42" d="M48.8,81.5c0,3.7,3,6.8,6.8,6.8c3.7,0,6.8-3,6.8-6.8c0-3.7-3-6.8-6.8-6.8C51.9,74.8,48.8,77.8,48.8,81.5z
			 M50.1,81.5c0-3,2.5-5.5,5.5-5.5c3,0,5.5,2.5,5.5,5.5c0,3-2.5,5.5-5.5,5.5c-0.3,0-0.5,0-0.8-0.1C52.2,86.6,50.1,84.3,50.1,81.5z"
			/>
	</g>
</g>
<g>
	<g>
		<path class="st40" d="M195.5,86.6c0,0.3,0,0.6,0.1,0.9c0,0.3,0.1,0.6,0.1,0.9c0.5,3.1,1.7,6.1,2.8,9c1.4,3.5,6.6,12,7.9,14.3
			c0,0.1,0.1,0.2,0.1,0.3c0.2,0.3,0.5,0.8,0.8,0.8c0,0,0.1,0,0.1,0c0.3-0.1,0.5-0.4,0.7-0.8c0.1-0.2,0.2-0.4,0.3-0.5
			c1.3-2.4,6.7-10.9,8-14.4c1.1-2.8,2.2-5.8,2.7-8.8c0.6-3.8-1-7.8-3.9-10.3c-3.6-3-8.6-3.8-12.9-1.8
			C198.3,77.9,195.5,82,195.5,86.6z M199.4,87.5c0-4.5,3.6-8.1,8.1-8.1c4.5,0,8.1,3.6,8.1,8.1s-3.6,8.1-8.1,8.1
			c-0.4,0-0.8,0-1.1-0.1C202.4,94.9,199.4,91.6,199.4,87.5z"/>
		
			<linearGradient id="SVGID_4_" gradientUnits="userSpaceOnUse" x1="-3006.8367" y1="101.3362" x2="-2997.2688" y2="81.461" gradientTransform="matrix(-1 0 0 1 -2801.9922 0)">
			<stop  offset="0" style="stop-color:#4EAC42"/>
			<stop  offset="1" style="stop-color:#4EAC42"/>
		</linearGradient>
		<path class="st43" d="M195.5,87.5c0,0.3,0.1,0.6,0.1,0.9c0.5,3.1,1.7,6.1,2.8,9c1.4,3.5,6.6,12,7.9,14.3c0,0.1,0.1,0.2,0.1,0.3
			c0.2,0.3,0.5,0.8,0.8,0.8l0-0.8l0.1-14.4l-1.1-2c-3.9-0.5-7-3.9-7-8H195.5z"/>
		
			<linearGradient id="SVGID_5_" gradientUnits="userSpaceOnUse" x1="-3019.4277" y1="87.4849" x2="-2999.5112" y2="87.4849" gradientTransform="matrix(-1 0 0 1 -2801.9922 0)">
			<stop  offset="0" style="stop-color:#97C11D"/>
			<stop  offset="1" style="stop-color:#106B30"/>
		</linearGradient>
		<path class="st44" d="M197.5,87.5c0,5.5,4.5,10,10,10c5.5,0,10-4.5,10-10c0-5.5-4.5-10-10-10C202,77.5,197.5,82,197.5,87.5z
			 M199.4,87.5c0-4.5,3.6-8.1,8.1-8.1c4.5,0,8.1,3.6,8.1,8.1s-3.6,8.1-8.1,8.1c-0.4,0-0.8,0-1.1-0.1
			C202.4,94.9,199.4,91.6,199.4,87.5z"/>
	</g>
</g>
</svg>
