<?xml version="1.0" encoding="utf-8"?>
<!-- Generator: Adobe Illustrator 22.0.0, SVG Export Plug-In . SVG Version: 6.00 Build 0)  -->
<svg version="1.1" id="Layer_1" xmlns="http://www.w3.org/2000/svg" xmlns:xlink="http://www.w3.org/1999/xlink" x="0px" y="0px"
	 viewBox="0 0 1145.5 807.1" style="enable-background:new 0 0 1145.5 807.1;" xml:space="preserve">
<style type="text/css">
	.st0{fill:#FFFFFF;}
	.st1{fill:#D7F2F9;}
	.st2{fill:#2F2F41;}
	.st3{fill:#808080;}
	.st4{fill:#E6E6E6;}
	.st5{fill:#999999;}
	.st6{fill:#EEF7FF;}
	.st7{fill:#FFB232;}
	.st8{fill:#FF4848;}
	.st9{fill:#F7CB92;}
	.st10{fill:#CCCCCC;}
	.st11{fill:#4D4D4D;}
	.st12{fill:#75736F;}
	.st13{fill:#4EAD42;}
	.st14{fill:#4AAD43;}
	.st15{fill:#333333;}
	.st16{fill:#F2B680;}
	.st17{fill:#191923;}
	.st18{fill:#BF8C60;}
	.st19{fill:#D8AE88;}
	.st20{fill:#CC9F76;}
	.st21{fill:#EFE8D8;}
	.st22{opacity:0.53;fill:#FFFFFF;}
	.st23{opacity:0.57;fill:#FFFFFF;}
	.st24{fill:#354956;}
	.st25{fill:url(#SVGID_1_);}
	.st26{fill:url(#SVGID_2_);}
	.st27{fill:url(#SVGID_3_);}
	.st28{fill:url(#SVGID_4_);}
	.st29{fill:url(#SVGID_5_);}
	.st30{fill:url(#SVGID_6_);}
</style>
<path class="st0" d="M164.8,268.2H51.6c0,0,6-48.4,34.5-15.7c0,0,11.3-66.5,27.4-11.4c0,0,18.1-67,30.8,2.6
	C144.2,243.7,150,224.4,164.8,268.2z"/>
<path class="st1" d="M305.7,72.2h115.7c0,0-6.1-36-35.2-11.7c0,0-11.6-49.5-28-8.5c0,0-18.5-49.9-31.4,1.9
	C326.7,53.9,320.8,39.6,305.7,72.2z"/>
<path class="st0" d="M775.8,86.2H663.5c0,0,5.9-48.4,34.2-15.7c0,0,11.2-66.5,27.2-11.4c0,0,18-67,30.5,2.6
	C755.4,61.7,761.1,42.4,775.8,86.2z"/>
<path class="st0" d="M1018.8,214.2H905.6c0,0,6-48.4,34.5-15.7c0,0,11.3-66.5,27.4-11.4c0,0,18.1-67,30.8,2.6
	C998.3,189.7,1004,170.4,1018.8,214.2z"/>
<g>
	<rect x="165" y="85.5" class="st2" width="238.4" height="383.2"/>
	<g>
		<rect x="182.2" y="98.5" class="st0" width="35.4" height="51.9"/>
		<rect x="238.4" y="98.5" class="st0" width="35.4" height="51.9"/>
		<rect x="294.5" y="98.5" class="st0" width="35.4" height="51.9"/>
		<rect x="350.7" y="98.5" class="st0" width="35.4" height="51.9"/>
	</g>
	<g>
		<rect x="182.2" y="166.5" class="st0" width="35.4" height="51.9"/>
		<rect x="238.4" y="166.5" class="st0" width="35.4" height="51.9"/>
		<rect x="294.5" y="166.5" class="st0" width="35.4" height="51.9"/>
		<rect x="350.7" y="166.5" class="st0" width="35.4" height="51.9"/>
	</g>
	<g>
		<rect x="182.2" y="234.6" class="st0" width="35.4" height="51.9"/>
		<rect x="238.4" y="234.6" class="st0" width="35.4" height="51.9"/>
		<rect x="294.5" y="234.6" class="st0" width="35.4" height="51.9"/>
		<rect x="350.7" y="234.6" class="st0" width="35.4" height="51.9"/>
	</g>
	<g>
		<rect x="182.2" y="302.7" class="st0" width="35.4" height="51.9"/>
		<rect x="238.4" y="302.7" class="st0" width="35.4" height="51.9"/>
		<rect x="294.5" y="302.7" class="st0" width="35.4" height="51.9"/>
		<rect x="350.7" y="302.7" class="st0" width="35.4" height="51.9"/>
	</g>
	<g>
		<rect x="182.2" y="370" class="st0" width="35.4" height="51.9"/>
		<rect x="238.4" y="370" class="st0" width="35.4" height="51.9"/>
		<rect x="294.5" y="370" class="st0" width="35.4" height="51.9"/>
		<rect x="350.7" y="370" class="st0" width="35.4" height="51.9"/>
	</g>
</g>
<g>
	<rect x="410.4" y="111.2" class="st2" width="123.1" height="541.1"/>
	<g>
		<g>
			<rect x="419.6" y="118.6" class="st0" width="106.2" height="9.1"/>
			<rect x="419.6" y="138.1" class="st0" width="106.2" height="9.1"/>
			<rect x="419.6" y="156.5" class="st0" width="106.2" height="9.1"/>
			<rect x="419.6" y="175.9" class="st0" width="106.2" height="9.1"/>
			<rect x="419.6" y="192.9" class="st0" width="106.2" height="9.1"/>
			<rect x="419.6" y="212.4" class="st0" width="106.2" height="9.1"/>
			<rect x="419.6" y="230.8" class="st0" width="106.2" height="9.1"/>
			<rect x="419.6" y="250.2" class="st0" width="106.2" height="9.1"/>
		</g>
		<g>
			<rect x="419.6" y="269.9" class="st0" width="106.2" height="9.1"/>
			<rect x="419.6" y="289.3" class="st0" width="106.2" height="9.1"/>
			<rect x="419.6" y="307.7" class="st0" width="106.2" height="9.1"/>
			<rect x="419.6" y="327.2" class="st0" width="106.2" height="9.1"/>
			<rect x="419.6" y="344.2" class="st0" width="106.2" height="9.1"/>
			<rect x="419.6" y="363.6" class="st0" width="106.2" height="9.1"/>
			<rect x="419.6" y="382" class="st0" width="106.2" height="9.1"/>
			<rect x="419.6" y="401.4" class="st0" width="106.2" height="9.1"/>
		</g>
		<g>
			<rect x="419.6" y="421.1" class="st0" width="106.2" height="9.1"/>
			<rect x="419.6" y="440.6" class="st0" width="106.2" height="9.1"/>
			<rect x="419.6" y="459" class="st0" width="106.2" height="9.1"/>
			<rect x="419.6" y="478.4" class="st0" width="106.2" height="9.1"/>
			<rect x="419.6" y="495.4" class="st0" width="106.2" height="9.1"/>
			<rect x="419.6" y="514.8" class="st0" width="106.2" height="9.1"/>
			<rect x="419.6" y="533.2" class="st0" width="106.2" height="9.1"/>
			<rect x="419.6" y="552.7" class="st0" width="106.2" height="9.1"/>
		</g>
	</g>
</g>
<g>
	<rect x="752.4" y="83.2" class="st2" width="165.2" height="569.1"/>
	<g>
		<g>
			<rect x="764.8" y="91" class="st0" width="142.5" height="9.6"/>
			<rect x="764.8" y="111.5" class="st0" width="142.5" height="9.6"/>
			<rect x="764.8" y="130.8" class="st0" width="142.5" height="9.6"/>
			<rect x="764.8" y="151.3" class="st0" width="142.5" height="9.6"/>
			<rect x="764.8" y="169.2" class="st0" width="142.5" height="9.6"/>
			<rect x="764.8" y="189.6" class="st0" width="142.5" height="9.6"/>
			<rect x="764.8" y="209" class="st0" width="142.5" height="9.6"/>
			<rect x="764.8" y="229.4" class="st0" width="142.5" height="9.6"/>
		</g>
		<g>
			<rect x="764.8" y="250.1" class="st0" width="142.5" height="9.6"/>
			<rect x="764.8" y="270.5" class="st0" width="142.5" height="9.6"/>
			<rect x="764.8" y="289.9" class="st0" width="142.5" height="9.6"/>
			<rect x="764.8" y="310.3" class="st0" width="142.5" height="9.6"/>
			<rect x="764.8" y="328.2" class="st0" width="142.5" height="9.6"/>
			<rect x="764.8" y="348.7" class="st0" width="142.5" height="9.6"/>
			<rect x="764.8" y="368" class="st0" width="142.5" height="9.6"/>
			<rect x="764.8" y="388.5" class="st0" width="142.5" height="9.6"/>
		</g>
		<g>
			<rect x="764.8" y="409.2" class="st0" width="142.5" height="9.6"/>
			<rect x="764.8" y="429.6" class="st0" width="142.5" height="9.6"/>
			<rect x="764.8" y="448.9" class="st0" width="142.5" height="9.6"/>
			<rect x="764.8" y="469.4" class="st0" width="142.5" height="9.6"/>
			<rect x="764.8" y="487.3" class="st0" width="142.5" height="9.6"/>
			<rect x="764.8" y="507.7" class="st0" width="142.5" height="9.6"/>
			<rect x="764.8" y="527.1" class="st0" width="142.5" height="9.6"/>
			<rect x="764.8" y="547.5" class="st0" width="142.5" height="9.6"/>
		</g>
	</g>
</g>
<g>
	<rect x="553.7" y="99.3" class="st2" width="181" height="474"/>
	<rect x="583.7" y="149.3" class="st0" width="39.5" height="55.4"/>
	<rect x="660.1" y="136.9" class="st0" width="57.8" height="57.8"/>
	<rect x="640.8" y="218.8" class="st0" width="33.2" height="33.2"/>
	<rect x="579.1" y="253.2" class="st0" width="48.6" height="74.7"/>
	<rect x="659.4" y="278.1" class="st0" width="43.9" height="43.9"/>
	<rect x="634.2" y="357.4" class="st0" width="71.5" height="71.5"/>
	<rect x="579.1" y="394.7" class="st0" width="36.8" height="36.8"/>
	<rect x="593.5" y="471.1" class="st0" width="79.8" height="56.6"/>
</g>
<rect x="173.6" y="529.4" class="st3" width="760.6" height="127.7"/>
<path class="st4" d="M969.1,580.8l-4.3-28.2c-2.2-14.5-8.9-27.7-18.8-37.2c-15.9-15.4-44.8-38.6-90.3-60.1L731.9,333.2
	c-8.6-8.4-19.5-13.1-30.9-13.1H199.9c-23.1,0-42.8,19-46.4,44.8l-19.4,141.6v135.9L122.9,665c-3.9,7.8,0.2,17.5,8,19.1l74.5,14.9
	h0.2c8.6,0,15-7.8,13.5-16.2c-0.9-4.8-1.3-9.7-1.3-14.7c0-45.6,36.8-82.7,82.4-83c46.1-0.3,83.5,37,83.5,83c0,2.7-0.1,5.4-0.4,8.1
	c-1.2,12.2,8.3,22.8,20.6,22.8h312.7c12.2,0,21.8-10.5,20.7-22.7c-0.3-2.7-0.4-5.4-0.4-8.2c0-45.6,36.8-82.7,82.4-83
	c46.1-0.3,83.5,37,83.5,83c0,3.7-0.2,7.3-0.7,10.9c-1.4,10.6,6.8,20,17.5,20h3.7H937c7.7,0,15.4-1.9,22.2-5.5l11.1-5.9
	c10.4-5.5,16.9-16.3,16.9-28.1v-48.3c0-10.9-5.2-21.1-14.1-27.5L969.1,580.8z"/>
<path class="st3" d="M707.4,633.4H560c-3.7,0-6.7-3-6.7-6.7L553,342.3c0-1.8,0.7-3.5,2-4.8c1.3-1.3,3-2,4.8-2h158.1
	c1.8,0,3.5,0.7,4.8,2l121.4,121.6c1.3,1.3,2,3,2,4.8v83.5c0,1.9-0.8,3.7-2.2,5c-1.4,1.3-3.3,1.9-5.2,1.7
	c-81.2-7.9-116.2,55.6-125,75.2C712.5,631.8,710,633.4,707.4,633.4z M559.7,335.8c-1.7,0-3.4,0.7-4.6,1.9c-1.2,1.2-1.9,2.8-1.9,4.6
	l0.3,284.4c0,3.6,2.9,6.5,6.5,6.5h147.4c2.5,0,4.9-1.5,5.9-3.8c3.7-8.2,14.4-29.3,34.5-47.1c11.3-10,23.9-17.5,37.4-22.3
	c16.3-5.8,34.3-7.9,53.3-6c1.8,0.2,3.6-0.4,5-1.7c1.3-1.2,2.1-3,2.1-4.8v-83.5c0-1.7-0.7-3.3-1.9-4.6L722.4,337.7
	c-1.2-1.2-2.9-1.9-4.6-1.9H559.7z"/>
<path class="st5" d="M529,633.5H407.5c-3.8,0-7.1-2.6-8-6.3c-5.3-21.8-25.5-72.3-99.1-72.3c-74.8,0-96,55.6-100.7,72.6
	c-1,3.6-4.3,6.1-8,6.1h-23.8c-4.6,0-8.3-3.7-8.3-8.3v-132c0-0.3,0-0.6,0.1-0.9l17.2-149.6c0.5-4.2,4-7.3,8.2-7.3H529
	c4.6,0,8.3,3.7,8.3,8.3v281.6C537.2,629.8,533.5,633.5,529,633.5z M300.4,554.6c29.8,0,54,8.3,71.9,24.7
	c16.9,15.5,24.3,34.6,27.5,47.8c0.9,3.6,4.1,6.1,7.8,6.1H529c4.4,0,8-3.6,8-8V343.7c0-4.4-3.6-8-8-8H185.1c-4.1,0-7.5,3-7.9,7.1
	L160,492.4c0,0.3-0.1,0.6-0.1,0.9v132c0,4.4,3.6,8,8,8h23.8c3.6,0,6.8-2.4,7.7-5.9c2.6-9.4,9.2-27.4,24.4-43.3
	C242.6,564.5,268.4,554.6,300.4,554.6z"/>
<path class="st6" d="M563,361.4v102c0,7.1,5.7,12.8,12.8,12.8h239.5c11.6,0,17.2-14.1,8.8-22.1l-98.5-93.5
	c-7.7-7.3-17.9-11.4-28.6-11.5l-121.2-0.6C568.8,348.6,563,354.3,563,361.4z"/>
<g>
	<line class="st7" x1="159.7" y1="492.4" x2="537.1" y2="492.4"/>
	<rect x="159.7" y="492" class="st5" width="377.4" height="0.8"/>
</g>
<g>
	<line class="st7" x1="552.7" y1="492.4" x2="845.2" y2="492.4"/>
	<rect x="552.7" y="492" class="st5" width="292.5" height="0.8"/>
</g>
<rect x="134.3" y="516.4" class="st8" width="14.5" height="80.3"/>
<path class="st9" d="M970.4,578.6l-5.2-26.1c-0.3-1.2-2.1-2.2-3.3-2.5c-9.1-2.1-46-9.9-59.7-4.1c-3.2,1.4-4.3,5.4-2.2,8.2l13.7,18.2
	c1.8,2.4,4.5,3.9,7.4,4.2l46.4,5.3C969.3,582.1,970.8,580.4,970.4,578.6z"/>
<ellipse class="st10" cx="493.4" cy="518.2" rx="35.6" ry="20.8"/>
<g>
	<path class="st3" d="M130.9,684.1l74.5,14.9h0.2c8.6,0,15-7.8,13.5-16.2c-0.9-4.8-1.3-9.7-1.3-14.7c0-8.3,1.2-16.3,3.5-23.9h-88
		L122.9,665C119,672.8,123.1,682.5,130.9,684.1z"/>
	<path class="st3" d="M899.3,644.2c2.3,7.6,3.5,15.6,3.5,23.9c0,3.7-0.2,7.3-0.7,10.9c-1.4,10.6,6.8,20,17.5,20h3.7H937
		c7.7,0,15.4-1.9,22.2-5.5l11.1-5.9c10.4-5.5,16.9-16.3,16.9-28.1v-15.3H899.3z"/>
	<path class="st3" d="M380.2,644.2c2.3,7.6,3.5,15.6,3.5,23.9c0,2.7-0.1,5.4-0.4,8.1c-1.2,12.2,8.3,22.8,20.6,22.8h312.7
		c12.2,0,21.8-10.5,20.7-22.7c-0.3-2.7-0.4-5.4-0.4-8.2c0-8.3,1.2-16.3,3.5-23.9H380.2z"/>
</g>
<path class="st3" d="M516.4,525H477c-4.2,0-7.7-3.4-7.7-7.7l0,0c0-4.2,3.4-7.7,7.7-7.7h39.5c4.2,0,7.7,3.4,7.7,7.7v0
	C524.1,521.6,520.7,525,516.4,525z"/>
<g>
	
		<ellipse transform="matrix(0.4472 -0.8944 0.8944 0.4472 -432.9362 639.0544)" class="st3" cx="300.5" cy="669.8" rx="30.8" ry="30.8"/>
	<path class="st4" d="M300.5,622.5c-26.1,0-47.3,21.2-47.3,47.3c0,26.1,21.2,47.3,47.3,47.3s47.3-21.2,47.3-47.3
		C347.8,643.7,326.6,622.5,300.5,622.5z M319.7,637c0.8-1.3,2.6-1.6,3.7-0.5l5.2,5.2l5.2,5.2c1.1,1.1,0.8,2.9-0.5,3.7l-14.5,8.3
		l-9.8,5.6c-2,1.2-4.3-1.1-3.2-3.2l5.6-9.8L319.7,637z M293.2,630.1h7.4h7.4c1.5,0,2.6,1.5,2.2,2.9l-4.4,16.1l-3,10.9
		c-0.6,2.3-3.9,2.3-4.5,0l-3-10.9l-4.4-16.1C290.5,631.5,291.6,630.1,293.2,630.1z M267.2,646.9l5.2-5.2l5.2-5.2
		c1.1-1.1,2.9-0.8,3.7,0.5l8.3,14.5l5.6,9.8c1.2,2-1.1,4.3-3.2,3.2l-9.8-5.6l-14.5-8.3C266.4,649.8,266.2,648,267.2,646.9z
		 M260.8,677.1v-7.4v-7.4c0-1.5,1.5-2.6,2.9-2.2l16.1,4.4l10.9,3c2.3,0.6,2.3,3.9,0,4.5l-10.9,3l-16.1,4.4
		C262.3,679.8,260.8,678.7,260.8,677.1z M281.3,702.6c-0.8,1.3-2.6,1.6-3.7,0.5l-5.2-5.2l-5.2-5.2c-1.1-1.1-0.8-2.9,0.5-3.7
		l14.5-8.3l9.8-5.6c2-1.2,4.3,1.1,3.2,3.2l-5.6,9.8L281.3,702.6z M307.9,709.5h-7.4h-7.4c-1.5,0-2.6-1.5-2.2-2.9l4.4-16.1l3-10.9
		c0.6-2.3,3.8-2.3,4.5,0l3,10.9l4.4,16.1C310.5,708,309.4,709.5,307.9,709.5z M333.8,692.6l-5.2,5.2l-5.2,5.2
		c-1.1,1.1-2.9,0.8-3.7-0.5l-8.3-14.5l-5.6-9.8c-1.2-2,1.1-4.3,3.2-3.2l9.8,5.6l14.5,8.3C334.6,689.7,334.9,691.5,333.8,692.6z
		 M340.2,677.1c0,1.5-1.5,2.6-2.9,2.2l-16.1-4.4l-10.9-3c-2.3-0.6-2.3-3.9,0-4.5l10.9-3l16.1-4.4c1.5-0.4,2.9,0.7,2.9,2.2v7.4V677.1
		z"/>
	<path class="st11" d="M300.5,743.5c-19.7,0-38.2-7.7-52.1-21.6c-13.9-13.9-21.6-32.4-21.6-52.1c0-19.7,7.7-38.2,21.6-52.1
		c13.9-13.9,32.4-21.6,52.1-21.6c19.7,0,38.2,7.7,52.1,21.6c13.9,13.9,21.6,32.4,21.6,52.1c0,19.7-7.7,38.2-21.6,52.1
		C338.7,735.8,320.2,743.5,300.5,743.5z M300.5,623.5c-25.5,0-46.3,20.8-46.3,46.3s20.8,46.3,46.3,46.3s46.3-20.8,46.3-46.3
		S326.1,623.5,300.5,623.5z"/>
</g>
<g>
	
		<ellipse transform="matrix(0.2298 -0.9732 0.9732 0.2298 -20.1967 1314.0149)" class="st3" cx="820.1" cy="669.8" rx="30.8" ry="30.8"/>
	<path class="st4" d="M820.1,622.5c-26.1,0-47.3,21.2-47.3,47.3c0,26.1,21.2,47.3,47.3,47.3c26.1,0,47.3-21.2,47.3-47.3
		C867.3,643.7,846.2,622.5,820.1,622.5z M839.3,637c0.8-1.3,2.6-1.6,3.7-0.5l5.2,5.2l5.2,5.2c1.1,1.1,0.8,2.9-0.5,3.7l-14.5,8.3
		l-9.8,5.6c-2,1.2-4.3-1.1-3.2-3.2l5.6-9.8L839.3,637z M812.7,630.1h7.4h7.4c1.5,0,2.6,1.5,2.2,2.9l-4.4,16.1l-3,10.9
		c-0.6,2.3-3.8,2.3-4.5,0l-3-10.9l-4.4-16.1C810.1,631.5,811.2,630.1,812.7,630.1z M786.8,646.9l5.2-5.2l5.2-5.2
		c1.1-1.1,2.9-0.8,3.7,0.5l8.3,14.5l5.6,9.8c1.2,2-1.1,4.3-3.2,3.2l-9.8-5.6l-14.5-8.3C786,649.8,785.7,648,786.8,646.9z
		 M780.4,677.1v-7.4v-7.4c0-1.5,1.5-2.6,2.9-2.2l16.1,4.4l10.9,3c2.3,0.6,2.3,3.9,0,4.5l-10.9,3l-16.1,4.4
		C781.8,679.8,780.4,678.7,780.4,677.1z M800.9,702.6c-0.8,1.3-2.6,1.6-3.7,0.5l-5.2-5.2l-5.2-5.2c-1.1-1.1-0.8-2.9,0.5-3.7
		l14.5-8.3l9.8-5.6c2-1.2,4.3,1.1,3.2,3.2l-5.6,9.8L800.9,702.6z M827.4,709.5h-7.4h-7.4c-1.5,0-2.6-1.5-2.2-2.9l4.4-16.1l3-10.9
		c0.6-2.3,3.9-2.3,4.5,0l3,10.9l4.4,16.1C830.1,708,829,709.5,827.4,709.5z M853.3,692.6l-5.2,5.2l-5.2,5.2
		c-1.1,1.1-2.9,0.8-3.7-0.5L831,688l-5.6-9.8c-1.2-2,1.1-4.3,3.2-3.2l9.8,5.6l14.5,8.3C854.2,689.7,854.4,691.5,853.3,692.6z
		 M859.8,677.1c0,1.5-1.5,2.6-2.9,2.2l-16.1-4.4l-10.9-3c-2.3-0.6-2.3-3.9,0-4.5l10.9-3l16.1-4.4c1.5-0.4,2.9,0.7,2.9,2.2v7.4V677.1
		z"/>
	<path class="st11" d="M820.1,743.5c-19.7,0-38.2-7.7-52.1-21.6c-13.9-13.9-21.6-32.4-21.6-52.1c0-19.7,7.7-38.2,21.6-52.1
		c13.9-13.9,32.4-21.6,52.1-21.6c19.7,0,38.2,7.7,52.1,21.6c13.9,13.9,21.6,32.4,21.6,52.1c0,19.7-7.7,38.2-21.6,52.1
		C858.3,735.8,839.8,743.5,820.1,743.5z M820.1,623.5c-25.5,0-46.3,20.8-46.3,46.3s20.8,46.3,46.3,46.3s46.3-20.8,46.3-46.3
		S845.6,623.5,820.1,623.5z"/>
</g>
<path class="st12" d="M983.2,607.8h-32.5c-4.5,0-8.6,2.9-10.1,7.2l-2.8,8c-1.9,5.3,2.1,10.9,7.7,10.9h38.6c1.7,0,3-1.4,3-3
	l-0.2-19.3C986.9,609.4,985.2,607.8,983.2,607.8z"/>
<ellipse class="st10" cx="796.9" cy="464.9" rx="35.6" ry="20.8"/>
<g>
	<path d="M281.5,387.3h67l4.1-6.5h-71.1c-1.9,0-3.6,0.3-5.1,0.8c-1.5,0.5-2.7,1.3-3.7,2.2c-1,0.9-1.8,2-2.3,3.3
		c-0.5,1.3-0.8,2.7-0.8,4.2c0,1.5,0.3,3,0.8,4.3c0.5,1.3,1.3,2.4,2.3,3.4c1,0.9,2.2,1.7,3.7,2.2c1.5,0.5,3.1,0.8,4.9,0.8H299
		c1.8,0,3.2,0.4,4.1,1.2c1,0.8,1.5,2,1.5,3.6c0,1.5-0.5,2.7-1.5,3.6c-1,0.9-2.3,1.3-4.1,1.3h-56.8l-4,6.5h42c2.5-3,6.3-4.9,10.6-4.9
		c4.2,0,8,1.8,10.5,4.7c1.1-0.1,2.1-0.4,3-0.7c1.5-0.5,2.7-1.3,3.7-2.3c1-1,1.7-2.1,2.2-3.5c0.5-1.3,0.7-2.8,0.7-4.4
		c0-3.6-1-6.3-3-8.1c-2-1.8-5-2.7-8.9-2.7h-17.6c-1.5,0-2.7-0.4-3.5-1.2c-0.9-0.8-1.3-1.9-1.3-3.3c0-1.4,0.4-2.6,1.3-3.4
		C278.7,387.7,279.9,387.3,281.5,387.3"/>
	<polygon class="st13" points="311.6,380.8 311.6,418.2 318.3,418.2 318.3,387.3 348.4,387.3 352.6,380.8 	"/>
	<polygon class="st13" points="342.6,397 339.2,402.7 323.2,402.7 323.2,397 	"/>
	<polygon class="st13" points="372.9,408.8 354.8,408.8 357.9,403.5 369.7,403.5 	"/>
	<path d="M423.5,399.1c-2-1.8-5-2.7-8.9-2.7H397c-1.5,0-2.6-0.4-3.5-1.2c-0.9-0.8-1.3-1.9-1.3-3.3c0-1.4,0.4-2.6,1.3-3.4
		c0.8-0.8,2-1.2,3.6-1.2h65.7l4-6.5l-69.8,0c-1.9,0-3.6,0.3-5.1,0.8c-1.5,0.5-2.7,1.3-3.7,2.2c-1,0.9-1.8,2-2.3,3.3
		c-0.5,1.3-0.8,2.7-0.8,4.2c0,1.5,0.3,3,0.8,4.3c0.5,1.3,1.3,2.4,2.3,3.4c1,0.9,2.2,1.7,3.7,2.2c1.5,0.5,3.1,0.8,4.9,0.8h17.6
		c1.8,0,3.2,0.4,4.1,1.2c1,0.8,1.5,2,1.5,3.6c0,1.5-0.5,2.7-1.5,3.6c-1,0.9-2.4,1.3-4.1,1.3l-40-0.1l4.1,6.7l18.8,0
		c2.5-3,6.3-4.9,10.6-4.9c4.1,0,7.7,1.7,10.3,4.5c0.5-0.1,1-0.3,1.5-0.4c1.5-0.5,2.7-1.3,3.7-2.3c1-1,1.7-2.1,2.2-3.5
		c0.5-1.3,0.7-2.8,0.7-4.4C426.6,403.6,425.5,400.9,423.5,399.1"/>
	<path class="st13" d="M364.7,382.4c-0.4-0.7-0.8-1.2-1.3-1.5c-0.5-0.4-1.1-0.6-1.9-0.6s-1.4,0.2-1.9,0.6c-0.5,0.4-1,0.9-1.4,1.5
		l-22.1,35.8h7.7l17.4-28.7l8.3,13.6l0.3,0.4l3.2,5.3h0l5.8,9.4h8.1L364.7,382.4z"/>
	<polygon class="st13" points="439.6,418.2 439.6,387.3 425,387.3 425,380.8 466.9,380.8 462.8,387.3 446.3,387.3 446.3,418.2 	"/>
	<path class="st13" d="M290.6,415.6c-6.8,0-12.3,5.4-12.3,12c0,6.6,5.5,12,12.3,12c6.8,0,12.3-5.4,12.3-12
		C303,421,297.5,415.6,290.6,415.6 M290.6,434.5c-3.8,0-6.8-3.1-6.8-6.9c0-3.8,3.1-6.9,6.8-6.9c3.8,0,6.8,3.1,6.8,6.9
		C297.5,431.4,294.4,434.5,290.6,434.5"/>
	<path class="st13" d="M408,415.6c-6.8,0-12.3,5.4-12.3,12c0,6.6,5.5,12,12.3,12c6.8,0,12.3-5.4,12.3-12
		C420.3,421,414.8,415.6,408,415.6 M408,434.5c-3.8,0-6.8-3.1-6.8-6.9c0-3.8,3.1-6.9,6.8-6.9s6.8,3.1,6.8,6.9
		C414.9,431.4,411.8,434.5,408,434.5"/>
	<path class="st13" d="M293,427.6c0,1.3-1.1,2.3-2.3,2.3c-1.3,0-2.3-1-2.3-2.3c0-1.3,1.1-2.3,2.3-2.3
		C291.9,425.3,293,426.4,293,427.6"/>
	<path class="st13" d="M410.4,427.6c0,1.3-1.1,2.3-2.3,2.3c-1.3,0-2.3-1-2.3-2.3c0-1.3,1.1-2.3,2.3-2.3
		C409.3,425.3,410.4,426.4,410.4,427.6"/>
	<path class="st13" d="M258.1,406.1h-20H258.1z"/>
	<path class="st13" d="M258.1,405.3h-20c-0.4,0-0.8,0.4-0.8,0.8c0,0.4,0.4,0.8,0.8,0.8h20c0.4,0,0.8-0.4,0.8-0.8c0-1-1.6-1-1.6,0
		L258.1,405.3h-20l0.8,0.8l-0.8,0.8h20C259.2,406.9,259.2,405.3,258.1,405.3"/>
	<path class="st13" d="M265.3,397.2h-20H265.3z"/>
	<path class="st13" d="M265.3,396.4h-20c-0.4,0-0.8,0.4-0.8,0.8c0,0.4,0.4,0.8,0.8,0.8h20c0.4,0,0.8-0.4,0.8-0.8c0-1-1.6-1-1.6,0
		L265.3,396.4h-20l0.8,0.8l-0.8,0.8h20C266.4,398,266.4,396.4,265.3,396.4"/>
	<path class="st13" d="M263.9,387.8h-20H263.9z"/>
	<path class="st13" d="M263.9,387h-20c-0.4,0-0.8,0.4-0.8,0.8c0,0.4,0.4,0.8,0.8,0.8h20c0.4,0,0.8-0.4,0.8-0.8c0-1-1.6-1-1.6,0
		L263.9,387h-20l0.8,0.8l-0.8,0.8h20C264.9,388.6,264.9,387,263.9,387"/>
	<polygon class="st14" points="323.2,423.4 318.1,436.3 316.3,436.3 317.3,430.2 315,436.3 313.2,436.3 315.1,423.4 317,423.4 
		315.4,431.6 318.3,423.4 320.1,423.4 318.5,431.6 321.4,423.4 	"/>
	<polygon class="st14" points="331.7,423.4 326.6,436.3 324.8,436.3 325.8,430.2 323.4,436.3 321.6,436.3 323.6,423.4 325.4,423.4 
		323.8,431.6 326.8,423.4 328.5,423.4 326.9,431.6 329.8,423.4 	"/>
	<polygon class="st14" points="340.1,423.4 335,436.3 333.2,436.3 334.2,430.2 331.9,436.3 330,436.3 332,423.4 333.9,423.4 
		332.3,431.6 335.2,423.4 337,423.4 335.4,431.6 338.3,423.4 	"/>
	<path d="M338.6,436.4c-0.5,0-0.9-0.5-0.9-1.1c0-0.6,0.4-1.1,0.9-1.1c0.5,0,0.9,0.5,0.9,1.1C339.5,435.9,339.1,436.4,338.6,436.4"/>
	<path class="st14" d="M346.2,433.7c-0.2,0.8-0.5,1.5-1.1,2.1c-0.5,0.5-1,0.7-1.8,0.7c-0.7,0-1.1-0.2-1.4-0.7
		c-0.4-0.6-0.5-1.3-0.3-2.1l0.4-2.1h2l-0.4,2.2c-0.1,0.4,0.2,0.4,0.3,0.4c0.1,0,0.3,0,0.4-0.4l0.3-1.6c0.1-0.6,0-0.6-0.4-1.2
		l-1.1-1.7c-0.3-0.5-0.4-0.9-0.2-1.7c0,0,0.3-1.6,0.3-1.6c0.2-0.8,0.5-1.5,1.1-2.1c0.5-0.5,1-0.7,1.7-0.7c0.7,0,1.1,0.2,1.4,0.7
		c0.4,0.6,0.5,1.3,0.3,2.1l-0.4,1.9h-2l0.4-2c0.1-0.3-0.1-0.4-0.2-0.4c-0.1,0-0.3,0.1-0.4,0.4l-0.3,1.5c-0.1,0.6,0.1,0.7,0.4,1.1
		l1.2,1.6c0.3,0.6,0.3,1.1,0.1,2L346.2,433.7z"/>
	<polygon class="st14" points="350.5,423.4 354.5,423.4 354,425.6 352.2,425.6 351.5,429 352.8,429 352.5,430.9 351.1,430.9 
		350,436.3 347.9,436.3 	"/>
	<path class="st14" d="M356.1,436.3l0.2-1.9h-1l-0.5,1.9h-2.1l4.3-12.9h2.1l-0.9,12.9H356.1L356.1,436.3z M356.6,432.5l0.7-5.2
		l-1.4,5.2H356.6z"/>
	<path class="st14" d="M364.8,433.7c-0.2,0.8-0.5,1.5-1.1,2.1c-0.5,0.5-1,0.7-1.8,0.7c-0.7,0-1.1-0.2-1.4-0.7
		c-0.4-0.6-0.5-1.3-0.3-2.1l0.4-2.1h2l-0.4,2.2c-0.1,0.4,0.2,0.4,0.3,0.4c0.1,0,0.3,0,0.4-0.4l0.3-1.6c0.1-0.6,0-0.6-0.4-1.2
		l-1.1-1.7c-0.3-0.5-0.4-0.9-0.2-1.7c0,0,0.3-1.6,0.3-1.6c0.2-0.8,0.5-1.5,1.1-2.1c0.5-0.5,1-0.7,1.7-0.7c0.7,0,1.1,0.2,1.4,0.7
		c0.4,0.6,0.5,1.3,0.3,2.1l-0.4,1.9h-2l0.4-2c0.1-0.3-0.1-0.4-0.2-0.4c-0.1,0-0.3,0.1-0.4,0.4l-0.3,1.5c-0.1,0.6,0.1,0.7,0.4,1.1
		l1.2,1.6c0.3,0.6,0.3,1.1,0.1,2L364.8,433.7z"/>
	<polygon class="st14" points="369.5,425.6 368.1,425.6 368.6,423.4 373.3,423.4 372.9,425.6 371.5,425.6 369.4,436.3 367.3,436.3 	
		"/>
	<path d="M372.9,436.4c-0.5,0-0.9-0.5-0.9-1.1c0-0.6,0.4-1.1,0.9-1.1c0.5,0,0.9,0.5,0.9,1.1C373.7,435.9,373.3,436.4,372.9,436.4"/>
	<path class="st14" d="M378.7,431.2h2l-0.7,2.5c-0.2,0.9-0.7,1.5-1.3,2.1c-0.6,0.5-1.2,0.7-1.8,0.7c-0.6,0-1.2-0.2-1.4-0.7
		c-0.3-0.6-0.4-1.2-0.1-2.1l2.1-7.7c0.2-0.9,0.7-1.5,1.3-2.1c0.6-0.5,1.2-0.7,1.8-0.7c0.6,0,1.2,0.2,1.4,0.7
		c0.3,0.6,0.4,1.2,0.1,2.1l-0.7,2.6h-2l0.8-2.8c0.1-0.4-0.1-0.4-0.2-0.4c-0.1,0-0.4,0-0.5,0.4l-2.2,8c-0.1,0.4,0.1,0.4,0.2,0.4
		c0.1,0,0.4,0,0.5-0.4L378.7,431.2z"/>
	<polygon class="st14" points="383.4,423.4 385.5,423.4 382.6,434 384.5,434 383.9,436.3 379.9,436.3 	"/>
</g>
<rect x="127" y="742.6" class="st15" width="850.8" height="11"/>
<path class="st1" d="M1102.2,312.4h-83.4c0,0,4.4-35.7,25.4-11.6c0,0,8.4-49,20.2-8.4c0,0,13.3-49.4,22.7,1.9
	C1087.1,294.3,1091.3,280.2,1102.2,312.4z"/>
<g>
	<g>
		<path class="st16" d="M666.5,650.9v98.8c0,0,10.3,15.9,20.2-10.9c1.7-14.5,3.3-29,5-43.4c2.4-21.2,7.2-42.2,7-63.6
			c-0.1-6.6,0.1-14.1-6.3-18.4c-4-2.8-18.7-4.6-21.5,0.7C671,614.1,666.5,622.4,666.5,650.9z"/>
		<path class="st16" d="M590,652l-5.6,98.7c0,0,9.3,16.4,20.8-9.9c5.2-30.1,13-59.8,16.7-90.1c1.2-9.3,5.1-23.2-1.1-31.7
			c-3.6-5-19.8-11-24.3-3.6C596.5,615.4,591.6,623.6,590,652z"/>
		<path class="st16" d="M615,742.4c8,4.8,15.9,10.5,18.7,12.4c0,0,19.4,13.1-2.4,11.3c-21-1.7-40.4-6.7-40.4-6.7s-20-5.1,4-23.3
			C598.3,733.6,606.7,737.5,615,742.4z"/>
		<path class="st16" d="M698.5,741.7c8,5.1,15.9,11,18.4,12.8c0,0,18.6,14-3,11.2C693,762.9,674,757,674,757s-19.6-6.1,5.3-23.1
			C682,732.1,690.3,736.5,698.5,741.7z"/>
		<polygon points="684.1,479.1 586.2,484.1 583.7,612.8 579,732 613.9,732.1 632.5,619.4 636.6,529.5 659.3,618.4 664.1,732.1 
			700.2,732.1 706.8,617.4 		"/>
		<path class="st17" d="M665.4,732.1h33.9c2.1,0,3.8-1.6,3.8-3.5v-8.1c0-2-1.7-3.5-3.8-3.5h-33.9c-2.1,0-3.8,1.6-3.8,3.5v8.1
			C661.6,730.5,663.3,732.1,665.4,732.1z"/>
		<path class="st17" d="M581.1,732.9l30.7,2.4c1.9,0.1,3.6-1.2,3.7-2.9l0.8-8.7c0.2-1.8-1.3-3.3-3.2-3.5l-30.7-2.4
			c-1.9-0.1-3.6,1.2-3.7,2.9l-0.8,8.7C577.8,731.1,579.2,732.7,581.1,732.9z"/>
		<path class="st17" d="M686.5,485.1l4.2,33.3c0,0-17.8,9.1-27.6-24.4L686.5,485.1z"/>
		<path class="st17" d="M586.7,498.5l-0.3,33.3c0,0,17.2,9.1,27-24.4L586.7,498.5z"/>
		<path class="st18" d="M556.3,456.8c-7.5-2.8,13.5-75.3,14.9-81.5c1.4-6.1,37-9.8,25,28.5C584.4,441.7,580,465.7,556.3,456.8z"/>
		<g>
			<g>
				<path class="st0" d="M696.9,431.2c0.8-0.6,1.8-1,2.8-1.1c12.9-1.9,25.9-1.5,38.9-1.9c8.9-0.3,17.9-1.2,26.8-1
					c6.2,0.2,12.3,0.8,18.5,0.4c5.5-0.3,11.7-3.9,17-3.1c3.5,0.5,6.7,1.9,9.8,3.2c1.8,0.8,3.7,1.6,5.2,2.8c0.8,0.7,1.5,1.6,1.8,2.6
					c0.3,1-0.8,1.8-1.9,1.5c-5.3-1.7-10.4-3.6-15.5-5.7c10.2,4.5,20.4,9.3,30.7,13.8c1.4,0.6,2.2,1.5,1.9,3.1
					c-0.1,0.5-0.5,1-1.1,1.1c-2,0.6-3.9-0.2-5.7-1.1c-4.1-1.9-8.3-3.8-12.4-5.8l18.1,9.2c0.3,0.1,0.5,0.3,0.8,0.5
					c1.6,1.5-0.3,2.8-1.9,2.7c-1.2-0.1-2.1-0.5-3.2-0.9c-6.3-2.6-11.3-6.5-17.6-8.5c4.4,2.3,8.8,4.6,13.2,6.9
					c1.3,0.7,2.7,1.5,3.4,2.7c0.4,0.8,0.1,1.8-0.7,2.3c-1.6,0.9-3.4,0-4.8-0.9c-4.4-3-9.1-5.1-14-7.3c-0.3-0.1-0.6,0.2-0.5,0.4
					c1.3,1.8,3.8,3,5.9,4.2c1.8,1,3.7,2.3,4.5,3.9c0.4,0.8-0.5,1.7-1.5,1.4c-3.8-1.1-7.3-2.8-10.7-4.6c-1-0.5-2.1-1-3.1-1.6
					c-4.5-2.3-12.7-10.1-17.7-10.2c-11.7-0.2-25.6,3.7-37.2,5.4c-10.4,1.5-20.7,2.9-31.1,4.4c-6.1,0.9-15.1,1.3-20-3.3
					C691.5,442.5,692.5,434.2,696.9,431.2z"/>
			</g>
			<g>
				<path class="st0" d="M783.5,427.2c0,0,12.2-4.1,17.7-3.2c3.6,0.6,6.9,1.9,10.2,3.3c1.9,0.8,3.9,1.6,5.4,2.9
					c0.9,0.7,1.6,1.7,1.9,2.7c0.3,1-0.8,2.4-2,2c-5.5-1.8-10.8-4.3-16.1-6.4c10.6,4.6,21.2,9.7,31.9,14.3c1.5,0.6,2.3,1.5,2,3.2
					c-0.1,0.5-0.5,1-1.1,1.2c-2.1,0.6-4.1,0.3-5.9-0.6c-4.3-2-8.6-4.5-12.9-6.5l18.8,9.6c0.3,0.1,0.6,0.3,0.8,0.5
					c1.6,1.5-0.3,2.9-1.9,2.8c-1.2-0.1-2.2-0.5-3.3-1c-6.6-2.7-12-5.6-18.3-8.9c4.6,2.4,9.1,4.8,13.7,7.2c1.4,0.7,2.9,1.5,3.6,2.8
					c0.4,0.8,0.1,1.9-0.7,2.3c-1.6,0.9-3.5,0-5-0.9c-4.6-3.1-9.4-5.3-14.5-7.6c-0.3-0.1-0.7,0.2-0.5,0.4c1.5,1.8,3.9,2.8,6.2,4.1
					c1.9,1,3.8,2.6,4.7,4.3c0.5,0.9-0.5,1.7-1.6,1.4c-3.9-1.1-7.6-3-11.2-4.8c-1.1-0.5-2.1-1.1-3.2-1.6
					c-4.7-2.4-18.4-10.6-18.4-10.6L783.5,427.2z"/>
			</g>
		</g>
		<path class="st16" d="M619.6,344.3c0.7-1.2,1.2-2.4,1.2-3.5c0-2.2-5.8-26.7-6-26.7c0,0,26-4,26-4c1.4,7.5,2.9,14.9,4.3,22.4
			c1,5.1,4.9,9.4,10.3,11.4c4.7,1.7,9.5,3.2,13.9,3.2c8,1.2-34.6,18.9-34.6,18.9s-32.2-12.4-32.5-12.5
			C607.6,355.6,616.4,349.6,619.6,344.3z"/>
		<path class="st13" d="M653.3,343c0,0-12.6,25.9-35.5,3.6l-28,10.6c-10,3.8-17.5,11.7-20.4,21.4l-17.1,58.2l34.9,7.8l2.3-36.8
			l-11.1,106.6c0,0,97.8,5.9,114.7-20.5l-17.7-90.9l8.3,60.6l34.8-19.3l-13.3-61.7c-2.2-15.9-14.3-29-30.8-33.6L653.3,343z"/>
		<g>
			<path class="st19" d="M651.4,462.6h168.4v-84.5c0-1.5-1.3-2.7-2.9-2.7H653.1c-1,0-1.8,0.7-1.8,1.6V462.6z"/>
			<path class="st20" d="M650.4,462.5h47.8v-87.3H662c-6.4,0-11.6,5.2-11.6,11.6V462.5z"/>
			
				<rect x="663.2" y="375.2" transform="matrix(-1 -1.224647e-16 1.224647e-16 -1 1345.3342 768.1512)" class="st21" width="19" height="17.7"/>
		</g>
		<path class="st16" d="M646.7,284.1c-0.1-2.6,0.6-5.2,2-7.5c1.8-2.9,5-5.2,8.4-5c3.4,0.2,6.5,3.7,5.5,7c-0.5,1.6-1.7,2.7-2.9,3.9
			c-2.6,2.4-5.1,4.8-7.7,7.2c-2.5-1.7-4.6-4-6-6.7"/>
		<path class="st16" d="M602,298.1c-1.1-2.4-2.9-4.5-5.2-5.9c-2.9-1.9-6.8-2.6-9.8-0.9c-3,1.7-4.2,6.2-1.8,8.7
			c1.1,1.2,2.8,1.7,4.4,2.2c3.4,1.1,6.8,2.1,10.1,3.2c1.4-2.6,2.3-5.6,2.4-8.6"/>
		<path class="st16" d="M595.8,300.1c9.6,17.5,24.7,33.8,40.8,28.8c16.1-4.9,18.8-23.3,17.4-46.7c-1.3-21.7-24.7-33.8-40.8-28.8
			C597.1,258.3,585.1,280.8,595.8,300.1z"/>
		<path d="M639.6,261.8c-1.3-1.5-2.7-2.9-4.5-3.5c-4.4-1.5-8.3,3.3-9.1,8.1c-0.8,4.8,0.2,9.9-0.7,14.7c-2.8-4.2-5.2-8.7-7.2-13.4
			c-1.7-4.2-7.4-3.9-8.5,0.4c-1.4,5.8-1.2,12.2,0.7,18l-9.5-12.9c-1,4.2-1.1,8.6-0.2,13l-5.5-4.3c-0.7,7.7,0.5,15.7,3.4,23
			c-4.3-6.4-8.5-12.7-12.8-19.1c-2.4-3.6-4.9-7.4-6-11.6c-1.1-4.3-0.6-9.2,2.3-12c2.7-2.6,6.6-2.8,9.9-4.4
			c4.3-2.2,7.1-6.8,10.2-10.7c4-5,9-9.3,15-11.1c6-1.8,13-0.9,18.1,3.5c3.8,3.2,6.6,8.1,11.1,9.5c8.2,2.5,19.4,1.7,10,13.7
			c-5.5,7-3.3,13.7-3,21.7C649.4,276.1,645.6,268.5,639.6,261.8z"/>
		<path d="M552.6,434.3l30.5,10.6c1.5,0.5,3.2-0.3,3.9-1.8l3.8-8.7c0.6-1.5,0-3.1-1.5-3.7l-30.5-10.6c-1.5-0.5-3.2,0.3-3.9,1.8
			l-3.8,8.7C550.4,432.1,551.1,433.8,552.6,434.3z"/>
		<g>
			<path class="st16" d="M449.6,377.1c0.7-0.9,1.9-1.2,3-1c8.4,1.7,16.2,4.7,21.9,7c0.1,0.1-0.4,0.1-0.5,0
				c-4.3-4.1-9.7-7.6-15.8-10.1c-1.6-0.7-3.2-1.3-4.4-2.4c-0.6-0.5-1-1.2-1.1-1.9c-0.2-1,1.1-1.8,2.4-1.6c6.8,1.2,11.8,4.4,17.6,7.8
				c2.3,1.4,4.1,3.6,6.8,4.2c0.4,0.1,0.6-0.2,0.4-0.4c-2.5-2.9-5.5-5.6-8.7-8.1c-2-1.5-3.9-2.9-5.4-4.7c-1.1-1.3-2-2.8-2.1-4.2
				c0-1,1.4-1.7,2.6-1.3c2.5,0.9,4.6,2.5,6.5,4.1c4.5,3.7,8.6,7.5,13.1,11.2c0.7,0.6,3.1,3,4,3.1c0.5,0,0-2.1-0.1-2.4
				c-0.8-1.9-1.7-2.9-2.3-4.6c-0.4-1.1-2-3-1.9-4.5c0-0.7,1-1.1,1.8-0.8c0.6,0.2,1.1,0.5,1.7,0.8c2.3,1.4,4.1,3.7,5.5,5.5
				c1.8,2.4,3.3,4.8,5.1,7.2c1.6,2.2,3.2,4.5,4,7c4.1,11.5,21.5,18.5,31,26c4,3.1,33.3,20.1,39.5,33.3c2.5,5.4,1.2,10.2-7.4,13.2
				c-8.3,2.9-17.9-4.7-22.4-8.9c-12.7-12.1-25.2-24.4-38.1-36.4c-10.5-9.8-22.5-22.1-38.8-22.1c0,0-11.9-0.9-11.9-0.9
				c-1.7-0.1-2.4-1.8-1.1-2.6c1.8-1,4.9-1.3,7.3-1.1c3.4,0.3,6.7,1.1,9.9,0.7c0.6-0.1,0.8-0.6,0.3-0.9c-4.3-2.6-9.8-3.7-14.9-5.4
				c-3.3-1.1-3.4-1.3-6.1-2C449.6,379.3,448.9,378.1,449.6,377.1z"/>
			<path class="st22" d="M476.4,389.6C476.4,389.6,476.4,389.6,476.4,389.6c-0.2,0-0.3-0.2-0.3-0.3c0.4-4.5,4.5-8.5,9.6-9.4
				c0.2,0,0.3,0.1,0.4,0.2c0,0.2-0.1,0.3-0.2,0.4c-4.8,0.9-8.7,4.7-9.1,8.8C476.7,389.5,476.6,389.6,476.4,389.6z"/>
			<path class="st23" d="M494.3,390.8c-0.1,0-0.1,0-0.2-0.1c-3.2-2.5-4.8-6.5-4.1-10.1c0-0.2,0.2-0.3,0.4-0.2c0.2,0,0.3,0.2,0.2,0.4
				c-0.7,3.4,0.8,7.2,3.8,9.5c0.1,0.1,0.2,0.3,0.1,0.4C494.5,390.8,494.4,390.8,494.3,390.8z"/>
		</g>
		<g>
			<path class="st0" d="M447.9,376.6c0.4-0.7,1.3-1.3,2.2-1.5c1.2-0.3,2.4-0.1,3.6,0.1c7.2,1.4,13.8,4.6,20.2,7.8
				c-1.7-1.1-3.4-2.3-5.2-3.4c-3.7-2.5-7.4-4.9-11.6-6.6c-2.5-1-5.3-1.9-6.4-4.2c-0.2-0.4-0.3-0.8-0.2-1.2c0.3-0.9,1.6-1.1,2.7-1
				c9.2,0.9,16.7,7.1,24.9,11.2c-5-5.2-11.8-9-15.7-15c-0.5-0.8-1-1.6-1-2.6c0-0.9,0.7-1.9,1.7-2c0.6-0.1,1.3,0.2,1.8,0.5
				c1.9,1.1,3.7,2.3,5.4,3.6c6.3,4.7,12.4,9.7,18.1,15c0-4-4.3-7.2-4.3-11.2c0-1,0.5-2.3,1.7-2.3c0.4,0,0.9,0.2,1.3,0.4
				c3.2,1.7,5,4.1,7.3,6.6c2.2,2.5,4,5.1,5.8,7.8c3.4,5.4,6.5,11.2,11.1,15.8c0.8,0.8,1.7,1.6,2.6,2.3c-4.8,4.1-9.6,8.2-14.4,12.3
				c-7.5-6.1-15.4-12.4-24.9-15c-5.9-1.6-12.1-1.8-18.2-2.6c-1-0.1-1.9-0.3-2.8-0.8c-0.8-0.5-1.4-1.4-1.1-2.3c0.3-1,1.6-1.5,2.7-1.7
				c5.2-0.9,10.5,1,15.7,0.4c-5.9-2.4-12.1-4.4-18.4-5.8c-1.2-0.3-2.4-0.5-3.4-1.2c-1-0.6-1.8-1.8-1.6-2.9
				C447.6,377.1,447.7,376.8,447.9,376.6z"/>
		</g>
		<polygon class="st10" points="601.6,408.6 617,400.4 609,387.5 593.6,395.7 		"/>
		<polygon class="st4" points="601.4,406.3 619.1,404.6 617.5,389.8 599.8,391.5 		"/>
		<path d="M612.8,420.6L612.8,420.6c6.1-1.2,10.1-6.8,8.8-12.5l-2.2-9.6l-22.2,4.3l2.2,9.6C600.6,418.2,606.7,421.8,612.8,420.6z"/>
		<g>
			<path class="st24" d="M692.5,737.4c0,0,10.8,18.2-27.4,1.2c0,0-5.7,20.8,6.9,23.8c12.6,2.9,49.9,9.6,49.9,9.6s28.6,2.6,0.2-16.7
				C693.8,735.9,692.5,737.4,692.5,737.4z"/>
			<path class="st0" d="M706.9,745.8c0,0.5,0.1,1,0.1,1.5c0,0.5,0,1-0.1,1.4c-0.1,0.4-0.4,0.8-0.7,1.1c-0.3,0.3-0.8,0.4-1.3,0.6
				c-1,0.3-2.1,0.6-3.1,0.8c-1.1,0.2-2.1,0.3-3.3,0.4c1.1,0.3,2.2,0.4,3.4,0.3c1.1-0.1,2.3-0.3,3.3-0.6c0.5-0.2,1.1-0.4,1.6-0.8
				c0.5-0.4,0.8-1,0.8-1.6c0.1-0.6,0-1.1-0.1-1.6C707.3,746.7,707.1,746.2,706.9,745.8z"/>
			<path class="st0" d="M713.2,749.9c0.1,0.8-0.2,1.5-0.6,2.2c-0.4,0.6-0.9,1.2-1.6,1.6c-0.6,0.4-1.4,0.8-2.1,1.1
				c-0.8,0.3-1.6,0.6-2.4,0.9c0.9,0,1.8,0,2.6-0.2c0.9-0.2,1.7-0.5,2.5-1c0.8-0.5,1.4-1.2,1.7-2c0.2-0.4,0.3-0.8,0.2-1.3
				C713.6,750.6,713.5,750.2,713.2,749.9z"/>
			<path class="st0" d="M719.4,753.6c0.1,0.4,0.1,0.8,0,1.2c-0.1,0.4-0.2,0.7-0.4,1c-0.2,0.3-0.4,0.6-0.7,0.8
				c-0.3,0.2-0.6,0.4-0.9,0.5c-0.7,0.3-1.5,0.4-2.4,0.6c-0.8,0.2-1.7,0.4-2.5,0.8c0.9,0.1,1.7,0,2.6,0c0.8-0.1,1.7-0.1,2.6-0.5
				c0.4-0.2,0.9-0.4,1.2-0.7c0.3-0.3,0.6-0.7,0.8-1.2c0.1-0.4,0.2-0.9,0.1-1.3C719.8,754.3,719.7,753.9,719.4,753.6z"/>
		</g>
		<g>
			<path class="st24" d="M610.2,739.1c0,0,10.8,18.2-27.4,1.2c0,0-5.7,20.8,6.9,23.8c12.6,2.9,49.9,9.6,49.9,9.6s28.6,2.6,0.2-16.7
				C611.5,737.6,610.2,739.1,610.2,739.1z"/>
			<path class="st0" d="M624.5,747.5c0,0.5,0.1,1,0.1,1.5c0,0.5,0,1-0.1,1.4c-0.1,0.4-0.4,0.8-0.7,1.1c-0.3,0.3-0.8,0.4-1.3,0.6
				c-1,0.3-2.1,0.6-3.1,0.8c-1.1,0.2-2.1,0.3-3.3,0.4c1.1,0.3,2.2,0.4,3.4,0.3c1.1-0.1,2.3-0.3,3.3-0.6c0.5-0.2,1.1-0.4,1.6-0.8
				c0.5-0.4,0.8-1,0.8-1.6c0.1-0.6,0-1.1-0.1-1.6C625,748.4,624.8,747.9,624.5,747.5z"/>
			<path class="st0" d="M630.9,751.6c0.1,0.8-0.2,1.5-0.6,2.2c-0.4,0.6-0.9,1.2-1.6,1.6c-0.6,0.4-1.4,0.8-2.1,1.1
				c-0.8,0.3-1.6,0.6-2.4,0.9c0.9,0,1.8,0,2.6-0.2c0.9-0.2,1.7-0.5,2.5-1c0.8-0.5,1.4-1.2,1.7-2c0.2-0.4,0.3-0.8,0.2-1.3
				C631.2,752.4,631.1,751.9,630.9,751.6z"/>
			<path class="st0" d="M637,755.3c0.1,0.4,0.1,0.8,0,1.2c-0.1,0.4-0.2,0.7-0.4,1c-0.2,0.3-0.4,0.6-0.7,0.8
				c-0.3,0.2-0.6,0.4-0.9,0.5c-0.7,0.3-1.5,0.4-2.4,0.6c-0.8,0.2-1.7,0.4-2.5,0.8c0.9,0.1,1.7,0,2.6,0c0.8-0.1,1.7-0.1,2.6-0.5
				c0.4-0.2,0.9-0.4,1.2-0.7c0.3-0.3,0.6-0.7,0.8-1.2c0.1-0.4,0.2-0.9,0.1-1.3C637.5,756,637.3,755.6,637,755.3z"/>
		</g>
		
			<linearGradient id="SVGID_1_" gradientUnits="userSpaceOnUse" x1="4017.7268" y1="748.1187" x2="4025.0593" y2="748.1187" gradientTransform="matrix(-1 0 0 1 4688.7739 0)">
			<stop  offset="0" style="stop-color:#FC6047"/>
			<stop  offset="1" style="stop-color:#E54838"/>
		</linearGradient>
		<path class="st25" d="M664.9,739c0,0,9.7,9.9,4.7,18.3l-5-2.4C664.6,754.9,662.4,750.4,664.9,739z"/>
		<path class="st24" d="M733.6,765.1c0.9,1.1-4.1,2.7-4.6,2.8c-6.3,1-14.5-1.9-20.8-3.1c-4.2-0.8-8.4-1.6-12.6-2.4
			c-3.9-0.7-7.8-1.4-11.7-2.2c-7.1-1.3-13.1-1.9-19.2-5.6c-0.3,6,6.9,8.4,12.2,9l39.3,7.5c0,0,12.8,2.5,16.1,0.2
			C735.5,769.1,736,768,733.6,765.1z"/>
		
			<linearGradient id="SVGID_2_" gradientUnits="userSpaceOnUse" x1="4099.9761" y1="749.8419" x2="4107.3086" y2="749.8419" gradientTransform="matrix(-1 0 0 1 4688.7739 0)">
			<stop  offset="0" style="stop-color:#FC6047"/>
			<stop  offset="1" style="stop-color:#E54838"/>
		</linearGradient>
		<path class="st26" d="M582.7,740.7c0,0,9.7,9.9,4.7,18.3l-5-2.4C582.4,756.6,580.1,752.1,582.7,740.7z"/>
		<path class="st24" d="M651.4,767c0.9,1.1-4.1,2.7-4.6,2.8c-6.3,1-14.5-1.9-20.8-3.1c-4.2-0.8-8.4-1.6-12.6-2.4
			c-3.9-0.7-7.8-1.4-11.7-2.2c-7.1-1.3-13.3-2.2-19.5-5.8c-0.3,6,7.2,8.7,12.5,9.2L634,773c0,0,12.8,2.5,16.1,0.2
			C653.3,771,653.8,769.8,651.4,767z"/>
		<g>
			<path class="st0" d="M653.9,291.8l-24.7,0.4c-2.6,0-5.1,0.9-7.1,2.5l-19.8,15.6c0,0,8.1,18,29.8,19.5c2.7,0.2,5.4-0.4,7.7-1.7
				C646.3,324.3,658.4,314.1,653.9,291.8z"/>
			<path class="st10" d="M638.3,296.4c-1.5-0.2-3-0.4-4.5-0.5c-0.8,0-1.5-0.1-2.3-0.1c-0.8,0-1.6,0.1-2.4,0.2
				c-0.8,0.2-1.5,0.4-2.2,0.8c-0.7,0.4-1.4,0.8-1.9,1.3c-0.1,0.1-0.3,0.3-0.4,0.4l-0.4,0.4c-0.3,0.3-0.5,0.5-0.8,0.8
				c-0.5,0.5-1,1.1-1.5,1.6c0.6-0.4,1.3-0.8,1.9-1.2c0.3-0.2,0.6-0.4,0.9-0.6l0.4-0.3l0.4-0.3c0.6-0.4,1.2-0.7,1.8-1
				c0.6-0.3,1.3-0.5,2-0.6c0.7-0.1,1.4-0.2,2.1-0.3c0.7,0,1.5-0.1,2.3-0.1C635.3,296.8,636.8,296.6,638.3,296.4z"/>
		</g>
	</g>
	<g>
		<path class="st0" d="M733.6,404.4h23.8l1.5-2.3h-25.2c-0.7,0-1.3,0.1-1.8,0.3c-0.5,0.2-1,0.4-1.3,0.8c-0.4,0.3-0.6,0.7-0.8,1.2
			c-0.2,0.5-0.3,1-0.3,1.5c0,0.5,0.1,1.1,0.3,1.5c0.2,0.5,0.5,0.9,0.8,1.2c0.4,0.3,0.8,0.6,1.3,0.8c0.5,0.2,1.1,0.3,1.7,0.3h6.3
			c0.6,0,1.1,0.1,1.5,0.4c0.3,0.3,0.5,0.7,0.5,1.3c0,0.5-0.2,0.9-0.5,1.3c-0.3,0.3-0.8,0.5-1.5,0.5h-20.2l-1.4,2.3h14.9
			c0.9-1.1,2.3-1.7,3.8-1.7c1.5,0,2.8,0.7,3.7,1.7c0.4,0,0.8-0.1,1.1-0.2c0.5-0.2,1-0.5,1.3-0.8c0.4-0.3,0.6-0.8,0.8-1.2
			c0.2-0.5,0.3-1,0.3-1.6c0-1.3-0.4-2.3-1.1-2.9c-0.7-0.6-1.8-1-3.2-1h-6.2c-0.5,0-0.9-0.1-1.2-0.4c-0.3-0.3-0.5-0.7-0.5-1.2
			c0-0.5,0.2-0.9,0.4-1.2C732.6,404.6,733.1,404.4,733.6,404.4"/>
		<polygon class="st0" points="744.3,402.1 744.3,415.4 746.7,415.4 746.7,404.4 757.4,404.4 758.8,402.1 		"/>
		<polygon class="st0" points="755.3,407.9 754.1,409.9 748.4,409.9 748.4,407.9 		"/>
		<polygon class="st0" points="766.1,412.1 759.6,412.1 760.8,410.2 764.9,410.2 		"/>
		<path class="st0" d="M784,408.6c-0.7-0.6-1.8-1-3.2-1h-6.2c-0.5,0-0.9-0.1-1.2-0.4c-0.3-0.3-0.5-0.7-0.5-1.2
			c0-0.5,0.1-0.9,0.4-1.2c0.3-0.3,0.7-0.4,1.3-0.4H798l1.4-2.3l-24.8,0c-0.7,0-1.3,0.1-1.8,0.3c-0.5,0.2-1,0.4-1.3,0.8
			c-0.4,0.3-0.6,0.7-0.8,1.2c-0.2,0.5-0.3,1-0.3,1.5c0,0.5,0.1,1.1,0.3,1.5c0.2,0.5,0.5,0.9,0.8,1.2c0.4,0.3,0.8,0.6,1.3,0.8
			c0.5,0.2,1.1,0.3,1.7,0.3h6.3c0.6,0,1.1,0.1,1.5,0.4c0.3,0.3,0.5,0.7,0.5,1.3c0,0.5-0.2,0.9-0.5,1.3c-0.3,0.3-0.8,0.5-1.5,0.5
			l-14.2,0l1.4,2.4l6.7,0c0.9-1.1,2.3-1.7,3.8-1.7c1.4,0,2.8,0.6,3.6,1.6c0.2,0,0.4-0.1,0.5-0.2c0.5-0.2,1-0.5,1.3-0.8
			c0.4-0.3,0.6-0.8,0.8-1.2c0.2-0.5,0.3-1,0.3-1.6C785.1,410.2,784.8,409.3,784,408.6"/>
		<path class="st0" d="M763.1,402.7c-0.1-0.2-0.3-0.4-0.5-0.5c-0.2-0.1-0.4-0.2-0.7-0.2c-0.3,0-0.5,0.1-0.7,0.2
			c-0.2,0.1-0.4,0.3-0.5,0.5l-7.8,12.7h2.7l6.2-10.2l2.9,4.8l0.1,0.1l1.1,1.9h0l2,3.3h2.9L763.1,402.7z"/>
		<polygon class="st0" points="789.7,415.4 789.7,404.4 784.6,404.4 784.6,402.1 799.4,402.1 798,404.4 792.1,404.4 792.1,415.4 		
			"/>
		<path class="st0" d="M736.9,414.5c-2.4,0-4.4,1.9-4.4,4.3c0,2.4,2,4.3,4.4,4.3c2.4,0,4.4-1.9,4.4-4.3
			C741.2,416.4,739.3,414.5,736.9,414.5 M736.9,421.2c-1.3,0-2.4-1.1-2.4-2.5c0-1.4,1.1-2.5,2.4-2.5c1.3,0,2.4,1.1,2.4,2.5
			C739.3,420.1,738.2,421.2,736.9,421.2"/>
		<path class="st0" d="M778.5,414.5c-2.4,0-4.4,1.9-4.4,4.3c0,2.4,2,4.3,4.4,4.3c2.4,0,4.4-1.9,4.4-4.3
			C782.9,416.4,781,414.5,778.5,414.5 M778.5,421.2c-1.3,0-2.4-1.1-2.4-2.5c0-1.4,1.1-2.5,2.4-2.5c1.3,0,2.4,1.1,2.4,2.5
			C781,420.1,779.9,421.2,778.5,421.2"/>
		<path class="st0" d="M737.7,418.8c0,0.4-0.4,0.8-0.8,0.8c-0.5,0-0.8-0.4-0.8-0.8c0-0.4,0.4-0.8,0.8-0.8
			C737.3,417.9,737.7,418.3,737.7,418.8"/>
		<path class="st0" d="M779.4,418.8c0,0.4-0.4,0.8-0.8,0.8c-0.5,0-0.8-0.4-0.8-0.8c0-0.4,0.4-0.8,0.8-0.8
			C779,417.9,779.4,418.3,779.4,418.8"/>
		<path class="st0" d="M725.3,411.1h-7.1H725.3z"/>
		<path class="st0" d="M725.3,410.8h-7.1c-0.2,0-0.3,0.1-0.3,0.3c0,0.2,0.1,0.3,0.3,0.3h7.1c0.2,0,0.3-0.1,0.3-0.3
			c0-0.4-0.6-0.4-0.6,0L725.3,410.8h-7.1l0.3,0.3l-0.3,0.3h7.1C725.7,411.4,725.7,410.8,725.3,410.8"/>
		<path class="st0" d="M727.9,408h-7.1H727.9z"/>
		<path class="st0" d="M727.9,407.7h-7.1c-0.2,0-0.3,0.1-0.3,0.3c0,0.2,0.1,0.3,0.3,0.3h7.1c0.2,0,0.3-0.1,0.3-0.3
			c0-0.4-0.6-0.4-0.6,0L727.9,407.7h-7.1l0.3,0.3l-0.3,0.3h7.1C728.2,408.2,728.2,407.7,727.9,407.7"/>
		<path class="st0" d="M727.4,404.6h-7.1H727.4z"/>
		<path class="st0" d="M727.4,404.3h-7.1c-0.2,0-0.3,0.1-0.3,0.3c0,0.2,0.1,0.3,0.3,0.3h7.1c0.2,0,0.3-0.1,0.3-0.3
			c0-0.4-0.6-0.4-0.6,0L727.4,404.3h-7.1l0.3,0.3l-0.3,0.3h7.1C727.7,404.9,727.7,404.3,727.4,404.3"/>
		<polygon class="st0" points="748.4,417.3 746.6,421.8 746,421.8 746.3,419.7 745.5,421.8 744.9,421.8 745.6,417.3 746.2,417.3 
			745.7,420.2 746.7,417.3 747.3,417.3 746.8,420.2 747.8,417.3 		"/>
		<polygon class="st0" points="751.4,417.3 749.6,421.8 749,421.8 749.3,419.7 748.5,421.8 747.9,421.8 748.6,417.3 749.2,417.3 
			748.7,420.2 749.7,417.3 750.3,417.3 749.8,420.2 750.8,417.3 		"/>
		<polygon class="st0" points="754.4,417.3 752.6,421.8 752,421.8 752.3,419.7 751.5,421.8 750.9,421.8 751.6,417.3 752.2,417.3 
			751.6,420.2 752.7,417.3 753.3,417.3 752.7,420.2 753.8,417.3 		"/>
		<path class="st0" d="M753.9,421.9c-0.2,0-0.3-0.2-0.3-0.4c0-0.2,0.1-0.4,0.3-0.4c0.2,0,0.3,0.2,0.3,0.4
			C754.2,421.7,754.1,421.9,753.9,421.9"/>
		<path class="st0" d="M756.6,420.9c-0.1,0.3-0.2,0.5-0.4,0.7c-0.2,0.2-0.4,0.3-0.6,0.3c-0.3,0-0.4-0.1-0.5-0.3
			c-0.1-0.2-0.2-0.5-0.1-0.7l0.1-0.7h0.7l-0.2,0.8c0,0.1,0.1,0.1,0.1,0.1c0,0,0.1,0,0.1-0.1l0.1-0.6c0-0.2,0-0.2-0.1-0.4l-0.4-0.6
			c-0.1-0.2-0.1-0.3-0.1-0.6c0,0,0.1-0.6,0.1-0.6c0.1-0.3,0.2-0.5,0.4-0.7c0.2-0.2,0.4-0.2,0.6-0.2c0.3,0,0.4,0.1,0.5,0.2
			c0.1,0.2,0.2,0.5,0.1,0.7l-0.1,0.7h-0.7l0.1-0.7c0-0.1,0-0.1-0.1-0.1c0,0-0.1,0-0.1,0.1l-0.1,0.5c0,0.2,0,0.3,0.1,0.4l0.4,0.6
			c0.1,0.2,0.1,0.4,0,0.7L756.6,420.9z"/>
		<polygon class="st0" points="758.1,417.3 759.5,417.3 759.4,418 758.7,418 758.5,419.3 758.9,419.3 758.8,419.9 758.3,419.9 
			757.9,421.8 757.2,421.8 		"/>
		<path class="st0" d="M760.1,421.8l0.1-0.7h-0.4l-0.2,0.7h-0.7l1.5-4.6h0.7l-0.3,4.6H760.1L760.1,421.8z M760.3,420.5l0.2-1.8
			l-0.5,1.8H760.3z"/>
		<path class="st0" d="M763.2,420.9c-0.1,0.3-0.2,0.5-0.4,0.7c-0.2,0.2-0.4,0.3-0.6,0.3c-0.3,0-0.4-0.1-0.5-0.3
			c-0.1-0.2-0.2-0.5-0.1-0.7l0.1-0.7h0.7l-0.2,0.8c0,0.1,0.1,0.1,0.1,0.1c0,0,0.1,0,0.1-0.1l0.1-0.6c0-0.2,0-0.2-0.1-0.4l-0.4-0.6
			c-0.1-0.2-0.1-0.3-0.1-0.6c0,0,0.1-0.6,0.1-0.6c0.1-0.3,0.2-0.5,0.4-0.7c0.2-0.2,0.4-0.2,0.6-0.2c0.3,0,0.4,0.1,0.5,0.2
			c0.1,0.2,0.2,0.5,0.1,0.7l-0.1,0.7h-0.7l0.1-0.7c0-0.1,0-0.1-0.1-0.1c0,0-0.1,0-0.1,0.1l-0.1,0.5c0,0.2,0,0.3,0.1,0.4l0.4,0.6
			c0.1,0.2,0.1,0.4,0,0.7L763.2,420.9z"/>
		<polygon class="st0" points="764.9,418 764.4,418 764.5,417.3 766.2,417.3 766.1,418 765.6,418 764.8,421.8 764.1,421.8 		"/>
		<path class="st0" d="M766.1,421.9c-0.2,0-0.3-0.2-0.3-0.4c0-0.2,0.1-0.4,0.3-0.4c0.2,0,0.3,0.2,0.3,0.4
			C766.4,421.7,766.2,421.9,766.1,421.9"/>
		<path class="st0" d="M768.1,420h0.7l-0.2,0.9c-0.1,0.3-0.2,0.5-0.5,0.7c-0.2,0.2-0.4,0.2-0.7,0.2c-0.2,0-0.4-0.1-0.5-0.2
			c-0.1-0.2-0.1-0.4,0-0.7l0.7-2.7c0.1-0.3,0.2-0.5,0.5-0.7c0.2-0.2,0.4-0.2,0.7-0.2c0.2,0,0.4,0.1,0.5,0.2c0.1,0.2,0.1,0.4,0.1,0.7
			l-0.3,0.9h-0.7l0.3-1c0-0.1-0.1-0.1-0.1-0.1c0,0-0.1,0-0.2,0.1l-0.8,2.8c0,0.1,0.1,0.1,0.1,0.1c0,0,0.1,0,0.2-0.1L768.1,420z"/>
		<polygon class="st0" points="769.8,417.3 770.6,417.3 769.5,421 770.2,421 770,421.8 768.6,421.8 		"/>
	</g>
	<g>
		
			<linearGradient id="SVGID_3_" gradientUnits="userSpaceOnUse" x1="-666.7948" y1="-1647.2681" x2="-660.9285" y2="-1647.2681" gradientTransform="matrix(-0.9316 0.3635 0.3635 0.9316 614.3552 2060.7366)">
			<stop  offset="0" style="stop-color:#000000"/>
			<stop  offset="1" style="stop-color:#1A1A1A"/>
		</linearGradient>
		<path class="st27" d="M631.4,285.9c1.1,2.7,3.1,4.4,4.7,3.9c1.5-0.6,1.9-3.3,0.8-6c-1.1-2.7-3.1-4.4-4.7-3.9
			C630.7,280.5,630.3,283.2,631.4,285.9z"/>
		
			<linearGradient id="SVGID_4_" gradientUnits="userSpaceOnUse" x1="-645.0131" y1="-1647.9652" x2="-639.1468" y2="-1647.9652" gradientTransform="matrix(-0.9316 0.3635 0.3635 0.9316 614.3552 2060.7366)">
			<stop  offset="0" style="stop-color:#000000"/>
			<stop  offset="1" style="stop-color:#1A1A1A"/>
		</linearGradient>
		<path class="st28" d="M610.8,293.2c1.1,2.7,3.1,4.4,4.7,3.9c1.5-0.6,1.9-3.3,0.8-6s-3.1-4.4-4.7-3.9
			C610.1,287.8,609.8,290.5,610.8,293.2z"/>
		<circle class="st0" cx="634.1" cy="281.9" r="1.3"/>
		<path class="st0" d="M612.3,289.7c0.3,0.7,1.1,1,1.7,0.8c0.7-0.3,1-1.1,0.8-1.7c-0.3-0.7-1.1-1-1.7-0.8
			C612.4,288.2,612.1,289,612.3,289.7z"/>
		<g>
			
				<linearGradient id="SVGID_5_" gradientUnits="userSpaceOnUse" x1="-668.3718" y1="-1655.5193" x2="-663.0386" y2="-1655.5193" gradientTransform="matrix(-0.9316 0.3635 0.3635 0.9316 614.3552 2060.7366)">
				<stop  offset="0" style="stop-color:#000000"/>
				<stop  offset="1" style="stop-color:#1A1A1A"/>
			</linearGradient>
			<path class="st29" d="M634.9,276.9c-0.1-0.1-0.2-0.1-0.2-0.2c0,0-0.1-0.1-0.1-0.1c0,0,0,0-0.1,0c0,0,0.1,0.1,0.1,0c0,0,0,0-0.1,0
				c-0.1-0.1-0.2-0.1-0.4-0.2c-0.1-0.1-0.3-0.1-0.4-0.2c0.2,0.1,0,0,0,0c0,0-0.1,0-0.1,0c-0.1,0-0.2,0-0.3,0c-0.1,0-0.2,0-0.3,0
				c0,0-0.1,0,0,0c0,0,0,0-0.1,0c-0.1,0-0.1,0-0.2,0c-0.1,0-0.2,0-0.3,0c0,0-0.1,0-0.1,0c0,0-0.1,0-0.1,0c-0.1,0,0.1,0,0,0
				c-0.3,0.1-0.5,0.2-0.7,0.3c-0.1,0.1,0.1-0.1,0,0c0,0-0.1,0-0.1,0.1c-0.1,0-0.1,0.1-0.2,0.1c-0.1,0.1-0.3,0.2-0.4,0.3
				c-0.2,0.2-0.6,0.1-0.7-0.1c-0.2-0.2-0.1-0.5,0.1-0.7c0.8-0.7,1.9-1.1,3-1c0.7,0.1,1.4,0.3,2,0.7c0.1,0.1,0.2,0.1,0.3,0.2
				c0.2,0.2,0.3,0.5,0.1,0.7C635.4,277,635.1,277.1,634.9,276.9L634.9,276.9z"/>
		</g>
		<g>
			
				<linearGradient id="SVGID_6_" gradientUnits="userSpaceOnUse" x1="-643.9839" y1="-1655.8606" x2="-638.6423" y2="-1655.8606" gradientTransform="matrix(-0.9316 0.3635 0.3635 0.9316 614.3552 2060.7366)">
				<stop  offset="0" style="stop-color:#000000"/>
				<stop  offset="1" style="stop-color:#1A1A1A"/>
			</linearGradient>
			<path class="st30" d="M607.8,286.6c0-0.4,0.2-0.8,0.3-1.1c0.4-0.8,1-1.5,1.7-1.9c0.6-0.3,1.2-0.4,1.8-0.4c0.3,0,0.5,0.2,0.5,0.4
				c0,0.3-0.2,0.5-0.4,0.5c-0.3,0-0.6,0-0.8,0.1c-0.1,0,0.1,0,0,0c0,0-0.1,0-0.1,0c-0.1,0-0.1,0-0.2,0.1c-0.1,0-0.2,0.1-0.3,0.1
				c0,0-0.1,0-0.1,0.1c0,0-0.1,0,0,0c0,0-0.1,0-0.1,0c-0.1,0.1-0.2,0.1-0.3,0.2c-0.1,0.1-0.2,0.1-0.2,0.2c0,0,0,0-0.1,0
				c-0.1,0.1,0,0,0,0c0,0-0.1,0.1-0.1,0.1c-0.1,0.1-0.2,0.3-0.3,0.4c0,0,0,0,0,0.1c0,0,0,0.1,0,0c0,0,0,0.1-0.1,0.1
				c0,0.1-0.1,0.1-0.1,0.2c-0.1,0.1-0.1,0.2-0.2,0.4c0,0.1,0,0.1-0.1,0.2c0.1-0.2,0,0,0,0.1c0,0.1-0.1,0.2-0.1,0.4
				c0,0.3-0.3,0.5-0.6,0.4C607.9,287.1,607.8,286.9,607.8,286.6L607.8,286.6z"/>
		</g>
	</g>
</g>
</svg>
