<?xml version="1.0" encoding="utf-8"?>
<!-- Generator: Adobe Illustrator 22.0.0, SVG Export Plug-In . SVG Version: 6.00 Build 0)  -->
<svg version="1.1" id="Capa_1" xmlns="http://www.w3.org/2000/svg" xmlns:xlink="http://www.w3.org/1999/xlink" x="0px" y="0px"
	 viewBox="0 0 150 150" style="enable-background:new 0 0 150 150;" xml:space="preserve">
<style type="text/css">
	.st0{fill:#2F2F41;}
</style>
<path class="st0" d="M113.6,102.1h-11l-1.8-3.3h9.9L113.6,102.1z M91.8,104.8h8.6v5.7l-3.7-1.9c-0.2-0.1-0.4-0.2-0.6-0.2
	s-0.4,0.1-0.6,0.2l-3.7,1.9V104.8z M50.7,104.8h8.6v5.7l-3.7-1.9c-0.2-0.1-0.4-0.2-0.6-0.2c-0.2,0-0.4,0.1-0.6,0.2l-3.7,1.9V104.8z
	 M71.5,72.1h8.1v5.3l-3.4-1.8c-0.2-0.1-0.4-0.2-0.6-0.2c-0.2,0-0.4,0.1-0.6,0.2l-3.4,1.8V72.1z M68.8,72.1v7.6
	c0,0.5,0.2,0.9,0.7,1.2c0.4,0.2,0.9,0.3,1.3,0l4.8-2.5l4.8,2.5C80.6,81,80.8,81,81,81c0.2,0,0.5-0.1,0.7-0.2
	c0.4-0.2,0.7-0.7,0.7-1.2v-7.6h11.5v29.8H57.2V72.1H68.8z M97.6,98.8l1.8,3.3h-2.8v-3.3H97.6z M92.2,69.3H81.8l-1.7-3h9.4L92.2,69.3
	z M77,66.3l1.7,3h-6.2l1.7-3H77z M61.7,66.3H71l-1.7,3H58.9L61.7,66.3z M54.5,102.1h-2.8l1.8-3.3h1V102.1z M40.5,98.8h9.9l-1.8,3.3
	h-11L40.5,98.8z M35.9,104.8H48v8c0,0.5,0.2,0.9,0.7,1.2c0.4,0.2,0.9,0.3,1.3,0l5-2.6l5,2.6c0.2,0.1,0.4,0.2,0.6,0.2
	c0.2,0,0.5-0.1,0.7-0.2c0.4-0.2,0.7-0.7,0.7-1.2v-8h12.1V136H35.9V104.8z M115.3,136H77v-31.2h12.1v8c0,0.5,0.2,0.9,0.7,1.2
	c0.4,0.2,0.9,0.3,1.3,0l5-2.6l5,2.6c0.2,0.1,0.4,0.2,0.6,0.2c0.2,0,0.5-0.1,0.7-0.2c0.4-0.2,0.7-0.7,0.7-1.2v-8h12.1V136z"/>
<path class="st0" d="M143.3,16.2c-0.4-0.3-1-0.5-1.5-0.5h0c-0.2,0-0.4,0-0.5,0.1L40.2,27.3v-8.5c0-0.8-0.4-1.6-1.2-2.1
	c-0.7-0.4-1.6-0.5-2.4-0.1l-9.8,4.9c-0.8,0.4-1.4,1.3-1.4,2.2v6L7.8,34C6.8,34.3,6,35.2,6,36.3v8.6c0,0.8,0.4,1.5,0.9,1.9
	c0.4,0.3,1,0.5,1.5,0.5c0.2,0,0.4,0,0.6-0.1l6.7-1.2v87.3c0,1.3,1.1,2.4,2.4,2.4h7.3V55.7h99.1v80.2h7.3c1.3,0,2.4-1.1,2.4-2.4V32.3
	l7.9-2.1c1.1-0.3,1.8-1.3,1.8-2.4v-9.8C144.2,17.3,143.8,16.6,143.3,16.2z M102,43.5c-3.2,0-5.8-2.6-5.8-5.8c0-3.2,2.6-5.8,5.8-5.8
	c3.2,0,5.8,2.6,5.8,5.8C107.9,40.9,105.3,43.5,102,43.5z M118.1,43.5c-3.2,0-5.8-2.6-5.8-5.8c0-3.2,2.6-5.8,5.8-5.8
	c3.2,0,5.8,2.6,5.8,5.8C123.9,40.9,121.3,43.5,118.1,43.5z"/>
</svg>
