<?xml version="1.0" encoding="utf-8"?>
<!-- Generator: Adobe Illustrator 22.0.0, SVG Export Plug-In . SVG Version: 6.00 Build 0)  -->
<svg version="1.1" id="Capa_1" xmlns="http://www.w3.org/2000/svg" xmlns:xlink="http://www.w3.org/1999/xlink" x="0px" y="0px"
	 viewBox="0 0 150 150" style="enable-background:new 0 0 150 150;" xml:space="preserve">
<style type="text/css">
	.st0{fill:#2F2F41;}
	.st1{fill:#FFFFFF;}
</style>
<g>
	<path class="st0" d="M33.1,111.4c7.3,0,13.4,5.3,14.6,12.2h49.1V57H10.7v66.7h7.8C19.7,116.7,25.8,111.4,33.1,111.4z"/>
	<path class="st0" d="M42.7,126.3c0-5.3-4.3-9.6-9.6-9.6s-9.6,4.3-9.6,9.6c0,5.3,4.3,9.6,9.6,9.6S42.7,131.6,42.7,126.3z"/>
	<path class="st0" d="M121.5,111.4c7.3,0,13.4,5.3,14.6,12.2h4.8v-23.3l-17-24.8h-22v48.1h4.8C108.2,116.7,114.2,111.4,121.5,111.4z
		 M110.3,83.5h9.2l8.3,11.7h-17.5V83.5z"/>
	<path class="st0" d="M131.1,126.3c0-5.3-4.3-9.6-9.6-9.6s-9.6,4.3-9.6,9.6c0,5.3,4.3,9.6,9.6,9.6S131.1,131.6,131.1,126.3z"/>
</g>
<g>
	<path class="st0" d="M42.8,12.7c-11.6,0-21,10.2-21,22.7c0,14,16.6,28.9,21,32.6c4.4-3.7,21-18.4,21-32.6
		C63.9,22.8,54.4,12.7,42.8,12.7z"/>
	<path class="st1" d="M42.8,70l-1-0.8c-5.1-4.3-21.6-19.3-21.6-33.8c0-13.4,10.1-24.2,22.6-24.2c12.5,0,22.6,10.9,22.6,24.2
		c0,14.7-16.5,29.6-21.6,33.8L42.8,70z M42.8,14.2c-10.7,0-19.5,9.5-19.5,21.1c0,12.5,14.6,26.3,19.5,30.6
		c4.9-4.2,19.5-17.9,19.5-30.6C62.3,23.7,53.6,14.2,42.8,14.2z"/>
</g>
<g>
	<g>
		<circle class="st0" cx="78.7" cy="115.4" r="22.8"/>
		<path class="st1" d="M78.7,140c-13.6,0-24.6-11.1-24.6-24.6s11.1-24.6,24.6-24.6s24.6,11.1,24.6,24.6S92.3,140,78.7,140z
			 M78.7,94.5c-11.5,0-20.9,9.4-20.9,20.9s9.4,20.9,20.9,20.9c11.5,0,20.9-9.4,20.9-20.9S90.3,94.5,78.7,94.5z"/>
	</g>
	<g>
		<path class="st1" d="M77.5,115.1v3H66.3c0.1-1.1,0.5-2.2,1.1-3.2c0.6-1,1.8-2.3,3.6-4c1.4-1.3,2.3-2.2,2.6-2.7
			c0.4-0.7,0.7-1.3,0.7-1.9c0-0.7-0.2-1.3-0.6-1.6c-0.4-0.4-0.9-0.6-1.6-0.6c-0.7,0-1.2,0.2-1.6,0.6c-0.4,0.4-0.6,1.1-0.7,2
			l-3.2-0.3c0.2-1.8,0.8-3,1.8-3.8c1-0.8,2.2-1.1,3.7-1.1c1.6,0,2.9,0.4,3.9,1.3c0.9,0.9,1.4,2,1.4,3.3c0,0.7-0.1,1.5-0.4,2.1
			c-0.3,0.7-0.7,1.4-1.3,2.1c-0.4,0.5-1.1,1.2-2.1,2.1c-1,0.9-1.6,1.5-1.9,1.8c-0.3,0.3-0.5,0.6-0.7,0.9H77.5z"/>
		<path class="st1" d="M85.8,118.1v-3.3h-6.8v-2.8l7.2-10.5h2.7v10.5H91v2.8h-2.1v3.3H85.8z M85.8,111.9v-5.7l-3.8,5.7H85.8z"/>
	</g>
	<g>
		<path class="st1" d="M66.5,129.1v-8.2h1.7v3.2h3.2v-3.2H73v8.2h-1.7v-3.6h-3.2v3.6H66.5z"/>
		<path class="st1" d="M75.3,129.1v-8.2h3.5c0.9,0,1.5,0.1,1.9,0.2c0.4,0.1,0.7,0.4,1,0.8c0.2,0.4,0.4,0.8,0.4,1.3
			c0,0.6-0.2,1.1-0.5,1.5c-0.4,0.4-0.9,0.7-1.6,0.8c0.4,0.2,0.7,0.4,0.9,0.7c0.2,0.2,0.5,0.7,0.9,1.3l1,1.6h-2l-1.2-1.8
			c-0.4-0.6-0.7-1-0.9-1.2c-0.2-0.2-0.3-0.3-0.5-0.3c-0.2-0.1-0.5-0.1-0.8-0.1h-0.3v3.4H75.3z M76.9,124.3h1.2c0.8,0,1.3,0,1.5-0.1
			c0.2-0.1,0.4-0.2,0.5-0.3c0.1-0.2,0.2-0.4,0.2-0.6c0-0.3-0.1-0.5-0.2-0.7c-0.1-0.2-0.4-0.3-0.6-0.3c-0.1,0-0.5,0-1.2,0h-1.3V124.3
			z"/>
		<path class="st1" d="M83.7,126.4l1.6-0.2c0.1,0.5,0.3,0.9,0.6,1.2c0.3,0.3,0.7,0.4,1.2,0.4c0.5,0,0.9-0.1,1.2-0.3
			c0.3-0.2,0.4-0.5,0.4-0.8c0-0.2-0.1-0.4-0.2-0.5c-0.1-0.1-0.3-0.3-0.6-0.4c-0.2-0.1-0.6-0.2-1.3-0.4c-0.9-0.2-1.5-0.5-1.9-0.8
			c-0.5-0.4-0.8-1-0.8-1.6c0-0.4,0.1-0.8,0.4-1.2c0.2-0.4,0.6-0.6,1-0.8c0.4-0.2,1-0.3,1.6-0.3c1,0,1.8,0.2,2.3,0.7
			c0.5,0.4,0.8,1.1,0.8,1.8l-1.7,0.1c-0.1-0.4-0.2-0.7-0.5-0.9c-0.2-0.2-0.6-0.3-1-0.3c-0.5,0-0.9,0.1-1.1,0.3
			c-0.2,0.1-0.3,0.3-0.3,0.5c0,0.2,0.1,0.4,0.2,0.5c0.2,0.2,0.7,0.4,1.5,0.5c0.8,0.2,1.4,0.4,1.8,0.6c0.4,0.2,0.7,0.5,0.9,0.8
			c0.2,0.4,0.3,0.8,0.3,1.3c0,0.5-0.1,0.9-0.4,1.3c-0.3,0.4-0.6,0.7-1.1,0.9c-0.5,0.2-1.1,0.3-1.8,0.3c-1,0-1.8-0.2-2.4-0.7
			C84.1,128,83.8,127.3,83.7,126.4z"/>
	</g>
</g>
<circle class="st1" cx="43" cy="33" r="7.2"/>
</svg>
