<?xml version="1.0" encoding="utf-8"?>
<!-- Generator: Adobe Illustrator 22.0.0, SVG Export Plug-In . SVG Version: 6.00 Build 0)  -->
<svg version="1.1" id="Capa_1" xmlns="http://www.w3.org/2000/svg" xmlns:xlink="http://www.w3.org/1999/xlink" x="0px" y="0px"
	 viewBox="0 0 150 150" style="enable-background:new 0 0 150 150;" xml:space="preserve">
<style type="text/css">
	.st0{fill:#2F2F41;}
	.st1{fill:#2F2F41;stroke:#FFFFFF;stroke-width:4;stroke-miterlimit:10;}
</style>
<g>
	<path class="st0" d="M78.4,41.5C78.5,41.5,78.5,41.5,78.4,41.5c0.1,0.1,0.2,0.1,0.2,0.2c0.1,0,0.1,0.1,0.2,0.1
		c0.1,0,0.1,0.1,0.2,0.1c0.1,0,0.1,0.1,0.2,0.1c0.1,0,0.1,0,0.2,0.1c0.1,0,0.2,0,0.3,0c0.1,0,0.1,0,0.2,0c0.1,0,0.2,0,0.3,0
		c0.1,0,0.1,0,0.2-0.1c0.1,0,0.1,0,0.2-0.1c0.1,0,0.1-0.1,0.2-0.1c0.1,0,0.1-0.1,0.2-0.1c0.1,0,0.1-0.1,0.2-0.1c0,0,0,0,0,0l7.6-6.9
		c1-0.9,1.2-2.7,0.4-3.9c-0.8-1.2-2.2-1.4-3.3-0.5l-3.8,3.5V16.3c0-1.5-1-2.8-2.3-2.8c-1.3,0-2.3,1.2-2.3,2.8v17.3l-3.8-3.5
		c-0.4-0.4-0.9-0.6-1.4-0.6c-0.7,0-1.4,0.4-1.9,1.1c-0.8,1.2-0.6,3,0.4,3.9L78.4,41.5z"/>
	<path class="st0" d="M114.9,129.9L108,122c-0.8-0.9-1.8-1.3-3-1.3H62.8c-1.5-4.2-5.3-7.3-9.8-7.8L39.7,45.1c-0.4-1.8-2-3.2-3.8-3.2
		l-15.8-0.2h-0.1c-2.2,0-3.9,1.7-3.9,3.9c0,2.2,1.7,4,3.9,4l12.6,0.2l12.6,64.9c-3.3,2.1-5.4,5.8-5.4,9.9c0,6.5,5.3,11.8,11.8,11.8
		c5.1,0,9.5-3.3,11.1-7.9h40.7l5.5,6.5c0.8,0.9,1.9,1.3,3,1.3c0.9,0,1.9-0.3,2.6-1C116.1,134,116.3,131.5,114.9,129.9z M51.7,128.9
		c-2.4,0-4.3-1.9-4.3-4.3c0-2.4,1.9-4.3,4.3-4.3c2.4,0,4.3,1.9,4.3,4.3C56,127,54,128.9,51.7,128.9z"/>
	<g>
		<path class="st0" d="M75.5,87.7h9v5.9l-3.8-2c-0.2-0.1-0.5-0.2-0.7-0.2c-0.2,0-0.5,0.1-0.7,0.2l-3.8,2V87.7z"/>
		<path class="st0" d="M72.5,87.7v8.4c0,0.5,0.3,1,0.7,1.3c0.5,0.3,1,0.3,1.5,0l5.3-2.8l5.3,2.8c0.2,0.1,0.5,0.2,0.7,0.2
			c0.3,0,0.5-0.1,0.8-0.2c0.5-0.3,0.7-0.8,0.7-1.3v-8.4h12.8v33.1H59.6V87.7H72.5z"/>
		<polygon class="st0" points="98.5,84.6 87,84.6 85.1,81.3 95.5,81.3 		"/>
		<polygon class="st0" points="81.6,81.3 83.5,84.6 76.6,84.6 78.5,81.3 		"/>
		<polygon class="st0" points="64.6,81.3 75,81.3 73.1,84.6 61.5,84.6 		"/>
	</g>
	<g>
		<path class="st0" d="M75.5,51.8h9v5.9l-3.8-2c-0.2-0.1-0.5-0.2-0.7-0.2c-0.2,0-0.5,0.1-0.7,0.2l-3.8,2V51.8z"/>
		<path class="st0" d="M72.5,51.8v8.4c0,0.5,0.3,1,0.7,1.3c0.5,0.3,1,0.3,1.5,0l5.3-2.8l5.3,2.8c0.2,0.1,0.5,0.2,0.7,0.2
			c0.3,0,0.5-0.1,0.8-0.2c0.5-0.3,0.7-0.8,0.7-1.3v-8.4h12.8v33.1H59.6V51.8H72.5z"/>
		<polygon class="st0" points="98.5,48.8 87,48.8 85.1,45.5 95.5,45.5 		"/>
		<polygon class="st0" points="81.6,45.5 83.5,48.8 76.6,48.8 78.5,45.5 		"/>
		<polygon class="st0" points="64.6,45.5 75,45.5 73.1,48.8 61.5,48.8 		"/>
	</g>
	<path class="st1" d="M126.5,99.7L123.3,87l9.7-8.2c0.6-0.5,0.9-1.2,0.9-1.9v0c0-0.2,0-0.5-0.1-0.7c-0.3-1-1.2-1.6-2.2-1.7
		l-12.3-0.7l-4.5-12.2c-0.4-1-1.3-1.6-2.3-1.6c-1,0-2,0.6-2.3,1.6l-4.5,12.2l-12.3,0.7c-1,0.1-1.9,0.7-2.2,1.7c-0.3,1,0,2,0.7,2.7
		l9.7,8.2l-3.2,12.7c-0.3,1,0.1,2,1,2.6c0.8,0.6,2,0.6,2.8,0l10.3-7l10.3,7c0.4,0.3,0.9,0.4,1.4,0.4c0.5,0,1-0.1,1.4-0.5
		C126.4,101.7,126.8,100.6,126.5,99.7z"/>
</g>
</svg>
